<svg width="141" height="40" fill="none" xmlns="http://www.w3.org/2000/svg"><path fill-rule="evenodd" clip-rule="evenodd" d="M141 0h-2v40h2V0zM13.248 28.616V16.808H7.392v11.808H2.528V16.808H0v-4.096h2.528v-1.376c0-3.648 2.208-6.144 6.08-6.144.8 0 1.792.128 2.24.352v3.968c-.224-.064-.672-.16-1.376-.16-.832 0-2.08.384-2.08 1.984v1.376h10.72v15.904h-4.864zm2.4-17.92c-1.536 0-2.816-1.28-2.816-2.848 0-1.6 1.28-2.848 2.816-2.848 1.6 0 2.88 1.248 2.88 2.848 0 1.568-1.28 2.848-2.88 2.848zm10.93-5.248v23.168h-4.863V5.448h4.863zm8.517 23.168V5.448H30.23v23.168h4.864zm22.264-16.38c-3.06 0-4.68 2.16-4.68 2.16V5.5h-2.7v23.116h2.7v-9.36c0-2.7 1.8-4.5 4.32-4.5 2.16 0 3.96 1.8 3.96 4.5v9.36h2.7v-9.36c0-4.14-2.88-7.02-6.3-7.02zm-16.751-.8c0 1.26-.72 1.98-1.98 1.98h-1.26v2.52h2.88v7.46c0 3.24 2.16 5.4 4.68 5.4 1.08 0 1.62-.36 1.62-.36v-2.34s-.36.18-.9.18c-1.62 0-2.7-1.08-2.7-2.88v-7.46h3.6v-2.52h-3.6v-5.32h-2.34v3.34zm28.272 10.34c.18 2.34 2.34 4.5 4.68 4.5 1.94 0 3.231-1.198 4.137-2.776l2.523.796c-1.08 2.34-3.24 4.5-6.66 4.5-4.14 0-7.56-3.42-7.56-8.28 0-4.86 3.42-8.28 7.38-8.28s7.2 3.24 7.2 8.1c0 .9-.18 1.44-.18 1.44H68.88zm8.82-2.34c-.36-2.88-2.16-4.68-4.32-4.68s-4.14 1.98-4.5 4.68h8.82zM94.75 5.448h4.8v20.32c0 1.44.096 2.496.128 2.848h-4.672a10.94 10.94 0 0 1-.128-1.536c-.736 1.088-2.336 1.888-4.256 1.888-4.48 0-7.872-3.456-7.872-8.352 0-4.736 3.2-8.288 7.712-8.288 2.72 0 3.904 1.024 4.288 1.632V5.448zm-3.52 11.264c-1.888 0-3.584 1.28-3.584 3.936 0 2.624 1.696 3.968 3.584 3.968 1.888 0 3.584-1.344 3.584-3.968 0-2.656-1.696-3.936-3.584-3.936zm15.775 3.936c0 2.656 1.76 3.968 3.584 3.968 1.856 0 3.584-1.28 3.584-3.968 0-2.688-1.728-3.936-3.584-3.936-1.824 0-3.584 1.248-3.584 3.936zm-4.864 0c0-4.928 3.712-8.416 8.448-8.416 4.768 0 8.448 3.488 8.448 8.416 0 4.928-3.68 8.448-8.448 8.448-4.736 0-8.448-3.52-8.448-8.448zm26.715-3.936c1.888 0 2.848 1.152 3.2 2.368l4.352-1.312c-.704-2.848-3.264-5.536-7.648-5.536-4.672 0-8.384 3.488-8.384 8.448 0 4.928 3.808 8.416 8.544 8.416 4.256 0 6.88-2.752 7.584-5.536l-4.288-1.312c-.352 1.184-1.408 2.368-3.296 2.368-2.016 0-3.712-1.408-3.712-3.936 0-2.56 1.632-3.968 3.648-3.968z" fill="#0D7EE8"/></svg>