<svg width="3447" height="809.468" xmlns="http://www.w3.org/2000/svg"><path fill="none" d="M-1-1h3449v811.468H-1z"/><path d="M3.989.655h1805.257v41.412H3.99V.655zm0 0H45.4v808.468H3.989V.655zm1805.257 808.468H3.99v-41.412h1805.257v41.412zm0 0h-41.412V.655h41.412v808.468zM148.931 653.31h319.08v-86.137H249.667V156.468H148.931V653.31zm373.641 0H864.74v-86.137H623.307V439.209h211.098v-84.998H623.307V243.227H858.01v-86.759H522.572V653.31zm367.636-410.083h138.938V653.31h100.113V243.227h138.317v-86.759H890.208v86.759zm389.48 296.614c16.152 38.41 42.241 68.744 78.27 91.003 35.925 22.259 76.82 33.337 122.476 33.337 52.593 0 96.387-13.045 131.38-39.031 34.993-26.09 52.49-62.843 52.49-110.156 0-20.603-3.727-39.238-10.974-55.803-7.248-16.565-17.6-30.438-30.956-41.516-13.355-11.181-27.125-20.395-41.516-27.642-14.39-7.248-30.645-13.977-48.866-19.982-4.452-1.656-13.459-4.452-27.021-8.49-13.46-4.037-22.777-7.04-27.85-8.8-5.073-1.863-12.734-4.762-23.087-8.8-10.25-4.037-17.6-7.764-21.845-10.974-4.245-3.21-9.214-7.247-15.115-12.113-5.902-4.866-9.836-10.146-11.803-15.736-2.07-5.694-3.106-11.906-3.106-18.843 0-16.15 6.73-29.195 20.085-39.134 13.355-9.94 31.473-14.805 54.56-14.805 40.067 0 73.403 18.325 100.114 55.182l84.895-27.954c-14.908-33.543-38.1-60.979-69.469-82.203-31.37-21.223-69.676-31.783-114.918-31.783-52.594 0-95.662 13.044-129.206 39.134-33.544 26.09-50.316 60.151-50.316 102.184 0 51.351 24.02 90.175 72.16 116.472 16.152 8.49 48.142 20.602 95.87 36.443 30.645 10.456 53.94 21.534 69.676 33.026 15.84 11.492 23.708 27.021 23.708 46.381 0 16.98-6.936 31.06-20.913 42.137-13.977 11.181-32.509 16.668-55.492 16.668-23.502 0-46.071-6.418-67.709-19.36-21.638-12.94-37.685-29.092-48.245-48.555l-87.276 29.713z" fill="#e350a5"/><path d="M1912.776 627.842h38.307V419.125h204.368V387.03h-204.368V214.756h226.834v-32.82h-265.14v445.906zm346.413 0h254.167v-32.716H2297.39v-413.19h-38.202v445.906zm280.256-222.59c0 70.71 16.358 127.342 49.177 169.79 32.716 42.447 77.027 63.67 132.83 63.67 55.388 0 99.492-21.12 132.208-63.36 32.819-42.24 49.176-98.768 49.176-169.583 0-70.297-16.254-127.031-48.866-170.1-32.508-43.069-76.716-64.603-132.519-64.603-55.388 0-99.596 21.43-132.518 64.292-33.027 42.862-49.488 99.493-49.488 169.893zm39.445 0c0-61.497 12.838-110.467 38.513-146.806 25.676-36.443 60.359-54.664 104.048-54.664 44.518 0 79.305 18.324 104.359 54.974 25.054 36.546 37.581 85.62 37.581 147.013 0 61.497-12.837 110.156-38.513 145.978-25.675 35.718-60.151 53.628-103.427 53.628-44.104 0-78.89-18.22-104.358-54.56-25.469-36.443-38.203-84.895-38.203-145.564zm364.013-223.315l107.36 445.905h45.45l76.51-308.21c1.552-6.833 4.865-20.81 9.938-41.826 5.073-21.017 8.593-36.96 10.664-47.935h1.76c4.037 21.017 10.767 50.937 20.085 89.761l77.026 308.21h45.45l106.843-445.905h-42.55l-69.16 312.454c-10.87 56.217-16.771 86.344-17.6 90.382h-1.76c-10.145-44.932-16.978-75.06-20.602-90.382l-77.647-312.454h-43.07l-77.027 312.454c-2.484 10.146-9.11 40.273-20.084 90.382h-3.003c-3.21-18.221-8.903-48.349-16.979-90.382l-69.158-312.454h-42.447z" fill="#9a1964"/></svg>