<svg xmlns="http://www.w3.org/2000/svg" width="260" height="64"><path fill="#0D7EE8" fill-rule="evenodd" d="M243 0h-3.206v64H243V0zM38.234 45.786V26.893h-9.386v18.893h-7.796V26.893H17v-6.554h4.052v-2.201c0-5.837 3.539-9.83 9.745-9.83 1.282 0 2.873.204 3.59.562v6.35c-.358-.103-1.077-.257-2.205-.257-1.333 0-3.334.615-3.334 3.175v2.201h17.183v25.447h-7.797zm3.847-28.672c-2.462 0-4.513-2.048-4.513-4.557C37.568 9.997 39.619 8 42.08 8c2.565 0 4.616 1.997 4.616 4.557 0 2.509-2.051 4.557-4.616 4.557zm17.52-8.397v37.069h-7.796V8.716H59.6zm13.65 37.069V8.716h-7.796v37.07h7.796zm35.686-26.208c-4.904 0-7.5 3.456-7.5 3.456V8.8h-4.328v36.986h4.327V30.81c0-4.32 2.885-7.2 6.924-7.2 3.463 0 6.348 2.88 6.348 7.2v14.976h4.327V30.81c0-6.624-4.616-11.232-10.098-11.232zm-26.85-1.28c0 2.016-1.153 3.168-3.173 3.168h-2.02v4.032h4.617v11.936c0 5.184 3.462 8.64 7.501 8.64 1.731 0 2.597-.576 2.597-.576v-3.744s-.577.288-1.443.288c-2.596 0-4.328-1.728-4.328-4.608V25.498h5.77v-4.032h-5.77v-8.512h-3.75v5.344zm45.316 16.544c.289 3.744 3.751 7.2 7.502 7.2 3.11 0 5.178-1.918 6.63-4.442l4.045 1.274c-1.731 3.744-5.194 7.2-10.675 7.2-6.636 0-12.118-5.472-12.118-13.248 0-7.776 5.482-13.248 11.83-13.248 6.346 0 11.54 5.184 11.54 12.96 0 1.44-.289 2.304-.289 2.304h-18.465zm14.137-3.744c-.577-4.608-3.462-7.488-6.924-7.488s-6.636 3.168-7.213 7.488h14.137zm27.33-22.381h7.693v32.512c0 2.304.154 3.993.206 4.556h-7.489a17.475 17.475 0 0 1-.205-2.457c-1.18 1.74-3.744 3.02-6.822 3.02-7.18 0-12.617-5.529-12.617-13.362 0-7.578 5.129-13.261 12.36-13.261 4.36 0 6.258 1.638 6.874 2.611V8.716zm-5.642 18.022c-3.026 0-5.745 2.048-5.745 6.298 0 4.198 2.719 6.349 5.745 6.349 3.026 0 5.744-2.15 5.744-6.35 0-4.249-2.718-6.297-5.744-6.297zm25.285 6.298c0 4.25 2.82 6.349 5.744 6.349 2.975 0 5.745-2.048 5.745-6.35 0-4.3-2.77-6.297-5.745-6.297-2.923 0-5.744 1.997-5.744 6.298zm-7.797 0c0-7.885 5.95-13.466 13.541-13.466 7.642 0 13.54 5.581 13.54 13.466 0 7.885-5.898 13.517-13.54 13.517-7.59 0-13.54-5.632-13.54-13.517zm42.82-6.298c3.026 0 4.565 1.843 5.13 3.789l6.975-2.1c-1.129-4.556-5.232-8.857-12.259-8.857-7.488 0-13.438 5.581-13.438 13.517 0 7.885 6.104 13.466 13.695 13.466 6.821 0 11.027-4.404 12.156-8.858l-6.873-2.1c-.565 1.895-2.257 3.79-5.283 3.79-3.232 0-5.95-2.253-5.95-6.298 0-4.096 2.616-6.349 5.847-6.349z"/></svg>