<svg xmlns="http://www.w3.org/2000/svg" xmlns:xlink="http://www.w3.org/1999/xlink" width="260" height="64"><defs><path id="a" d="M.572.411h31.151V42.68H.572z"/></defs><g fill="none" fill-rule="evenodd"><path fill="#222" fill-rule="nonzero" d="M117.597 29.112c0-2.165-.638-3.925-1.912-5.274-1.276-1.35-2.838-2.024-4.684-2.024-1.848 0-3.408.676-4.683 2.024-1.276 1.349-1.913 3.109-1.913 5.274 0 2.167.637 3.925 1.913 5.274 1.275 1.35 2.837 2.024 4.683 2.024 1.848 0 3.408-.676 4.684-2.024 1.274-1.349 1.912-3.107 1.912-5.274m-5.276-15.59c1.866-.006 3.71.39 5.41 1.16a13.956 13.956 0 014.516 3.252c1.297 1.393 2.33 3.04 3.1 4.942.769 1.902 1.155 3.98 1.155 6.236s-.386 4.334-1.154 6.235c-.769 1.904-1.804 3.55-3.101 4.945a13.94 13.94 0 01-4.517 3.25 13 13 0 01-5.409 1.16 11.568 11.568 0 01-3.133-.399 11.962 11.962 0 01-2.407-.927 10.175 10.175 0 01-2.046-1.327v12.937H95.83V13.853h6.596l1.319 2.986a11.44 11.44 0 012.308-1.659c.747-.4 1.648-.774 2.705-1.127 1.055-.353 2.242-.532 3.562-.532m32.926 0c.406 0 .782.024 1.124.067.34.044.623.089.851.132.272.044.522.089.75.132V23.1c-.32-.104-.638-.215-.954-.33a10.354 10.354 0 00-1.09-.232 8.587 8.587 0 00-1.365-.1c-1.727 0-3.124.553-4.191 1.652-1.068 1.101-1.601 2.642-1.601 4.623v15.523h-9.202V13.852h6.816l1.364 3.302a9.451 9.451 0 011.977-1.782c.635-.485 1.419-.915 2.35-1.29.93-.373 1.987-.56 3.17-.56m26.122 16.125c0-2.375-.632-4.254-1.892-5.644-1.262-1.388-2.807-2.083-4.635-2.083-1.826 0-3.372.695-4.631 2.083-1.264 1.388-1.894 3.27-1.894 5.644 0 2.375.629 4.254 1.893 5.643 1.26 1.389 2.806 2.083 4.632 2.083 1.828 0 3.373-.694 4.635-2.083 1.26-1.388 1.892-3.268 1.892-5.643m-21.862 0c0-2.286.403-4.402 1.208-6.35a16.323 16.323 0 013.294-5.105 15.339 15.339 0 014.862-3.428 14.455 14.455 0 015.971-1.242c2.132 0 4.121.414 5.972 1.243a15.342 15.342 0 014.862 3.425 16.349 16.349 0 013.295 5.108c.804 1.947 1.207 4.063 1.207 6.349 0 2.285-.403 4.4-1.207 6.348a16.335 16.335 0 01-3.297 5.106 15.342 15.342 0 01-4.861 3.428 14.455 14.455 0 01-5.97 1.243c-2.132 0-4.123-.415-5.97-1.244a15.339 15.339 0 01-4.862-3.425 16.31 16.31 0 01-3.297-5.108c-.802-1.947-1.207-4.063-1.207-6.348m55.6 0c0-2.375-.631-4.254-1.893-5.644-1.26-1.388-2.807-2.083-4.633-2.083-1.827 0-3.372.695-4.633 2.083-1.262 1.388-1.892 3.27-1.892 5.644 0 2.375.63 4.254 1.892 5.643 1.26 1.389 2.806 2.083 4.633 2.083 1.826 0 3.372-.694 4.633-2.083 1.262-1.388 1.892-3.268 1.892-5.643m-21.86 0c0-2.286.401-4.402 1.206-6.35a16.327 16.327 0 013.297-5.105 15.348 15.348 0 014.862-3.428c1.846-.828 3.835-1.242 5.97-1.242 2.131 0 4.12.414 5.972 1.243a15.36 15.36 0 014.86 3.425 16.327 16.327 0 013.297 5.108c.805 1.947 1.206 4.063 1.206 6.349 0 2.285-.401 4.4-1.206 6.348a16.312 16.312 0 01-3.298 5.106 15.36 15.36 0 01-4.861 3.428 14.456 14.456 0 01-5.97 1.243 14.444 14.444 0 01-5.972-1.244 15.348 15.348 0 01-4.861-3.425 16.312 16.312 0 01-3.296-5.108c-.805-1.947-1.207-4.063-1.207-6.348"/><g transform="translate(214.817 2.704)"><mask id="b" fill="#fff"><use xlink:href="#a"/></mask><path fill="#222" fill-rule="nonzero" d="M21.99 5.404c0-1.33.486-2.496 1.46-3.494.973-.998 2.109-1.499 3.405-1.499 1.298 0 2.434.5 3.408 1.499.973.998 1.46 2.163 1.46 3.494 0 1.332-.485 2.497-1.46 3.495-.974.998-2.108 1.498-3.408 1.498-1.298 0-2.434-.5-3.406-1.5-.973-.996-1.461-2.163-1.461-3.492l.001-.001zm9.085 37.276h-8.761V21.713h-9.086v20.969H4.466v-20.97H.572v-8.32h3.894v-1.663c0-3.684.929-6.49 2.79-8.422 1.861-1.93 4.5-2.897 7.92-2.897.604 0 1.166.034 1.685.1.52.067.974.144 1.365.232.433.135.819.248 1.168.334v7.99l-.649-.135a36.227 36.227 0 00-.715-.133 5.53 5.53 0 00-.909-.067c-1.125 0-2.055.39-2.79 1.165-.736.776-1.102 1.832-1.102 3.16v.333h17.847v29.29z" mask="url(#b)"/></g><path fill="#14C39A" fill-rule="nonzero" d="M75.691 25.833c-.885-1.088-1.722-2.115-2.026-3.055-.327-1.012-.26-2.383-.184-3.833.107-2.191.233-4.673-1.147-6.579-1.396-1.92-3.813-2.569-5.946-3.14-1.39-.372-2.701-.728-3.542-1.335-.824-.603-1.555-1.733-2.328-2.93C59.311 3.098 57.946.983 55.662.239c-1.99-.638-4.397.12-6.532.94-1.377.53-2.676 1.025-3.78 1.025-1.102 0-2.401-.496-3.779-1.025-2.14-.817-4.544-1.58-6.532-.94-2.284.744-3.654 2.856-4.858 4.724-.773 1.193-1.503 2.323-2.327 2.924-.842.614-2.155.967-3.543 1.34-2.13.571-4.545 1.223-5.944 3.145-1.382 1.898-1.254 4.383-1.145 6.574.077 1.454.143 2.822-.183 3.834-.306.936-1.14 1.966-2.026 3.054C13.602 27.567 12 29.536 12 31.986c0 2.447 1.597 4.413 3.01 6.153.885 1.087 1.722 2.114 2.025 3.055.33 1.012.26 2.383.187 3.832-.109 2.192-.237 4.673 1.145 6.58 1.395 1.92 3.813 2.568 5.947 3.14 1.39.371 2.7.727 3.54 1.334.824.603 1.554 1.733 2.329 2.93 1.207 1.866 2.572 3.98 4.856 4.723 1.983.637 4.392-.126 6.532-.94 1.378-.526 2.677-1.023 3.779-1.023 1.104 0 2.403.495 3.782 1.023 1.55.595 3.157 1.207 4.782 1.207.615 0 1.202-.089 1.743-.267 2.286-.744 3.654-2.854 4.861-4.723.769-1.192 1.5-2.322 2.328-2.925.84-.613 2.152-.966 3.545-1.339 2.129-.572 4.544-1.22 5.943-3.14 1.38-1.9 1.254-4.387 1.147-6.58-.076-1.452-.143-2.822.184-3.832.306-.938 1.14-1.968 2.026-3.055 1.411-1.733 3.013-3.7 3.013-6.153-.003-2.446-1.602-4.414-3.013-6.153"/><path fill="#FFF" fill-rule="nonzero" stroke="#FFF" d="M59.17 22.518L42 44.033a2.75 2.75 0 01-2.03 1.031c-.072.01-.132.006-.199.005a2.773 2.773 0 01-1.91-.871l-5.292-5.706a2.776 2.776 0 01.13-3.9 2.73 2.73 0 013.871.13l3.134 3.383 15.195-19.042a2.724 2.724 0 013.852-.426 2.773 2.773 0 01.417 3.881"/></g></svg>