<svg xmlns="http://www.w3.org/2000/svg" width="260" height="64"><g fill="none" fill-rule="evenodd"><path d="M1.111 1.111h255.554v60.126H1.111z"/><g fill-rule="nonzero"><path fill="#E350A5" d="M1.481 1.234h133.761v3.068H1.482V1.234zm0 0H4.55v59.903H1.48V1.234zm133.761 59.903H1.482V58.07h133.76v3.068zm0 0h-3.068V1.234h3.068v59.903zM12.221 49.592h23.643V43.21H19.685V12.779h-7.464v36.813zm27.685 0H65.26V43.21H47.37v-9.482h15.642V27.43H47.37v-8.223h17.39v-6.428H39.907v36.813zm27.24-30.385h10.295v30.385h7.418V19.207h10.248v-6.428h-27.96v6.428zm28.859 21.978c1.197 2.846 3.13 5.093 5.8 6.743 2.661 1.649 5.691 2.47 9.074 2.47 3.897 0 7.142-.967 9.735-2.892 2.593-1.933 3.89-4.657 3.89-8.162 0-1.527-.277-2.908-.814-4.135a8.213 8.213 0 00-2.294-3.076 16.012 16.012 0 00-3.076-2.048 26.465 26.465 0 00-3.62-1.48c-.33-.124-.998-.33-2.003-.63-.997-.3-1.687-.522-2.063-.652a96.875 96.875 0 01-1.71-.652c-.76-.3-1.305-.575-1.62-.813a35.802 35.802 0 01-1.12-.898c-.437-.36-.728-.751-.874-1.166a4.038 4.038 0 01-.23-1.396c0-1.197.499-2.163 1.488-2.9.99-.736 2.332-1.096 4.043-1.096 2.968 0 5.439 1.357 7.418 4.088l6.29-2.071c-1.105-2.485-2.823-4.518-5.147-6.09-2.325-1.573-5.163-2.356-8.515-2.356-3.897 0-7.088.967-9.574 2.9-2.485 1.933-3.728 4.457-3.728 7.571 0 3.805 1.78 6.682 5.347 8.63 1.197.63 3.567 1.527 7.103 2.7 2.27.775 3.997 1.596 5.163 2.447 1.174.852 1.757 2.003 1.757 3.437 0 1.258-.514 2.301-1.55 3.122-1.036.829-2.409 1.235-4.112 1.235-1.741 0-3.413-.475-5.017-1.434-1.603-.96-2.792-2.156-3.574-3.598l-6.467 2.202z"/><path fill="#9A1964" d="M142.913 47.706h2.838V32.24h15.143v-2.378h-15.143V17.098h16.808v-2.432h-19.646v33.04zm25.668 0h18.832v-2.424h-16.002V14.666h-2.83v33.04zm20.765-16.493c0 5.24 1.212 9.435 3.644 12.58 2.424 3.146 5.707 4.718 9.842 4.718 4.104 0 7.372-1.565 9.796-4.695 2.432-3.13 3.644-7.318 3.644-12.565 0-5.209-1.205-9.412-3.621-12.603-2.409-3.192-5.684-4.787-9.819-4.787-4.104 0-7.38 1.588-9.819 4.764-2.447 3.175-3.667 7.371-3.667 12.588zm2.923 0c0-4.557.951-8.185 2.854-10.878 1.902-2.7 4.472-4.05 7.709-4.05 3.299 0 5.876 1.358 7.732 4.073 1.857 2.708 2.785 6.344 2.785 10.893 0 4.557-.951 8.162-2.854 10.816-1.902 2.647-4.456 3.974-7.663 3.974-3.268 0-5.845-1.35-7.732-4.043-1.888-2.7-2.831-6.29-2.831-10.785zm26.971-16.547l7.955 33.04h3.368l5.669-22.837c.115-.506.36-1.542.736-3.1a77.4 77.4 0 00.79-3.551h.13c.3 1.557.799 3.774 1.49 6.65l5.706 22.838h3.368l7.917-33.04h-3.153l-5.125 23.152c-.805 4.165-1.242 6.397-1.304 6.696h-.13a900.882 900.882 0 00-1.527-6.696l-5.753-23.152h-3.191l-5.707 23.152c-.184.751-.675 2.984-1.489 6.696h-.222c-.238-1.35-.66-3.582-1.258-6.696l-5.124-23.152h-3.146z"/></g></g></svg>