<svg version="1.1" id="Layer_1" xmlns="http://www.w3.org/2000/svg" x="0" y="0" viewBox="0 0 1920 474.23" xml:space="preserve"><style/><switch><g><path d="M484.54 176.05h31.69v94.39h51.44v27.02h-83.13V176.05zm86.94 0h104.09v26.15H639.2v95.25h-31.69V202.2h-36.02v-26.15zm174.75-.86c37.58 0 65.64 26.32 65.64 61.48 0 35.5-28.06 62.18-65.64 62.18s-65.64-26.67-65.64-62.18c0-35.33 28.06-61.48 65.64-61.48zm.35 27.02c-18.18 0-33.43 14.89-33.43 34.64s15.41 34.98 33.43 34.98c18.18 0 32.73-15.24 32.73-34.98s-14.55-34.64-32.73-34.64zm133.01-26.16h27.88l55.07 73.09v-73.09h29.44v121.41h-27.71l-55.07-72.74v72.74h-29.62V176.05zm136.12 0h95.77v25.29h-64.08v22.69h57.85v25.11l-57.85.17v22.86h65.81v25.29h-97.51V176.05zm106.34 0h104.09v26.15h-36.37v95.25h-31.69V202.2h-36.02v-26.15zm104.78 0h34.12l23.03 87.81 22.86-87.81h31l23.03 87.81 22.86-87.81h32.56l-40.01 121.41h-32.73l-21.82-81.92-22.51 81.92h-32.56l-39.83-121.41zm257.88-.86c37.58 0 65.64 26.32 65.64 61.48 0 35.5-28.06 62.18-65.64 62.18s-65.64-26.67-65.64-62.18c0-35.33 28.06-61.48 65.64-61.48zm.35 27.02c-18.18 0-33.43 14.89-33.43 34.64s15.41 34.98 33.43 34.98c18.18 0 32.73-15.24 32.73-34.98s-14.55-34.64-32.73-34.64zm189.82 95.25h-35.85l-17.67-33.6h-23.55v33.6h-31.69V176.05h54.55c32.21 0 50.57 15.59 50.57 42.6 0 18.36-7.62 31.87-21.65 39.14l25.29 39.67zm-77.07-96.12v37.24h23.03c12.82 0 20.26-6.58 20.26-18.88 0-11.95-7.45-18.36-20.26-18.36h-23.03zm210.42 96.12h-37.93l-31.52-46.93-15.59 17.32v29.62h-31.69V176.05h31.69v50.92l45.55-50.92h36.72l-45.03 50.23 47.8 71.18z"/><linearGradient id="SVGID_1_" gradientUnits="userSpaceOnUse" x1="-41.833" y1="222.541" x2="481.54" y2="222.541"><stop offset="0" stop-color="#f42922"/><stop offset=".294" stop-color="#00cddd"/><stop offset=".8" stop-color="#9a1db1"/></linearGradient><path fill="url(#SVGID_1_)" d="M401.92 263.72L265.04 126.85 128.17 263.72l54.52 54.51 82.35-82.35 82.36 82.35z"/></g></switch></svg>