<svg data-name="Layer 1" xmlns="http://www.w3.org/2000/svg" viewBox="0 0 509.2 102.4"><path d="M23.1 51.2L11.6 62.7 0 51.2l11.6-11.6zm28.1-28.1L71 42.9l11.6-11.6L51.2 0 19.8 31.4 31.4 43zm39.6 16.5L79.3 51.2l11.6 11.6 11.6-11.6zM51.2 79.3L31.4 59.4 19.8 71l31.4 31.4L82.6 71 71 59.4zm0-16.6l11.6-11.6-11.6-11.5-11.6 11.6zm122 1.2v-.2c0-7.5-4-11.3-10.5-13.8 4-2.2 7.4-5.8 7.4-12.1v-.2c0-8.8-7.1-14.5-18.5-14.5h-26.1v56.1h26.7c12.7.1 21-5.1 21-15.3zm-15.4-24c0 4.2-3.4 5.9-8.9 5.9h-11.4V33.9h12.2c5.2 0 8.1 2.1 8.1 5.8zm3.1 22.4c0 4.2-3.3 6.1-8.7 6.1h-14.7V56.1h14.3c6.3 0 9.1 2.3 9.1 6.1zm38.2 17V23.1h-12.4v56.1h12.4zm66.4 0V23.1h-12.2v34.6L227 23.1h-11.4v56.1h12.2V43.6L255 79.3zm68.4 0l-24.1-56.5h-11.4l-24.1 56.5H287l5.1-12.6h23.7l5.1 12.6zm-22.5-23.5h-14.9l7.5-18.2zm81.4 23.5V23.1h-12.2v34.6l-26.3-34.6h-11.4v56.1h12.2V43.6l27.2 35.7zm63.7-9.1l-7.9-7.9c-4.4 4-8.3 6.6-14.8 6.6-9.6 0-16.3-8-16.3-17.6V51c0-9.6 6.8-17.5 16.3-17.5 5.6 0 10 2.4 14.4 6.3l7.9-9.1c-5.2-5.1-11.5-8.7-22.1-8.7-17.2 0-29.3 13.1-29.3 29v.2c0 16.1 12.3 28.9 28.8 28.9 10.8.1 17.2-3.7 23-9.9zm52.7 9.1v-11h-30.5V56.5h26.5v-11h-26.5V34.1h30.1v-11h-42.3v56.1h42.7z" fill="#fdc100"/></svg>