<svg xmlns="http://www.w3.org/2000/svg" width="74" height="11"><defs><linearGradient id="a" x1="8.923%" x2="91.871%" y1="50%" y2="50%"><stop offset="0%" stop-color="#7CB7FF"/><stop offset="100%" stop-color="#BA6DF6"/></linearGradient></defs><g fill="none"><path fill="#FFF" d="M16 3.038h1.373v4.087h2.228v1.17H16V3.038zm3.766 0h4.507V4.17h-1.575v4.125h-1.372V4.17h-1.56V3.038zM27.333 3c1.628 0 2.843 1.14 2.843 2.663 0 1.537-1.215 2.692-2.843 2.692-1.627 0-2.842-1.155-2.842-2.692C24.49 4.133 25.706 3 27.333 3zm.015 1.17c-.787 0-1.447.645-1.447 1.5s.667 1.515 1.447 1.515c.788 0 1.418-.66 1.418-1.515 0-.855-.63-1.5-1.418-1.5zm5.76-1.132h1.208L36.7 6.203V3.038h1.275v5.257h-1.2l-2.385-3.15v3.15h-1.283V3.038zm5.895 0h4.148v1.095h-2.775v.982h2.505v1.088l-2.505.007v.99h2.85v1.095h-4.223V3.038zm4.605 0h4.508V4.17H46.54v4.125h-1.373V4.17h-1.56V3.038zm4.538 0h1.477l.998 3.802.99-3.802h1.342l.998 3.802.99-3.802h1.41l-1.733 5.257h-1.417l-.945-3.547-.975 3.547h-1.41l-1.725-5.257zM59.313 3c1.628 0 2.843 1.14 2.843 2.663 0 1.537-1.215 2.692-2.843 2.692-1.627 0-2.842-1.155-2.842-2.692C56.47 4.133 57.686 3 59.313 3zm.015 1.17c-.787 0-1.447.645-1.447 1.5s.667 1.515 1.447 1.515c.788 0 1.418-.66 1.418-1.515 0-.855-.63-1.5-1.418-1.5zm8.22 4.125h-1.552L65.23 6.84h-1.02v1.455h-1.373V3.038H65.2c1.395 0 2.19.675 2.19 1.845 0 .795-.33 1.38-.938 1.695l1.095 1.717zm-3.337-4.162v1.612h.997c.555 0 .878-.285.878-.817 0-.518-.323-.795-.878-.795h-.997zm9.112 4.162h-1.642l-1.365-2.032-.675.75v1.282h-1.373V3.038h1.373v2.205l1.972-2.205h1.59l-1.95 2.175 2.07 3.082z"/><path fill="url(#a)" d="M7.121.096L5.993 1.224l.229.229a.329.329 0 0 0 .465 0L7.815.325 7.586.096a.328.328 0 0 0-.465 0zm-2.853 0L4.04.325l1.128 1.128a.329.329 0 0 0 .465 0l.228-.229L4.733.096a.328.328 0 0 0-.465 0zm3.916 1.476L6.052 3.703l.432.432a.622.622 0 0 0 .878 0l2.132-2.131-.432-.432a.62.62 0 0 0-.878 0zm-5.392 0l-.431.432 2.131 2.13a.622.622 0 0 0 .879 0l.431-.43-2.131-2.132a.62.62 0 0 0-.879 0zm2.903-.05l-.229.23.461.46.461-.46-.228-.23a.328.328 0 0 0-.465 0zm3.982 2.125L6.135 7.19l.717.717a1.033 1.033 0 0 0 1.46 0l3.542-3.542-.717-.717a1.03 1.03 0 0 0-1.46 0zm-8.96 0L0 4.364l3.542 3.542a1.033 1.033 0 0 0 1.46 0l.718-.717-3.543-3.542a1.03 1.03 0 0 0-1.46 0zm4.77.62l-.43.432.87.871.871-.87-.431-.432a.62.62 0 0 0-.88 0zm-.29 3.86l-.717.717 1.447 1.447 1.447-1.447-.717-.717a1.03 1.03 0 0 0-1.46 0z" transform="translate(.5 .713)"/></g></svg>