<svg preserveAspectRatio="xMinYMin meet" viewBox="0 0 60 60" xmlns="http://www.w3.org/2000/svg"><g fill="none" stroke="#804bc9" stroke-width="2"><g stroke-miterlimit="10"><path d="M30 49c-4.8 0-9.24 1.49-12.92 4h25.85c-3.69-2.51-8.13-4-12.93-4m0-42h1v42h-2V7z" stroke-linecap="square"/><path d="M8 35l7-26 7 26" stroke-linecap="round" stroke-linejoin="round"/><path d="M15 35H7.52c1.61 2.41 4.36 4 7.48 4s5.87-1.59 7.48-4z" stroke-linecap="square"/><path d="M38 35l7-26 7 26" stroke-linecap="round" stroke-linejoin="round"/><path d="M45 35h-7.48c1.61 2.41 4.36 4 7.48 4s5.87-1.59 7.48-4z" stroke-linecap="square"/><path d="M13 9h34" stroke-linecap="square" stroke-linejoin="round"/></g></g></svg>