<svg preserveAspectRatio="xMinYMin meet" viewBox="0 0 60 60" xmlns="http://www.w3.org/2000/svg"><g fill="none" stroke="#804bc9" stroke-miterlimit="10" stroke-width="2"><path d="m30 49c-4.8 0-9.24 1.49-12.92 4h25.85c-3.69-2.51-8.13-4-12.93-4m0-42h1v42h-2v-42z" stroke-linecap="square"/><path d="m8 35 7-26 7 26" stroke-linecap="round" stroke-linejoin="round"/><path d="m15 35h-7.48c1.61 2.41 4.36 4 7.48 4s5.87-1.59 7.48-4z" stroke-linecap="square"/><path d="m38 35 7-26 7 26" stroke-linecap="round" stroke-linejoin="round"/><g stroke-linecap="square"><path d="m45 35h-7.48c1.61 2.41 4.36 4 7.48 4s5.87-1.59 7.48-4z"/><path d="m13 9h34" stroke-linejoin="round"/></g></g></svg>