<?xml version="1.0" encoding="iso-8859-1"?>
<!-- Generator: Adobe Illustrator 19.1.1, SVG Export Plug-In . SVG Version: 6.00 Build 0)  -->
<svg version="1.1" id="Layer_1" xmlns="http://www.w3.org/2000/svg" xmlns:xlink="http://www.w3.org/1999/xlink" x="0px" y="0px"
	 viewBox="0 0 40 40" style="enable-background:new 0 0 40 40;" xml:space="preserve">
<g>
	<rect x="0.5" y="5.5" style="fill:#F78F8F;" width="39" height="29"/>
	<g>
		<path style="fill:#C74343;" d="M39,6v28H1V6H39 M40,5H0v30h40V5L40,5z"/>
	</g>
</g>
<g>
	<polygon style="fill:#FFEEA3;" points="9,11 10.272,15.039 14.385,15.039 11.057,17.33 12.328,21.243 9,18.824 5.672,21.243 
		6.943,17.33 3.615,15.039 7.728,15.039 	"/>
</g>
<polygon style="fill:#FFEEA3;" points="16.5,9 16.964,9.988 18,10.146 17.25,10.915 17.427,12 16.5,11.488 15.573,12 15.75,10.915 
	15,10.146 16.036,9.988 "/>
<polygon style="fill:#FFEEA3;" points="16.5,22 16.964,22.988 18,23.146 17.25,23.915 17.427,25 16.5,24.488 15.573,25 
	15.75,23.915 15,23.146 16.036,22.988 "/>
<polygon style="fill:#FFEEA3;" points="20.5,13 20.964,13.988 22,14.146 21.25,14.915 21.427,16 20.5,15.488 19.573,16 
	19.75,14.915 19,14.146 20.036,13.988 "/>
<polygon style="fill:#FFEEA3;" points="20.536,18.012 21,19 22.036,19.158 21.286,19.927 21.464,21.012 20.536,20.5 19.609,21.012 
	19.786,19.927 19.036,19.158 20.073,19 "/>
</svg>
