<svg preserveAspectRatio="xMinYMin meet" viewBox="0 0 60 60" xmlns="http://www.w3.org/2000/svg"><g fill="none" stroke="#804bc9" stroke-width="2"><g stroke-linecap="square" stroke-miterlimit="10"><path d="M27 48H9v-4h18zm-14-4v4m10-4v4m6-8H11v-4h18zm-14-4v4m10-4v4m0-8H7v-4h18zm-14-4v4m10-4v4m6-8H9v-4h18zm-14-4v4m10-4v4m6-8H11v-4h18zm-14-4v4m10-4v4m28 32H35v-4h18zm-14-4v4m10-4v4"/><circle cx="44" cy="31" r="9"/><path d="M44 26v-2m0 12v2m-3-4v.5c0 .83.9 1.5 2 1.5h2c1.11 0 2-.89 2-2v-1a2 2 0 0 0-2-2h-2c-1.1 0-2-.9-2-2v-1c0-1.1.9-2 2-2h2c1.11 0 2 .67 2 1.5v.5"/></g></g></svg>