<svg preserveAspectRatio="xMinYMin meet" viewBox="0 0 60 60" xmlns="http://www.w3.org/2000/svg"><g fill="none" stroke="#fff" stroke-width="2"><g stroke-miterlimit="10"><path d="m30 16c-12.15 0-22 9.85-22 22 0 2.08.3 4.09.84 6h42.33c.54-1.91.83-3.92.83-6 0-12.15-9.85-22-22-22z" stroke-linecap="square"/><path d="m12 38h2" stroke-linecap="square"/><path d="m13.37 31.11.92.39" stroke-linecap="square"/><path d="m17.27 25.27 1.42 1.42" stroke-linecap="square"/><path d="m23.11 21.37.38.92" stroke-linecap="square"/><path d="m30 20v2" stroke-linecap="square"/><path d="m36.89 21.37-.38.92" stroke-linecap="square"/><path d="m42.73 25.27-1.42 1.41" stroke-linecap="square"/><path d="m46.63 31.11-.92.38" stroke-linecap="square"/><path d="m48 38h-2" stroke-linecap="square"/><path d="m30.83 38.56c-.31.46-.93.58-1.39.27s-9.39-7.54-9.39-7.54 10.05 5.57 10.51 5.88.58.93.27 1.39z" stroke-linecap="round" stroke-linejoin="round"/></g><path d="m-20-20h4v4h-4z" opacity="0" stroke-linejoin="round"/></g></svg>