<svg enable-background="new 0 0 40 40" viewBox="0 0 40 40" xmlns="http://www.w3.org/2000/svg"><path d="m.5 6.5h39v27h-39z" fill="#8bb7f0"/><path d="m39 7v26h-38v-26zm1-1h-40v28h40z" fill="#4e7ab5"/><g fill="#fff"><path d="m0 9.794 18.657 12.447 2.655-4.607-17.402-11.634h-3.91z"/><path d="m40 6h-3.062l-17.401 11.633 2.654 4.608 17.809-11.898z"/><path d="m22.191 17.044-2.654 4.608 18.504 12.348h1.959v-5.059z"/><path d="m0 29.492v4.508h3l18.312-12.347-2.654-4.609z"/><path d="m1 17h38v6h-38z"/><path d="m17 7h6v26h-6z"/></g><path d="m17 6h6v1h-6z" fill="#a3b7cc"/><path d="m17 33h6v1h-6z" fill="#a3b7cc"/><path d="m39 17h1v6h-1z" fill="#a3b7cc"/><path d="m0 17h1v6h-1z" fill="#a3b7cc"/><path d="m18.5 33.5v-12h-18v-3h18v-12h3v12h18v3h-18v12z" fill="#f78f8f"/><path d="m21 7v11 1h1 17v2h-17-1v1 11h-2v-11-1h-1-17v-2h17 1v-1-11zm1-1h-4v12h-18v4h18v12h4v-12h18v-4h-18z" fill="#c74343"/><path d="m36.938 6-1.496 1h3.558v4.011l1-.668v-4.343z" fill="#a3b7cc"/><path d="m40 6h-1l-16 11h2.465l14.535-10z" fill="#c74343"/><path d="m0 9.794 1 .668v-3.462h4.406l-1.496-1h-3.91z" fill="#a3b7cc"/><path d="m0 7v1.651l12.485 8.349h2.515z" fill="#c74343"/><path d="m1 33v-4.175l-1 .667v4.508h3l1.483-1z" fill="#a3b7cc"/><path d="m17 23h-2.465l-14.535 10v1h1z" fill="#c74343"/><path d="m40 28.941-1-.668v4.727h-2.458l1.499 1h1.959z" fill="#a3b7cc"/><path d="m40 30.264-10.408-7.264h-2.592l13 9z" fill="#c74343"/></svg>