<?xml version="1.0" encoding="iso-8859-1"?>
<!-- Generator: Adobe Illustrator 19.1.1, SVG Export Plug-In . SVG Version: 6.00 Build 0)  -->
<svg version="1.1" id="Layer_1" xmlns="http://www.w3.org/2000/svg" xmlns:xlink="http://www.w3.org/1999/xlink" x="0px" y="0px"
	 viewBox="0 0 40 40" style="enable-background:new 0 0 40 40;" xml:space="preserve">
<g>
	<rect x="0.5" y="6.5" style="fill:#8BB7F0;" width="39" height="27"/>
	<path style="fill:#4E7AB5;" d="M39,7v26H1V7H39 M40,6H0v28h40V6L40,6z"/>
</g>
<polygon style="fill:#FFFFFF;" points="0,9.794 18.657,22.241 21.312,17.634 3.91,6 0,6 "/>
<polygon style="fill:#FFFFFF;" points="40,6 36.938,6 19.537,17.633 22.191,22.241 40,10.343 "/>
<polygon style="fill:#FFFFFF;" points="22.191,17.044 19.537,21.652 38.041,34 40,34 40,28.941 "/>
<polygon style="fill:#FFFFFF;" points="0,29.492 0,34 3,34 21.312,21.653 18.658,17.044 "/>
<rect x="1" y="17" style="fill:#FFFFFF;" width="38" height="6"/>
<rect x="17" y="7" style="fill:#FFFFFF;" width="6" height="26"/>
<rect x="17" y="6" style="fill:#A3B7CC;" width="6" height="1"/>
<rect x="17" y="33" style="fill:#A3B7CC;" width="6" height="1"/>
<rect x="39" y="17" style="fill:#A3B7CC;" width="1" height="6"/>
<rect y="17" style="fill:#A3B7CC;" width="1" height="6"/>
<g>
	<polygon style="fill:#F78F8F;" points="18.5,33.5 18.5,21.5 0.5,21.5 0.5,18.5 18.5,18.5 18.5,6.5 21.5,6.5 21.5,18.5 39.5,18.5 
		39.5,21.5 21.5,21.5 21.5,33.5 	"/>
	<path style="fill:#C74343;" d="M21,7v11v1h1h17v2H22h-1v1v11h-2V22v-1h-1H1v-2h17h1v-1V7H21 M22,6h-4v12H0v4h18v12h4V22h18v-4H22V6
		L22,6z"/>
</g>
<polygon style="fill:#A3B7CC;" points="36.938,6 35.442,7 39,7 39,11.011 40,10.343 40,6 "/>
<polygon style="fill:#C74343;" points="40,6 39,6 23,17 25.465,17 40,7 "/>
<polygon style="fill:#A3B7CC;" points="0,9.794 1,10.462 1,7 5.406,7 3.91,6 0,6 "/>
<polygon style="fill:#C74343;" points="0,7 0,8.651 12.485,17 15,17 "/>
<polygon style="fill:#A3B7CC;" points="1,33 1,28.825 0,29.492 0,34 3,34 4.483,33 "/>
<polygon style="fill:#C74343;" points="17,23 14.535,23 0,33 0,34 1,34 "/>
<polygon style="fill:#A3B7CC;" points="40,28.941 39,28.273 39,33 36.542,33 38.041,34 40,34 "/>
<polygon style="fill:#C74343;" points="40,30.264 29.592,23 27,23 40,32 "/>
</svg>
