<svg viewBox="0 0 60 60" xmlns="http://www.w3.org/2000/svg"><g stroke="#804bc9" stroke-width="2"><g stroke-miterlimit="10"><g opacity="0" stroke-linecap="square"><path d="m53 55h-20c-1.1 0-2-.9-2-2v-2c0-1.1.9-2 2-2h20c1.1 0 2 .9 2 2v2c0 1.1-.9 2-2 2z" fill="none"/><path d="m41.56 48.67-2.21-.26 1.76-.38-.08-.69 1.94.42 2.15-.17-.56.66 1.42.58-2.29-.02-1.28.53z" fill="#804bc9" opacity="0"/></g><path d="m35.44 27.38-20.12 22.95c-.75.86-2.02.9-2.82.09l-2.92-2.92c-.81-.81-.76-2.07.09-2.82l22.94-20.12" fill="none"/><path d="m39.69 31.63-11.32-11.32" fill="none" stroke-linecap="square"/><path d="m35.44 13.24 11.32 11.32" fill="none" stroke-linecap="square"/><path d="m36.08 8.23.78.77c.78.78.78 2.05 0 2.83l-9.9 9.9c-.78.78-2.05.78-2.83 0l-1.41-1.41c-.78-.78-.78-2.05 0-2.83l9.9-9.9c.78-.78 2.05-.78 2.83 0z" fill="none" stroke-linecap="square"/><path d="m51.68 23.82.74.74c.78.78.78 2.05 0 2.83l-9.9 9.9c-.78.78-2.05.78-2.83 0l-1.41-1.41c-.78-.78-.78-2.05 0-2.83l9.9-9.9c.78-.78 2.05-.78 2.83 0z" fill="none" stroke-linecap="square"/></g><path d="m-19-19h4v4h-4z" fill="none" opacity="0" stroke-linejoin="round"/></g></svg>