<svg version="1.1" xmlns="http://www.w3.org/2000/svg" xmlns:xlink="http://www.w3.org/1999/xlink" viewBox="0 0 60 60" xml:space="preserve" reserveAspectRatio="xMinYMin meet" style="left: 0px; top: 0px;"><g class="lievo-setrotation"><g class="lievo-setsharp"><g class="lievo-setflip"><g class="lievo-main">
		<g class="lievo-common" opacity="0">
			<path class="lievo-donotdraw lievo-altstroke" fill="none" stroke="#804bc9" stroke-width="2" stroke-linecap="square" stroke-miterlimit="10" d="M53,55H33c-1.1,0-2-0.9-2-2v-2c0-1.1,0.9-2,2-2h20c1.1,0,2,0.9,2,2v2C55,54.1,54.1,55,53,55z" style=""></path>
			<polygon class="lievo-savelinecap lievo-likestroke lievo-altstroke lievo-donotdraw" fill="#804bc9" stroke="#804bc9" stroke-width="2" stroke-linecap="square" stroke-miterlimit="10" points="41.56,48.67 39.35,48.41 41.11,48.03 41.03,47.34 42.97,47.76 45.12,47.59 44.56,48.25 45.98,48.83 43.69,48.81 42.41,49.34" opacity="0" style=""></polygon>
		</g>

		

		<g class="lievo-lineicon">
			<g>
				<g>
					<path class="lievo-savelinecap lievo-altstroke" fill="none" stroke="#804bc9" stroke-width="2" stroke-miterlimit="10" d="M35.44,27.38L15.32,50.33c-0.75,0.86-2.02,0.9-2.82,0.09L9.58,47.5c-0.81-0.81-0.76-2.07,0.09-2.82l22.94-20.12" style=""></path>
					<line class="lievo-savelinecap" fill="none" stroke="#804bc9" stroke-width="2" stroke-linecap="square" stroke-miterlimit="10" x1="39.69" y1="31.63" x2="28.37" y2="20.31" style=""></line>
					<line class="lievo-savelinecap" fill="none" stroke="#804bc9" stroke-width="2" stroke-linecap="square" stroke-miterlimit="10" x1="35.44" y1="13.24" x2="46.76" y2="24.56" style=""></line>
					<path fill="none" stroke="#804bc9" stroke-width="2" stroke-linecap="square" stroke-miterlimit="10" d="M36.08,8.23L36.86,9c0.78,0.78,0.78,2.05,0,2.83l-9.9,9.9c-0.78,0.78-2.05,0.78-2.83,0l-1.41-1.41c-0.78-0.78-0.78-2.05,0-2.83l9.9-9.9c0.78-0.78,2.05-0.78,2.83,0L36.08,8.23z" style=""></path>
					<path fill="none" stroke="#804bc9" stroke-width="2" stroke-linecap="square" stroke-miterlimit="10" d="M51.68,23.82l0.74,0.74c0.78,0.78,0.78,2.05,0,2.83l-9.9,9.9c-0.78,0.78-2.05,0.78-2.83,0l-1.41-1.41c-0.78-0.78-0.78-2.05,0-2.83l9.9-9.9c0.78-0.78,2.05-0.78,2.83,0L51.68,23.82z" style=""></path>
				</g>
			</g>
		</g>

		
	<rect x="-19" y="-19" width="4" height="4" fill="none" stroke="#804bc9" style="stroke-width: 2; stroke-linecap: butt; stroke-linejoin: round; opacity: 0;" class="lievo-checkshift lievo-donotdraw lievo-nohoverstroke lievo-nohovercolor"></rect></g></g></g></g>
	
<desc>LivIcons Evolution</desc><defs></defs></svg>