<svg preserveAspectRatio="xMinYMin meet" viewBox="0 0 60 60" xmlns="http://www.w3.org/2000/svg"><g fill="none" stroke="#804bc9" stroke-width="2"><g stroke-miterlimit="10"><path d="M30 23.44l-.1-.1a3 3 0 0 1 0-4.24l9.2-9.2a3 3 0 0 1 4.24 0l6.78 6.78a3 3 0 0 1 0 4.24l-9.19 9.19a3 3 0 0 1-4.24 0l-.1-.1m-6.57 6.55l.1.1a3 3 0 0 1 0 4.24l-9.19 9.19a3 3 0 0 1-4.24 0L9.9 43.31a3 3 0 0 1 0-4.24l9.19-9.19c1.17-1.17 2.97-1.27 4.14-.1l.1.1" stroke-linecap="square"/><path d="M36.72 23.28L23.28 36.72" stroke-linecap="round" stroke-linejoin="round"/></g></g></svg>