<svg preserveAspectRatio="xMinYMin meet" viewBox="0 0 60 60" xmlns="http://www.w3.org/2000/svg"><g stroke="#804bc9" stroke-width="2"><g stroke-miterlimit="10"><path d="m31.02 45.53c-.62-.27-1.3-.42-2.02-.42-.73 0-1.42.16-2.04.43v-.1c.62-.28 1.31-.44 2.04-.44.72 0 1.4.15 2.02.42z" fill="#804bc9" opacity="0" stroke-linecap="square"/><path d="m37.88 36.88s.7.48 1.56 1.06 1.56 1.96 1.56 3.06v12s-4-7-6.76-7.72" fill="none" stroke-linecap="round" stroke-linejoin="round"/><path d="m20.13 36.88s-.7.48-1.56 1.06-1.57 1.96-1.57 3.06v12s4-7 6.76-7.72" fill="none" stroke-linecap="round" stroke-linejoin="round"/><path d="m29 45c1.37 0 2.61.55 3.52 1.45 3.22-2.99 6.48-9.99 6.48-18.47 0-11.32-9-20.98-10-20.98s-10 9.66-10 20.98c0 8.48 3.26 15.49 6.48 18.47.91-.9 2.15-1.45 3.52-1.45z" fill="none" stroke-linecap="round" stroke-linejoin="round"/><path d="m29 37v16" fill="none" stroke-linecap="round" stroke-linejoin="round"/><circle cx="29" cy="23" fill="none" r="4" stroke-linecap="round" stroke-linejoin="round"/></g><path d="m-19-19h4v4h-4z" fill="none" opacity="0" stroke-linejoin="round"/></g></svg>