<svg preserveAspectRatio="xMinYMin meet" viewBox="0 0 60 60" xmlns="http://www.w3.org/2000/svg"><circle cx="30" cy="30" fill="#804bc9" opacity="0" r="18"/><g fill="none"><path d="m31 9h12l8 6v34c0 1.1-.9 2-2 2h-38c-1.1 0-2-.9-2-2v-38c0-1.1.9-2 2-2z"/><path d="m17 51v-16h26v16" stroke="#804bc9" stroke-miterlimit="10" stroke-width="2"/><path d="m21 9v14h20v-14" stroke="#804bc9" stroke-miterlimit="10" stroke-width="2"/></g><path d="m34 12h4v8h-4z" fill="#804bc9"/><path d="m31 9h12l8 6v34c0 1.1-.9 2-2 2h-38c-1.1 0-2-.9-2-2v-38c0-1.1.9-2 2-2z" fill="none" stroke="#804bc9" stroke-linecap="square" stroke-miterlimit="10" stroke-width="2"/><path d="m-19-19h4v4h-4z" fill="none" opacity="0" stroke="#804bc9" stroke-linejoin="round" stroke-width="2"/></svg>