<svg preserveAspectRatio="xMinYMin meet" viewBox="0 0 60 60" xmlns="http://www.w3.org/2000/svg"><g fill="none" stroke="#804bc9" stroke-width="2" stroke-miterlimit="10"><path d="M27 17v6m0 8v6m0 8v6" stroke-linecap="round"/><path d="M9 51h42M30 9h21v8H9V9z" stroke-linecap="square"/></g><path d="M38 12h2v2h-2zm4 0h2v2h-2zm4 0h2v2h-2z" fill="#804bc9"/><path d="M30 23h21v8H9v-8z" fill="none" stroke="#804bc9" stroke-linecap="square" stroke-miterlimit="10" stroke-width="2"/><path d="M38 26h2v2h-2zm4 0h2v2h-2zm4 0h2v2h-2z" fill="#804bc9"/><path d="M30 37h21v8H9v-8z" fill="none" stroke="#804bc9" stroke-linecap="square" stroke-miterlimit="10" stroke-width="2"/><path d="M38 40h2v2h-2zm4 0h2v2h-2zm4 0h2v2h-2z" fill="#804bc9"/></svg>