<?xml version="1.0" encoding="iso-8859-1"?>
<!-- Generator: Adobe Illustrator 19.1.1, SVG Export Plug-In . SVG Version: 6.00 Build 0)  -->
<svg version="1.1" id="Layer_1" xmlns="http://www.w3.org/2000/svg" xmlns:xlink="http://www.w3.org/1999/xlink" x="0px" y="0px"
	 viewBox="0 0 40 40" style="enable-background:new 0 0 40 40;" xml:space="preserve">
<g>
	<rect x="0.5" y="5.5" style="fill:#F78F8F;" width="39" height="29"/>
	<g>
		<path style="fill:#C74343;" d="M39,6v28H1V6H39 M40,5H0v30h40V5L40,5z"/>
	</g>
</g>
<g>
	<polygon style="fill:#FFFFFF;" points="19.011,18.674 19,16 20.579,18.157 23.12,17.325 21.555,19.491 23.135,21.649 20.59,20.831 
		19.026,23 19.016,20.326 16.47,19.511 	"/>
</g>
<path style="fill:#FFFFFF;" d="M16.352,27.059C12.454,27.059,9,23.896,9,20c0-3.9,3.454-7.059,7.352-7.059
	c0.634,0,1.244,0.09,1.828,0.246C16.963,12.438,15.534,12,14,12c-4.418,0-8,3.582-8,8c0,4.418,3.582,8,8,8
	c1.534,0,2.963-0.441,4.181-1.191C17.597,26.969,16.986,27.059,16.352,27.059z"/>
</svg>
