<svg preserveAspectRatio="xMinYMin meet" viewBox="0 0 60 60" xmlns="http://www.w3.org/2000/svg"><g fill="none" stroke="#804bc9" stroke-width="2"><path d="M30 7c-2.15.04-4.17.25-4.8 2-2.63-.06-3.25 1.44-4.2 3.58s-.39 7.72.3 9.73c-1.54.94-1.04 5.44 1.2 5.58.26 1.17.48 4.22 2.4 5.3v3.9C24.83 40.5 12.76 43.16 11 45s-2.08 3.75-2 6h42c.08-2.25-.24-4.16-2-6s-13.58-4.5-13.8-7.9v-3.9c1.92-1.08 2.25-4.33 2.5-5.5 2.24-.25 2.64-4.55 1.1-5.48.69-2.02 1.45-7.49.5-9.63S36 7 30 7z" stroke-miterlimit="10"/></g></svg>