<svg preserveAspectRatio="xMinYMin meet" viewBox="0 0 60 60" xmlns="http://www.w3.org/2000/svg"><g fill="none" stroke="#804bc9" stroke-width="2"><path d="M38.42 25.8L16.55 50.36c-.73.83-1.96.86-2.74.08L9.57 46.2c-.78-.78-.75-2.01.08-2.74l24.53-21.89" stroke-miterlimit="10"/><path d="M40 20l6.9 2.1 4.7-4.71c.78-.78 1.5-.52 1.39.58A10.01 10.01 0 0 1 50.12 24c-3.9 3.91-10.24 3.91-14.14 0s-3.9-10.24 0-14.14a9.905 9.905 0 0 1 6.01-2.85c1.1-.11 1.36.62.58 1.4l-4.66 4.66z" stroke-linecap="square" stroke-miterlimit="10"/></g></svg>