<svg xmlns="http://www.w3.org/2000/svg" width="35" height="35"><defs><filter id="a" width="300%" height="323.8%" x="-100%" y="-109.8%" filterUnits="objectBoundingBox"><feOffset dx="1" dy="2" in="SourceAlpha" result="shadowOffsetOuter1"/><feGaussianBlur in="shadowOffsetOuter1" result="shadowBlurOuter1" stdDeviation="4"/><feColorMatrix in="shadowBlurOuter1" result="shadowMatrixOuter1" values="0 0 0 0 0.310907684 0 0 0 0 0.405301367 0 0 0 0 0.520493659 0 0 0 0.4 0"/><feMerge><feMergeNode in="shadowMatrixOuter1"/><feMergeNode in="SourceGraphic"/></feMerge></filter></defs><g fill="none" fill-rule="evenodd" filter="url(#a)" transform="rotate(50 6.835 20.257)"><path fill="#BFD0E6" d="M1.778 16.348l11.555 1.874-3.253-5.333z"/><path fill="#CBD8EA" d="M2.158 12l-.38 4 8.444-3.21-5.26-.454z"/><path fill="#E5ECF4" d="M0 5.785l4.874.882 5.193-.487L13.333 0z"/><path fill="#D5DFEB" d="M2.119 12.117l2.784.358 5.319.414L0 5.778z"/><path fill="#F4F7FB" d="M13.502 0l-3.28 6.224 5.694 3.44L20 11.556z"/><path fill="#BFD0E6" d="M15.436 12.495l-1.934 5.727L20 11.455l-4.084-1.856-5.694-3.377z"/><path fill="#E5ECF4" d="M4.464 9.527l5.758 3.362V6.166l-5.273.479L0 5.778z"/><path fill="#CBD8EA" d="M10.222 12.976l3.355 5.246 1.979-5.727-5.334-6.273z"/></g></svg>