<svg xmlns="http://www.w3.org/2000/svg" width="82" height="80"><defs><filter id="a" width="198.3%" height="200%" x="-49.2%" y="-50%" filterUnits="objectBoundingBox"><feOffset dx="2" dy="3" in="SourceAlpha" result="shadowOffsetOuter1"/><feGaussianBlur in="shadowOffsetOuter1" result="shadowBlurOuter1" stdDeviation="6"/><feColorMatrix in="shadowBlurOuter1" result="shadowMatrixOuter1" values="0 0 0 0 0.310907684 0 0 0 0 0.405301367 0 0 0 0 0.520493659 0 0 0 0.35 0"/><feMerge><feMergeNode in="shadowMatrixOuter1"/><feMergeNode in="SourceGraphic"/></feMerge></filter></defs><g fill="none" fill-rule="evenodd" filter="url(#a)" transform="translate(9 8)"><path fill="#D5DFEB" d="M0 36.425l28.235-16.717-3.398-1.955-15.713-6.297z"/><path fill="#D5DFEB" d="M15.173 22.013L0 36.425l15.173-1.083 11.546-4.293 1.516-11.367z"/><path fill="#E5ECF4" d="M34.201 0L9.118 11.707l15.662 6.31 3.388 1.958 6.244-1.958z"/><path fill="#E5ECF4" d="M49.901 47.001L60 25.627l-15.983-3.62-15.782-2.325z"/><path fill="#F4F7FB" d="M34.178 17.773l-5.943 1.932 15.517 2.564L60 25.85 34.233 0z"/><path fill="#BFD0E6" d="M21.765 39.756l1.47 18.407L50 46.876 26.471 31.138z"/><path fill="#CBD8EA" d="M15.032 35.379L0 36.449l23.212 21.714 1.658-18.548 1.601-8.477zm12.945-15.697l-1.506 11.34 7.731 8.562 15.504 7.417-5.902-11.696z"/></g></svg>