<svg xmlns="http://www.w3.org/2000/svg" width="56" height="61" viewBox="0 0 56 61">
    <defs>
        <filter id="a" width="188.9%" height="197.6%" x="-44.4%" y="-48.8%" filterUnits="objectBoundingBox">
            <feOffset dx="1" dy="2" in="SourceAlpha" result="shadowOffsetOuter1"/>
            <feGaussianBlur in="shadowOffsetOuter1" result="shadowBlurOuter1" stdDeviation="4"/>
            <feColorMatrix in="shadowBlurOuter1" result="shadowMatrixOuter1" values="0 0 0 0 0.310907684 0 0 0 0 0.405301367 0 0 0 0 0.520493659 0 0 0 0.4 0"/>
            <feMerge>
                <feMergeNode in="shadowMatrixOuter1"/>
                <feMergeNode in="SourceGraphic"/>
            </feMerge>
        </filter>
    </defs>
    <g fill="none" fill-rule="evenodd" filter="url(#a)" transform="rotate(-99 28.416 22.365)">
        <path fill="#BFD0E6" d="M4 36.782L30 41l-7.32-12z"/>
        <path fill="#CBD8EA" d="M4.856 27L4 36l19-7.221-11.836-1.023z"/>
        <path fill="#E5ECF4" d="M0 13.017L10.966 15l11.685-1.095L30 0z"/>
        <path fill="#D5DFEB" d="M4.769 27.264l6.264.806L23 29 0 13z"/>
        <path fill="#F4F7FB" d="M30.38 0L23 14.004l12.81 7.741L45 26z"/>
        <path fill="#BFD0E6" d="M34.731 28.113L30.381 41 45 25.773l-9.19-4.175L23 14z"/>
        <path fill="#E5ECF4" d="M10.045 21.436L23 29V13.874l-11.865 1.078L0 13z"/>
        <path fill="#CBD8EA" d="M23 29.197L30.549 41 35 28.114 23 14z"/>
    </g>
</svg>
