<svg width="222" height="57" xmlns="http://www.w3.org/2000/svg" xmlns:xlink="http://www.w3.org/1999/xlink"><defs><circle id="a" cx="28.236" cy="28.236" r="28.236"/></defs><g fill="none" fill-rule="evenodd"><path fill="#064ACB" d="M75.234 8H65v43.543h22.734v-8.709h-12.5zM92 51.47h9.39V19H92zM119.11 9h-9.39v9.278H106v6.669h3.72v18.788c0 4.929 2.776 7.48 7.854 7.48 2.067 0 4.016-.231 6.024-.521v-6.495c-1.004 0-1.358-.058-2.422.116-1.24 0-2.066-.406-2.066-2.261V24.947h4.488v-6.669h-4.488V9zm23.775 20.584h-6.495V27.44c0-2.262.65-4.35 3.307-4.35 2.42 0 3.188 2.146 3.188 3.306v3.19zm-3.247-12.583C132.374 17.059 127 19.784 127 28.135v13.221c0 7.422 5.906 10.148 12.638 10.09 8.149-.116 12.755-3.943 12.283-12.294h-9.33c-.178 2.726.177 5.8-3.307 5.626-2.068-.116-2.894-1.624-2.894-3.422v-5.683h15.885v-9.278c0-7.017-6.082-9.452-12.637-9.394z"/><path d="M167.393 43.663V32.935c4.43.174 7.382.058 7.382 5.103 0 5.857-2.185 5.509-7.382 5.625zm0-27.835c3.662 0 6.673-.174 6.673 4.117 0 5.161-2.125 4.871-6.673 5.161v-9.278zm12.048 12.7v-.116c3.601-1.914 5.019-5.335 5.019-9.163C184.46 10.493 178.318 8 170.464 8H157v43.491h14.645c8.445 0 13.524-3.77 13.524-12.584 0-5.392-1.005-7.712-5.728-10.38zM191 51.474h9.39V19H191zm30.597-26.527v-6.669h-4.488V9h-9.389v9.278H204v6.669h3.72v18.788c0 4.929 2.775 7.48 7.854 7.48 2.067 0 4.016-.231 6.023-.521v-6.495c-1.003 0-1.357-.058-2.42.116-1.24 0-2.068-.406-2.068-2.261V24.947h4.488z" fill="#FF9F2E"/><path fill="#064ACB" d="M92 15.63h9.39V7H92z"/><path fill="#FF9F2E" d="M191 15.63h9.39V7H191z"/><g transform="translate(-1.736 .264)"><mask id="b" fill="#fff"><use xlink:href="#a"/></mask><path d="M7.636 9.044c2.67.213 5.407-2.209 5.502-4.402.001-.009.001-.017.003-.025a28.534 28.534 0 0 0-5.505 4.427m9.856-3.292c2.248 2.217 7.494 1.478 8.854-2.487.044-1.289-1.039-2.327-2.605-2.717a28.558 28.558 0 0 0-5.585 1.509c-1.462.885-2.316 2.065-.664 3.695" fill="#064ACB" mask="url(#b)"/><path d="M30.9 3.467c.738 3.7 8.121 5.18 8.879.631-.146-.767-.6-1.5-1.252-2.11A27.816 27.816 0 0 0 33.342.532c-2.433.42-2.443 1.675-2.443 2.934m18.114 5.583a28.024 28.024 0 0 0-5.505-4.61c.009.069.015.136.029.206.383 1.915 2.511 3.918 4.566 4.341.323.067.627.083.91.063" fill="#FF9F2E" mask="url(#b)"/><path d="M11.114 14.676c-.31 2.811-3.255 6.543-6.2 5.05-3.681-2.985 0-6.717 3.1-8.636 2.071-.45 3.524 1.038 3.1 3.586m14.811-1.504c-.277 5.037-6.963 6.506-9.934 4.302-2.971-2.938.742-8.08 4.82-8.39 2.84-.27 5.188 1.466 5.114 4.088" fill="#064ACB" mask="url(#b)"/><path d="M41.68 14.187c.403 2.587-1.547 4.675-4.62 4.441-3.072-.233-5.86-2.806-5.979-5.463-.118-2.657 2.17-4.381 4.96-4.073 2.79.309 5.235 2.509 5.638 5.095m11.186 2.169c.337 2.354-.902 4.148-2.864 3.857-1.962-.29-4.03-2.752-4.463-5.247-.43-2.494.995-3.96 3.054-3.525 2.059.434 3.936 2.56 4.273 4.915" fill="#FF9F2E" mask="url(#b)"/><path d="M9.945 28.073c.09 1.994-1.401 4.94-3.636 4.94-5.217-.736-4.472-8.839-.061-10.046 2-.201 3.698 2.054 3.697 5.106m15.805.105c-.068 3.49-3.03 6.45-5.991 6.45-7.405-.74-7.405-11.846.013-12.602 3.204-.146 5.978 2.595 5.978 6.152" fill="#064ACB" mask="url(#b)"/><path d="M42.798 28.148c0 3.228-2.38 5.957-5.509 6.119-3.13.16-5.856-2.565-5.857-6.122 0-3.557 2.725-6.28 5.854-6.118 3.129.163 5.51 2.893 5.512 6.12m10.912-.07c.17 1.99-1.32 4.937-3.556 4.937-5.216-.737-4.471-8.84.077-9.971 1.938.195 3.478 2.428 3.478 5.034" fill="#FF9F2E" mask="url(#b)"/><path d="M11.113 41.445c.43 2.544-1.043 4.03-3.142 3.581-2.1-.45-4.008-2.618-4.36-5.017-.353-2.398.902-4.227 2.922-3.927 2.019.3 4.151 2.82 4.58 5.363m14.793 1.645c.47 5.639-7.016 4.892-9.262 2.65-2.995-2.988-1.497-8.217 3.19-8.09 3.181.209 5.998 2.77 6.072 5.44" fill="#064ACB" mask="url(#b)"/><path d="M41.68 41.93c-.403 2.587-2.847 4.786-5.638 5.094-2.791.309-5.08-1.416-4.96-4.074.118-2.658 2.905-5.23 5.978-5.462 3.072-.233 5.022 1.857 4.62 4.443m11.185-1.985c-.443 3.484-3.41 6.426-6.376 4.22-2.225-1.471-.742-7.356 3.53-8.086 1.95-.29 3.18 1.509 2.846 3.866" fill="#FF9F2E" mask="url(#b)"/><path d="M13.12 51.653c-.39-1.877-2.612-3.85-4.754-4.279a3.414 3.414 0 0 0-1.085-.314 28.534 28.534 0 0 0 5.86 4.794c-.007-.067-.011-.131-.022-.2" fill="#064ACB" mask="url(#b)"/><path d="M35.66 49.326c-4.135.813-5.625 3.03-4.135 5.247a2.709 2.709 0 0 0 1.571 1.366 28.308 28.308 0 0 0 4.862-1.277 6.29 6.29 0 0 0 1.79-2.48c.355-1.855-1.375-3.149-4.087-2.856" fill="#FF9F2E" mask="url(#b)"/><path d="M21.435 49.326c-4.135.813-5.625 3.03-4.135 5.247a2.709 2.709 0 0 0 1.571 1.366 28.308 28.308 0 0 0 4.862-1.277 6.29 6.29 0 0 0 1.79-2.48c.355-1.855-1.376-3.149-4.088-2.856" fill="#064ACB" mask="url(#b)" transform="matrix(-1 0 0 1 42.304 0)"/><path d="M49.19 47.082a3.276 3.276 0 0 0-1.076.053c-2.133.62-4.687 2.431-4.784 4.897a28.524 28.524 0 0 0 5.86-4.95" fill="#FF9F2E" mask="url(#b)"/></g></g></svg>