<svg xmlns="http://www.w3.org/2000/svg" viewBox="0 0 150 90"><path d="M18.1 88.9l-1.7-4-.7 3.8H15l1.1-5.8 1.9 4.6 1.9-4.6 1.1 5.8h-.6l-.7-3.8-1.6 4zm6.9-1.8h-2.8v.1c0 .4.1.7.3.9.2.2.5.3.8.3.2 0 .4-.1.6-.2.2-.1.4-.3.5-.6l.5.3c-.2.3-.4.6-.7.7-.3.2-.6.2-.9.2-.5 0-1-.2-1.3-.5-.3-.3-.5-.8-.5-1.4 0-.5.2-1 .5-1.3.3-.3.7-.5 1.2-.5s.9.2 1.2.5c.3.3.4.8.4 1.3v.2zm-.7-.5c0-.3-.1-.5-.3-.7-.2-.2-.4-.2-.8-.2-.3 0-.5.1-.7.3-.2.2-.3.4-.3.7h2.1zm1.5 2.1v-3.5h.5v.8c.2-.3.3-.5.5-.6.2-.1.4-.2.7-.2h.2c.1 0 .1 0 .2.1l-.2.5c-.1 0-.1 0-.2-.1h-.2c-.3 0-.6.1-.7.3-.2.2-.2.6-.2 1v1.7h-.6zm5.3-.8v.7c-.2.1-.3.2-.5.2s-.4.1-.6.1c-.5 0-1-.2-1.3-.5-.3-.3-.5-.8-.5-1.3 0-.6.2-1 .5-1.4.3-.4.8-.5 1.3-.5.2 0 .4 0 .6.1.2 0 .4.1.5.2v.5c-.2-.1-.3-.2-.5-.2-.2-.1-.3-.1-.5-.1-.4 0-.7.1-.9.4-.2.2-.4.6-.4 1s.1.7.4.9c.2.2.5.4.9.4.2 0 .4 0 .5-.1.1-.2.3-.3.5-.4zm.8.8v-5.9h.6v2.9c.1-.2.3-.4.5-.5.2-.1.5-.2.7-.2.4 0 .7.1 1 .3.2.2.3.5.3.9v2.4h-.6v-2c0-.4-.1-.6-.2-.8-.1-.2-.4-.3-.7-.3-.2 0-.3 0-.5.1-.1.1-.3.2-.4.3-.1.1-.1.2-.2.3v2.4h-.5zm7.4-3.5v3.5h-.6v-.6c-.1.3-.3.4-.5.6-.2.1-.5.2-.7.2-.5 0-.9-.2-1.2-.5-.3-.4-.5-.8-.5-1.4 0-.6.1-1 .4-1.4.3-.3.7-.5 1.2-.5.3 0 .5.1.8.2.2.1.4.3.5.6v-.7h.6zm-.5 1.8c0-.4-.1-.7-.3-.9-.2-.2-.5-.4-.8-.4-.4 0-.6.1-.8.3-.2.2-.3.5-.3.9s.1.7.3 1c.2.2.5.3.9.3s.6-.1.8-.3c.1-.2.2-.5.2-.9zm1.7 1.7v-3.5h.5v.5c.1-.2.3-.4.5-.5.2-.1.5-.2.7-.2.4 0 .7.1 1 .3.2.2.3.5.3.9v2.4H43v-2c0-.4-.1-.6-.2-.8-.1-.2-.4-.3-.7-.3-.2 0-.3 0-.5.1-.1.1-.3.2-.4.3-.1.1-.1.2-.2.3v2.4h-.5zm4.3-3h-.6v-.5h.6v-1.4h.6v1.4h.6v.5h-.6v3h-.6v-3zm1.5 2.4l.5-.3c.1.2.2.3.4.4.1.1.3.1.5.1s.4 0 .5-.1c.1-.1.2-.2.2-.4 0-.1 0-.2-.1-.3-.1-.1-.2-.2-.4-.2h-.1c-.8-.3-1.3-.7-1.3-1.1 0-.3.1-.6.3-.8.2-.2.5-.3.9-.3.3 0 .6.1.8.2.2.1.4.3.5.5l-.5.3c-.1-.2-.2-.3-.3-.4-.1-.1-.3-.1-.5-.1s-.3 0-.4.1c-.2.2-.3.3-.3.4 0 .2.2.4.7.5.1 0 .2 0 .2.1.4.1.6.3.8.4.1.2.2.4.2.6 0 .3-.1.6-.4.8-.2.2-.5.3-.9.3-.3 0-.6-.1-.8-.2-.2 0-.4-.2-.5-.5zm3.3 1.7l.7-2.1.7.3-1 2-.4-.2zm3.8-1.1v-5.6h1.1c.8 0 1.3 0 1.7.1.3.1.6.2.8.4.3.2.6.6.7.9.2.4.2.8.2 1.3s-.1.9-.2 1.3c-.2.4-.4.7-.7.9-.2.2-.5.3-.8.4-.3.1-.8.1-1.5.1h-1.3zm.7-.6h.4c.7 0 1.2 0 1.4-.1.3-.1.5-.2.7-.3.2-.2.4-.4.5-.7.1-.3.2-.6.2-1s-.1-.7-.2-1c-.1-.3-.3-.5-.5-.7-.2-.1-.4-.3-.7-.3-.3-.1-.7-.1-1.4-.1h-.4v4.2zm7.9-1h-2.8v.1c0 .4.1.7.3.9.2.2.5.3.8.3.2 0 .4-.1.6-.2.2-.1.4-.3.5-.6l.5.3c-.2.3-.4.6-.7.7-.3.2-.6.2-.9.2-.5 0-1-.2-1.3-.5-.3-.3-.5-.8-.5-1.4 0-.5.2-1 .5-1.3.3-.3.7-.5 1.2-.5s.9.2 1.2.5c.3.3.4.8.4 1.3v.2zm-.6-.5c0-.3-.1-.5-.3-.7-.2-.2-.4-.2-.8-.2-.3 0-.5.1-.7.3-.2.2-.3.4-.3.7h2.1zm4.7-1.4v3.5h-.6v-.6c-.1.3-.3.4-.5.6-.2.1-.5.2-.7.2-.5 0-.9-.2-1.2-.5-.3-.3-.5-.8-.5-1.4 0-.6.1-1 .4-1.4.3-.3.7-.5 1.2-.5.3 0 .5.1.8.2.2.1.4.3.5.6v-.7h.6zm-.6 1.8c0-.4-.1-.7-.3-.9-.2-.2-.5-.4-.8-.4-.4 0-.6.1-.8.3-.2.2-.3.5-.3.9s.1.7.3 1c.2.2.5.3.9.3s.6-.1.8-.3c.1-.2.2-.5.2-.9zm1.7 1.7v-5.9h.6v5.9h-.6zm4.9-1.6h-2.8v.1c0 .4.1.7.3.9.2.2.5.3.8.3.2 0 .4-.1.6-.2.2-.1.4-.3.5-.6l.5.3c-.2.3-.4.6-.7.7-.3.2-.6.2-.9.2-.5 0-1-.2-1.3-.5-.3-.3-.5-.8-.5-1.4 0-.5.2-1 .5-1.3.3-.3.7-.5 1.2-.5s.9.2 1.2.5c.3.3.5.8.5 1.3v.2zm-.6-.5c0-.3-.1-.5-.3-.7-.2-.2-.4-.2-.8-.2-.3 0-.5.1-.7.3-.2.2-.3.4-.3.7h2.1zm1.5 2.1v-3.5h.5v.8c.2-.3.3-.5.5-.6.2-.1.4-.2.7-.2h.2c.1 0 .1 0 .2.1l-.2.5c-.1 0-.1 0-.2-.1h-.2c-.3 0-.6.1-.7.3-.2.2-.2.6-.2 1v1.7H73zm2.2-.6l.5-.3c.1.2.2.3.4.4.1.1.3.1.5.1s.4 0 .5-.1c.1-.1.2-.2.2-.4 0-.1 0-.2-.1-.3-.1-.1-.2-.2-.4-.2h-.1c-.8-.3-1.3-.7-1.3-1.1 0-.3.1-.6.3-.8.2-.2.5-.3.9-.3.3 0 .6.1.8.2.2.1.4.3.5.5l-.5.3c-.1-.2-.2-.3-.3-.4-.1-.1-.3-.1-.5-.1s-.3 0-.4.1c-.2.2-.2.3-.2.4 0 .2.2.4.7.5.1 0 .2 0 .2.1.4.1.6.3.8.4.1.2.2.4.2.6 0 .3-.1.6-.4.8-.2.2-.5.3-.9.3-.3 0-.6-.1-.8-.2-.3 0-.4-.2-.6-.5zm9.3.6l-.5-.6c-.2.2-.5.4-.8.6-.3.1-.6.2-.9.2-.5 0-.9-.1-1.2-.4-.3-.3-.5-.7-.5-1.1 0-.3.1-.6.3-.9.2-.3.5-.5 1-.8l-.2-.3c-.1-.1-.2-.3-.3-.4-.1-.1-.1-.3-.1-.5 0-.3.1-.6.4-.8.2-.2.5-.3.9-.3s.7.1.9.3c.2.2.3.5.3.8 0 .3-.1.5-.2.7-.2.2-.4.4-.8.7l1.2 1.5c.1-.1.2-.2.3-.4.1-.1.2-.3.3-.5l.4.4c-.1.2-.2.3-.3.5-.1.1-.2.3-.4.4l.9 1.1h-.7zm-.9-1.1L82.2 86l-.2.1c-.3.2-.5.4-.6.6-.1.2-.2.4-.2.6 0 .3.1.5.3.7.2.2.4.3.7.3.2 0 .4-.1.6-.2.3-.1.6-.3.8-.5zm-1.1-2.3l.2-.1c.2-.1.3-.2.4-.4.1-.1.1-.3.1-.4 0-.2-.1-.3-.2-.5-.1-.1-.3-.2-.5-.2s-.3.1-.5.2c-.1.1-.2.3-.2.5 0 .1 0 .2.1.3 0 .1.1.2.2.2l.4.4zm8.4 3.6l-1.7-4-.7 3.8h-.6l1.1-5.8 1.9 4.6 1.9-4.6 1.1 5.8h-.6l-.7-3.8-1.7 4zm7-3.7v3.5h-.6v-.6c-.1.3-.3.4-.5.6-.2.1-.5.2-.7.2-.5 0-.9-.2-1.2-.5-.3-.3-.5-.8-.5-1.4 0-.6.1-1 .4-1.4.3-.3.7-.5 1.2-.5.3 0 .5.1.8.2.2.1.4.3.5.6v-.7h.6zm-.6 1.8c0-.4-.1-.7-.3-.9-.2-.2-.5-.4-.8-.4-.4 0-.6.1-.8.3-.3.3-.4.6-.4 1s.1.7.3 1c.2.2.5.3.9.3s.6-.1.8-.3c.2-.3.3-.6.3-1zm1.7 1.7v-3.5h.6v.5c.1-.2.3-.4.5-.5.2-.1.5-.2.7-.2.4 0 .7.1 1 .3.2.2.3.5.3.9v2.4h-.6v-2c0-.4-.1-.6-.2-.8-.1-.2-.4-.3-.7-.3-.2 0-.3 0-.5.1-.1.1-.3.2-.4.3-.1.1-.1.2-.2.3v2.4H99zm4.8-3.5V87c0 .5.1.8.2 1 .1.2.4.3.7.3.4 0 .6-.1.7-.3.1-.2.2-.5.2-1.1v-1.7h.6v2c0 .5-.1.9-.4 1.2-.3.3-.7.4-1.2.4s-.9-.1-1.2-.4c-.3-.3-.4-.7-.4-1.2v-2h.8zm3.8 3.5v-3h-.7v-.5h.7v-1c0-.6.1-1 .2-1.2.1-.2.4-.3.8-.3h.3c.1 0 .2 0 .2.1v.6c-.1 0-.2-.1-.2-.1h-.2c-.2 0-.3.1-.4.2-.1.1-.1.4-.1.8v.9h.9v.5h-.9v3h-.6zm5.3-3.5v3.5h-.6v-.6c-.1.3-.3.4-.5.6-.2.1-.5.2-.7.2-.5 0-.9-.2-1.2-.5-.3-.3-.5-.8-.5-1.4 0-.6.1-1 .4-1.4.3-.3.7-.5 1.2-.5.3 0 .5.1.8.2.2.1.4.3.5.6v-.7h.6zm-.6 1.8c0-.4-.1-.7-.3-.9-.2-.2-.5-.4-.8-.4-.4 0-.6.1-.8.3-.2.2-.3.5-.3.9s.1.7.3 1c.2.2.5.3.9.3s.6-.1.8-.3c.1-.2.2-.5.2-.9zm4.3.9v.7c-.2.1-.3.2-.5.2s-.4.1-.6.1c-.5 0-1-.2-1.3-.5-.3-.3-.5-.8-.5-1.3 0-.6.2-1 .5-1.4.3-.4.8-.5 1.3-.5.2 0 .4 0 .6.1.2 0 .4.1.5.2v.5c-.2-.1-.3-.2-.5-.2-.2-.1-.3-.1-.5-.1-.4 0-.7.1-.9.4-.2.2-.4.6-.4 1s.1.7.4.9c.2.2.5.4.9.4.2 0 .4 0 .5-.1.2-.2.4-.3.5-.4zm.9-2.2h-.6v-.5h.6v-1.4h.6v1.4h.6v.5h-.6v3h-.6v-3zm2.4-.5V87c0 .5.1.8.2 1 .1.2.4.3.8.3s.6-.1.7-.3c.1-.2.2-.5.2-1.1v-1.7h.6v2c0 .5-.1.9-.4 1.2-.3.3-.7.4-1.2.4s-.9-.1-1.2-.4c-.3-.3-.4-.7-.4-1.2v-2h.7zm3.6 3.5v-3.5h.5v.8c.2-.3.3-.5.5-.6.2-.1.4-.2.7-.2h.2c.1 0 .1 0 .2.1l-.2.5c-.1 0-.1 0-.2-.1h-.2c-.3 0-.6.1-.7.3-.2.2-.2.6-.2 1v1.7h-.6zm5.8-1.6h-2.8v.1c0 .4.1.7.3.9.2.2.5.3.8.3.2 0 .4-.1.6-.2.2-.1.4-.3.5-.6l.5.3c-.2.3-.4.6-.7.7-.3.2-.6.2-.9.2-.5 0-1-.2-1.3-.5-.3-.3-.5-.8-.5-1.4 0-.5.2-1 .5-1.3.3-.3.7-.5 1.2-.5s.9.2 1.2.5c.3.3.4.8.4 1.3v.2zm-.7-.5c0-.3-.1-.5-.3-.7-.2-.2-.4-.2-.8-.2-.3 0-.5.1-.7.3-.2.2-.3.4-.3.7h2.1zm1.5 2.1v-3.5h.5v.8c.2-.3.3-.5.5-.6.2-.1.4-.2.7-.2h.2c.1 0 .1 0 .2.1l-.2.5c-.1 0-.1 0-.2-.1h-.2c-.3 0-.5.1-.7.3-.2.2-.2.6-.2 1v1.7h-.6zm2.3-.6l.5-.3c.1.2.2.3.4.4.1.1.3.1.5.1s.4 0 .5-.1c.1-.1.2-.2.2-.4 0-.1 0-.2-.1-.3-.1-.1-.2-.2-.4-.2h-.1c-.8-.3-1.3-.7-1.3-1.1 0-.3.1-.6.3-.8.2-.2.5-.3.9-.3.3 0 .6.1.8.2.2.1.4.3.5.5l-.5.3c-.1-.2-.2-.3-.3-.4-.1-.1-.3-.1-.5-.1s-.3 0-.4.1c-.1.1-.2.2-.2.4s.2.4.7.5c.1 0 .2 0 .2.1.4.1.6.3.8.4.1.2.2.4.2.6 0 .3-.1.6-.4.8-.2.2-.5.3-.9.3-.3 0-.6-.1-.8-.2-.3 0-.5-.2-.6-.5z" fill="#666"/><path fill="#FFF" d="M108.7 6v-.1h-.2L101.3.7h-6.5V.6l-.1.1H55.6V.6v.1h-6.9l-7 5-.1.1L30 14.1l45 38.7 45-38.7z"/><path fill="#FFF" d="M47.8 14.3c.8 1.4 13.9 25.5 14.8 27.3-1.3-1.5-22.5-25.2-24.3-27.3h9.5z"/><path fill="#B2B2B2" d="M38.2 14c.4-.9 3.1-6.8 3.6-7.9l5.8 7.9h-9.4zm36.8.3c-.2 2.1-2.9 27.3-3.2 29.9L60.3 14.3H75zm.6 0h14.5L78.2 44.1c-.3-2.6-2.7-27.8-2.9-29.9h.3z"/><path fill="gray" d="M90 14H75.6c.6-.4 10.8-8.1 11.1-8.3 0 .3 3.2 8 3.3 8.3z"/><path fill="#FFF" d="M86.9 5.8L102 14H90.3z"/><path fill="gray" d="M60.3 14c.1-.3 3.3-8 3.4-8.3.3.2 10.5 7.9 11.1 8.3H60.3z"/><path fill="#CCC" d="M60 14.3L71.5 44C68.8 40.5 50 16.7 48.1 14.3H60z"/><path fill="#FFF" d="M75.2 15.4L78 44.6l-3 7.6-2.9-7.5z"/><path fill="#CCC" d="M90.3 14.3h11.9c-2 2.4-20.9 26.2-23.7 29.7l11.8-29.7z"/><path fill="#FFF" d="M102.6 14.3h9.5c-1.9 2.1-23 25.5-24.3 27 1-1.8 14-25.6 14.8-27z"/><path fill="#B2B2B2" d="M102.8 14l5.7-7.8c.5 1.1 3.3 6.9 3.8 7.8h-9.5z"/><path fill="#E5E5E5" d="M102.5 14c-.2-.1-15.2-8.3-15.6-8.5.4-.2 7.7-4.5 7.8-4.6.1 0 13.2 5 13.5 5.1-.1.3-5.6 7.8-5.7 8z"/><path fill="#CCC" d="M86.7 5.3L75.8.9h18.5l-7.6 4.4z"/><path fill="#FFF" d="M86.4 5.5L75.2 14 63.9 5.5 75.2.9zM60 14H48.3l15.1-8.2z"/><path fill="#E5E5E5" d="M47.9 14c-.1-.2-5.7-7.8-5.9-8.1.3-.1 13.5-4.9 13.6-5 .1.1 7.5 4.4 7.8 4.6-.3.2-15.3 8.4-15.5 8.5z"/><path fill="#FFF" d="M37.9 14h-7.3c1-.7 6.3-4.5 10.9-7.8L37.9 14z"/><path fill="#B2B2B2" d="M37.9 14.3l23.9 26.8C49.3 30.4 32.2 15.7 30.5 14.3h7.4z"/><path fill="gray" d="M48.6 15.4c1.6 2 21 26.6 23.2 29.4l2.9 7.4c-1.2-1-5.7-4.9-11.4-9.8-.5-.8-13.4-24.7-14.7-27zm29.6 29.3c2.2-2.8 21.9-27.4 23.5-29.4-1.3 2.3-14.2 25.9-14.6 26.7-5.9 5.1-10.6 9.1-11.8 10.1l2.9-7.4z"/><path fill="#B2B2B2" d="M112.5 14.3h7c-1.7 1.4-18.4 15.8-30.8 26.5l23.8-26.5z"/><path fill="#FFF" d="M112.5 14l-3.7-7.6c4.5 3.3 9.6 6.9 10.6 7.6h-6.9zM101.2.9s2.9 2.1 6.4 4.6L95.5.9h5.7z"/><path fill="#CCC" d="M74.5.9L63.7 5.3l-.1-.1L56 .8c4.9.1 11.7.1 18.5.1z"/><path fill="#FFF" d="M48.8.9h6.1L42.6 5.4C46 3 48.8.9 48.8.9zM0 75.1V64.6h2.3c1.5 0 2.5.1 3.1.2.6.2 1.2.5 1.6.8.6.5 1.1 1.1 1.4 1.8.3.7.5 1.5.5 2.5 0 .9-.2 1.7-.5 2.5-.3.6-.8 1.2-1.4 1.7-.5.4-1 .6-1.6.8-.5.1-1.4.2-2.7.2H0zm1.7-1.6h1.4c.8 0 1.4-.1 1.8-.2.4-.1.7-.3 1-.5.4-.3.7-.8.9-1.3.2-.5.3-1.1.3-1.8s-.1-1.3-.3-1.8c-.2-.5-.5-.9-.9-1.3-.3-.2-.6-.4-1.1-.5-.4-.1-1.1-.2-1.9-.2H1.7v7.6zm8.7-8.1c0-.3.1-.5.3-.7.2-.2.4-.3.7-.3.3 0 .5.1.7.3.2.2.3.4.3.7s-.1.5-.3.7c-.2.2-.4.3-.7.3-.3 0-.5-.1-.7-.3-.2-.2-.3-.4-.3-.7zm.2 9.7v-6.8h1.5v6.8h-1.5zm10 0H19v-.9c-.3.4-.6.7-1 .9-.4.2-.8.3-1.3.3-1 0-1.7-.3-2.3-1-.5-.7-.8-1.5-.8-2.7 0-1.1.3-2 .8-2.6.6-.7 1.3-1 2.2-1 .6 0 1 .1 1.4.3.4.2.7.6.9 1v-1.1h1.5v6.8zm-1.5-3.4c0-.7-.2-1.2-.5-1.6-.3-.4-.8-.6-1.4-.6-.6 0-1 .2-1.4.6-.3.4-.5 1-.5 1.7s.2 1.3.5 1.7c.3.4.8.6 1.4.6.6 0 1-.2 1.4-.6.3-.6.5-1.1.5-1.8zm5 3.4h-1.5v-6.8H24v1.1c.3-.5.7-.8 1.1-1 .4-.2.9-.3 1.4-.3.5 0 1 .1 1.3.3.3.2.6.6.8 1 .4-.5.7-.8 1.1-1 .4-.2.9-.3 1.4-.3.4 0 .8.1 1.2.2.3.2.6.4.8.7.1.1.2.3.2.5s.1.5.1.9v4.7h-1.5v-3.5c0-.9-.1-1.5-.3-1.8-.2-.3-.5-.4-1-.4-.6 0-1 .2-1.3.6-.3.4-.4 1.1-.4 2v3.1h-1.6v-3.5c0-.8-.1-1.4-.3-1.7-.2-.3-.6-.5-1-.5-.3 0-.6.1-.8.2-.3.1-.5.3-.6.6-.1.2-.2.3-.2.6 0 .2-.1.7-.1 1.3v3zm10.6-3.4c0-.5.1-1 .3-1.4.2-.4.5-.8.8-1.2.3-.3.7-.6 1.2-.8.5-.2.9-.3 1.4-.3.5 0 1 .1 1.4.3.5.2.9.4 1.2.8.4.3.6.7.8 1.2.2.4.3.9.3 1.4 0 .5-.1 1-.3 1.4-.2.4-.5.8-.8 1.2-.4.4-.8.6-1.2.8-.5.2-.9.3-1.4.3-.5 0-1-.1-1.4-.3-.5-.2-.9-.4-1.2-.8-.4-.4-.6-.7-.8-1.2-.2-.4-.3-.9-.3-1.4zm5.8 0c0-.6-.2-1.2-.6-1.6-.4-.4-.9-.7-1.5-.7s-1.1.2-1.5.7c-.4.4-.6 1-.6 1.6 0 .6.2 1.2.6 1.6.4.4.9.7 1.5.7s1.1-.2 1.5-.7c.4-.4.6-1 .6-1.6zm3.2 3.4v-6.8h1.5v1.1c.3-.5.7-.8 1.1-1 .4-.2.9-.3 1.5-.3.5 0 .9.1 1.3.2.4.2.6.4.8.7l.3.6c.1.2.1.7.1 1.3V75h-1.6v-3.5c0-.9-.1-1.5-.3-1.8-.2-.3-.6-.4-1.2-.4-.4 0-.7.1-1 .2-.3.1-.5.3-.7.6-.1.2-.2.4-.2.6 0 .3-.1.7-.1 1.2V75h-1.5zM56.9 64h1.5v11.1h-1.5v-.9c-.3.4-.6.7-1 .9-.4.2-.8.3-1.3.3-1 0-1.7-.3-2.3-1-.5-.7-.8-1.5-.8-2.7 0-1.1.3-2 .8-2.6.6-.7 1.3-1 2.2-1 .6 0 1 .1 1.4.3.4.2.7.6.9 1V64zm.1 7.7c0-.7-.2-1.2-.5-1.6-.3-.4-.8-.6-1.4-.6s-1 .2-1.4.6c-.3.4-.5 1-.5 1.7s.2 1.3.5 1.7c.3.4.8.6 1.4.6.6 0 1-.2 1.4-.6.3-.6.5-1.1.5-1.8zm16.3-4.5c-.5-.4-1-.7-1.5-.9-.5-.2-1.1-.3-1.7-.3-1.1 0-2.1.4-2.8 1.1-.7.7-1.1 1.7-1.1 2.8 0 1.1.3 2.1 1 2.8.7.7 1.6 1.1 2.6 1.1.6 0 1.2-.1 1.8-.3.6-.2 1.1-.5 1.6-1v1.9c-.5.3-1 .6-1.5.7-.5.2-1.1.2-1.7.2-.8 0-1.5-.1-2.2-.4-.7-.3-1.3-.6-1.8-1.2-.5-.5-.9-1.1-1.2-1.8-.3-.7-.4-1.4-.4-2.2 0-.8.1-1.5.4-2.2.3-.7.7-1.3 1.2-1.8s1.1-.9 1.8-1.2c.7-.3 1.4-.4 2.2-.4.6 0 1.2.1 1.8.3.6.2 1.1.4 1.6.8l-.1 2zm8.3 4.7h-5.4c0 .6.2 1.1.6 1.5.3.4.8.5 1.3.5s.9-.1 1.2-.3c.3-.2.6-.5.9-1l1.3.7c-.4.7-.9 1.2-1.4 1.5-.6.3-1.2.5-2 .5-1.1 0-1.9-.3-2.6-1-.6-.7-1-1.5-1-2.6s.3-1.9 1-2.6c.7-.7 1.5-1 2.6-1s1.9.3 2.5.9c.6.6.9 1.5.9 2.6v.3zm-1.6-1c-.1-.5-.2-.9-.6-1.1-.3-.3-.7-.4-1.3-.4-.5 0-.9.1-1.2.4-.3.2-.5.6-.7 1.1H80zm3.1 4.2v-6.8h1.5v1.1c.3-.5.7-.8 1.1-1 .4-.2.9-.3 1.5-.3.5 0 .9.1 1.3.2.4.2.6.4.8.7l.3.6c.1.2.1.7.1 1.3V75H88v-3.5c0-.9-.1-1.5-.3-1.8-.2-.3-.6-.4-1.2-.4-.4 0-.7.1-1 .2-.3.1-.5.3-.7.6-.1.2-.2.4-.2.6 0 .3-.1.7-.1 1.2V75h-1.4zm8.8 0v-5.4h-1.2v-1.4h1.2v-2.6h1.5v2.6h1.2v1.4h-1.2v5.4h-1.5zm5.4-5.7c.2-.4.4-.8.7-1 .3-.2.6-.3 1-.3.2 0 .4 0 .6.1.2.1.4.1.6.2l-.6 1.3c-.1-.1-.3-.2-.4-.2-.2 0-.3-.1-.5-.1-.5 0-.9.2-1.1.6-.2.4-.3 1.1-.3 2.1v3h-1.5v-6.8h1.5v1.1zm10.2 2.5h-5.4c0 .6.2 1.1.6 1.5.3.4.8.5 1.3.5s.9-.1 1.2-.3c.3-.2.6-.5.9-1l1.3.7c-.4.7-.9 1.2-1.4 1.5-.6.3-1.2.5-2 .5-1.1 0-1.9-.3-2.6-1-.6-.7-1-1.5-1-2.6s.3-1.9 1-2.6c.7-.7 1.5-1 2.6-1s1.9.3 2.5.9c.6.6.9 1.5.9 2.6v.3zm-1.6-1c-.1-.5-.2-.9-.6-1.1-.3-.3-.7-.4-1.3-.4-.5 0-.9.1-1.2.4-.3.2-.5.6-.6 1.1h3.7zm5.5-6.3h1.7l2 5.3c.1.3.2.7.3.9.1.3.2.5.2.7.2-.6.3-1.1.5-1.6 0-.1 0-.1.1-.1l2.1-5.6 2.2 5.7c.1.3.2.6.3.8.1.3.2.6.3.8 0-.2.1-.4.2-.7l.3-.9 2-5.3h1.7l-4 10.9-2.4-6c-.1-.3-.2-.5-.3-.8-.1-.2-.2-.5-.2-.7-.1.3-.2.5-.2.8-.1.2-.2.5-.3.7l-2.3 5.9-4.2-10.8zm20.3 10.5h-1.5v-.9c-.3.4-.6.7-1 .9-.4.2-.8.3-1.3.3-1 0-1.7-.3-2.3-1-.6-.7-.8-1.5-.8-2.7 0-1.1.3-2 .8-2.6.6-.7 1.3-1 2.2-1 .6 0 1 .1 1.4.3.4.2.7.6.9 1v-1.1h1.5v6.8zm-1.5-3.4c0-.7-.2-1.2-.5-1.6-.3-.4-.8-.6-1.4-.6-.6 0-1 .2-1.4.6-.3.4-.5 1-.5 1.7s.2 1.3.5 1.7c.3.4.8.6 1.4.6.6 0 1-.2 1.4-.6.3-.6.5-1.1.5-1.8zm3.5 3.4V64h1.5v11.1h-1.5zm10.2-3.2h-5.4c0 .6.2 1.1.6 1.5.3.4.8.5 1.3.5s.9-.1 1.2-.3c.3-.2.6-.5.9-1l1.3.7c-.4.7-.9 1.2-1.4 1.5-.6.3-1.2.5-2 .5-1.1 0-1.9-.3-2.6-1-.6-.7-1-1.5-1-2.6s.3-1.9 1-2.6c.7-.7 1.5-1 2.6-1s1.9.3 2.5.9c.6.6.9 1.5.9 2.6v.3zm-1.6-1c-.1-.5-.2-.9-.6-1.1-.3-.3-.7-.4-1.3-.4-.5 0-.9.1-1.2.4-.3.2-.5.6-.6 1.1h3.7zm2.3 3l1.3-.7c.1.3.3.6.5.8.3.2.6.3 1 .3.3 0 .6-.1.8-.2.2-.2.3-.4.3-.7 0-.4-.4-.7-1.1-.9-.2-.1-.4-.2-.6-.2-.7-.3-1.2-.6-1.5-.9-.3-.3-.4-.7-.4-1.1 0-.6.2-1.1.7-1.5.5-.4 1.1-.6 1.9-.6.5 0 1 .1 1.3.3.4.2.6.5.8.8l-1.1.8c-.1-.2-.2-.4-.4-.5-.2-.1-.4-.2-.7-.2-.3 0-.5.1-.7.2-.2.1-.3.3-.3.6 0 .4.4.7 1.2 1 .3.1.4.2.6.2.6.2 1.1.5 1.3.8.3.3.4.7.4 1.2 0 .7-.2 1.2-.7 1.6-.5.4-1.2.6-2 .6-.7 0-1.2-.1-1.6-.4-.4-.5-.8-.8-1-1.3z"/><path fill="#666" d="M75 53.6L28.9 14.1 48.5 0h52.9L121 14.1 75 53.6zM31.1 14.2L75 51.9l43.9-37.7L101 1.3H49L31.1 14.2z"/></svg>