<svg data-name="1" xmlns="http://www.w3.org/2000/svg" viewBox="0 0 298.77 305.27"><text transform="translate(38.79 280.38)" fill="#00a998" font-size="42.79" font-family="Intro-Black-Caps,Intro Black Caps">S<tspan x="27.77" y="0" letter-spacing="-.01em">e</tspan><tspan x="51.9" y="0" letter-spacing="0">cu</tspan><tspan x="114.63" y="0" letter-spacing="-.01em">l</tspan><tspan x="136.96" y="0">uxe</tspan></text><path d="M274.38 105.21l-125 120.72-125-120.72L84 32.5h71.12v22.94h48.8l39.31 48L149.38 194l-93.85-90.6 39.32-48h37.32v11.51h-31.89L71.11 102.5l78.27 75.59 78.27-75.59-29.18-35.59h-43.36v23h-44l-8.89 10.82 47.13 45.51 47.11-45.51-8.87-10.82h-21V78.38h26.46l19 23.21-62.69 60.54-62.7-60.54 19-23.21h37.93V44H89.42L40 104.31 149.38 210 258.8 104.31 209.34 44h-42.75V32.5h48.17z" fill="#00a998"/></svg>