<?xml version="1.0" encoding="utf-8"?>
<!-- Generator: Adobe Illustrator 19.1.0, SVG Export Plug-In . SVG Version: 6.00 Build 0)  -->
<svg version="1.1" id="Layer_1" xmlns="http://www.w3.org/2000/svg" xmlns:xlink="http://www.w3.org/1999/xlink" x="0px" y="0px"
	 viewBox="0 0 150 90" enable-background="new 0 0 150 90" xml:space="preserve">
<g>
	<g>
		<path fill="#666666" d="M18.1,88.9l-1.7-4l-0.7,3.8H15l1.1-5.8l1.9,4.6l1.9-4.6l1.1,5.8h-0.6l-0.7-3.8L18.1,88.9z"/>
		<path fill="#666666" d="M25,87.1h-2.8v0.1c0,0.4,0.1,0.7,0.3,0.9c0.2,0.2,0.5,0.3,0.8,0.3c0.2,0,0.4-0.1,0.6-0.2
			c0.2-0.1,0.4-0.3,0.5-0.6l0.5,0.3c-0.2,0.3-0.4,0.6-0.7,0.7c-0.3,0.2-0.6,0.2-0.9,0.2c-0.5,0-1-0.2-1.3-0.5
			c-0.3-0.3-0.5-0.8-0.5-1.4c0-0.5,0.2-1,0.5-1.3c0.3-0.3,0.7-0.5,1.2-0.5c0.5,0,0.9,0.2,1.2,0.5c0.3,0.3,0.4,0.8,0.4,1.3V87.1z
			 M24.3,86.6c0-0.3-0.1-0.5-0.3-0.7c-0.2-0.2-0.4-0.2-0.8-0.2c-0.3,0-0.5,0.1-0.7,0.3c-0.2,0.2-0.3,0.4-0.3,0.7H24.3z"/>
		<path fill="#666666" d="M25.8,88.7v-3.5h0.5V86c0.2-0.3,0.3-0.5,0.5-0.6c0.2-0.1,0.4-0.2,0.7-0.2c0.1,0,0.1,0,0.2,0
			c0.1,0,0.1,0,0.2,0.1l-0.2,0.5c-0.1,0-0.1,0-0.2-0.1c-0.1,0-0.1,0-0.2,0c-0.3,0-0.6,0.1-0.7,0.3c-0.2,0.2-0.2,0.6-0.2,1v1.7H25.8z
			"/>
		<path fill="#666666" d="M31.1,87.9v0.7c-0.2,0.1-0.3,0.2-0.5,0.2c-0.2,0-0.4,0.1-0.6,0.1c-0.5,0-1-0.2-1.3-0.5
			c-0.3-0.3-0.5-0.8-0.5-1.3c0-0.6,0.2-1,0.5-1.4c0.3-0.4,0.8-0.5,1.3-0.5c0.2,0,0.4,0,0.6,0.1c0.2,0,0.4,0.1,0.5,0.2V86
			c-0.2-0.1-0.3-0.2-0.5-0.2c-0.2-0.1-0.3-0.1-0.5-0.1c-0.4,0-0.7,0.1-0.9,0.4c-0.2,0.2-0.4,0.6-0.4,1c0,0.4,0.1,0.7,0.4,0.9
			c0.2,0.2,0.5,0.4,0.9,0.4c0.2,0,0.4,0,0.5-0.1C30.7,88.1,30.9,88,31.1,87.9z"/>
		<path fill="#666666" d="M31.9,88.7v-5.9h0.6v2.9c0.1-0.2,0.3-0.4,0.5-0.5c0.2-0.1,0.5-0.2,0.7-0.2c0.4,0,0.7,0.1,1,0.3
			c0.2,0.2,0.3,0.5,0.3,0.9v2.4h-0.6v-2c0-0.4-0.1-0.6-0.2-0.8c-0.1-0.2-0.4-0.3-0.7-0.3c-0.2,0-0.3,0-0.5,0.1
			c-0.1,0.1-0.3,0.2-0.4,0.3c-0.1,0.1-0.1,0.2-0.2,0.3c0,0.1,0,0.3,0,0.6v1.8H31.9z"/>
		<path fill="#666666" d="M39.3,85.2v3.5h-0.6v-0.6c-0.1,0.3-0.3,0.4-0.5,0.6c-0.2,0.1-0.5,0.2-0.7,0.2c-0.5,0-0.9-0.2-1.2-0.5
			C36,88,35.8,87.6,35.8,87c0-0.6,0.1-1,0.4-1.4c0.3-0.3,0.7-0.5,1.2-0.5c0.3,0,0.5,0.1,0.8,0.2c0.2,0.1,0.4,0.3,0.5,0.6v-0.7H39.3z
			 M38.8,87c0-0.4-0.1-0.7-0.3-0.9c-0.2-0.2-0.5-0.4-0.8-0.4c-0.4,0-0.6,0.1-0.8,0.3c-0.2,0.2-0.3,0.5-0.3,0.9c0,0.4,0.1,0.7,0.3,1
			c0.2,0.2,0.5,0.3,0.9,0.3c0.4,0,0.6-0.1,0.8-0.3C38.7,87.7,38.8,87.4,38.8,87z"/>
		<path fill="#666666" d="M40.5,88.7v-3.5H41v0.5c0.1-0.2,0.3-0.4,0.5-0.5c0.2-0.1,0.5-0.2,0.7-0.2c0.4,0,0.7,0.1,1,0.3
			c0.2,0.2,0.3,0.5,0.3,0.9v2.4H43v-2c0-0.4-0.1-0.6-0.2-0.8c-0.1-0.2-0.4-0.3-0.7-0.3c-0.2,0-0.3,0-0.5,0.1
			c-0.1,0.1-0.3,0.2-0.4,0.3c-0.1,0.1-0.1,0.2-0.2,0.3c0,0.1,0,0.3,0,0.6v1.8H40.5z"/>
		<path fill="#666666" d="M44.8,85.7h-0.6v-0.5h0.6v-1.4h0.6v1.4H46v0.5h-0.6v3h-0.6V85.7z"/>
		<path fill="#666666" d="M46.3,88.1l0.5-0.3c0.1,0.2,0.2,0.3,0.4,0.4c0.1,0.1,0.3,0.1,0.5,0.1c0.2,0,0.4,0,0.5-0.1
			c0.1-0.1,0.2-0.2,0.2-0.4c0-0.1,0-0.2-0.1-0.3c-0.1-0.1-0.2-0.2-0.4-0.2c0,0-0.1,0-0.1,0c-0.8-0.3-1.3-0.7-1.3-1.1
			c0-0.3,0.1-0.6,0.3-0.8c0.2-0.2,0.5-0.3,0.9-0.3c0.3,0,0.6,0.1,0.8,0.2c0.2,0.1,0.4,0.3,0.5,0.5l-0.5,0.3
			c-0.1-0.2-0.2-0.3-0.3-0.4c-0.1-0.1-0.3-0.1-0.5-0.1c-0.2,0-0.3,0-0.4,0.1C47.1,85.9,47,86,47,86.1c0,0.2,0.2,0.4,0.7,0.5
			c0.1,0,0.2,0,0.2,0.1c0.4,0.1,0.6,0.3,0.8,0.4c0.1,0.2,0.2,0.4,0.2,0.6c0,0.3-0.1,0.6-0.4,0.8c-0.2,0.2-0.5,0.3-0.9,0.3
			c-0.3,0-0.6-0.1-0.8-0.2C46.6,88.6,46.4,88.4,46.3,88.1z"/>
		<path fill="#666666" d="M49.6,89.8l0.7-2.1L51,88L50,90L49.6,89.8z"/>
		<path fill="#666666" d="M53.4,88.7v-5.6h1.1c0.8,0,1.3,0,1.7,0.1c0.3,0.1,0.6,0.2,0.8,0.4c0.3,0.2,0.6,0.6,0.7,0.9
			c0.2,0.4,0.2,0.8,0.2,1.3c0,0.5-0.1,0.9-0.2,1.3c-0.2,0.4-0.4,0.7-0.7,0.9c-0.2,0.2-0.5,0.3-0.8,0.4c-0.3,0.1-0.8,0.1-1.5,0.1
			h-0.2H53.4z M54.1,88.1h0.4c0.7,0,1.2,0,1.4-0.1c0.3-0.1,0.5-0.2,0.7-0.3c0.2-0.2,0.4-0.4,0.5-0.7c0.1-0.3,0.2-0.6,0.2-1
			c0-0.4-0.1-0.7-0.2-1c-0.1-0.3-0.3-0.5-0.5-0.7c-0.2-0.1-0.4-0.3-0.7-0.3c-0.3-0.1-0.7-0.1-1.4-0.1h-0.4V88.1z"/>
		<path fill="#666666" d="M62,87.1h-2.8v0.1c0,0.4,0.1,0.7,0.3,0.9c0.2,0.2,0.5,0.3,0.8,0.3c0.2,0,0.4-0.1,0.6-0.2
			c0.2-0.1,0.4-0.3,0.5-0.6l0.5,0.3c-0.2,0.3-0.4,0.6-0.7,0.7c-0.3,0.2-0.6,0.2-0.9,0.2c-0.5,0-1-0.2-1.3-0.5
			c-0.3-0.3-0.5-0.8-0.5-1.4c0-0.5,0.2-1,0.5-1.3c0.3-0.3,0.7-0.5,1.2-0.5c0.5,0,0.9,0.2,1.2,0.5c0.3,0.3,0.4,0.8,0.4,1.3V87.1z
			 M61.4,86.6c0-0.3-0.1-0.5-0.3-0.7c-0.2-0.2-0.4-0.2-0.8-0.2c-0.3,0-0.5,0.1-0.7,0.3c-0.2,0.2-0.3,0.4-0.3,0.7H61.4z"/>
		<path fill="#666666" d="M66.1,85.2v3.5h-0.6v-0.6c-0.1,0.3-0.3,0.4-0.5,0.6c-0.2,0.1-0.5,0.2-0.7,0.2c-0.5,0-0.9-0.2-1.2-0.5
			c-0.3-0.3-0.5-0.8-0.5-1.4c0-0.6,0.1-1,0.4-1.4c0.3-0.3,0.7-0.5,1.2-0.5c0.3,0,0.5,0.1,0.8,0.2c0.2,0.1,0.4,0.3,0.5,0.6v-0.7H66.1
			z M65.5,87c0-0.4-0.1-0.7-0.3-0.9c-0.2-0.2-0.5-0.4-0.8-0.4c-0.4,0-0.6,0.1-0.8,0.3c-0.2,0.2-0.3,0.5-0.3,0.9c0,0.4,0.1,0.7,0.3,1
			c0.2,0.2,0.5,0.3,0.9,0.3c0.4,0,0.6-0.1,0.8-0.3C65.4,87.7,65.5,87.4,65.5,87z"/>
		<path fill="#666666" d="M67.2,88.7v-5.9h0.6v5.9H67.2z"/>
		<path fill="#666666" d="M72.1,87.1h-2.8v0.1c0,0.4,0.1,0.7,0.3,0.9c0.2,0.2,0.5,0.3,0.8,0.3c0.2,0,0.4-0.1,0.6-0.2
			c0.2-0.1,0.4-0.3,0.5-0.6l0.5,0.3c-0.2,0.3-0.4,0.6-0.7,0.7c-0.3,0.2-0.6,0.2-0.9,0.2c-0.5,0-1-0.2-1.3-0.5
			c-0.3-0.3-0.5-0.8-0.5-1.4c0-0.5,0.2-1,0.5-1.3c0.3-0.3,0.7-0.5,1.2-0.5c0.5,0,0.9,0.2,1.2,0.5c0.3,0.3,0.5,0.8,0.5,1.3V87.1z
			 M71.5,86.6c0-0.3-0.1-0.5-0.3-0.7c-0.2-0.2-0.4-0.2-0.8-0.2c-0.3,0-0.5,0.1-0.7,0.3c-0.2,0.2-0.3,0.4-0.3,0.7H71.5z"/>
		<path fill="#666666" d="M73,88.7v-3.5h0.5V86c0.2-0.3,0.3-0.5,0.5-0.6c0.2-0.1,0.4-0.2,0.7-0.2c0.1,0,0.1,0,0.2,0
			c0.1,0,0.1,0,0.2,0.1l-0.2,0.5c-0.1,0-0.1,0-0.2-0.1c-0.1,0-0.1,0-0.2,0c-0.3,0-0.6,0.1-0.7,0.3c-0.2,0.2-0.2,0.6-0.2,1v1.7H73z"
			/>
		<path fill="#666666" d="M75.2,88.1l0.5-0.3c0.1,0.2,0.2,0.3,0.4,0.4c0.1,0.1,0.3,0.1,0.5,0.1c0.2,0,0.4,0,0.5-0.1
			c0.1-0.1,0.2-0.2,0.2-0.4c0-0.1,0-0.2-0.1-0.3c-0.1-0.1-0.2-0.2-0.4-0.2c0,0-0.1,0-0.1,0c-0.8-0.3-1.3-0.7-1.3-1.1
			c0-0.3,0.1-0.6,0.3-0.8c0.2-0.2,0.5-0.3,0.9-0.3c0.3,0,0.6,0.1,0.8,0.2c0.2,0.1,0.4,0.3,0.5,0.5l-0.5,0.3
			c-0.1-0.2-0.2-0.3-0.3-0.4c-0.1-0.1-0.3-0.1-0.5-0.1c-0.2,0-0.3,0-0.4,0.1C76,85.9,76,86,76,86.1c0,0.2,0.2,0.4,0.7,0.5
			c0.1,0,0.2,0,0.2,0.1c0.4,0.1,0.6,0.3,0.8,0.4c0.1,0.2,0.2,0.4,0.2,0.6c0,0.3-0.1,0.6-0.4,0.8c-0.2,0.2-0.5,0.3-0.9,0.3
			c-0.3,0-0.6-0.1-0.8-0.2C75.5,88.6,75.4,88.4,75.2,88.1z"/>
		<path fill="#666666" d="M84.5,88.7L84,88.1c-0.2,0.2-0.5,0.4-0.8,0.6c-0.3,0.1-0.6,0.2-0.9,0.2c-0.5,0-0.9-0.1-1.2-0.4
			c-0.3-0.3-0.5-0.7-0.5-1.1c0-0.3,0.1-0.6,0.3-0.9c0.2-0.3,0.5-0.5,1-0.8l-0.2-0.3c-0.1-0.1-0.2-0.3-0.3-0.4
			c-0.1-0.1-0.1-0.3-0.1-0.5c0-0.3,0.1-0.6,0.4-0.8c0.2-0.2,0.5-0.3,0.9-0.3c0.4,0,0.7,0.1,0.9,0.3c0.2,0.2,0.3,0.5,0.3,0.8
			c0,0.3-0.1,0.5-0.2,0.7c-0.2,0.2-0.4,0.4-0.8,0.7l1.2,1.5c0.1-0.1,0.2-0.2,0.3-0.4c0.1-0.1,0.2-0.3,0.3-0.5l0.4,0.4
			c-0.1,0.2-0.2,0.3-0.3,0.5c-0.1,0.1-0.2,0.3-0.4,0.4l0.9,1.1H84.5z M83.6,87.6L82.2,86l-0.2,0.1c-0.3,0.2-0.5,0.4-0.6,0.6
			c-0.1,0.2-0.2,0.4-0.2,0.6c0,0.3,0.1,0.5,0.3,0.7c0.2,0.2,0.4,0.3,0.7,0.3c0.2,0,0.4-0.1,0.6-0.2C83.1,88,83.4,87.8,83.6,87.6z
			 M82.5,85.3l0.2-0.1c0.2-0.1,0.3-0.2,0.4-0.4c0.1-0.1,0.1-0.3,0.1-0.4c0-0.2-0.1-0.3-0.2-0.5c-0.1-0.1-0.3-0.2-0.5-0.2
			c-0.2,0-0.3,0.1-0.5,0.2c-0.1,0.1-0.2,0.3-0.2,0.5c0,0.1,0,0.2,0.1,0.3c0,0.1,0.1,0.2,0.2,0.2L82.5,85.3z"/>
		<path fill="#666666" d="M90.9,88.9l-1.7-4l-0.7,3.8h-0.6l1.1-5.8l1.9,4.6l1.9-4.6l1.1,5.8h-0.6l-0.7-3.8L90.9,88.9z"/>
		<path fill="#666666" d="M97.9,85.2v3.5h-0.6v-0.6c-0.1,0.3-0.3,0.4-0.5,0.6c-0.2,0.1-0.5,0.2-0.7,0.2c-0.5,0-0.9-0.2-1.2-0.5
			c-0.3-0.3-0.5-0.8-0.5-1.4c0-0.6,0.1-1,0.4-1.4c0.3-0.3,0.7-0.5,1.2-0.5c0.3,0,0.5,0.1,0.8,0.2c0.2,0.1,0.4,0.3,0.5,0.6v-0.7H97.9
			z M97.3,87c0-0.4-0.1-0.7-0.3-0.9c-0.2-0.2-0.5-0.4-0.8-0.4c-0.4,0-0.6,0.1-0.8,0.3C95.1,86.3,95,86.6,95,87c0,0.4,0.1,0.7,0.3,1
			c0.2,0.2,0.5,0.3,0.9,0.3c0.4,0,0.6-0.1,0.8-0.3C97.2,87.7,97.3,87.4,97.3,87z"/>
		<path fill="#666666" d="M99,88.7v-3.5h0.6v0.5c0.1-0.2,0.3-0.4,0.5-0.5c0.2-0.1,0.5-0.2,0.7-0.2c0.4,0,0.7,0.1,1,0.3
			c0.2,0.2,0.3,0.5,0.3,0.9v2.4h-0.6v-2c0-0.4-0.1-0.6-0.2-0.8c-0.1-0.2-0.4-0.3-0.7-0.3c-0.2,0-0.3,0-0.5,0.1
			c-0.1,0.1-0.3,0.2-0.4,0.3c-0.1,0.1-0.1,0.2-0.2,0.3c0,0.1,0,0.3,0,0.6v1.8H99z"/>
		<path fill="#666666" d="M103.8,85.2V87c0,0.5,0.1,0.8,0.2,1c0.1,0.2,0.4,0.3,0.7,0.3c0.4,0,0.6-0.1,0.7-0.3
			c0.1-0.2,0.2-0.5,0.2-1.1v-1.7h0.6v2c0,0.5-0.1,0.9-0.4,1.2c-0.3,0.3-0.7,0.4-1.2,0.4c-0.5,0-0.9-0.1-1.2-0.4
			c-0.3-0.3-0.4-0.7-0.4-1.2v-2H103.8z"/>
		<path fill="#666666" d="M107.6,88.7v-3h-0.7v-0.5h0.7v-1c0-0.6,0.1-1,0.2-1.2c0.1-0.2,0.4-0.3,0.8-0.3c0.1,0,0.2,0,0.3,0
			c0.1,0,0.2,0,0.2,0.1v0.6c-0.1,0-0.2-0.1-0.2-0.1c-0.1,0-0.2,0-0.2,0c-0.2,0-0.3,0.1-0.4,0.2c-0.1,0.1-0.1,0.4-0.1,0.8v0.9h0.9
			v0.5h-0.9v3H107.6z"/>
		<path fill="#666666" d="M112.9,85.2v3.5h-0.6v-0.6c-0.1,0.3-0.3,0.4-0.5,0.6c-0.2,0.1-0.5,0.2-0.7,0.2c-0.5,0-0.9-0.2-1.2-0.5
			c-0.3-0.3-0.5-0.8-0.5-1.4c0-0.6,0.1-1,0.4-1.4c0.3-0.3,0.7-0.5,1.2-0.5c0.3,0,0.5,0.1,0.8,0.2c0.2,0.1,0.4,0.3,0.5,0.6v-0.7
			H112.9z M112.3,87c0-0.4-0.1-0.7-0.3-0.9c-0.2-0.2-0.5-0.4-0.8-0.4c-0.4,0-0.6,0.1-0.8,0.3c-0.2,0.2-0.3,0.5-0.3,0.9
			c0,0.4,0.1,0.7,0.3,1c0.2,0.2,0.5,0.3,0.9,0.3c0.4,0,0.6-0.1,0.8-0.3C112.2,87.7,112.3,87.4,112.3,87z"/>
		<path fill="#666666" d="M116.6,87.9v0.7c-0.2,0.1-0.3,0.2-0.5,0.2c-0.2,0-0.4,0.1-0.6,0.1c-0.5,0-1-0.2-1.3-0.5
			c-0.3-0.3-0.5-0.8-0.5-1.3c0-0.6,0.2-1,0.5-1.4c0.3-0.4,0.8-0.5,1.3-0.5c0.2,0,0.4,0,0.6,0.1c0.2,0,0.4,0.1,0.5,0.2V86
			c-0.2-0.1-0.3-0.2-0.5-0.2c-0.2-0.1-0.3-0.1-0.5-0.1c-0.4,0-0.7,0.1-0.9,0.4c-0.2,0.2-0.4,0.6-0.4,1c0,0.4,0.1,0.7,0.4,0.9
			c0.2,0.2,0.5,0.4,0.9,0.4c0.2,0,0.4,0,0.5-0.1C116.3,88.1,116.5,88,116.6,87.9z"/>
		<path fill="#666666" d="M117.5,85.7h-0.6v-0.5h0.6v-1.4h0.6v1.4h0.6v0.5h-0.6v3h-0.6V85.7z"/>
		<path fill="#666666" d="M119.9,85.2V87c0,0.5,0.1,0.8,0.2,1c0.1,0.2,0.4,0.3,0.8,0.3s0.6-0.1,0.7-0.3c0.1-0.2,0.2-0.5,0.2-1.1
			v-1.7h0.6v2c0,0.5-0.1,0.9-0.4,1.2c-0.3,0.3-0.7,0.4-1.2,0.4c-0.5,0-0.9-0.1-1.2-0.4c-0.3-0.3-0.4-0.7-0.4-1.2v-2H119.9z"/>
		<path fill="#666666" d="M123.5,88.7v-3.5h0.5V86c0.2-0.3,0.3-0.5,0.5-0.6c0.2-0.1,0.4-0.2,0.7-0.2c0.1,0,0.1,0,0.2,0
			c0.1,0,0.1,0,0.2,0.1l-0.2,0.5c-0.1,0-0.1,0-0.2-0.1c-0.1,0-0.1,0-0.2,0c-0.3,0-0.6,0.1-0.7,0.3c-0.2,0.2-0.2,0.6-0.2,1v1.7H123.5
			z"/>
		<path fill="#666666" d="M129.3,87.1h-2.8v0.1c0,0.4,0.1,0.7,0.3,0.9c0.2,0.2,0.5,0.3,0.8,0.3c0.2,0,0.4-0.1,0.6-0.2
			c0.2-0.1,0.4-0.3,0.5-0.6l0.5,0.3c-0.2,0.3-0.4,0.6-0.7,0.7c-0.3,0.2-0.6,0.2-0.9,0.2c-0.5,0-1-0.2-1.3-0.5
			c-0.3-0.3-0.5-0.8-0.5-1.4c0-0.5,0.2-1,0.5-1.3c0.3-0.3,0.7-0.5,1.2-0.5c0.5,0,0.9,0.2,1.2,0.5c0.3,0.3,0.4,0.8,0.4,1.3V87.1z
			 M128.6,86.6c0-0.3-0.1-0.5-0.3-0.7c-0.2-0.2-0.4-0.2-0.8-0.2c-0.3,0-0.5,0.1-0.7,0.3c-0.2,0.2-0.3,0.4-0.3,0.7H128.6z"/>
		<path fill="#666666" d="M130.1,88.7v-3.5h0.5V86c0.2-0.3,0.3-0.5,0.5-0.6c0.2-0.1,0.4-0.2,0.7-0.2c0.1,0,0.1,0,0.2,0
			c0.1,0,0.1,0,0.2,0.1l-0.2,0.5c-0.1,0-0.1,0-0.2-0.1c-0.1,0-0.1,0-0.2,0c-0.3,0-0.5,0.1-0.7,0.3c-0.2,0.2-0.2,0.6-0.2,1v1.7H130.1
			z"/>
		<path fill="#666666" d="M132.4,88.1l0.5-0.3c0.1,0.2,0.2,0.3,0.4,0.4c0.1,0.1,0.3,0.1,0.5,0.1c0.2,0,0.4,0,0.5-0.1
			c0.1-0.1,0.2-0.2,0.2-0.4c0-0.1,0-0.2-0.1-0.3c-0.1-0.1-0.2-0.2-0.4-0.2c0,0-0.1,0-0.1,0c-0.8-0.3-1.3-0.7-1.3-1.1
			c0-0.3,0.1-0.6,0.3-0.8c0.2-0.2,0.5-0.3,0.9-0.3c0.3,0,0.6,0.1,0.8,0.2c0.2,0.1,0.4,0.3,0.5,0.5l-0.5,0.3
			c-0.1-0.2-0.2-0.3-0.3-0.4c-0.1-0.1-0.3-0.1-0.5-0.1c-0.2,0-0.3,0-0.4,0.1c-0.1,0.1-0.2,0.2-0.2,0.4c0,0.2,0.2,0.4,0.7,0.5
			c0.1,0,0.2,0,0.2,0.1c0.4,0.1,0.6,0.3,0.8,0.4c0.1,0.2,0.2,0.4,0.2,0.6c0,0.3-0.1,0.6-0.4,0.8c-0.2,0.2-0.5,0.3-0.9,0.3
			c-0.3,0-0.6-0.1-0.8-0.2C132.7,88.6,132.5,88.4,132.4,88.1z"/>
	</g>
	<g>
		<polygon fill="#FFFFFF" points="108.7,6 108.7,5.9 108.5,5.9 101.3,0.7 101.2,0.7 94.8,0.7 94.8,0.6 94.7,0.7 55.6,0.7 55.6,0.6 
			55.6,0.7 48.7,0.7 41.7,5.7 41.6,5.8 41.6,5.8 30,14.1 75,52.8 120,14.1 		"/>
		<path fill="#FFFFFF" d="M47.8,14.3c0.8,1.4,13.9,25.5,14.8,27.3c-1.3-1.5-22.5-25.2-24.3-27.3H47.8z"/>
		<path fill="#B2B2B2" d="M38.2,14c0.4-0.9,3.1-6.8,3.6-7.9l5.8,7.9H38.2z"/>
		<path fill="#B2B2B2" d="M75,14.3c-0.2,2.1-2.9,27.3-3.2,29.9L60.3,14.3h14.5H75z"/>
		<path fill="#B2B2B2" d="M75.6,14.3h14.5L78.2,44.1c-0.3-2.6-2.7-27.8-2.9-29.9H75.6z"/>
		<path fill="#808080" d="M90,14H75.6c0.6-0.4,10.8-8.1,11.1-8.3C86.7,6,89.9,13.7,90,14z"/>
		<polygon fill="#FFFFFF" points="86.9,5.8 102,14 90.3,14 		"/>
		<path fill="#808080" d="M60.3,14c0.1-0.3,3.3-8,3.4-8.3C64,5.9,74.2,13.6,74.8,14H60.3z"/>
		<path fill="#CCCCCC" d="M60,14.3l11.5,29.7C68.8,40.5,50,16.7,48.1,14.3h11.9H60z"/>
		<polygon fill="#FFFFFF" points="75.2,15.4 78,44.6 75,52.2 72.1,44.7 		"/>
		<path fill="#CCCCCC" d="M90.3,14.3L90.3,14.3h11.9c-2,2.4-20.9,26.2-23.7,29.7L90.3,14.3z"/>
		<path fill="#FFFFFF" d="M102.6,14.3h9.5c-1.9,2.1-23,25.5-24.3,27C88.8,39.5,101.8,15.7,102.6,14.3z"/>
		<path fill="#B2B2B2" d="M102.8,14l5.7-7.8c0.5,1.1,3.3,6.9,3.8,7.8H102.8z"/>
		<path fill="#E5E5E5" d="M102.5,14c-0.2-0.1-15.2-8.3-15.6-8.5c0.4-0.2,7.7-4.5,7.8-4.6c0.1,0,13.2,5,13.5,5.1
			C108.1,6.3,102.6,13.8,102.5,14z"/>
		<path fill="#CCCCCC" d="M86.7,5.3L86.7,5.3L86.7,5.3L75.8,0.9c6.9,0,13.7,0,18.5,0L86.7,5.3z"/>
		<polygon fill="#FFFFFF" points="86.4,5.5 75.2,14 63.9,5.5 75.2,0.9 		"/>
		<polygon fill="#FFFFFF" points="60,14 48.3,14 63.4,5.8 		"/>
		<path fill="#E5E5E5" d="M47.9,14c-0.1-0.2-5.7-7.8-5.9-8.1c0.3-0.1,13.5-4.9,13.6-5c0.1,0.1,7.5,4.4,7.8,4.6
			C63.1,5.7,48.1,13.9,47.9,14z"/>
		<path fill="#FFFFFF" d="M37.9,14h-7.3c1-0.7,6.3-4.5,10.9-7.8L37.9,14z"/>
		<path fill="#B2B2B2" d="M37.9,14.3l23.9,26.8C49.3,30.4,32.2,15.7,30.5,14.3H37.9z"/>
		<path fill="#808080" d="M48.6,15.4c1.6,2,21,26.6,23.2,29.4l2.9,7.4c-1.2-1-5.7-4.9-11.4-9.8C62.8,41.6,49.9,17.7,48.6,15.4z"/>
		<path fill="#808080" d="M78.2,44.7c2.2-2.8,21.9-27.4,23.5-29.4c-1.3,2.3-14.2,25.9-14.6,26.7c-5.9,5.1-10.6,9.1-11.8,10.1
			L78.2,44.7z"/>
		<path fill="#B2B2B2" d="M112.5,14.3h7c-1.7,1.4-18.4,15.8-30.8,26.5L112.5,14.3z"/>
		<path fill="#FFFFFF" d="M112.5,14l-3.7-7.6c4.5,3.3,9.6,6.9,10.6,7.6H112.5z"/>
		<path fill="#FFFFFF" d="M101.2,0.9c0,0,2.9,2.1,6.4,4.6L95.5,0.9C99,0.9,101.2,0.9,101.2,0.9z"/>
		<path fill="#CCCCCC" d="M74.5,0.9L63.7,5.3l-0.1-0.1l0,0l-7.6-4.4C60.9,0.9,67.7,0.9,74.5,0.9z"/>
		<path fill="#FFFFFF" d="M48.8,0.9c0,0,2.4,0,6.1,0L42.6,5.4C46,3,48.8,0.9,48.8,0.9z"/>
	</g>
	<g>
		<path fill="#FFFFFF" d="M0,75.1V64.6h2.3c1.5,0,2.5,0.1,3.1,0.2C6,65,6.6,65.3,7,65.6c0.6,0.5,1.1,1.1,1.4,1.8
			c0.3,0.7,0.5,1.5,0.5,2.5c0,0.9-0.2,1.7-0.5,2.5C8.1,73,7.6,73.6,7,74.1c-0.5,0.4-1,0.6-1.6,0.8C4.9,75,4,75.1,2.7,75.1H2.3H0z
			 M1.7,73.5h1.4c0.8,0,1.4-0.1,1.8-0.2c0.4-0.1,0.7-0.3,1-0.5c0.4-0.3,0.7-0.8,0.9-1.3c0.2-0.5,0.3-1.1,0.3-1.8
			c0-0.7-0.1-1.3-0.3-1.8c-0.2-0.5-0.5-0.9-0.9-1.3c-0.3-0.2-0.6-0.4-1.1-0.5c-0.4-0.1-1.1-0.2-1.9-0.2H2.3H1.7V73.5z"/>
		<path fill="#FFFFFF" d="M10.4,65.4c0-0.3,0.1-0.5,0.3-0.7c0.2-0.2,0.4-0.3,0.7-0.3c0.3,0,0.5,0.1,0.7,0.3c0.2,0.2,0.3,0.4,0.3,0.7
			s-0.1,0.5-0.3,0.7c-0.2,0.2-0.4,0.3-0.7,0.3c-0.3,0-0.5-0.1-0.7-0.3C10.5,65.9,10.4,65.7,10.4,65.4z M10.6,75.1v-6.8h1.5v6.8H10.6
			z"/>
		<path fill="#FFFFFF" d="M20.6,75.1H19v-0.9c-0.3,0.4-0.6,0.7-1,0.9c-0.4,0.2-0.8,0.3-1.3,0.3c-1,0-1.7-0.3-2.3-1
			c-0.5-0.7-0.8-1.5-0.8-2.7c0-1.1,0.3-2,0.8-2.6c0.6-0.7,1.3-1,2.2-1c0.6,0,1,0.1,1.4,0.3c0.4,0.2,0.7,0.6,0.9,1v-1.1h1.5V75.1z
			 M19.1,71.7c0-0.7-0.2-1.2-0.5-1.6c-0.3-0.4-0.8-0.6-1.4-0.6c-0.6,0-1,0.2-1.4,0.6c-0.3,0.4-0.5,1-0.5,1.7c0,0.7,0.2,1.3,0.5,1.7
			c0.3,0.4,0.8,0.6,1.4,0.6c0.6,0,1-0.2,1.4-0.6C18.9,72.9,19.1,72.4,19.1,71.7z"/>
		<path fill="#FFFFFF" d="M24.1,75.1h-1.5v-6.8H24v1.1c0.3-0.5,0.7-0.8,1.1-1c0.4-0.2,0.9-0.3,1.4-0.3c0.5,0,1,0.1,1.3,0.3
			c0.3,0.2,0.6,0.6,0.8,1c0.4-0.5,0.7-0.8,1.1-1c0.4-0.2,0.9-0.3,1.4-0.3c0.4,0,0.8,0.1,1.2,0.2c0.3,0.2,0.6,0.4,0.8,0.7
			c0.1,0.1,0.2,0.3,0.2,0.5c0,0.2,0.1,0.5,0.1,0.9V71v4.1h-1.5v-3.5c0-0.9-0.1-1.5-0.3-1.8c-0.2-0.3-0.5-0.4-1-0.4
			c-0.6,0-1,0.2-1.3,0.6c-0.3,0.4-0.4,1.1-0.4,2v3.1h-1.6v-3.5c0-0.8-0.1-1.4-0.3-1.7c-0.2-0.3-0.6-0.5-1-0.5
			c-0.3,0-0.6,0.1-0.8,0.2c-0.3,0.1-0.5,0.3-0.6,0.6c-0.1,0.2-0.2,0.3-0.2,0.6c0,0.2-0.1,0.7-0.1,1.3V75.1z"/>
		<path fill="#FFFFFF" d="M34.7,71.7c0-0.5,0.1-1,0.3-1.4c0.2-0.4,0.5-0.8,0.8-1.2c0.3-0.3,0.7-0.6,1.2-0.8c0.5-0.2,0.9-0.3,1.4-0.3
			c0.5,0,1,0.1,1.4,0.3c0.5,0.2,0.9,0.4,1.2,0.8c0.4,0.3,0.6,0.7,0.8,1.2c0.2,0.4,0.3,0.9,0.3,1.4c0,0.5-0.1,1-0.3,1.4
			c-0.2,0.4-0.5,0.8-0.8,1.2c-0.4,0.4-0.8,0.6-1.2,0.8c-0.5,0.2-0.9,0.3-1.4,0.3c-0.5,0-1-0.1-1.4-0.3c-0.5-0.2-0.9-0.4-1.2-0.8
			c-0.4-0.4-0.6-0.7-0.8-1.2C34.8,72.7,34.7,72.2,34.7,71.7z M40.5,71.7c0-0.6-0.2-1.2-0.6-1.6c-0.4-0.4-0.9-0.7-1.5-0.7
			c-0.6,0-1.1,0.2-1.5,0.7c-0.4,0.4-0.6,1-0.6,1.6c0,0.6,0.2,1.2,0.6,1.6c0.4,0.4,0.9,0.7,1.5,0.7c0.6,0,1.1-0.2,1.5-0.7
			C40.3,72.9,40.5,72.3,40.5,71.7z"/>
		<path fill="#FFFFFF" d="M43.7,75.1v-6.8h1.5v1.1c0.3-0.5,0.7-0.8,1.1-1c0.4-0.2,0.9-0.3,1.5-0.3c0.5,0,0.9,0.1,1.3,0.2
			c0.4,0.2,0.6,0.4,0.8,0.7c0.1,0.2,0.2,0.4,0.3,0.6c0.1,0.2,0.1,0.7,0.1,1.3v4.1h-1.6v-3.5c0-0.9-0.1-1.5-0.3-1.8
			c-0.2-0.3-0.6-0.4-1.2-0.4c-0.4,0-0.7,0.1-1,0.2c-0.3,0.1-0.5,0.3-0.7,0.6c-0.1,0.2-0.2,0.4-0.2,0.6c0,0.3-0.1,0.7-0.1,1.2v3.1
			H43.7z"/>
		<path fill="#FFFFFF" d="M56.9,64h1.5v11.1h-1.5v-0.9c-0.3,0.4-0.6,0.7-1,0.9c-0.4,0.2-0.8,0.3-1.3,0.3c-1,0-1.7-0.3-2.3-1
			c-0.5-0.7-0.8-1.5-0.8-2.7c0-1.1,0.3-2,0.8-2.6c0.6-0.7,1.3-1,2.2-1c0.6,0,1,0.1,1.4,0.3c0.4,0.2,0.7,0.6,0.9,1V64z M57,71.7
			c0-0.7-0.2-1.2-0.5-1.6c-0.3-0.4-0.8-0.6-1.4-0.6s-1,0.2-1.4,0.6c-0.3,0.4-0.5,1-0.5,1.7c0,0.7,0.2,1.3,0.5,1.7
			c0.3,0.4,0.8,0.6,1.4,0.6c0.6,0,1-0.2,1.4-0.6C56.8,72.9,57,72.4,57,71.7z"/>
		<path fill="#FFFFFF" d="M73.3,67.2c-0.5-0.4-1-0.7-1.5-0.9c-0.5-0.2-1.1-0.3-1.7-0.3c-1.1,0-2.1,0.4-2.8,1.1
			c-0.7,0.7-1.1,1.7-1.1,2.8c0,1.1,0.3,2.1,1,2.8c0.7,0.7,1.6,1.1,2.6,1.1c0.6,0,1.2-0.1,1.8-0.3c0.6-0.2,1.1-0.5,1.6-1v1.9
			c-0.5,0.3-1,0.6-1.5,0.7c-0.5,0.2-1.1,0.2-1.7,0.2c-0.8,0-1.5-0.1-2.2-0.4c-0.7-0.3-1.3-0.6-1.8-1.2c-0.5-0.5-0.9-1.1-1.2-1.8
			c-0.3-0.7-0.4-1.4-0.4-2.2c0-0.8,0.1-1.5,0.4-2.2c0.3-0.7,0.7-1.3,1.2-1.8c0.5-0.5,1.1-0.9,1.8-1.2c0.7-0.3,1.4-0.4,2.2-0.4
			c0.6,0,1.2,0.1,1.8,0.3c0.6,0.2,1.1,0.4,1.6,0.8L73.3,67.2z"/>
		<path fill="#FFFFFF" d="M81.6,71.9h-5.4c0,0.6,0.2,1.1,0.6,1.5c0.3,0.4,0.8,0.5,1.3,0.5c0.5,0,0.9-0.1,1.2-0.3
			c0.3-0.2,0.6-0.5,0.9-1l1.3,0.7c-0.4,0.7-0.9,1.2-1.4,1.5c-0.6,0.3-1.2,0.5-2,0.5c-1.1,0-1.9-0.3-2.6-1c-0.6-0.7-1-1.5-1-2.6
			c0-1.1,0.3-1.9,1-2.6c0.7-0.7,1.5-1,2.6-1c1.1,0,1.9,0.3,2.5,0.9c0.6,0.6,0.9,1.5,0.9,2.6V71.9z M80,70.9
			c-0.1-0.5-0.2-0.9-0.6-1.1c-0.3-0.3-0.7-0.4-1.3-0.4c-0.5,0-0.9,0.1-1.2,0.4c-0.3,0.2-0.5,0.6-0.7,1.1H80z"/>
		<path fill="#FFFFFF" d="M83.1,75.1v-6.8h1.5v1.1c0.3-0.5,0.7-0.8,1.1-1c0.4-0.2,0.9-0.3,1.5-0.3c0.5,0,0.9,0.1,1.3,0.2
			c0.4,0.2,0.6,0.4,0.8,0.7c0.1,0.2,0.2,0.4,0.3,0.6c0.1,0.2,0.1,0.7,0.1,1.3v4.1H88v-3.5c0-0.9-0.1-1.5-0.3-1.8
			c-0.2-0.3-0.6-0.4-1.2-0.4c-0.4,0-0.7,0.1-1,0.2c-0.3,0.1-0.5,0.3-0.7,0.6c-0.1,0.2-0.2,0.4-0.2,0.6c0,0.3-0.1,0.7-0.1,1.2v3.1
			H83.1z"/>
		<path fill="#FFFFFF" d="M91.9,75.1v-5.4h-1.2v-1.4h1.2v-2.6h1.5v2.6h1.2v1.4h-1.2v5.4H91.9z"/>
		<path fill="#FFFFFF" d="M97.3,69.4c0.2-0.4,0.4-0.8,0.7-1c0.3-0.2,0.6-0.3,1-0.3c0.2,0,0.4,0,0.6,0.1c0.2,0.1,0.4,0.1,0.6,0.2
			l-0.6,1.3c-0.1-0.1-0.3-0.2-0.4-0.2c-0.2,0-0.3-0.1-0.5-0.1c-0.5,0-0.9,0.2-1.1,0.6c-0.2,0.4-0.3,1.1-0.3,2.1v3h-1.5v-6.8h1.5
			V69.4z"/>
		<path fill="#FFFFFF" d="M107.5,71.9h-5.4c0,0.6,0.2,1.1,0.6,1.5c0.3,0.4,0.8,0.5,1.3,0.5c0.5,0,0.9-0.1,1.2-0.3
			c0.3-0.2,0.6-0.5,0.9-1l1.3,0.7c-0.4,0.7-0.9,1.2-1.4,1.5c-0.6,0.3-1.2,0.5-2,0.5c-1.1,0-1.9-0.3-2.6-1c-0.6-0.7-1-1.5-1-2.6
			c0-1.1,0.3-1.9,1-2.6c0.7-0.7,1.5-1,2.6-1c1.1,0,1.9,0.3,2.5,0.9c0.6,0.6,0.9,1.5,0.9,2.6V71.9z M105.9,70.9
			c-0.1-0.5-0.2-0.9-0.6-1.1c-0.3-0.3-0.7-0.4-1.3-0.4c-0.5,0-0.9,0.1-1.2,0.4c-0.3,0.2-0.5,0.6-0.6,1.1H105.9z"/>
		<path fill="#FFFFFF" d="M111.4,64.6h1.7l2,5.3c0.1,0.3,0.2,0.7,0.3,0.9c0.1,0.3,0.2,0.5,0.2,0.7c0.2-0.6,0.3-1.1,0.5-1.6
			c0-0.1,0-0.1,0.1-0.1l2.1-5.6l2.2,5.7c0.1,0.3,0.2,0.6,0.3,0.8c0.1,0.3,0.2,0.6,0.3,0.8c0-0.2,0.1-0.4,0.2-0.7
			c0.1-0.3,0.2-0.6,0.3-0.9l2-5.3h1.7l-4,10.9l-2.4-6c-0.1-0.3-0.2-0.5-0.3-0.8c-0.1-0.2-0.2-0.5-0.2-0.7c-0.1,0.3-0.2,0.5-0.2,0.8
			c-0.1,0.2-0.2,0.5-0.3,0.7l-2.3,5.9L111.4,64.6z"/>
		<path fill="#FFFFFF" d="M131.7,75.1h-1.5v-0.9c-0.3,0.4-0.6,0.7-1,0.9c-0.4,0.2-0.8,0.3-1.3,0.3c-1,0-1.7-0.3-2.3-1
			c-0.6-0.7-0.8-1.5-0.8-2.7c0-1.1,0.3-2,0.8-2.6c0.6-0.7,1.3-1,2.2-1c0.6,0,1,0.1,1.4,0.3c0.4,0.2,0.7,0.6,0.9,1v-1.1h1.5V75.1z
			 M130.2,71.7c0-0.7-0.2-1.2-0.5-1.6c-0.3-0.4-0.8-0.6-1.4-0.6c-0.6,0-1,0.2-1.4,0.6c-0.3,0.4-0.5,1-0.5,1.7c0,0.7,0.2,1.3,0.5,1.7
			c0.3,0.4,0.8,0.6,1.4,0.6c0.6,0,1-0.2,1.4-0.6C130,72.9,130.2,72.4,130.2,71.7z"/>
		<path fill="#FFFFFF" d="M133.7,75.1V64h1.5v11.1H133.7z"/>
		<path fill="#FFFFFF" d="M143.9,71.9h-5.4c0,0.6,0.2,1.1,0.6,1.5c0.3,0.4,0.8,0.5,1.3,0.5c0.5,0,0.9-0.1,1.2-0.3
			c0.3-0.2,0.6-0.5,0.9-1l1.3,0.7c-0.4,0.7-0.9,1.2-1.4,1.5c-0.6,0.3-1.2,0.5-2,0.5c-1.1,0-1.9-0.3-2.6-1c-0.6-0.7-1-1.5-1-2.6
			c0-1.1,0.3-1.9,1-2.6c0.7-0.7,1.5-1,2.6-1c1.1,0,1.9,0.3,2.5,0.9c0.6,0.6,0.9,1.5,0.9,2.6V71.9z M142.3,70.9
			c-0.1-0.5-0.2-0.9-0.6-1.1c-0.3-0.3-0.7-0.4-1.3-0.4c-0.5,0-0.9,0.1-1.2,0.4c-0.3,0.2-0.5,0.6-0.6,1.1H142.3z"/>
		<path fill="#FFFFFF" d="M144.6,73.9l1.3-0.7c0.1,0.3,0.3,0.6,0.5,0.8c0.3,0.2,0.6,0.3,1,0.3c0.3,0,0.6-0.1,0.8-0.2
			c0.2-0.2,0.3-0.4,0.3-0.7c0-0.4-0.4-0.7-1.1-0.9c-0.2-0.1-0.4-0.2-0.6-0.2c-0.7-0.3-1.2-0.6-1.5-0.9c-0.3-0.3-0.4-0.7-0.4-1.1
			c0-0.6,0.2-1.1,0.7-1.5c0.5-0.4,1.1-0.6,1.9-0.6c0.5,0,1,0.1,1.3,0.3c0.4,0.2,0.6,0.5,0.8,0.8l-1.1,0.8c-0.1-0.2-0.2-0.4-0.4-0.5
			c-0.2-0.1-0.4-0.2-0.7-0.2c-0.3,0-0.5,0.1-0.7,0.2c-0.2,0.1-0.3,0.3-0.3,0.6c0,0.4,0.4,0.7,1.2,1c0.3,0.1,0.4,0.2,0.6,0.2
			c0.6,0.2,1.1,0.5,1.3,0.8c0.3,0.3,0.4,0.7,0.4,1.2c0,0.7-0.2,1.2-0.7,1.6c-0.5,0.4-1.2,0.6-2,0.6c-0.7,0-1.2-0.1-1.6-0.4
			C145.2,74.7,144.8,74.4,144.6,73.9z"/>
	</g>
	<path fill="#666666" d="M75,53.6L28.9,14.1L48.5,0h52.9l19.6,14.1L75,53.6z M31.1,14.2L75,51.9l43.9-37.7L101,1.3H49L31.1,14.2z"/>
</g>
</svg>
