<svg id="_1" data-name="1" xmlns="http://www.w3.org/2000/svg" viewBox="0 0 298.77 305.27"><defs><style>.cls-1{font-size:42.79px;font-family:Intro-Black-Caps, Intro Black Caps;}.cls-1,.cls-5{fill:#00a998;}.cls-2{letter-spacing:-0.01em;}.cls-3{letter-spacing:0em;}.cls-4{letter-spacing:-0.01em;}</style></defs><title>Seculuxe_Logo</title><text class="cls-1" transform="translate(38.79 280.38)">S<tspan class="cls-2" x="27.77" y="0">e</tspan><tspan class="cls-3" x="51.9" y="0">cu</tspan><tspan class="cls-4" x="114.63" y="0">l</tspan><tspan x="136.96" y="0">uxe</tspan></text><path class="cls-5" d="M274.38,105.21l-125,120.72-125-120.72L84,32.5h71.12V55.44h48.8l39.31,48L149.38,194,55.53,103.4l39.32-48h37.32V66.91H100.28L71.11,102.5l78.27,75.59,78.27-75.59L198.47,66.91H155.11v23h-44l-8.89,10.82,47.13,45.51,47.11-45.51-8.87-10.82h-21V78.38h26.46l19,23.21-62.69,60.54-62.7-60.54,19-23.21h37.93V44H89.42L40,104.31,149.38,210,258.8,104.31,209.34,44H166.59V32.5h48.17Z"/></svg>