                        <svg width="141" height="40" viewBox="0 0 141 40" fill="none" xmlns="http://www.w3.org/2000/svg">
                            <path fill-rule="evenodd" clip-rule="evenodd" d="M141 0H139V40H141V0ZM13.248 28.616V16.808H7.392V28.616H2.528V16.808H0V12.712H2.528V11.336C2.528 7.688 4.736 5.192 8.608 5.192C9.408 5.192 10.4 5.32 10.848 5.544V9.512C10.624 9.448 10.176 9.352 9.472 9.352C8.64 9.352 7.392 9.736 7.392 11.336V12.712H18.112V28.616H13.248ZM15.648 10.696C14.112 10.696 12.832 9.416 12.832 7.848C12.832 6.248 14.112 5 15.648 5C17.248 5 18.528 6.248 18.528 7.848C18.528 9.416 17.248 10.696 15.648 10.696ZM26.5785 5.448V28.616H21.7145V5.448H26.5785ZM35.0947 28.616V5.448H30.2307V28.616H35.0947ZM57.3592 12.236C54.2992 12.236 52.6792 14.396 52.6792 14.396V5.5H49.9792V28.616H52.6792V19.256C52.6792 16.556 54.4792 14.756 56.9992 14.756C59.1592 14.756 60.9592 16.556 60.9592 19.256V28.616H63.6592V19.256C63.6592 15.116 60.7792 12.236 57.3592 12.236ZM40.6079 11.436C40.6079 12.696 39.8879 13.416 38.6279 13.416H37.3679V15.936H40.2479V23.396C40.2479 26.636 42.4079 28.796 44.9279 28.796C46.0079 28.796 46.5479 28.436 46.5479 28.436V26.096C46.5479 26.096 46.1879 26.276 45.6479 26.276C44.0279 26.276 42.9479 25.196 42.9479 23.396V15.936H46.5479V13.416H42.9479V8.09597H40.6079V11.436ZM68.88 21.776C69.06 24.116 71.22 26.276 73.56 26.276C75.5006 26.276 76.791 25.0778 77.6972 23.5L80.22 24.296C79.14 26.636 76.98 28.796 73.56 28.796C69.42 28.796 66 25.376 66 20.516C66 15.656 69.42 12.236 73.38 12.236C77.34 12.236 80.58 15.476 80.58 20.336C80.58 21.236 80.4 21.776 80.4 21.776H68.88ZM77.7 19.436C77.34 16.556 75.54 14.756 73.38 14.756C71.22 14.756 69.24 16.736 68.88 19.436H77.7ZM94.75 5.448H99.55V25.768C99.55 27.2079 99.646 28.2639 99.678 28.6159V28.616H95.006C94.974 28.424 94.878 27.72 94.878 27.08C94.142 28.168 92.542 28.968 90.622 28.968C86.142 28.968 82.75 25.512 82.75 20.616C82.75 15.88 85.95 12.328 90.462 12.328C93.182 12.328 94.366 13.352 94.75 13.96V5.448ZM91.23 16.712C89.342 16.712 87.646 17.992 87.646 20.648C87.646 23.272 89.342 24.616 91.23 24.616C93.118 24.616 94.814 23.272 94.814 20.648C94.814 17.992 93.118 16.712 91.23 16.712ZM107.005 20.648C107.005 23.304 108.765 24.616 110.589 24.616C112.445 24.616 114.173 23.336 114.173 20.648C114.173 17.96 112.445 16.712 110.589 16.712C108.765 16.712 107.005 17.96 107.005 20.648ZM102.141 20.648C102.141 15.72 105.853 12.232 110.589 12.232C115.357 12.232 119.037 15.72 119.037 20.648C119.037 25.576 115.357 29.096 110.589 29.096C105.853 29.096 102.141 25.576 102.141 20.648ZM128.856 16.712C130.744 16.712 131.704 17.864 132.056 19.08L136.408 17.768C135.704 14.92 133.144 12.232 128.76 12.232C124.088 12.232 120.376 15.72 120.376 20.68C120.376 25.608 124.184 29.096 128.92 29.096C133.176 29.096 135.8 26.344 136.504 23.56L132.216 22.248C131.864 23.432 130.808 24.616 128.92 24.616C126.904 24.616 125.208 23.208 125.208 20.68C125.208 18.12 126.84 16.712 128.856 16.712Z" fill="#0D7EE8" />
                        </svg>