<svg width="3447" height="809.46781" xmlns="http://www.w3.org/2000/svg">

 <g>
  <title>background</title>
  <rect fill="none" id="canvas_background" height="811.46781" width="3449" y="-1" x="-1"/>
 </g>
 <g>
  <title>Layer 1</title>
  <g transform="translate(328,328) scale(34.400001525878906) " id="SvgjsG213252">

   <g transform="translate(0.1162828728556633,0) scale(0.30096006393432617) " id="SvgjsG46511">
    <g fill="#e350a5" transform="translate(0,0) scale(1) " class="EMB1l-BSoU" id="SvgjsG46512">
     <path id="svg_1" fill-rule="nonzero" d="m-31.682638,-31.618272l174.37,0l0,4l-174.37,0l0,-4zm0,0l4,0l0,78.09l-4,0l0,-78.09zm174.37,78.09l-174.37,0l0,-4l174.37,0l0,4zm0,0l-4,0l0,-78.09l4,0l0,78.09z"/>
    </g>
    <g fill="#e350a5" transform="translate(85.5999984741211,63.040000915527344) scale(1) " class="text" id="SvgjsG46513">
     <path id="svg_2" d="m-103.282638,-31.618272l30.82,0l0,-8.32l-21.09,0l0,-39.67l-9.73,0l0,47.99zm36.09,0l33.05,0l0,-8.32l-23.32,0l0,-12.36l20.39,0l0,-8.21l-20.39,0l0,-10.72l22.67,0l0,-8.38l-32.4,0l0,47.99zm35.51,-39.61l13.42,0l0,39.61l9.67,0l0,-39.61l13.36,0l0,-8.38l-36.45,0l0,8.38zm37.62,28.65c1.56,3.71 4.08,6.64 7.56,8.79c3.47,2.15 7.42,3.22 11.83,3.22c5.08,0 9.31,-1.26 12.69,-3.77c3.38,-2.52 5.07,-6.07 5.07,-10.64c0,-1.99 -0.36,-3.79 -1.06,-5.39c-0.7,-1.6 -1.7,-2.94 -2.99,-4.01c-1.29,-1.08 -2.62,-1.97 -4.01,-2.67c-1.39,-0.7 -2.96,-1.35 -4.72,-1.93c-0.43,-0.16 -1.3,-0.43 -2.61,-0.82c-1.3,-0.39 -2.2,-0.68 -2.69,-0.85c-0.49,-0.18 -1.23,-0.46 -2.23,-0.85c-0.99,-0.39 -1.7,-0.75 -2.11,-1.06c-0.41,-0.31 -0.89,-0.7 -1.46,-1.17c-0.57,-0.47 -0.95,-0.98 -1.14,-1.52c-0.2,-0.55 -0.3,-1.15 -0.3,-1.82c0,-1.56 0.65,-2.82 1.94,-3.78c1.29,-0.96 3.04,-1.43 5.27,-1.43c3.87,0 7.09,1.77 9.67,5.33l8.2,-2.7c-1.44,-3.24 -3.68,-5.89 -6.71,-7.94c-3.03,-2.05 -6.73,-3.07 -11.1,-3.07c-5.08,0 -9.24,1.26 -12.48,3.78c-3.24,2.52 -4.86,5.81 -4.86,9.87c0,4.96 2.32,8.71 6.97,11.25c1.56,0.82 4.65,1.99 9.26,3.52c2.96,1.01 5.21,2.08 6.73,3.19c1.53,1.11 2.29,2.61 2.29,4.48c0,1.64 -0.67,3 -2.02,4.07c-1.35,1.08 -3.14,1.61 -5.36,1.61c-2.27,0 -4.45,-0.62 -6.54,-1.87c-2.09,-1.25 -3.64,-2.81 -4.66,-4.69l-8.43,2.87z"/>
    </g>
    <g fill="#9a1964" transform="translate(255.38999938964844,60.58000183105469) scale(1) " class="text" id="SvgjsG46514">
     <path id="svg_3" d="m-102.702638,-31.618272l3.7,0l0,-20.16l19.74,0l0,-3.1l-19.74,0l0,-16.64l21.91,0l0,-3.17l-25.61,0l0,43.07zm33.46,0l24.55,0l0,-3.16l-20.86,0l0,-39.91l-3.69,0l0,43.07zm27.07,-21.5c0,6.83 1.58,12.3 4.75,16.4c3.16,4.1 7.44,6.15 12.83,6.15c5.35,0 9.61,-2.04 12.77,-6.12c3.17,-4.08 4.75,-9.54 4.75,-16.38c0,-6.79 -1.57,-12.27 -4.72,-16.43c-3.14,-4.16 -7.41,-6.24 -12.8,-6.24c-5.35,0 -9.62,2.07 -12.8,6.21c-3.19,4.14 -4.78,9.61 -4.78,16.41zm3.81,0c0,-5.94 1.24,-10.67 3.72,-14.18c2.48,-3.52 5.83,-5.28 10.05,-5.28c4.3,0 7.66,1.77 10.08,5.31c2.42,3.53 3.63,8.27 3.63,14.2c0,5.94 -1.24,10.64 -3.72,14.1c-2.48,3.45 -5.81,5.18 -9.99,5.18c-4.26,0 -7.62,-1.76 -10.08,-5.27c-2.46,-3.52 -3.69,-8.2 -3.69,-14.06zm35.16,-21.57l10.37,43.07l4.39,0l7.39,-29.77c0.15,-0.66 0.47,-2.01 0.96,-4.04c0.49,-2.03 0.83,-3.57 1.03,-4.63l0.17,0c0.39,2.03 1.04,4.92 1.94,8.67l7.44,29.77l4.39,0l10.32,-43.07l-4.11,0l-6.68,30.18c-1.05,5.43 -1.62,8.34 -1.7,8.73l-0.17,0c-0.98,-4.34 -1.64,-7.25 -1.99,-8.73l-7.5,-30.18l-4.16,0l-7.44,30.18c-0.24,0.98 -0.88,3.89 -1.94,8.73l-0.29,0c-0.31,-1.76 -0.86,-4.67 -1.64,-8.73l-6.68,-30.18l-4.1,0z"/>
    </g>
   </g>
  </g>
 </g>
</svg>