<svg xmlns="http://www.w3.org/2000/svg" width="260" height="64" viewBox="0 0 260 64">
  <path fill="#0D7EE8" fill-rule="evenodd" d="M226,0 L222.794326,0 L222.794326,64 L226,64 L226,0 Z M21.234383,45.7856 L21.234383,26.8928 L11.8481702,26.8928 L11.8481702,45.7856 L4.05197163,45.7856 L4.05197163,26.8928 L0,26.8928 L0,20.3392 L4.05197163,20.3392 L4.05197163,18.1376 C4.05197163,12.3008 7.59103546,8.3072 13.7972199,8.3072 C15.0794894,8.3072 16.6695035,8.512 17.3875745,8.8704 L17.3875745,15.2192 C17.028539,15.1168 16.3104681,14.9632 15.1820709,14.9632 C13.8485106,14.9632 11.8481702,15.5776 11.8481702,18.1376 L11.8481702,20.3392 L29.0305816,20.3392 L29.0305816,45.7856 L21.234383,45.7856 Z M25.0811915,17.1136 C22.619234,17.1136 20.5676028,15.0656 20.5676028,12.5568 C20.5676028,9.9968 22.619234,8 25.0811915,8 C27.6457305,8 29.6973617,9.9968 29.6973617,12.5568 C29.6973617,15.0656 27.6457305,17.1136 25.0811915,17.1136 Z M42.601,8.7168 L42.601,45.7856 L34.8048014,45.7856 L34.8048014,8.7168 L42.601,8.7168 Z M56.2510794,45.7856 L56.2510794,8.7168 L48.4548809,8.7168 L48.4548809,45.7856 L56.2510794,45.7856 Z M91.9374411,19.5776 C87.0327603,19.5776 84.4361645,23.0336 84.4361645,23.0336 L84.4361645,8.8 L80.108505,8.8 L80.108505,45.7856 L84.4361645,45.7856 L84.4361645,30.8096 C84.4361645,26.4896 87.3212709,23.6096 91.3604199,23.6096 C94.8225475,23.6096 97.7076539,26.4896 97.7076539,30.8096 L97.7076539,45.7856 L102.035313,45.7856 L102.035313,30.8096 C102.035313,24.1856 97.4191433,19.5776 91.9374411,19.5776 Z M65.0878397,18.2976 C65.0878397,20.3136 63.9337972,21.4656 61.9142227,21.4656 L59.8946482,21.4656 L59.8946482,25.4976 L64.5108184,25.4976 L64.5108184,37.4336 C64.5108184,42.6176 67.9729461,46.0736 72.012095,46.0736 C73.7431589,46.0736 74.6086908,45.4976 74.6086908,45.4976 L74.6086908,41.7536 C74.6086908,41.7536 74.0316695,42.0416 73.1661376,42.0416 C70.5695418,42.0416 68.838478,40.3136 68.838478,37.4336 L68.838478,25.4976 L74.6086908,25.4976 L74.6086908,21.4656 L68.838478,21.4656 L68.838478,12.953552 L65.0878397,12.953552 L65.0878397,18.2976 Z M110.403404,34.8416 C110.691915,38.5856 114.154043,42.0416 117.904681,42.0416 C121.015146,42.0416 123.083447,40.12448 124.535938,37.6 L128.579574,38.8736 C126.848511,42.6176 123.386383,46.0736 117.904681,46.0736 C111.268936,46.0736 105.787234,40.6016 105.787234,32.8256 C105.787234,25.0496 111.268936,19.5776 117.61617,19.5776 C123.963404,19.5776 129.156596,24.7616 129.156596,32.5376 C129.156596,33.9776 128.868085,34.8416 128.868085,34.8416 L110.403404,34.8416 Z M124.540426,31.0976 C123.963404,26.4896 121.078298,23.6096 117.61617,23.6096 C114.154043,23.6096 110.980426,26.7776 110.403404,31.0976 L124.540426,31.0976 Z M151.868794,8.7168 L159.562411,8.7168 L159.562411,41.2288 C159.562411,43.53264 159.716284,45.22224 159.767574,45.78544 L159.767574,45.7856 L152.279121,45.7856 C152.22783,45.4784 152.073957,44.352 152.073957,43.328 C150.89427,45.0688 148.32973,46.3488 145.252284,46.3488 C138.071574,46.3488 132.634752,40.8192 132.634752,32.9856 C132.634752,25.408 137.76383,19.7248 144.99583,19.7248 C149.355546,19.7248 151.253305,21.3632 151.868794,22.336 L151.868794,8.7168 Z M146.226809,26.7392 C143.200652,26.7392 140.482241,28.7872 140.482241,33.0368 C140.482241,37.2352 143.200652,39.3856 146.226809,39.3856 C149.252965,39.3856 151.971376,37.2352 151.971376,33.0368 C151.971376,28.7872 149.252965,26.7392 146.226809,26.7392 Z M171.51156,33.0368 C171.51156,37.2864 174.332553,39.3856 177.256128,39.3856 C180.230993,39.3856 183.000695,37.3376 183.000695,33.0368 C183.000695,28.736 180.230993,26.7392 177.256128,26.7392 C174.332553,26.7392 171.51156,28.736 171.51156,33.0368 Z M163.715362,33.0368 C163.715362,25.152 169.665092,19.5712 177.256128,19.5712 C184.898454,19.5712 190.796894,25.152 190.796894,33.0368 C190.796894,40.9216 184.898454,46.5536 177.256128,46.5536 C169.665092,46.5536 163.715362,40.9216 163.715362,33.0368 Z M206.535149,26.7392 C209.561305,26.7392 211.100028,28.5824 211.664227,30.528 L218.639773,28.4288 C217.511376,23.872 213.408113,19.5712 206.381277,19.5712 C198.892823,19.5712 192.943092,25.152 192.943092,33.088 C192.943092,40.9728 199.046695,46.5536 206.63773,46.5536 C213.459404,46.5536 217.665248,42.1504 218.793645,37.696 L211.920681,35.5968 C211.356482,37.4912 209.663887,39.3856 206.63773,39.3856 C203.406411,39.3856 200.688,37.1328 200.688,33.088 C200.688,28.992 203.30383,26.7392 206.535149,26.7392 Z" transform="translate(17)"/>
</svg>
