<svg xmlns="http://www.w3.org/2000/svg" xmlns:xlink="http://www.w3.org/1999/xlink" width="260" height="64" viewBox="0 0 260 64">
  <defs>
    <polygon id="proofi-a" points=".572 .411 31.723 .411 31.723 42.68 .572 42.68"/>
  </defs>
  <g fill="none" fill-rule="evenodd" transform="translate(12)">
    <path fill="#222" fill-rule="nonzero" d="M105.596874,29.1121397 C105.596874,26.9467774 104.958911,25.1868447 103.684519,23.8384843 C102.408593,22.4885883 100.847423,21.8144081 99.0010112,21.8144081 C97.1530653,21.8144081 95.5934297,22.490124 94.3175036,23.8384843 C93.0415775,25.1868447 92.405148,26.9467774 92.405148,29.1121397 C92.405148,31.2790377 93.0415775,33.0374348 94.3175036,34.3857951 C95.5934297,35.7356912 97.1545989,36.4098714 99.0010112,36.4098714 C100.848957,36.4098714 102.408593,35.7341555 103.684519,34.3857951 C104.958911,33.0374348 105.596874,31.2790377 105.596874,29.1121397 M100.321411,13.5214759 C102.186603,13.5160908 104.031191,13.9120267 105.730294,14.682534 C107.438339,15.4517858 108.97429,16.5574479 110.246643,17.9336489 C111.54404,19.3265451 112.577662,20.9743704 113.347512,22.8755892 C114.115828,24.7783437 114.502286,26.8561701 114.502286,29.1121397 C114.502286,31.3681094 114.115828,33.4459357 113.347512,35.3471545 C112.579196,37.2514448 111.54404,38.8977344 110.246643,40.2921663 C108.974425,41.6681303 107.438415,42.7733122 105.730294,43.5417454 C104.031191,44.3122527 102.186603,44.7081887 100.321411,44.7027482 C99.2637463,44.7135282 98.2095914,44.5791841 97.1883373,44.3034615 C96.3547529,44.0820114 95.5475023,43.7710153 94.7806402,43.3758879 C94.0480958,43.0172705 93.3612455,42.5717895 92.7348645,42.0490276 L92.7348645,54.9859155 L83.8309859,54.9859155 L83.8309859,13.8532463 L90.4268491,13.8532463 L91.745715,16.838682 C92.4432548,16.1919469 93.218569,15.6347942 94.0537304,15.1801066 C94.8005766,14.78082 95.7023128,14.4061048 96.7589391,14.0528897 C97.8140318,13.6996745 99.0010112,13.5214759 100.321411,13.5214759 M133.247052,13.5215313 C133.653446,13.5215313 134.02917,13.544567 134.371155,13.5875671 C134.710073,13.632103 134.993782,13.6766388 135.222284,13.7196389 C135.493725,13.7641747 135.743696,13.8087105 135.972197,13.8517106 L135.972197,23.099804 C135.652254,22.9955766 135.334242,22.8854984 135.018319,22.7696247 C134.65928,22.6728013 134.295299,22.5953916 133.927955,22.5377313 C133.476368,22.4681979 133.019965,22.4348183 132.563082,22.4379096 C130.836288,22.4379096 129.43921,22.990768 128.371849,24.0903421 C127.304487,25.1914518 126.770807,26.7317769 126.770807,28.7128531 L126.770807,44.23589 L117.569416,44.23589 L117.569416,13.8517106 L124.384579,13.8517106 L125.749452,17.1535042 C126.321195,16.4693223 126.98671,15.8695701 127.726218,15.3720714 C128.361114,14.8867845 129.144765,14.4567835 130.075639,14.0820683 C131.006513,13.7088888 132.06314,13.5215313 133.245518,13.5215313 M159.368265,29.6465696 C159.368265,27.2723496 158.736436,25.3926309 157.475846,24.0028062 C156.213722,22.6145172 154.669422,21.9203726 152.841412,21.9203726 C151.014936,21.9203726 149.469103,22.6145172 148.210046,24.0028062 C146.946388,25.3910952 146.316093,27.2738854 146.316093,29.6465696 C146.316093,32.0223252 146.944855,33.9005083 148.208512,35.290333 C149.469103,36.678622 151.014936,37.3727665 152.841412,37.3727665 C154.669422,37.3727665 156.213722,36.678622 157.475846,35.290333 C158.736436,33.902044 159.368265,32.0223252 159.368265,29.6465696 M137.505762,29.6465696 C137.505762,27.3614213 137.909089,25.245202 138.714211,23.2979116 C139.483196,21.4042474 140.60061,19.672116 142.008309,18.1916495 C143.390019,16.7424995 145.041506,15.5780541 146.86971,14.7639271 C148.749542,13.9296847 150.785313,13.5061483 152.841412,13.5215313 C154.973067,13.5215313 156.962101,13.9361751 158.813114,14.7654628 C160.641021,15.5787476 162.292476,16.7421275 163.674515,18.1901138 C165.082435,19.6712923 166.200321,21.4038683 166.970147,23.2979116 C167.773735,25.245202 168.177062,27.3614213 168.177062,29.6465696 C168.177062,31.9317179 167.773735,34.0479372 166.970147,35.9952275 C166.199983,37.888998 165.081548,39.6211002 163.672982,41.1014896 C162.291219,42.5505794 160.639746,43.7150159 158.811581,44.5292121 C156.93222,45.3632408 154.896995,45.7867724 152.841412,45.7716079 C150.709757,45.7716079 148.719189,45.356964 146.871243,44.5276764 C145.043297,43.7144607 143.39183,42.5510719 142.009842,41.1030254 C140.600656,39.6225428 139.482152,37.8898145 138.712678,35.9952275 C137.910623,34.0479372 137.505762,31.9317179 137.505762,29.6465696 M193.105162,29.6465696 C193.105162,27.2723496 192.474867,25.3926309 191.212743,24.0028062 C189.952152,22.6145172 188.406319,21.9203726 186.579843,21.9203726 C184.753367,21.9203726 183.207533,22.6145172 181.946943,24.0028062 C180.684819,25.3910952 180.054524,27.2738854 180.054524,29.6465696 C180.054524,32.0223252 180.684819,33.9005083 181.946943,35.290333 C183.207533,36.678622 184.753367,37.3727665 186.579843,37.3727665 C188.406319,37.3727665 189.952152,36.678622 191.212743,35.290333 C192.474867,33.902044 193.105162,32.0223252 193.105162,29.6465696 M171.244192,29.6465696 C171.244192,27.3614213 171.645986,25.245202 172.451108,23.2979116 C173.221109,21.4040565 174.339564,19.6719256 175.748273,18.1916495 C177.130139,16.7426802 178.781587,15.5782615 180.609674,14.7639271 C182.456086,13.9361751 184.44512,13.5215313 186.579843,13.5215313 C188.711498,13.5215313 190.700532,13.9361751 192.551545,14.7654628 C194.379217,15.5791618 196.030597,16.7424884 197.412946,18.1901138 C198.821268,19.6709754 199.939205,21.4036318 200.708577,23.2979116 C201.513699,25.245202 201.915493,27.3614213 201.915493,29.6465696 C201.915493,31.9317179 201.513699,34.0479372 200.708577,35.9952275 C199.938901,37.889252 198.820409,39.6214406 197.411412,41.1014896 C196.02934,42.5502184 194.377942,43.7146016 192.550011,44.5292121 C190.670636,45.3631958 188.635421,45.7867254 186.579843,45.7716079 C184.5236,45.7868372 182.487756,45.362762 180.60814,44.5276764 C178.780312,43.7142534 177.128882,42.5508912 175.746739,41.1030254 C174.33813,39.6223907 173.220156,37.8896766 172.451108,35.9952275 C171.645986,34.0479372 171.244192,31.9317179 171.244192,29.6465696"/>
    <g transform="translate(202.817 2.704)">
      <mask id="proofi-b" fill="#fff">
        <use xlink:href="#proofi-a"/>
      </mask>
      <path fill="#222" fill-rule="nonzero" d="M21.9892153,5.40381489 C21.9892153,4.07333602 22.4759759,2.90820121 23.449497,1.90995573 C24.4230181,0.911710262 25.5587928,0.411042254 26.8552757,0.411042254 C28.1533038,0.411042254 29.2890785,0.911710262 30.2625996,1.90995573 C31.2361207,2.90820121 31.7228813,4.07333602 31.7228813,5.40381489 C31.7228813,6.73583903 31.237666,7.90097384 30.2625996,8.89921932 C29.2890785,9.89746479 28.1548491,10.3965875 26.8552757,10.3965875 C25.5572475,10.3965875 24.4214728,9.89746479 23.449497,8.89767404 C22.4759759,7.90097384 21.98767,6.73429376 21.98767,5.40536016 L21.9892153,5.40381489 Z M31.0754125,42.6804024 L22.3137223,42.6804024 L22.3137223,21.7126117 L13.2275252,21.7126117 L13.2275252,42.6819477 L4.46583501,42.6819477 L4.46583501,21.7110664 L0.571750503,21.7110664 L0.571750503,13.3913239 L4.46583501,13.3913239 L4.46583501,11.7286117 C4.46583501,8.0446841 5.39454326,5.23847082 7.25659557,3.30688129 C9.11555734,1.37683702 11.7548813,0.411042254 15.1745674,0.411042254 C15.7787686,0.411042254 16.3412475,0.445038229 16.8604588,0.511484909 C17.37967,0.57793159 17.8339799,0.655195171 18.2249336,0.743275654 C18.6576097,0.877714286 19.0439276,0.990519115 19.393159,1.07705433 L19.393159,9.06610865 L18.7441449,8.93167002 C18.5278068,8.88840241 18.2882897,8.84513481 18.0286841,8.79877666 C17.7281354,8.75183641 17.4242445,8.72961309 17.1200644,8.73232998 C15.9951066,8.73232998 15.0648531,9.12173843 14.3293038,9.89746479 C13.5937545,10.6731911 13.2275252,11.7286117 13.2275252,13.0575453 L13.2275252,13.3897787 L31.0754125,13.3897787 L31.0754125,42.6804024 Z" mask="url(#proofi-b)"/>
    </g>
    <path fill="#14C39A" fill-rule="nonzero" d="M63.6911516,25.8328039 C62.8056769,24.7454675 61.9693952,23.7179422 61.6650133,22.7778333 C61.3375721,21.7656442 61.4052125,20.3945881 61.4805394,18.9453174 C61.5881492,16.7537747 61.7142063,14.2723778 60.3337266,12.3660884 C58.9378741,10.4459964 56.521266,9.79727522 54.3875179,9.22523503 C52.9978145,8.85409904 51.6865125,8.49829924 50.845619,7.8909858 C50.0216356,7.28827322 49.2914264,6.15799542 48.5181733,4.96177197 C47.3114065,3.09689029 45.9462996,0.982028578 43.6618978,0.238222973 C41.671117,-0.399762867 39.2652698,0.357845317 37.1299844,1.17833191 C35.7525793,1.70743075 34.4535756,2.20278994 33.3498068,2.20278994 C32.2475752,2.20278994 30.9485715,1.70743075 29.5711663,1.17833191 C27.4312691,0.360912557 25.0269592,-0.401296486 23.039253,0.238222973 C20.7548512,0.982028578 19.3851324,3.09382305 18.1814402,4.96177197 C17.4081871,6.15492818 16.6779779,7.28520598 15.8539945,7.88638494 C15.0115637,8.49983286 13.6987244,8.85256542 12.3105583,9.22523503 C10.1814221,9.79727522 7.76635124,10.4490636 6.36742415,12.3706893 C4.98540718,14.2693106 5.11300163,16.7537747 5.22214868,18.9453174 C5.29901281,20.3991889 5.36511596,21.7671778 5.03921206,22.7793669 C4.73329285,23.714875 3.89854844,24.7454675 3.01307372,25.8328039 C1.60184837,27.5673279 0,29.5364957 0,31.9856866 C0,34.4333438 1.59723653,36.3994444 3.00999915,38.1385692 C3.89547388,39.2259057 4.73175556,40.2534309 5.03460022,41.1935399 C5.36511596,42.2057289 5.29593824,43.5767851 5.22214868,45.0260558 C5.11300163,47.2175985 4.98540718,49.6989953 6.36742415,51.6052847 C7.76173939,53.5253767 10.1798848,54.1740979 12.3136329,54.7461381 C13.7033363,55.1172741 15.0146383,55.4730739 15.8539945,56.0803873 C16.6779779,56.6830999 17.4081871,57.8133777 18.1829775,59.0096012 C19.3897443,60.8760165 20.7548512,62.9893445 23.039253,63.7331502 C25.0223474,64.3696024 27.4312691,63.6073933 29.5711663,62.7930412 C30.9485715,62.2670096 32.2475752,61.7701168 33.3498068,61.7701168 C34.4535756,61.7701168 35.7525793,62.265476 37.1315217,62.7930412 C38.6811025,63.3880857 40.2891,64 41.9140076,64 C42.5289206,64 43.1161625,63.9110501 43.657286,63.7331502 C45.9432251,62.9893445 47.3114065,60.8790837 48.5181733,59.0096012 C49.2868145,57.8179786 50.018561,56.6877008 50.845619,56.0849882 C51.6865125,55.4715403 52.9978145,55.1188077 54.3905925,54.7461381 C56.5197287,54.1740979 58.9347996,53.5253767 60.3337266,51.6052847 C61.7142063,49.7066634 61.5881492,47.2191321 61.4805394,45.0260558 C61.4052125,43.5737178 61.3375721,42.2041953 61.6650133,41.1935399 C61.9709325,40.2564982 62.8056769,39.2259057 63.6911516,38.1385692 C65.102377,36.4055788 66.7042254,34.4394783 66.7042254,31.9856866 C66.7011508,29.539563 65.102377,27.5719288 63.6911516,25.8328039"/>
    <path fill="#FFF" fill-rule="nonzero" stroke="#FFF" d="M47.1694084,22.5182553 L29.9991419,44.0334963 C29.5022175,44.6544321 28.7628922,45.0299937 27.9704896,45.0640088 C27.8979826,45.0733067 27.8378172,45.0704225 27.7714811,45.0686577 C27.0454953,45.0405547 26.3593486,44.7279239 25.8600741,44.1977585 L20.5686083,38.4919736 C19.5366227,37.3772597 19.5945187,35.6346422 20.6981952,34.5915226 C21.2285176,34.0922821 21.9347581,33.8254478 22.661163,33.8498672 C23.3875679,33.8742865 24.0744683,34.1879536 24.5703757,34.7216926 L27.7036022,38.1045629 L42.8992109,19.0625518 C43.3524867,18.4910189 44.0139541,18.1246652 44.7370359,18.0446723 C45.4601176,17.9646794 46.1851018,18.1776532 46.7513363,18.6364 C47.9299601,19.5940793 48.1197124,21.3296792 47.1678657,22.5182553"/>
  </g>
</svg>
