<svg width="130" height="56" fill="none" xmlns="http://www.w3.org/2000/svg"><path d="M75.615 30.238c4.273 0 7.138-2.818 7.138-7.184v-1.686h-6.676v2.818h3.442c-.231 1.71-1.433 3.188-3.904 3.188-2.98 0-4.366-2.149-4.366-5.406 0-3.257 1.386-5.428 4.366-5.428 2.402 0 3.511 1.316 3.742 2.818h3.234c-.323-3.188-2.887-5.706-6.976-5.706-5.036 0-7.6 3.557-7.6 8.316 0 4.69 2.564 8.27 7.6 8.27zm9.859-.208h5.521c4.99 0 8.016-3.58 8.016-8.085 0-4.851-3.257-8.085-8.016-8.085h-5.52v16.17zm2.98-2.818v-10.51h2.333c3.211 0 4.99 1.893 4.99 5.243 0 3.373-1.779 5.267-4.99 5.267h-2.333zm13.285 2.818h3.165v-5.544h3.765c3.257 0 5.336-2.264 5.336-5.36 0-3.002-2.033-5.266-5.336-5.266h-6.93v16.17zm3.165-8.385v-4.967h3.188c1.686 0 2.679.878 2.679 2.449 0 1.686-.924 2.518-2.679 2.518h-3.188zm21.077 2.102c1.986-.716 3.257-2.472 3.257-4.828 0-2.749-1.987-5.059-5.406-5.059h-7.091v16.17h3.164v-5.914h2.726l3.719 5.914H130v-.231l-4.019-6.052zm-6.076-7.046h3.766c1.594 0 2.31 1.017 2.31 2.241 0 1.294-.693 2.356-2.31 2.356h-3.766v-4.597zM72.14 42.829c1.818 0 2.972-1.175 3.128-2.672h-1.445c-.135.77-.644 1.383-1.684 1.383-1.34 0-1.975-.967-1.975-2.433 0-1.465.634-2.443 1.975-2.443 1.081 0 1.601.666 1.674 1.445h1.455c-.114-1.538-1.3-2.744-3.129-2.744-2.266 0-3.43 1.6-3.43 3.742 0 2.11 1.164 3.722 3.43 3.722zm7.38 0c2.307 0 3.44-1.653 3.44-3.732 0-2.09-1.133-3.732-3.44-3.732-2.319 0-3.441 1.642-3.441 3.732 0 2.079 1.122 3.732 3.44 3.732zm0-1.3c-1.352 0-1.986-.967-1.986-2.432 0-1.466.624-2.433 1.985-2.433 1.352 0 1.986.967 1.986 2.433 0 1.465-.634 2.432-1.986 2.432zm4.67 1.206h1.371v-5.052h.042l2.287 3.836h.104l2.287-3.805h.041v5.021h1.373V35.46h-1.56l-2.162 3.648h-.041l-2.163-3.648h-1.58v7.276zm9.146 0h1.424V40.24h1.694c1.466 0 2.401-1.019 2.401-2.411 0-1.352-.914-2.37-2.4-2.37h-3.12v7.276zm1.424-3.773v-2.235h1.434c.76 0 1.206.395 1.206 1.102 0 .758-.416 1.133-1.206 1.133H94.76zm5.326 3.773h4.782v-1.279h-3.358v-5.998h-1.424v7.277zm5.756 0h1.435V35.46h-1.435v7.276zm6.767-7.276H110.8l-2.547 7.172v.104h1.497l.499-1.528h2.848l.499 1.528h1.57v-.104l-2.557-7.172zm-1.944 4.49l.987-3.035h.042l.987 3.035h-2.016zm5.481 2.786h1.403v-5.02h.042l2.973 5.02h1.663V35.46h-1.414v5.051h-.041l-2.973-5.051h-1.653v7.276zm9.263 0h1.435v-5.987h2.141v-1.29h-5.717v1.29h2.141v5.987zM27.72 0l.898 2.907h2.907l-2.351 1.796.898 2.906-2.352-1.797-2.35 1.797.898-2.906-2.352-1.796h2.906L27.72 0zm0 47.83l.898 2.908h2.907l-2.351 1.796.898 2.906-2.352-1.796-2.35 1.796.898-2.906-2.352-1.796h2.906l.898-2.907zM39.678 4.348l.897 2.907h2.907L41.13 9.052l.899 2.905-2.352-1.796-2.351 1.796.898-2.905-2.351-1.797h2.907l.898-2.907zm9.667 31.292l.897 2.907h2.907l-2.352 1.797.9 2.905-2.352-1.795-2.352 1.795.898-2.905-2.351-1.797h2.906l.899-2.907zm2.291-11.725l.897 2.907h2.907l-2.352 1.796.898 2.907-2.35-1.796-2.352 1.796.899-2.907-2.352-1.796h2.906l.898-2.907zm-47.831 0l.898 2.907h2.906l-2.351 1.796.898 2.907-2.35-1.796-2.353 1.796.899-2.907L0 26.822h2.907l.898-2.907zm1.98 11.725l.898 2.907h2.906l-2.35 1.797.897 2.905-2.35-1.795-2.352 1.795.898-2.905-2.352-1.797h2.907l.898-2.907zm43.56-23.76l.897 2.907h2.907l-2.352 1.797.9 2.905-2.352-1.795-2.352 1.795.898-2.905-2.351-1.797h2.906l.899-2.907zm-42.569 0l.897 2.907h2.907l-2.351 1.797.897 2.905-2.35-1.795-2.352 1.795.898-2.905-2.352-1.797h2.908l.898-2.907zm35.076 33.777l.897 2.906h2.907l-2.352 1.797.899 2.906-2.351-1.796-2.352 1.796.898-2.906-2.351-1.797h2.907l.898-2.907zM15.762 4.348l.898 2.907h2.907l-2.352 1.797.9 2.905-2.352-1.796-2.352 1.796.899-2.905-2.352-1.797h2.906l.898-2.907zm-2.174 41.309l.898 2.907h2.907L15.04 50.36l.898 2.906-2.351-1.795-2.351 1.795.898-2.906-2.352-1.796h2.906l.899-2.907zm22.816-25.056a.712.712 0 0 0-.51-.213h-.04c-3.26 0-6.24-1.082-7.774-2.819a.704.704 0 0 0-.535-.244.712.712 0 0 0-.536.244c-1.533 1.742-4.509 2.819-7.772 2.819h-.041a.71.71 0 0 0-.505.213.733.733 0 0 0-.211.51v6.667c0 2.428.643 4.784 1.853 6.817 1.745 2.923 4.17 4.982 6.826 5.799.067.02.139.031.206.031h.345c.072 0 .139-.01.206-.031 2.656-.817 5.08-2.876 6.825-5.799 1.215-2.033 1.853-4.389 1.853-6.817V21.11a.63.63 0 0 0-.19-.51z" opacity=".4" fill="#151515"/></svg>