<svg xmlns="http://www.w3.org/2000/svg" viewBox="0 0 512 512"><circle cx="256" cy="267" r="245" fill="#0f9390"/><path d="M191.902 346.242c0-10 .974-19.843 2.877-29.437l-26.325-39.088a11.71 11.71 0 01-1.998-6.541V171.45h-53.868v99.727c0 2.331-.695 4.608-1.997 6.541L39.952 382.609c16.689 31.124 39.907 58.218 67.824 79.463h139.162c-33.569-27.456-55.036-69.181-55.036-115.83z" fill="#d9eafc"/><path d="M112.589 171.45v99.727c0 2.331-.695 4.608-1.997 6.541l-70.64 104.891a244.616 244.616 0 009.288 15.831l81.195-120.722a11.717 11.717 0 001.997-6.541V171.45h-19.843z" fill="#aec1ed"/><path d="M130.611 246.167H112.59v15h18.021a7.5 7.5 0 000-15zm0-30.5H112.59v15h18.021a7.5 7.5 0 000-15zm0-30.5H112.59v15h18.021a7.5 7.5 0 000-15z" fill="#85a0dd"/><path d="M192.446 358.935H84.132l-30.807 45.743a246.172 246.172 0 0027.881 33.973h142.728c-17.593-22.335-28.961-49.786-31.488-79.716z" fill="#ff9518"/><path d="M103.974 358.935H84.132l-30.807 45.743a244.445 244.445 0 0010.461 14.22l40.188-59.963z" fill="#ef8318"/><path d="M177.492 167.45c0 2.75-2.25 5-5 5h-65.936c-2.75 0-5-2.25-5-5v-18.74c0-2.75 2.25-5 5-5h65.936c2.75 0 5 2.25 5 5v18.74z" fill="#aec1ed"/><path d="M121.397 167.45v-18.74c0-2.75 2.25-5 5-5h-19.842c-2.75 0-5 2.25-5 5v18.74c0 2.75 2.25 5 5 5h19.842c-2.75 0-5-2.25-5-5z" fill="#85a0dd"/><circle cx="105.08" cy="75.6" r="23.366" fill="#ffaf10"/><circle cx="152.42" cy="110.17" r="15.577" fill="#ffd00d"/><circle cx="144.87" cy="19.472" r="19.472" fill="#ff9518"/><g fill="#91e0e8"><path d="M461.638 255.431c-19.289-25.468-46.68-44.483-77.125-53.541a12.582 12.582 0 01-8.992-12.059V61.138h-68.045v128.693a12.582 12.582 0 01-8.994 12.059c-30.445 9.058-57.834 28.073-77.122 53.541-19.925 26.31-30.457 57.711-30.457 90.811 0 83.039 67.557 150.596 150.595 150.596 83.039 0 150.596-67.557 150.596-150.596-.001-33.1-10.533-64.502-30.456-90.811z"/><path d="M301.249 46.042v11.096c0 2.75 2.25 5 5 5h70.496c2.75 0 5-2.25 5-5V46.042h-80.496z"/></g><path d="M321.091 57.138V46.042h-19.842v11.096c0 2.75 2.25 5 5 5h19.842c-2.75 0-5-2.25-5-5z" fill="#5dc1d8"/><circle cx="341.5" cy="346.24" r="124.95" fill="#fff"/><path d="M236.386 346.242c0-65.671 50.661-119.506 115.033-124.563a126.74 126.74 0 00-9.921-.392c-69.01 0-124.954 55.944-124.954 124.955s55.944 124.955 124.954 124.955c3.34 0 6.647-.134 9.921-.392-64.372-5.057-115.033-58.892-115.033-124.563z" fill="#d9eafc"/><path d="M464.836 326.2l-40.628 40.224c.001.088.013.173.013.261 0 10.601-8.624 19.225-19.225 19.225s-19.225-8.624-19.225-19.225c0-.121.016-.238.018-.358l-41.977-40.884a19.111 19.111 0 01-10.811 3.34 19.094 19.094 0 01-10.325-3.034l-43.543 43.216a19.114 19.114 0 011.434 7.26c0 10.601-8.624 19.225-19.225 19.225-2.621 0-5.119-.531-7.397-1.484l-18.496 18.357c22.071 35.348 61.303 58.876 106.046 58.876 69.012 0 124.955-55.944 124.955-124.955a125.278 125.278 0 00-1.614-20.044z" fill="#52bbef"/><g fill="#91e0e8"><path d="M394.419 42.042c0 2.75-2.25 5-5 5h-95.844c-2.75 0-5-2.25-5-5V5c0-2.75 2.25-5 5-5h95.844c2.75 0 5 2.25 5 5v37.042z"/><path d="M308.417 42.042V5c0-2.75 2.25-5 5-5h-19.842c-2.75 0-5 2.25-5 5v37.042c0 2.75 2.25 5 5 5h19.842c-2.75 0-5-2.25-5-5z"/></g><path d="M325.497 84.5h-18.022v15h18.022a7.5 7.5 0 000-15zm0 27h-18.022v15h18.022a7.5 7.5 0 000-15zm0 27h-18.022v15h18.022a7.5 7.5 0 000-15zm0 27h-18.022v15h18.022a7.5 7.5 0 000-15z" fill="#5dc1d8"/><path d="M314.12 313.1l-45.667 45.278a19.317 19.317 0 0110.668 10.547l10.679-10.588V460.03a124.133 124.133 0 0015 5.686V343.464l17.872-17.72c-4.387-2.81-7.56-7.343-8.552-12.644zm18.883 15.682c-2.564 0-5.009-.514-7.248-1.43v142.86c4.916.618 9.922.945 15 .975V327.136a19.097 19.097 0 01-7.752 1.646zm-71.659 66.666c-8.146 0-15.108-5.102-17.902-12.271l-15.465 15.333a124.47 124.47 0 007.428 13.759l18.44-18.283v41.298a125.587 125.587 0 0015.001 12.626v-53.988a19.108 19.108 0 01-7.502 1.526zm199.483-86.386l-43.408 42.976c4.093 3.476 6.712 8.627 6.79 14.386l9.41-9.316v73.551a125.293 125.293 0 0015-20.058v-68.344l16.225-16.063a124.395 124.395 0 00-4.017-17.132zm-55.83 76.847c-2.597 0-5.072-.523-7.334-1.461v73.437a124.93 124.93 0 0015-8.931v-64.649a19.116 19.116 0 01-7.666 1.604zm-12.4-33.891l-40.613-39.556a19.237 19.237 0 01-8.17 12.98l17.894 17.428v126.691a124.384 124.384 0 0015-3.403V357.48l9.082 8.846c.107-5.73 2.725-10.852 6.807-14.308z" fill="#445ea0"/><circle cx="333" cy="309.56" r="20.225" fill="#ff9518"/><path d="M332.621 309.558c0-7.561 4.157-14.143 10.303-17.613a20.121 20.121 0 00-9.921-2.611c-11.17 0-20.225 9.055-20.225 20.225s9.055 20.225 20.225 20.225c3.608 0 6.988-.956 9.921-2.611-6.146-3.472-10.303-10.054-10.303-17.615z" fill="#ef8318"/><circle cx="261.34" cy="376.22" r="20.225" fill="#ff9518"/><path d="M260.962 376.224c0-7.562 4.157-14.143 10.303-17.613a20.11 20.11 0 00-9.921-2.611c-11.17 0-20.224 9.054-20.224 20.225 0 11.17 9.054 20.225 20.224 20.225 3.608 0 6.989-.956 9.921-2.611-6.146-3.472-10.303-10.053-10.303-17.615z" fill="#ef8318"/><circle cx="405" cy="366.69" r="20.225" fill="#ff9518"/><path d="M404.615 366.685c0-7.562 4.157-14.143 10.303-17.613a20.121 20.121 0 00-9.921-2.611c-11.17 0-20.225 9.055-20.225 20.225s9.055 20.225 20.225 20.225c3.608 0 6.988-.956 9.921-2.611-6.146-3.472-10.303-10.054-10.303-17.615z" fill="#ef8318"/></svg>