<svg xmlns="http://www.w3.org/2000/svg" viewBox="0 0 512 512"><circle cx="251.381" cy="267" r="245" fill="#02af8e"/><circle cx="250.411" cy="263.49" r="198.62" fill="#fff"/><path d="M370.784 273.047c-5.275 0-9.553-4.278-9.553-9.554 0-23.982-7.66-46.206-20.657-64.362l-.001.001c-12.515-17.481-29.981-31.186-50.329-39.052l-.001.001c-12.367-4.781-25.799-7.409-39.833-7.409-13.98 0-27.355 2.608-39.681 7.353l-.002-.005c-20.38 7.844-37.877 21.542-50.418 39.025l.001.001c-13.034 18.171-20.717 40.428-20.717 64.446 0 5.276-4.278 9.554-9.558 9.554H87.333a167.144 167.144 0 01-.286-9.554c0 90.223 73.141 163.362 163.363 163.362 87.015 0 158.128-68.033 163.077-153.808l-42.703.001z" fill="#445ea0"/><path d="M160.31 199.046l-41.732-32.02-.003-.003c-19.816 27.034-31.527 60.382-31.527 96.47 0 3.207.105 6.392.286 9.554h42.702c5.279 0 9.558-4.278 9.558-9.554-.001-24.018 7.683-46.275 20.716-64.447 0 .001 0 0 0 0zm221.999-31.937l-.001.001-41.733 32.022c12.997 18.156 20.657 40.38 20.657 64.362 0 5.276 4.277 9.554 9.553 9.554h42.703c.182-3.163.285-6.347.285-9.554-.001-36.051-11.686-69.366-31.464-96.385z" fill="#ff9518"/><path d="M192.593 110.671l-.002-.005c-29.819 11.291-55.471 31.058-74.014 56.361l41.732 32.02c12.541-17.483 30.038-31.182 50.418-39.025l-18.134-49.351zm115.788.053l-.003.006-18.134 49.351c20.348 7.866 37.814 21.57 50.329 39.052l41.734-32.022c-18.519-25.302-44.139-45.075-73.926-56.387z" fill="#ffaf10"/><path d="M308.378 110.73c-18.018-6.841-37.553-10.597-57.967-10.597-20.357 0-39.842 3.736-57.817 10.539l18.137 49.354c12.326-4.745 25.701-7.353 39.681-7.353 14.034 0 27.465 2.628 39.833 7.409l18.133-49.352z" fill="#ffd00d"/><path d="M71.636 263.493c0-106.363 83.613-193.198 188.696-198.368a201.502 201.502 0 00-9.921-.247c-109.692 0-198.617 88.925-198.617 198.615 0 109.692 88.925 198.615 198.617 198.615 3.327 0 6.634-.086 9.921-.247-105.083-5.17-188.696-92.003-188.696-198.368z" fill="#d9eafc"/><path d="M107.176 273.047H87.332c4.948 85.775 76.064 153.808 163.078 153.808 3.333 0 6.638-.112 9.921-.309-82.44-4.939-148.397-71.009-153.155-153.499z" fill="#293d7c"/><path d="M315.577 270.993a7.5 7.5 0 01-7.5-7.5c0-31.798-25.869-57.669-57.667-57.669-31.799 0-57.669 25.87-57.669 57.669a7.5 7.5 0 01-15 0c0-40.069 32.599-72.669 72.669-72.669 40.069 0 72.667 32.599 72.667 72.669a7.5 7.5 0 01-7.5 7.5z" fill="#ff9518"/><path d="M226.419 358.851c0 1.65-1.35 3-3 3h-30.221c-1.65 0-3-1.35-3-3v-30.218c0-1.65 1.35-3 3-3h30.221c1.65 0 3 1.35 3 3v30.218zm42.099 0c0 1.65-1.35 3-3 3h-30.217c-1.65 0-3-1.35-3-3v-30.218c0-1.65 1.35-3 3-3h30.217c1.65 0 3 1.35 3 3v30.218z" fill="#91e0e8"/><path d="M310.62 358.851c0 1.65-1.35 3-3 3h-30.217c-1.65 0-3-1.35-3-3v-30.218c0-1.65 1.35-3 3-3h30.217c1.65 0 3 1.35 3 3v30.218z" fill="#fff"/><path d="M226.419 358.851c0 1.65-1.35 3-3 3h-30.221c-1.65 0-3-1.35-3-3v-30.218c0-1.65 1.35-3 3-3h30.221c1.65 0 3 1.35 3 3v30.218z" fill="#5dc1d8"/><path d="M268.518 358.851c0 1.65-1.35 3-3 3h-30.217c-1.65 0-3-1.35-3-3v-30.218c0-1.65 1.35-3 3-3h30.217c1.65 0 3 1.35 3 3v30.218z" fill="#91e0e8"/><path d="M310.62 358.851c0 1.65-1.35 3-3 3h-30.217c-1.65 0-3-1.35-3-3v-30.218c0-1.65 1.35-3 3-3h30.217c1.65 0 3 1.35 3 3v30.218z" fill="#fff"/><path d="M226.123 274.934c-6.308-13.391-.546-29.419 12.847-35.728a27.221 27.221 0 012.318-.96c.057-.02.11-.037.166-.05l132.179-34.823c.893-.235 1.818.2 2.213 1.034a1.908 1.908 0 01-.613 2.363l-111.022 79.738a1.39 1.39 0 01-.145.095c-.758.446-1.484.83-2.219 1.178-13.388 6.309-29.414.547-35.724-12.847z" fill="#fe3745"/><g fill="#b7092b"><path d="M238.97 247.049a27.221 27.221 0 012.318-.96c.057-.02.11-.037.166-.05l124.931-32.913 8.848-6.355a1.908 1.908 0 00.613-2.363 1.908 1.908 0 00-2.213-1.034l-132.179 34.823a2.227 2.227 0 00-.166.05c-.824.299-1.582.614-2.318.96-10.959 5.163-16.804 16.833-15.111 28.242 1.272-8.597 6.676-16.427 15.111-20.4z"/><circle cx="250.411" cy="263.49" r="13.472"/></g><path d="M379.632 99.894a5.147 5.147 0 01-5.147-5.146V54.866h-17.232a5.146 5.146 0 01-4.082-8.28L387.4 2.012A5.143 5.143 0 01391.479 0c1.6 0 3.107.744 4.082 2.012l34.227 44.574a5.145 5.145 0 01-4.082 8.28h-17.23v39.882a5.146 5.146 0 01-5.147 5.146h-23.697z" fill="#ff9518"/><path d="M385.735 48.616a5 5 0 00-5-5h-25.284l-2.28 2.97a5.145 5.145 0 004.082 8.28h17.232v39.882a5.147 5.147 0 005.147 5.146h6.103V48.616z" fill="#ef8318"/><path d="M454.395 176.369a5.146 5.146 0 01-5.146-5.146V131.34h-17.23a5.145 5.145 0 01-4.082-8.28l34.227-44.573a5.146 5.146 0 018.164 0l34.227 44.573a5.145 5.145 0 01-4.082 8.28h-17.232v39.883a5.146 5.146 0 01-5.147 5.146h-23.699z" fill="#ff9518"/><path d="M460.501 125.09a5 5 0 00-5-5h-25.284l-2.28 2.97a5.145 5.145 0 004.082 8.28h17.232v39.882a5.147 5.147 0 005.147 5.146h6.103V125.09z" fill="#ef8318"/></svg>