<svg xmlns="http://www.w3.org/2000/svg" width="737" height="527"><g fill="none" fill-rule="evenodd"><g stroke="#7CB7FF" stroke-linecap="round" stroke-width=".298"><path d="M224.128 205.314c-5.486-17.622 1.33-42.56 21.114-65.834 12.468-14.63 29.425-28.926 50.538-42.559 23.607-15.128 51.537-28.594 82.625-39.234 53.198-18.62 108.89-26.433 159.097-23.94 22.443 1.165 42.725 4.323 60.514 9.31 15.793 4.49 29.425 10.142 40.398 16.958"/><path d="M508.077 509.877c5.153-10.973 9.974-25.935 15.128-44.887 7.481-19.118 14.796-41.894 22.443-68.327 8.479-29.924 16.957-63.672 22.942-100.745 6.151-38.237 8.479-75.974 8.811-110.72.499-31.254-.831-58.851-2.493-82.79 17.954-14.131 32.418-25.104 44.055-32.585 8.645-5.652 14.962-9.31 19.284-9.642M509.573 519.685c.332 2.826.499 4.156.499 3.99-.5-2.161-.998-6.65-1.995-13.798m1.496 9.808c5.153 4.156 13.965 2.993 20.614-4.488"/><path d="M224.128 205.314c-10.14 13.965-15.793 34.58-14.796 58.851 1.33 29.093 11.471 63.007 30.424 97.753 16.292 29.591 38.07 58.352 64.004 83.455 13.134 11.804 27.265 22.61 41.728 32.418 24.106 18.287 48.544 31.587 71.652 39.733 19.118 6.151 37.24 9.31 53.698 9.31 14.63 0 27.763-2.494 38.735-6.983 18.453 2.328 41.063-2.493 64.503-14.795 27.763-14.63 56.192-38.736 81.627-70.655 27.93-35.41 49.708-77.138 62.675-120.03 12.302-40.065 15.793-77.637 10.806-108.06-3.99-25.269-14.297-45.219-27.597-57.022"/><path d="M655.703 434.235c37.406-43.058 63.174-93.763 73.98-141.476 4.655-21.113 6.317-40.73 4.82-58.186-1.33-15.627-5.153-29.26-10.971-40.398m-494.084 21.28c11.305-10.474 26.433-21.28 45.385-32.418 22.277-13.3 49.043-26.6 80.464-38.902 34.412-13.632 72.317-24.77 111.384-31.919 37.904-6.816 73.481-9.642 105.567-9.808 28.095-.167 52.367 1.662 72.483 4.987 16.957 2.826 30.59 6.65 40.73 11.637 14.63 7.315 20.282 20.448 16.292 30.257"/><path d="M258.874 268.986c-13.466-19.95-23.275-37.904-29.426-53.531 30.756-76.307 94.428-148.458 166.08-188.024 29.758-16.459 57.687-25.436 81.46-26.932 19.618-1.33 36.409 3.158 47.88 11.47M371.09 389.017c-24.77-19.784-47.214-41.063-66.665-62.675-18.12-19.95-33.249-39.234-45.385-57.355m256.518-3.159c-29.093.665-60.015.998-88.776 1.497-26.599.332-50.871.498-73.148.83-20.282.167-38.569.333-55.027.5-14.796.166-27.93.166-39.567.332"/><path d="M577.568 189.52c-20.947 1.83-43.723 3.658-68.161 6.65-26.101 3.159-52.867 7.481-79.133 13.3-24.937 5.652-48.212 11.637-69.491 17.456-19.617 5.486-37.572 10.473-53.698 15.46-18.453 9.643-34.413 18.454-47.879 26.6m250.367 250.7c-4.821 5.652-14.464 7.314-24.438 2.66-14.131-6.817-30.59-22.444-49.542-45.552-20.614-22.61-42.891-51.703-64.67-87.612"/><path d="M242.25 387.852c-1.996-7.315-2.827-16.126-2.494-25.934 0-17.456 3.158-38.07 9.31-61.345 7.148-26.6 17.954-55.859 33.415-86.282 21.113-49.375 50.206-94.76 82.458-131.667 20.116-22.61 40.231-40.73 59.35-54.362 16.458-11.804 31.753-19.95 45.385-24.272 23.44-5.819 43.889-2.161 55.194 7.98"/><path d="M229.448 215.455c-6.317 32.917-7.98 66-5.32 96.921 2.494 28.595 8.811 54.197 17.955 75.642 3.657 2.161 9.31 3.491 16.292 4.323 4.322-.998 9.31-2.328 14.962-3.99 9.144-4.156 19.95-9.144 32.584-15.129 14.464-6.816 30.922-14.962 49.542-24.105 20.947-10.308 44.221-21.945 70.156-35.078 28.594-14.464 59.516-30.59 89.606-47.88 24.77-7.813 47.547-15.294 68.327-21.944 19.119-6.15 36.408-11.803 52.202-17.123 26.931-8.81 48.211-16.126 64.503-21.778 11.97-4.156 19.95-7.149 24.438-9.476 1.829-.998.998-1.663-1.662-1.33"/><path d="M530.354 515.197c17.954-7.648 36.74-19.119 55.692-34.413 37.572-26.434 71.985-61.844 98.418-102.075 15.46-23.774 27.43-47.88 35.743-71.154 9.476-25.435 13.798-49.042 13.798-69.49-.166-17.456-3.99-32.585-10.64-43.89"/><path d="M530.354 515.197c6.15-6.152 11.97-15.295 17.954-27.099 7.149-14.297 14.297-32.085 21.28-53.198 25.27-39.733 48.876-88.277 65.002-141.974 7.98-37.406 11.637-73.814 12.302-107.395.499-29.925-1.33-56.358-5.154-78.635-3.324-16.957-7.647-31.42-12.8-43.058-4.822-11.97-10.973-20.78-17.955-24.936-5.985-3.492-12.967-3.824-19.118-1.663m-132 76.307c7.814 19.617 16.459 41.562 25.602 65.833 9.975 26.6 20.78 55.693 29.924 86.448 2.328 34.247 2.494 66 2.827 94.76.332 25.769.166 48.877 0 69.16 1.995 12.966 3.657 24.603 4.987 35.243 2.161 12.967 3.824 23.94 4.987 33.083 1.164 7.315 1.663 12.967 1.995 17.29m-306.059-310.05c-2.16-17.455 1.995-38.568 12.968-60.014 12.967-25.103 34.745-50.539 63.672-73.148 39.566-31.088 88.11-53.698 137.153-63.839 10.806-2.16 21.28-3.657 31.753-4.488 16.79-1.497 32.584-1.33 47.38.498 33.083 3.99 59.35 16.459 74.644 32.917"/><path d="M224.128 205.314c-3.823-.998-6.816-1.663-7.813-2.494-.333-.332 2.826-.166 7.48.665a605.731 605.731 0 0 1 20.615 3.658c10.474 1.995 23.275 4.322 38.07 7.314"/><path d="M224.128 205.314c-4.654-7.647-5.32-18.287.167-27.597 7.314-12.468 23.44-24.77 46.382-36.408M591.698 37.405c20.781 1.995 44.554 15.627 65.335 39.4 25.436 29.426 45.884 72.65 56.856 123.355 7.648 35.577 9.809 72.484 6.484 107.395-2.66 37.406-11.305 69.824-24.605 94.428-11.138 20.78-25.601 35.577-40.73 43.058M257.544 183.536c13.798 19.118 33.083 42.06 58.685 68.826 30.921 32.251 68.493 68.66 114.045 101.077 22.276 15.96 44.221 29.758 65.168 42.06 19.284 11.139 37.24 20.947 53.697 29.426 28.096 14.297 51.204 24.272 69.491 30.09 13.799 3.658 24.605 4.988 31.088 2.328 4.655-1.829 6.484-7.149 5.486-12.136"/><path d="M591.698 37.405c-5.486-11.97-20.614-21.28-40.73-21.944-14.463-1.164-31.254.166-50.04 4.156-19.45 4.322-40.564 11.305-62.84 21.446-24.273 10.806-48.877 24.77-73.15 41.728-43.39 29.259-80.13 64.67-107.394 100.91-2.328 26.6-1.995 55.527 1.496 85.451 5.32 39.733 15.793 78.967 30.423 114.544 13.466 33.083 29.592 61.012 46.715 83.123 14.63 18.952 29.592 32.917 43.89 41.561 11.969 7.149 24.105 10.141 34.246 9.144"/><path d="M333.02 39.733c-1.995-.665 4.654 8.81 12.302 21.612 6.65 6.816 14.297 15.294 23.108 25.27 10.307 11.636 21.944 24.936 35.078 40.397 14.796 17.29 31.254 36.907 49.541 59.017 20.116 24.439 41.894 51.204 62.342 79.965-9.974 34.08-21.944 65.5-32.75 93.929-9.642 25.602-18.62 48.211-26.6 68.327-7.148 17.622-13.465 33.083-19.284 46.216-4.987 11.305-9.143 20.615-13.133 28.262-2.993 8.146-5.32 13.798-7.315 16.625-.831 1.33-1.995.332-1.829-1.995"/><path d="M257.544 183.536c3.657-14.796 8.146-28.927 13.133-42.393 3.159-12.469 6.65-23.94 10.806-34.413 14.63-32.418 32.917-55.526 51.703-66.997 2.826-1.995 8.146-1.496 14.297.665 8.479 2.992 18.786 8.81 31.088 17.123 22.443 12.635 49.541 31.088 81.46 55.859 31.754 23.607 66 51.869 98.086 85.783 31.42 32.916 56.69 66 77.304 95.591 13.632 19.784 24.937 37.572 33.914 53.365 7.648 13.466 13.466 25.27 17.456 35.577 5.653 14.962 6.318 27.098 1.164 30.755"/><path d="M638.414 60.181c14.63 14.297 28.261 33.083 40.231 55.859 14.796 25.435 26.932 54.03 35.078 84.12 10.307 37.073 14.297 73.814 12.136 107.395-4.655 44.72-18.453 82.292-38.237 107.063M333.02 39.733c16.957-10.64 37.904-19.118 62.01-24.77 26.1-6.152 55.027-8.48 84.785-6.983 60.846 3.325 117.868 22.776 158.599 52.201"/><path d="M701.587 149.123c-3.159-25.935-22.277-55.859-55.194-80.63-16.458-12.634-35.743-24.105-57.355-33.415C527.028 8.312 456.042.998 396.692 13.965c-25.602 5.652-47.547 14.796-64.171 26.433-14.464 10.307-25.103 22.443-30.922 35.078m386.023 339.142c-6.65 12.967-22.942 24.77-46.05 33.249-14.13 5.154-30.589 9.476-49.375 12.302-20.78 3.325-43.889 4.987-68.992 4.821-45.884-1.164-94.594-9.476-140.81-24.604-43.39-14.297-80.131-32.75-108.892-52.368-22.277-14.463-38.735-29.093-48.377-43.39-7.647-11.305-10.64-22.942-8.645-32.252"/><path d="M371.09 389.016c-40.897-10.307-74.645-22.443-101.244-35.078-22.11-7.315-38.237-14.796-47.38-23.108-6.484-5.819-8.479-13.3-5.985-18.287m154.609 76.473c33.25 14.13 68.66 25.435 104.402 33.249 33.915 7.315 65.501 11.138 93.93 12.635 19.118 1.995 36.407 2.826 51.536 2.66 13.3-.167 24.937-1.33 34.745-3.325 16.625-3.99 28.262-11.139 31.92-19.617"/><path d="M414.314 517.358c9.476 5.32 21.944 7.98 36.242 7.315 16.79-.665 36.407-5.653 57.52-14.796 12.968-5.653 26.268-12.968 40.066-21.612 37.405-23.275 74.146-55.527 105.234-94.594 30.256-37.904 51.868-77.803 64.337-114.544M661.522 81.461c12.136 9.642 23.274 24.271 32.252 42.725 9.808 20.78 16.79 46.549 19.949 76.14 4.156 25.436 5.652 52.036 4.156 78.801M661.522 81.461c-20.615-25.436-54.529-47.713-97.088-61.844C518.218 4.157 466.848 0 419.634 7.647m-5.32 509.71c-1.663 2.66-4.323.5-4.655-6.317-.333-5.652-.166-12.8.166-21.944.499-11.139 1.496-24.272 2.826-39.9.832-13.133 2.162-27.762 3.658-43.888 1.662-17.622 3.491-37.073 5.818-58.186 4.988-55.028 13.965-116.539 25.436-172.065 4.987-24.272 9.975-46.05 14.463-65.833 3.99-17.789 7.98-33.416 11.305-47.38m-256.85 250.699c-5.154-12.303-7.481-27.597-6.816-44.887.831-19.45 5.486-41.229 14.13-64.17 12.303-32.751 31.92-66.167 57.688-96.756 27.265-32.418 59.35-59.184 92.433-77.97 15.627-9.31 30.922-16.292 45.718-21.113m-196.67 279.959c-9.808 10.473-11.803 21.113-6.483 24.937"/><path d="M229.448 215.455c-10.972 24.438-17.123 47.048-18.287 66.665-1.164 11.97.665 22.775 5.32 30.423M661.521 81.46c-3.99-8.645-16.125-15.129-32.75-17.456-8.478-.333-18.453.332-29.924 1.995-12.967 1.995-27.597 5.153-43.723 9.476-21.28 4.156-44.554 9.974-69.324 18.287-26.766 8.81-54.529 19.95-81.793 33.748-48.378 25.934-89.275 57.022-121.526 86.78-15.129 14.63-27.93 28.594-38.237 41.562-9.143 11.47-16.126 22.11-21.28 31.753m119.698 200.16c8.146 12.136 27.597 19.783 53.032 18.62 16.126-.665 34.746-4.323 55.527-10.807 23.44-7.314 49.042-18.12 75.475-32.75 33.416-19.285 66.166-43.889 95.758-72.317 28.594-27.597 51.869-56.357 69.49-84.287m-349.282 181.54c-1.496 2.328-2.826 3.16-2.826 2.66.498-2.327 2.493-6.316 5.652-12.8 1.496-8.645 4.322-19.45 7.98-32.584 4.488-15.794 10.307-34.413 17.456-56.025"/><path d="M364.939 82.624c27.43 6.484 59.183 16.459 94.926 30.922 51.038 26.1 103.073 61.345 146.962 101.244 19.783 17.954 37.073 35.244 51.702 51.536 13.134 14.464 24.272 27.763 33.25 40.065M301.599 75.642c-2.161-8.977 3.491-18.453 14.962-18.952 7.648-.333 17.29 1.33 28.927 4.655m-43.889 14.297c-8.312.166-17.123 3.491-23.773 10.307-7.98 7.98-13.965 21.113-17.29 37.904"/><path d="M301.6 75.642c-15.96 5.486-32.253 18.287-45.386 37.405-15.627 22.776-27.098 54.03-32.584 90.604-7.149 50.705-1.663 106.897 16.126 158.1 12.302 36.242 29.591 66.831 49.54 89.275 16.958 19.118 35.744 31.586 53.366 36.574M419.634 7.647c5.818-.166 11.97 0 18.453.665 19.285.832 40.564 4.489 62.841 11.139 47.879 16.458 97.753 46.715 140.644 87.445 31.42 29.925 55.859 62.01 72.151 93.264 13.466 23.94 20.947 46.217 22.11 65.002.998 15.628-2.992 29.094-9.974 38.403m-383.197 184.2c12.8 12.968 33.083 22.943 58.685 27.598 30.423 5.652 67.33 3.99 106.896-5.32 26.267-6.484 52.7-16.126 77.97-28.927 25.601-13.133 49.208-29.093 69.656-46.549 28.927-23.94 49.874-49.874 61.511-74.478 9.476-20.448 12.136-40.232 8.479-56.025"/><path d="M342.662 487.766c-6.816.166-14.131-2.66-20.282-8.645-7.481-7.148-13.632-18.786-18.62-33.748-2.493-11.47-3.99-25.27-4.322-41.063-2.66-20.448-3.658-43.889-2.826-69.657.83-28.262 3.823-58.352 9.808-89.606 6.151-31.587 14.962-62.343 25.602-91.103a522.074 522.074 0 0 1 32.917-71.32c4.488-8.977 9.143-17.29 13.466-24.937 14.13-24.604 27.93-41.894 41.063-50.04"/><path d="M717.88 279.127c-6.817 8.645-15.462 17.788-25.935 27.264-14.297 7.814-31.587 16.126-51.536 24.439-22.776 9.642-48.71 19.284-77.804 28.095-31.586 9.643-65.334 17.622-99.581 22.443-32.917 4.822-63.839 6.817-91.768 7.648-30.423 1.828-56.524 1.995-78.135.665-17.789-.998-32.086-2.993-42.892-6.151-14.297-4.323-19.783-14.63-15.46-21.612M437.92 11.305c-13.466-3.325-29.426-2.993-46.383 1.662-19.617 5.32-40.398 16.126-60.846 31.92-47.38 36.74-87.28 94.76-107.062 158.764-8.479 27.431-12.635 54.197-12.469 78.302.166 33.915 8.977 62.01 23.275 79.965"/><path d="M575.074 102.408c-25.935-37.572-51.204-65.335-74.146-82.957-11.138-7.315-21.612-12.469-31.254-15.627-13.466-5.985-26.267-1.663-31.753 7.48-9.642-5.652-23.44-6.815-37.24-.83-17.621 7.647-36.573 25.103-55.36 50.87-12.301 17.79-24.105 39.235-34.745 64.006-11.637 26.931-21.445 56.856-28.261 88.775-12.968 54.03-15.96 106.564-11.638 151.45 1.829 19.617 4.988 37.073 9.31 52.201 3.824 13.466 8.479 24.937 13.965 34.08m423.927-172.729c-9.476-24.604-25.435-52.367-47.879-81.96-25.435-33.415-57.687-66.331-94.926-94.76"/><path d="M680.308 212.13c-20.449-21.446-45.884-43.723-76.141-65.002-32.252-22.942-67.995-42.393-104.236-57.854a543.763 543.763 0 0 0-66.998-21.446c-19.617-4.82-37.904-8.146-54.362-10.14m339.308 221.44c-11.138-10.807-26.932-22.943-47.546-36.575-24.937-16.458-55.693-34.745-92.765-52.866"/><path d="M693.441 136.82c-9.809 7.315-25.103 17.789-46.715 32.252-19.617 5.486-42.725 12.469-69.158 20.615m148.125 114.045c5.652 1.496 6.317 3.823 0 3.99-7.648.166-18.786-.333-33.914-1.33-15.628-3.658-34.746-8.147-57.522-13.3-15.627-3.658-32.916-7.481-51.868-11.804-20.615-4.655-42.892-9.808-67.164-15.128-27.43 26.6-56.19 50.539-82.125 72.15a6867.079 6867.079 0 0 1-62.343 51.038c-21.612 18.786-39.234 33.748-53.365 45.22-10.64 8.644-18.287 14.629-23.607 17.788"/><path d="M731.179 240.558c-5.154 5.985-14.796 12.468-28.096 19.95-17.456 9.642-40.231 20.448-68.66 32.584M435.76 476.627c25.103-11.138 53.032-26.599 82.458-46.715 43.556-37.904 84.619-85.783 116.206-136.986m91.269 10.806c6.816 13.3 1.828 34.745-16.625 54.196-12.136 12.8-29.26 25.768-50.705 38.236-24.937 14.464-54.695 27.93-89.108 38.902"/><path d="M437.92 11.305c9.643-5.486 21.447-9.31 34.912-10.64 14.963-1.33 31.92.166 50.04 4.987 41.895 11.305 87.446 38.07 126.68 77.471 39.733 39.733 67.662 86.448 79.798 130.337 5.32 19.118 7.315 37.073 6.318 53.032-.832 14.298-4.49 26.932-9.975 37.24"/><path d="M473.331 62.176c8.479-15.295 16.126-27.763 23.108-37.572 5.653-7.98 10.64-13.964 15.129-17.455 5.652-4.49 11.803-1.33 13.133 4.82m167.244 294.422c-.665-44.72-8.645-91.934-23.607-136.654-14.131-42.06-32.917-77.803-53.365-105.4-17.123-23.108-34.912-39.4-51.869-47.712-13.798-6.816-27.43-8.146-38.236-4.655m167.077 294.42c-4.489 42.393-14.63 80.464-28.428 111.884-11.804 26.766-25.768 47.38-40.897 60.68m-328.502-26.932c-20.947-25.768-38.735-60.846-50.705-102.075-12.801-43.889-17.456-90.438-13.798-134.493.332-34.746 6.483-64.337 17.123-86.282 4.987-10.806 11.47-19.284 18.786-24.937"/><path d="M622.62 478.789c-7.315 1.662-18.453-1.663-32.75-7.814-19.285-8.478-43.058-22.11-71.652-41.063-28.927-21.778-62.01-48.544-96.257-82.458-31.254-32.085-58.186-66.498-80.63-99.082-19.782-28.428-35.742-53.698-48.044-75.809-16.126-20.614-27.265-36.574-32.917-48.71-2.992-10.473-.332-18.785 4.987-19.617"/><path d="M622.62 478.789c-8.478 3.49-20.448 3.99-35.078 2.327-17.954-2.161-39.566-7.481-64.337-16.458-50.206 11.803-99.415 14.796-142.473 10.64-36.408-3.492-66-11.638-86.614-23.275"/><path d="M508.077 509.877c45.884-2.66 85.616-13.965 114.543-31.088 16.292-8.978 27.43-21.114 32.418-33.582m-231.414 57.355c28.594 5.818 57.188 8.146 84.619 7.315M374.58 474.632c45.385 21.114 91.768 32.751 133.496 35.245"/><path d="M234.602 361.918c.997 17.123 9.642 36.906 25.602 55.526 19.284 22.443 48.544 43.556 85.284 60.015 24.106 10.972 50.539 19.617 78.136 25.27"/><path d="M234.602 361.918c-.333 11.97 4.156 25.768 13.965 38.735 11.637 15.793 30.589 31.088 55.36 44.554 36.74 20.78 83.788 36.408 135.823 43.058 52.7 6.816 103.57 3.49 146.462-7.481"/><path d="M234.602 361.918c-1.33 18.453 12.302 41.894 39.234 61.012 17.123 12.136 38.902 23.108 64.836 32.418 28.927 10.307 61.843 17.788 97.088 21.446m37.57-414.618c15.295 14.63 31.753 32.086 48.877 52.368 18.785 22.277 37.904 47.38 55.193 75.143 24.106 35.576 42.892 71.818 57.688 105.4 7.98 41.728 10.972 78.135 10.307 108.392 4.821 12.136 8.146 22.443 10.14 30.922 3.658 6.151 6.152 10.473 5.653 12.635-.332 1.163-3.325.166-6.317-1.663"/><path d="M234.602 361.918c-10.141-5.819-15.627-21.612-11.471-40.897 2.66-12.8 8.645-27.597 17.456-44.055 10.307-19.285 24.272-40.398 42.06-62.841 14.13-20.282 30.756-40.73 49.541-60.347 44.056-39.567 93.763-70.655 141.31-91.768 31.919 2.493 63.34 7.98 93.097 16.292 28.096 7.813 53.199 17.622 75.143 28.428 21.28 9.31 38.736 19.285 51.87 29.924 20.946 19.617 31.42 40.897 29.924 57.521"/><path d="M628.771 64.005c30.756 20.78 55.194 44.886 71.652 69.49 14.131 21.114 21.945 42.393 22.942 60.847"/><path d="M265.524 104.236c4.82-10.14 12.967-20.115 23.94-29.259 12.468-10.474 28.593-19.783 47.878-27.43 25.602-10.142 56.025-17.124 89.773-19.784 35.743-2.992 72.816-.831 108.725 6.151 35.244 6.151 66.997 16.791 93.264 30.257 25.103 13.133 44.387 28.428 56.856 44.388 10.473 13.466 15.793 27.929 15.96 40.73"/><path d="M473.331 62.176c-24.77-3.657-48.71-5.32-70.987-5.154-20.78 0-39.899 1.663-56.856 4.489-17.456 2.161-32.418 5.819-44.554 10.806-18.62 8.312-31.088 19.95-35.41 32.086"/></g><path stroke="#75828F" stroke-linecap="round" d="M153.562 440.5H209.5l45.867-28.374"/><path fill="#7CB7FF" fill-rule="nonzero" d="M.22 446v-9.772h4.2c.905 0 1.605.266 2.1.798.495.532.742 1.246.742 2.142 0 .896-.247 1.61-.742 2.142-.495.532-1.195.798-2.1.798H1.802V446H.22zm1.582-5.278h2.52c.401 0 .714-.105.938-.315.224-.21.336-.511.336-.903v-.672c0-.392-.112-.693-.336-.903-.224-.21-.537-.315-.938-.315h-2.52v3.108zM10.58 446H8.998v-9.772h4.214c.877 0 1.568.264 2.072.791s.756 1.244.756 2.149c0 .7-.161 1.281-.483 1.743-.322.462-.796.786-1.421.973L16.25 446h-1.764l-1.96-3.948H10.58V446zm2.52-5.278c.401 0 .714-.105.938-.315.224-.21.336-.511.336-.903v-.672c0-.392-.112-.693-.336-.903-.224-.21-.537-.315-.938-.315h-2.52v3.108h2.52zM17.748 446v-1.288h1.33v-7.196h-1.33v-1.288h4.256v1.288H20.66v7.196h1.344V446h-4.256zm8.498 0l-3.206-9.772h1.638l1.554 4.83.938 3.402h.056l.952-3.402 1.554-4.83h1.596L28.08 446h-1.834zm12.642 0l-.882-2.646h-3.654L33.498 446h-1.61l3.332-9.772h1.988L40.54 446h-1.652zm-2.674-8.316h-.07l-1.414 4.312h2.884l-1.4-4.312zm9.464-.056V446h-1.582v-8.372h-2.912v-1.4h7.406v1.4h-2.912zM50.13 446v-9.772h6.258v1.4h-4.676v2.716h4.242v1.4h-4.242v2.856h4.676v1.4H50.13zm11.606-9.772h4.326c.812 0 1.449.229 1.911.686.462.457.693 1.069.693 1.834 0 .364-.051.674-.154.931a1.908 1.908 0 0 1-.392.63c-.159.163-.34.285-.546.364a2.25 2.25 0 0 1-.602.147v.084c.196.01.413.056.651.14.238.084.46.217.665.399.205.182.378.415.518.7s.21.632.21 1.043c0 .392-.063.76-.189 1.106a2.752 2.752 0 0 1-.525.896 2.45 2.45 0 0 1-.798.595 2.341 2.341 0 0 1-1.008.217h-4.76v-9.772zm1.582 8.414h2.716c.41 0 .733-.107.966-.322.233-.215.35-.523.35-.924v-.476c0-.401-.117-.71-.35-.924-.233-.215-.555-.322-.966-.322h-2.716v2.968zm0-4.284h2.45c.392 0 .695-.1.91-.301.215-.2.322-.488.322-.861v-.448c0-.373-.107-.66-.322-.861-.215-.2-.518-.301-.91-.301h-2.45v2.772zM70.962 446v-9.772h1.582v8.372h3.976v1.4h-5.558zm10.962.168c-.635 0-1.211-.11-1.729-.329a3.595 3.595 0 0 1-1.33-.966c-.369-.425-.653-.952-.854-1.582-.2-.63-.301-1.356-.301-2.177s.1-1.547.301-2.177c.2-.63.485-1.157.854-1.582a3.595 3.595 0 0 1 1.33-.966 4.392 4.392 0 0 1 1.729-.329c.635 0 1.211.11 1.729.329.518.22.961.541 1.33.966.369.425.653.952.854 1.582.2.63.301 1.356.301 2.177s-.1 1.547-.301 2.177c-.2.63-.485 1.157-.854 1.582a3.595 3.595 0 0 1-1.33.966 4.392 4.392 0 0 1-1.729.329zm0-1.414c.373 0 .716-.065 1.029-.196.313-.13.579-.32.798-.567.22-.247.39-.548.511-.903s.182-.756.182-1.204v-1.54c0-.448-.06-.85-.182-1.204a2.62 2.62 0 0 0-.511-.903 2.17 2.17 0 0 0-.798-.567 2.642 2.642 0 0 0-1.029-.196c-.383 0-.728.065-1.036.196-.308.13-.572.32-.791.567a2.62 2.62 0 0 0-.511.903 3.708 3.708 0 0 0-.182 1.204v1.54c0 .448.06.85.182 1.204.121.355.292.656.511.903.22.247.483.436.791.567.308.13.653.196 1.036.196zm9.856 1.414c-1.279 0-2.282-.432-3.01-1.295-.728-.863-1.092-2.116-1.092-3.759 0-.821.093-1.545.28-2.17.187-.625.457-1.153.812-1.582.355-.43.786-.754 1.295-.973.509-.22 1.08-.329 1.715-.329.85 0 1.561.187 2.135.56.574.373 1.024.924 1.351 1.652l-1.33.728a2.42 2.42 0 0 0-.777-1.113c-.35-.275-.81-.413-1.379-.413-.756 0-1.349.257-1.778.77-.43.513-.644 1.223-.644 2.128v1.484c0 .905.215 1.615.644 2.128.43.513 1.022.77 1.778.77.588 0 1.066-.152 1.435-.455.369-.303.642-.693.819-1.169l1.274.77c-.327.71-.784 1.265-1.372 1.666-.588.401-1.307.602-2.156.602zm8.134-4.732l-1.344 1.54V446h-1.582v-9.772h1.582v4.956h.056l1.4-1.778 2.632-3.178h1.848l-3.486 4.116 3.766 5.656h-1.904l-2.968-4.564zm9.982 4.732c-1.279 0-2.282-.432-3.01-1.295-.728-.863-1.092-2.116-1.092-3.759 0-.821.093-1.545.28-2.17.187-.625.457-1.153.812-1.582.355-.43.786-.754 1.295-.973.509-.22 1.08-.329 1.715-.329.85 0 1.561.187 2.135.56.574.373 1.024.924 1.351 1.652l-1.33.728a2.42 2.42 0 0 0-.777-1.113c-.35-.275-.81-.413-1.379-.413-.756 0-1.349.257-1.778.77-.43.513-.644 1.223-.644 2.128v1.484c0 .905.215 1.615.644 2.128.43.513 1.022.77 1.778.77.588 0 1.066-.152 1.435-.455.369-.303.642-.693.819-1.169l1.274.77c-.327.71-.784 1.265-1.372 1.666-.588.401-1.307.602-2.156.602zm11.214-4.424h-4.424V446h-1.582v-9.772h1.582v4.116h4.424v-4.116h1.582V446h-1.582v-4.256zM131.204 446l-.882-2.646h-3.654l-.854 2.646h-1.61l3.332-9.772h1.988l3.332 9.772h-1.652zm-2.674-8.316h-.07l-1.414 4.312h2.884l-1.4-4.312zm5.418 8.316v-1.288h1.33v-7.196h-1.33v-1.288h4.256v1.288h-1.344v7.196h1.344V446h-4.256zm8.876-5.404l-1.078-2.072h-.042V446h-1.512v-9.772h1.764l3.192 5.404 1.078 2.072h.042v-7.476h1.512V446h-1.764l-3.192-5.404z"/></g></svg>