<svg xmlns="http://www.w3.org/2000/svg" width="757" height="687"><g fill="none" fill-rule="evenodd"><g stroke="#BA6DF6" stroke-linecap="round" stroke-width=".298"><path d="M19.721 267.648c-7.151-22.972 1.734-55.48 27.524-85.82 16.254-19.072 38.36-37.71 65.882-55.48 30.775-19.722 67.183-37.276 107.71-51.146 69.35-24.273 141.951-34.459 207.4-31.208 29.257 1.517 55.697 5.635 78.886 12.136 20.588 5.852 38.36 13.22 52.663 22.106"/><path d="M389.878 664.678c6.718-14.304 13.003-33.808 19.721-58.514 9.753-24.923 19.288-54.614 29.257-89.072 11.053-39.01 22.106-83.003 29.908-131.332 8.018-49.845 11.052-99.04 11.486-144.335.65-40.743-1.084-76.718-3.25-107.926 23.405-18.421 42.26-32.725 57.43-42.477 11.27-7.368 19.504-12.136 25.14-12.57M391.827 677.464c.434 3.685.65 5.418.65 5.202-.65-2.818-1.3-8.67-2.6-17.988m1.95 12.786c6.719 5.418 18.205 3.901 26.874-5.851"/><path d="M19.721 267.648C6.501 285.853-.867 312.726.433 344.367c1.734 37.926 14.954 82.136 39.66 127.43 21.239 38.577 49.629 76.07 83.437 108.794 17.12 15.387 35.542 29.474 54.396 42.26 31.425 23.84 63.283 41.177 93.406 51.796 24.923 8.019 48.546 12.136 70 12.136 19.072 0 36.193-3.25 50.496-9.102 24.056 3.034 53.53-3.25 84.087-19.288 36.193-19.071 73.252-50.496 106.41-92.106 36.408-46.16 64.799-100.557 81.703-156.47 16.037-52.23 20.588-101.209 14.087-140.868-5.202-32.942-18.638-58.948-35.976-74.335"/><path d="M582.325 566.07c48.761-56.13 82.353-122.229 96.44-184.427 6.068-27.524 8.235-53.097 6.285-75.852-1.734-20.372-6.719-38.143-14.304-52.663m-644.09 27.74c14.737-13.653 34.459-27.74 59.165-42.26 29.04-17.338 63.932-34.675 104.892-50.712 44.86-17.771 94.273-32.292 145.202-41.61 49.412-8.886 95.79-12.57 137.617-12.787 36.625-.217 68.266 2.167 94.49 6.502 22.104 3.684 39.875 8.668 53.095 15.17 19.072 9.536 26.44 26.656 21.239 39.443"/><path d="M65.016 350.652c-17.554-26.007-30.34-49.412-38.36-69.784C66.75 181.394 149.753 87.338 243.16 35.758 281.952 14.304 318.361 2.602 349.351.65c25.573-1.734 47.462 4.118 62.416 14.954M211.3 507.123c-32.29-25.79-61.548-53.53-86.904-81.703-23.623-26.006-43.344-51.146-59.165-74.768m334.398-4.118c-37.926.867-78.235 1.3-115.728 1.95-34.675.434-66.316.65-95.356 1.084-26.44.217-50.28.434-71.734.65-19.288.217-36.41.217-51.58.434"/><path d="M480.467 247.06c-27.307 2.384-56.998 4.768-88.855 8.669-34.025 4.117-68.917 9.752-103.159 17.337-32.508 7.369-62.848 15.17-90.588 22.756-25.573 7.152-48.979 13.653-70 20.155-24.056 12.57-44.862 24.055-62.416 34.675m326.38 326.812c-6.285 7.369-18.855 9.536-31.858 3.468-18.421-8.886-39.877-29.257-64.583-59.381-26.873-29.474-55.913-67.4-84.303-114.211"/><path d="M43.344 505.606c-2.6-9.536-3.684-21.022-3.25-33.808 0-22.756 4.117-49.629 12.135-79.97 9.32-34.675 23.406-72.817 43.56-112.477 27.524-64.366 65.45-123.53 107.494-171.642 26.223-29.473 52.446-53.096 77.368-70.867 21.456-15.387 41.394-26.006 59.165-31.64 30.557-7.586 57.214-2.818 71.95 10.402"/><path d="M26.656 280.868c-8.235 42.91-10.402 86.038-6.935 126.347 3.251 37.276 11.487 70.65 23.406 98.608 4.768 2.817 12.136 4.55 21.239 5.634 5.634-1.3 12.136-3.034 19.504-5.2a2955.337 2955.337 0 0042.477-19.722c18.855-8.886 40.31-19.505 64.583-31.425 27.306-13.436 57.647-28.607 91.455-45.727 37.276-18.855 77.586-39.877 116.812-62.415 32.291-10.186 61.982-19.939 89.071-28.607 24.923-8.019 47.462-15.387 68.05-22.323 35.109-11.486 62.849-21.021 84.087-28.39 15.604-5.418 26.007-9.319 31.858-12.353 2.384-1.3 1.3-2.167-2.167-1.733"/><path d="M418.918 671.613c23.406-9.97 47.895-24.923 72.601-44.861 48.979-34.458 93.84-80.62 128.298-133.066 20.155-30.99 35.759-62.415 46.595-92.755 12.353-33.158 17.987-63.933 17.987-90.589-.216-22.756-5.2-42.477-13.87-57.214"/><path d="M418.918 671.613c8.019-8.019 15.604-19.938 23.406-35.325 9.319-18.638 18.638-41.827 27.74-69.35 32.941-51.796 63.715-115.078 84.737-185.079 10.403-48.762 15.17-96.223 16.037-140 .65-39.01-1.733-73.468-6.718-102.509-4.334-22.105-9.969-40.96-16.687-56.13-6.285-15.604-14.304-27.09-23.406-32.508-7.802-4.55-16.904-4.984-24.923-2.167M327.03 148.02c10.186 25.573 21.456 54.18 33.375 85.821 13.003 34.675 27.09 72.601 39.01 112.694 3.034 44.644 3.25 86.038 3.684 123.53.433 33.592.217 63.715 0 90.155 2.6 16.904 4.768 32.075 6.501 45.945 2.818 16.904 4.985 31.207 6.502 43.127 1.517 9.535 2.167 16.904 2.6 22.539M19.722 267.648c-2.817-22.755 2.601-50.279 16.905-78.235 16.904-32.725 45.294-65.883 83.003-95.357 51.58-40.526 114.861-70 178.793-83.22 14.087-2.817 27.74-4.768 41.394-5.851 21.888-1.95 42.477-1.734 61.765.65 43.127 5.201 77.369 21.455 97.307 42.91"/><path d="M19.721 267.648c-4.984-1.3-8.885-2.167-10.185-3.25-.434-.434 3.684-.217 9.752.866 6.718 1.084 15.82 2.601 26.873 4.768 13.654 2.6 30.34 5.635 49.629 9.536"/><path d="M19.721 267.648c-6.068-9.969-6.935-23.839.217-35.975 9.536-16.254 30.558-32.291 60.465-47.462m418.485-135.45c27.09 2.601 58.08 20.372 85.17 51.363 33.158 38.36 59.815 94.707 74.118 160.806 9.97 46.378 12.787 94.49 8.452 140-3.467 48.762-14.737 91.023-32.074 123.097-14.52 27.09-33.375 46.378-53.096 56.13M63.282 239.258c17.988 24.923 43.127 54.83 76.502 89.722 40.31 42.043 89.288 89.505 148.67 131.765 29.04 20.805 57.647 38.793 84.953 54.83 25.14 14.52 48.545 27.307 70 38.36 36.626 18.637 66.75 31.64 90.59 39.226 17.987 4.767 32.074 6.501 40.526 3.034 6.068-2.384 8.452-9.32 7.151-15.82"/><path d="M498.888 48.762c-7.152-15.604-26.873-27.74-53.097-28.607-18.854-1.517-40.743.217-65.232 5.418-25.356 5.635-52.88 14.737-81.92 27.957-31.64 14.086-63.715 32.29-95.356 54.396C146.719 146.07 98.824 192.23 63.282 239.475c-3.034 34.675-2.6 72.384 1.95 111.393 6.936 51.796 20.589 102.942 39.66 149.32 17.554 43.127 38.576 79.536 60.898 108.36 19.072 24.706 38.576 42.91 57.214 54.18 15.604 9.318 31.424 13.22 44.644 11.919"/><path d="M161.673 51.796c-2.601-.867 6.068 11.486 16.037 28.173 8.669 8.886 18.638 19.939 30.124 32.942 13.436 15.17 28.607 32.508 45.728 52.663 19.288 22.538 40.743 48.111 64.582 76.935 26.223 31.858 54.613 66.75 81.27 104.242-13.004 44.427-28.607 85.387-42.694 122.446-12.57 33.375-24.273 62.849-34.675 89.072-9.32 22.972-17.554 43.127-25.14 60.248-6.501 14.737-11.92 26.873-17.12 36.842-3.901 10.62-6.935 17.988-9.536 21.672-1.084 1.734-2.6.433-2.384-2.6"/><path d="M63.282 239.258c4.768-19.288 10.62-37.71 17.12-55.263 4.119-16.254 8.67-31.208 14.088-44.861 19.07-42.26 42.91-72.384 67.4-87.338 3.684-2.6 10.619-1.95 18.637.867 11.053 3.9 24.49 11.486 40.527 22.322 29.257 16.47 64.582 40.526 106.192 72.818 41.393 30.774 86.038 67.616 127.864 111.827 40.96 42.91 73.902 86.037 100.775 124.613 17.77 25.79 32.508 48.979 44.21 69.567 9.97 17.554 17.555 32.941 22.756 46.378 7.369 19.505 8.235 35.325 1.517 40.093"/><path d="M559.786 78.452c19.071 18.638 36.842 43.127 52.446 72.818 19.288 33.158 35.108 70.434 45.728 109.66 13.436 48.328 18.637 96.223 15.82 140-6.068 58.298-24.056 107.277-49.845 139.568M161.673 51.796c22.105-13.87 49.412-24.923 80.836-32.291 34.025-8.019 71.734-11.053 110.527-9.102 79.319 4.334 153.654 29.69 206.75 68.05"/><path d="M642.14 194.397c-4.119-33.808-29.041-72.818-71.952-105.109-21.455-16.47-46.594-31.424-74.768-43.56C414.584 10.836 322.045 1.3 244.676 18.204c-33.375 7.369-61.982 19.288-83.654 34.459-18.854 13.436-32.724 29.257-40.31 45.728m503.223 442.107c-8.67 16.904-29.908 32.291-60.032 43.344-18.42 6.718-39.876 12.353-64.365 16.037-27.09 4.334-57.214 6.501-89.939 6.285-59.814-1.517-123.313-12.353-183.56-32.075-56.565-18.638-104.46-42.693-141.952-68.266-29.04-18.855-50.496-37.926-63.065-56.564-9.97-14.737-13.87-29.907-11.27-42.044"/><path d="M211.301 507.123c-53.313-13.437-97.307-29.257-131.982-45.728-28.823-9.535-49.845-19.288-61.765-30.124-8.452-7.585-11.052-17.337-7.802-23.839m201.55 99.691c43.343 18.421 89.504 33.158 136.099 43.344 44.21 9.536 85.387 14.52 122.446 16.47 24.923 2.601 47.462 3.685 67.183 3.468 17.338-.217 32.508-1.734 45.295-4.334 21.672-5.202 36.842-14.52 41.61-25.573"/><path d="M267.648 674.43c12.353 6.935 28.607 10.403 47.245 9.536 21.889-.867 47.462-7.369 74.985-19.288 16.904-7.369 34.242-16.904 52.23-28.174 48.761-30.34 96.656-72.384 137.183-123.313 39.442-49.412 67.616-101.424 83.87-149.32M589.91 106.193c15.82 12.57 30.34 31.641 42.043 55.697 12.787 27.09 21.889 60.682 26.007 99.258 5.418 33.158 7.368 67.833 5.418 102.725m-73.468-257.68c-26.873-33.158-71.084-62.198-126.564-80.62C403.098 5.419 336.132 0 274.583 9.97m-6.935 664.461c-2.167 3.468-5.634.65-6.068-8.235-.433-7.369-.217-16.687.217-28.607.65-14.52 1.95-31.641 3.684-52.013 1.084-17.12 2.817-36.192 4.768-57.213 2.167-22.973 4.551-48.329 7.585-75.852 6.502-71.734 18.204-151.92 33.158-224.305 6.502-31.64 13.003-60.03 18.855-85.82 5.201-23.19 10.402-43.561 14.737-61.765M9.752 407.432C3.034 391.395 0 371.457.867 348.918c1.083-25.356 7.152-53.746 18.421-83.654 16.037-42.693 41.61-86.254 75.202-126.13 35.542-42.26 77.368-77.152 120.495-101.642 20.372-12.136 40.31-21.238 59.598-27.523M18.204 374.924c-12.786 13.654-15.387 27.524-8.452 32.508"/><path d="M26.656 280.868C12.353 312.726 4.334 342.2 2.817 367.773c-1.517 15.603.867 29.69 6.935 39.66m580.158-301.24c-5.201-11.27-21.022-19.722-42.694-22.756-11.053-.434-24.056.433-39.01 2.6-16.903 2.601-35.975 6.719-56.997 12.354-27.74 5.418-58.08 13.003-90.371 23.839-34.892 11.486-71.084 26.006-106.626 43.994-63.066 33.808-116.379 74.334-158.422 113.127-19.722 19.071-36.409 37.276-49.846 54.18-11.92 14.954-21.021 28.824-27.74 41.393m156.038 260.93c10.62 15.82 35.976 25.79 69.134 24.273 21.021-.867 45.294-5.635 72.384-14.087 30.557-9.536 63.932-23.622 98.39-42.694 43.561-25.14 86.255-57.214 124.83-94.272 37.276-35.976 67.617-73.468 90.59-109.877M174.241 635.854c-1.95 3.034-3.684 4.118-3.684 3.468.65-3.034 3.25-8.236 7.368-16.688 1.951-11.269 5.635-25.356 10.403-42.477 5.851-20.588 13.437-44.86 22.756-73.034"/><path d="M203.283 107.71c35.758 8.452 77.152 21.455 123.746 40.31C393.562 182.043 461.395 227.988 518.61 280c25.79 23.406 48.329 45.945 67.4 67.183 17.12 18.855 31.64 36.192 43.344 52.23M120.713 98.607c-2.818-11.703 4.55-24.056 19.504-24.706 9.97-.433 22.54 1.734 37.71 6.068m-57.214 18.638c-10.836.217-22.322 4.551-30.991 13.437-10.403 10.402-18.205 27.523-22.539 49.412"/><path d="M120.713 98.607c-20.805 7.152-42.044 23.84-59.165 48.762-20.371 29.69-35.325 70.434-42.477 118.112-9.319 66.1-2.167 139.35 21.022 206.1 16.037 47.245 38.576 87.121 64.582 116.378 22.106 24.923 46.595 41.177 69.567 47.679M274.583 9.969c7.585-.217 15.604 0 24.056.867 25.14 1.084 52.88 5.851 81.92 14.52 62.415 21.455 127.43 60.898 183.344 113.994 40.96 39.01 72.818 80.837 94.057 121.58 17.554 31.208 27.306 60.248 28.823 84.737 1.3 20.372-3.9 37.926-13.003 50.062M174.242 635.854c16.688 16.904 43.127 29.908 76.502 35.976 39.66 7.368 87.771 5.2 139.35-6.935 34.242-8.452 68.7-21.022 101.642-37.71 33.375-17.12 64.149-37.925 90.805-60.68 37.71-31.208 65.016-65.017 80.186-97.091 12.353-26.657 15.821-52.446 11.053-73.035"/><path d="M174.242 635.854c-8.885.217-18.42-3.467-26.44-11.27-9.752-9.318-17.77-24.488-24.272-43.993-3.25-14.954-5.201-32.941-5.635-53.53-3.467-26.656-4.768-57.214-3.684-90.805 1.084-36.842 4.985-76.069 12.786-116.812 8.02-41.176 19.505-81.27 33.375-118.762 13.003-34.892 27.957-66.1 42.91-92.973 5.852-11.702 11.92-22.538 17.555-32.507 18.421-32.075 36.409-54.614 53.53-65.233"/><path d="M663.378 363.872c-8.886 11.269-20.155 23.189-33.809 35.542-18.637 10.185-41.176 21.021-67.183 31.857-29.69 12.57-63.498 25.14-101.424 36.626-41.177 12.57-85.17 22.972-129.815 29.257-42.91 6.285-83.22 8.885-119.629 9.969-39.66 2.384-73.685 2.6-101.858.867-23.189-1.3-41.827-3.901-55.914-8.019-18.637-5.634-25.79-19.071-20.155-28.173M298.422 14.737c-17.554-4.334-38.359-3.901-60.464 2.167-25.573 6.935-52.663 21.022-79.32 41.61C96.874 106.41 44.861 182.044 19.071 265.481 8.02 301.24 2.601 336.131 2.817 367.556c.217 44.21 11.703 80.836 30.341 104.242"/><path d="M477.216 133.5c-33.808-48.98-66.75-85.172-96.657-108.144-14.52-9.535-28.174-16.254-40.743-20.371-17.554-7.802-34.242-2.168-41.394 9.752-12.57-7.369-30.557-8.886-48.545-1.084-22.972 9.97-47.678 32.725-72.167 66.316-16.037 23.19-31.425 51.146-45.295 83.437-15.17 35.109-27.956 74.118-36.842 115.728-16.904 70.434-20.805 138.917-15.17 197.432 2.384 25.572 6.501 48.328 12.136 68.05 4.985 17.554 11.053 32.507 18.205 44.427m552.634-225.171c-12.353-32.075-33.158-68.267-62.416-106.843-33.158-43.56-75.201-86.471-123.746-123.53"/><path d="M614.4 276.534c-26.657-27.957-59.815-56.997-99.258-84.737-42.044-29.908-88.639-55.264-135.883-75.419a708.852 708.852 0 00-87.338-27.957c-25.573-6.284-49.412-10.619-70.867-13.22m442.324 288.67c-14.52-14.086-35.109-29.907-61.982-47.678-32.508-21.455-72.601-45.294-120.93-68.916"/><path d="M631.52 178.36c-12.787 9.536-32.725 23.189-60.898 42.043-25.573 7.152-55.697 16.254-90.155 26.874m193.096 148.67c7.369 1.95 8.236 4.984 0 5.2-9.969.217-24.489-.433-44.21-1.733-20.372-4.768-45.295-10.62-74.985-17.338-20.372-4.768-42.91-9.752-67.617-15.387-26.873-6.068-55.913-12.786-87.554-19.721-35.759 34.675-73.251 65.882-107.06 94.056a8951.95 8951.95 0 01-81.27 66.532c-28.173 24.49-51.145 43.994-69.566 58.948-13.87 11.27-23.84 19.071-30.774 23.19"/><path d="M680.715 313.593c-6.718 7.802-19.288 16.254-36.625 26.006-22.756 12.57-52.446 26.657-89.505 42.477m-258.98 239.258c32.725-14.52 69.133-34.675 107.493-60.898 56.78-49.412 110.31-111.827 151.487-178.577m118.978 14.087c8.886 17.338 2.384 45.294-21.672 70.65-15.82 16.688-38.142 33.592-66.099 49.846-32.508 18.855-71.3 36.409-116.161 50.712"/><path d="M298.422 14.737C310.992 7.585 326.38 2.6 343.933.867c19.505-1.734 41.61.217 65.233 6.501 54.613 14.737 113.994 49.63 165.14 100.992 51.796 51.796 88.205 112.694 104.025 169.908 6.935 24.922 9.536 48.328 8.236 69.133-1.084 18.638-5.852 35.108-13.004 48.545"/><path d="M344.584 81.053c11.052-19.938 21.021-36.192 30.124-48.979 7.368-10.402 13.87-18.204 19.721-22.755 7.368-5.851 15.387-1.734 17.12 6.285m218.02 383.81c-.866-58.298-11.269-119.846-30.774-178.144-18.42-54.83-42.91-101.424-69.567-137.4-22.322-30.124-45.51-51.362-67.616-62.198-17.988-8.886-35.759-10.62-49.845-6.068m217.802 383.81c-5.851 55.263-19.07 104.892-37.059 145.852-15.387 34.891-33.591 61.765-53.313 79.102M110.96 589.26c-27.306-33.592-50.495-79.32-66.1-133.066-16.686-57.214-22.755-117.895-17.987-175.326.434-45.294 8.452-83.87 22.322-112.477 6.502-14.087 14.954-25.14 24.49-32.508"/><path d="M539.197 624.151c-9.535 2.168-24.055-2.167-42.693-10.185-25.14-11.053-56.13-28.824-93.406-53.53-37.71-28.39-80.836-63.282-125.48-107.493-40.744-41.827-75.852-86.687-105.11-129.164-25.79-37.06-46.594-70-62.631-98.824-21.022-26.874-35.542-47.679-42.91-63.5-3.902-13.652-.434-24.488 6.5-25.572"/><path d="M539.197 624.151c-11.052 4.552-26.656 5.202-45.727 3.034-23.406-2.817-51.58-9.752-83.87-21.455-65.45 15.387-129.6 19.288-185.73 13.87-47.462-4.55-86.038-15.17-112.91-30.34"/><path d="M389.878 664.678c59.814-3.468 111.61-18.204 149.32-40.527 21.238-11.702 35.758-27.523 42.26-43.777m-301.673 74.768c37.275 7.585 74.551 10.62 110.31 9.536m-174.243-45.945c59.165 27.524 119.63 42.694 174.026 45.945"/><path d="M33.375 471.798c1.3 22.322 12.57 48.111 33.375 72.384 25.139 29.257 63.282 56.78 111.176 78.236 31.425 14.303 65.883 25.573 101.859 32.941"/><path d="M33.375 471.798c-.434 15.604 5.418 33.591 18.204 50.495 15.17 20.589 39.877 40.527 72.168 58.081 47.895 27.09 109.226 47.462 177.06 56.13 68.7 8.886 135.015 4.552 190.929-9.752"/><path d="M33.375 471.798c-1.734 24.056 16.037 54.613 51.146 79.536 22.322 15.82 50.712 30.124 84.52 42.26 37.71 13.437 80.62 23.189 126.564 27.957"/><path d="M33.375 471.798c-3.901 1.95-7.152 3.684-6.502 3.684 1.734.433 6.068-1.517 13.437-3.9 9.969-2.168 22.755-5.636 39.226-10.187 13.653-4.55 29.474-9.752 47.461-15.82 20.155-6.719 42.694-14.737 67.834-23.406 27.74-9.752 58.297-20.588 91.889-32.508 36.625-13.22 75.635-27.74 113.127-43.127M344.584 81.053c19.938 19.071 41.393 41.827 63.715 68.267 24.49 29.04 49.412 61.765 71.95 97.957 31.425 46.378 55.914 93.622 75.202 137.4 10.403 54.396 14.304 101.858 13.437 141.3 6.285 15.821 10.62 29.258 13.22 40.31 4.768 8.019 8.018 13.654 7.368 16.471-.433 1.517-4.334.217-8.235-2.167"/><path d="M33.375 471.798c-13.22-7.585-20.372-28.174-14.954-53.313 3.468-16.688 11.27-35.976 22.756-57.43 13.436-25.14 31.64-52.664 54.83-81.92 18.42-26.44 40.093-53.097 64.582-78.67 57.43-51.579 122.23-92.105 184.211-119.629 41.61 3.251 82.57 10.403 121.363 21.239 36.626 10.186 69.35 22.972 97.957 37.059 27.74 12.136 50.496 25.14 67.617 39.01 27.306 25.572 40.96 53.312 39.01 74.984"/><path d="M547.216 83.437c40.093 27.09 71.95 58.514 93.406 90.589 18.421 27.523 28.607 55.263 29.907 79.319"/><path d="M73.685 135.883c6.284-13.22 16.904-26.223 31.207-38.143 16.254-13.653 37.276-25.79 62.415-35.758 33.375-13.22 73.035-22.322 117.029-25.79 46.594-3.9 94.923-1.083 141.734 8.019 45.945 8.018 87.338 21.888 121.58 39.443 32.724 17.12 57.864 37.059 74.118 57.864 13.653 17.554 20.588 36.408 20.805 53.096"/><path d="M344.584 81.053c-32.292-4.768-63.5-6.935-92.54-6.718-27.09 0-52.012 2.167-74.118 5.851-22.755 2.817-42.26 7.585-58.08 14.087-24.273 10.836-40.527 26.006-46.161 41.827"/></g><path stroke="#75828F" stroke-linecap="round" d="M508.562 43H564.5l45.867 28.374"/><path fill="#804BC9" fill-rule="nonzero" d="M617.581 76v-9.772h4.2c.905 0 1.605.266 2.1.798.495.532.742 1.246.742 2.142 0 .896-.247 1.61-.742 2.142-.495.532-1.195.798-2.1.798h-2.618V76h-1.582zm1.582-5.278h2.52c.401 0 .714-.105.938-.315.224-.21.336-.511.336-.903v-.672c0-.392-.112-.693-.336-.903-.224-.21-.537-.315-.938-.315h-2.52v3.108zm8.694-4.494v6.02c0 .83.159 1.456.476 1.876.317.42.859.63 1.624.63.765 0 1.307-.21 1.624-.63.317-.42.476-1.045.476-1.876v-6.02h1.554v5.768c0 .719-.065 1.34-.196 1.862-.13.523-.34.954-.63 1.295-.29.34-.665.595-1.127.763-.462.168-1.029.252-1.701.252-.672 0-1.239-.084-1.701-.252a2.618 2.618 0 01-1.127-.763c-.29-.34-.5-.772-.63-1.295-.13-.523-.196-1.143-.196-1.862v-5.768h1.554zm8.106 0h4.326c.812 0 1.449.229 1.911.686.462.457.693 1.069.693 1.834 0 .364-.051.674-.154.931a1.908 1.908 0 01-.392.63c-.159.163-.34.285-.546.364a2.25 2.25 0 01-.602.147v.084c.196.01.413.056.651.14.238.084.46.217.665.399.205.182.378.415.518.7s.21.632.21 1.043c0 .392-.063.76-.189 1.106a2.752 2.752 0 01-.525.896 2.45 2.45 0 01-.798.595 2.341 2.341 0 01-1.008.217h-4.76v-9.772zm1.582 8.414h2.716c.41 0 .733-.107.966-.322.233-.215.35-.523.35-.924v-.476c0-.401-.117-.71-.35-.924-.233-.215-.555-.322-.966-.322h-2.716v2.968zm0-4.284h2.45c.392 0 .695-.1.91-.301.215-.2.322-.488.322-.861v-.448c0-.373-.107-.66-.322-.861-.215-.2-.518-.301-.91-.301h-2.45v2.772zM645.189 76v-9.772h1.582V74.6h3.976V76h-5.558zm6.762 0v-1.288h1.33v-7.196h-1.33v-1.288h4.256v1.288h-1.344v7.196h1.344V76h-4.256zm9.912.168c-1.279 0-2.282-.432-3.01-1.295-.728-.863-1.092-2.116-1.092-3.759 0-.821.093-1.545.28-2.17.187-.625.457-1.153.812-1.582.355-.43.786-.754 1.295-.973.509-.22 1.08-.329 1.715-.329.85 0 1.561.187 2.135.56.574.373 1.024.924 1.351 1.652l-1.33.728a2.42 2.42 0 00-.777-1.113c-.35-.275-.81-.413-1.379-.413-.756 0-1.349.257-1.778.77-.43.513-.644 1.223-.644 2.128v1.484c0 .905.215 1.615.644 2.128.43.513 1.022.77 1.778.77.588 0 1.066-.152 1.435-.455.369-.303.642-.693.819-1.169l1.274.77c-.327.71-.784 1.265-1.372 1.666-.588.401-1.307.602-2.156.602zm8.512-9.94h4.326c.812 0 1.449.229 1.911.686.462.457.693 1.069.693 1.834 0 .364-.051.674-.154.931a1.908 1.908 0 01-.392.63c-.159.163-.34.285-.546.364a2.25 2.25 0 01-.602.147v.084c.196.01.413.056.651.14.238.084.46.217.665.399.205.182.378.415.518.7s.21.632.21 1.043c0 .392-.063.76-.189 1.106a2.752 2.752 0 01-.525.896 2.45 2.45 0 01-.798.595 2.341 2.341 0 01-1.008.217h-4.76v-9.772zm1.582 8.414h2.716c.41 0 .733-.107.966-.322.233-.215.35-.523.35-.924v-.476c0-.401-.117-.71-.35-.924-.233-.215-.555-.322-.966-.322h-2.716v2.968zm0-4.284h2.45c.392 0 .695-.1.91-.301.215-.2.322-.488.322-.861v-.448c0-.373-.107-.66-.322-.861-.215-.2-.518-.301-.91-.301h-2.45v2.772zM679.601 76v-9.772h1.582V74.6h3.976V76h-5.558zm10.962.168c-.635 0-1.211-.11-1.729-.329a3.595 3.595 0 01-1.33-.966c-.369-.425-.653-.952-.854-1.582-.2-.63-.301-1.356-.301-2.177s.1-1.547.301-2.177c.2-.63.485-1.157.854-1.582a3.595 3.595 0 011.33-.966 4.392 4.392 0 011.729-.329c.635 0 1.211.11 1.729.329.518.22.961.541 1.33.966.369.425.653.952.854 1.582.2.63.301 1.356.301 2.177s-.1 1.547-.301 2.177c-.2.63-.485 1.157-.854 1.582a3.595 3.595 0 01-1.33.966 4.392 4.392 0 01-1.729.329zm0-1.414c.373 0 .716-.065 1.029-.196.313-.13.579-.32.798-.567.22-.247.39-.548.511-.903s.182-.756.182-1.204v-1.54c0-.448-.06-.85-.182-1.204a2.62 2.62 0 00-.511-.903 2.17 2.17 0 00-.798-.567 2.642 2.642 0 00-1.029-.196c-.383 0-.728.065-1.036.196-.308.13-.572.32-.791.567a2.62 2.62 0 00-.511.903 3.708 3.708 0 00-.182 1.204v1.54c0 .448.06.85.182 1.204.121.355.292.656.511.903.22.247.483.436.791.567.308.13.653.196 1.036.196zm9.856 1.414c-1.279 0-2.282-.432-3.01-1.295-.728-.863-1.092-2.116-1.092-3.759 0-.821.093-1.545.28-2.17.187-.625.457-1.153.812-1.582.355-.43.786-.754 1.295-.973.509-.22 1.08-.329 1.715-.329.85 0 1.561.187 2.135.56.574.373 1.024.924 1.351 1.652l-1.33.728a2.42 2.42 0 00-.777-1.113c-.35-.275-.81-.413-1.379-.413-.756 0-1.349.257-1.778.77-.43.513-.644 1.223-.644 2.128v1.484c0 .905.215 1.615.644 2.128.43.513 1.022.77 1.778.77.588 0 1.066-.152 1.435-.455.369-.303.642-.693.819-1.169l1.274.77c-.327.71-.784 1.265-1.372 1.666-.588.401-1.307.602-2.156.602zm8.134-4.732l-1.344 1.54V76h-1.582v-9.772h1.582v4.956h.056l1.4-1.778 2.632-3.178h1.848l-3.486 4.116L713.425 76h-1.904l-2.968-4.564zm9.982 4.732c-1.279 0-2.282-.432-3.01-1.295-.728-.863-1.092-2.116-1.092-3.759 0-.821.093-1.545.28-2.17.187-.625.457-1.153.812-1.582.355-.43.786-.754 1.295-.973.509-.22 1.08-.329 1.715-.329.85 0 1.561.187 2.135.56.574.373 1.024.924 1.351 1.652l-1.33.728a2.42 2.42 0 00-.777-1.113c-.35-.275-.81-.413-1.379-.413-.756 0-1.349.257-1.778.77-.43.513-.644 1.223-.644 2.128v1.484c0 .905.215 1.615.644 2.128.43.513 1.022.77 1.778.77.588 0 1.066-.152 1.435-.455.369-.303.642-.693.819-1.169l1.274.77c-.327.71-.784 1.265-1.372 1.666-.588.401-1.307.602-2.156.602zm11.214-4.424h-4.424V76h-1.582v-9.772h1.582v4.116h4.424v-4.116h1.582V76h-1.582v-4.256zM739.843 76l-.882-2.646h-3.654L734.453 76h-1.61l3.332-9.772h1.988L741.495 76h-1.652zm-2.674-8.316h-.07l-1.414 4.312h2.884l-1.4-4.312zM742.587 76v-1.288h1.33v-7.196h-1.33v-1.288h4.256v1.288h-1.344v7.196h1.344V76h-4.256zm8.876-5.404l-1.078-2.072h-.042V76h-1.512v-9.772h1.764l3.192 5.404 1.078 2.072h.042v-7.476h1.512V76h-1.764l-3.192-5.404z"/></g></svg>