<svg width="34" height="34" xmlns="http://www.w3.org/2000/svg"><g transform="translate(1 1)" fill="none" fill-rule="evenodd"><circle stroke="#65CF86" fill="#65CF86" cx="16" cy="16" r="16"/><path d="M21.255 11.353a.296.296 0 01.219-.082.4.4 0 01.246.082l.766.793a.26.26 0 01.109.219.34.34 0 01-.11.246l-8.202 8.203a.296.296 0 01-.22.082.4.4 0 01-.245-.082L10.18 17.15a.26.26 0 01-.11-.219.34.34 0 01.11-.246l.766-.766a.34.34 0 01.246-.11.26.26 0 01.218.11l2.653 2.653 7.191-7.22z" fill="#FFF" fill-rule="nonzero"/></g></svg>