<svg width="32" height="32" xmlns="http://www.w3.org/2000/svg"><g fill="none" fill-rule="evenodd"><circle fill="#FF806C" cx="16" cy="16" r="16"/><path d="M17.375 16.333l3.385 3.386a.38.38 0 01.079.234.282.282 0 01-.079.208l-.599.6a.282.282 0 01-.208.078.38.38 0 01-.234-.079l-3.386-3.385-3.385 3.385a.38.38 0 01-.234.079.282.282 0 01-.209-.079l-.599-.599a.282.282 0 01-.078-.208.38.38 0 01.078-.234l3.386-3.386-3.386-3.385a.38.38 0 01-.078-.234c0-.087.026-.157.078-.209l.6-.599a.282.282 0 01.208-.078.38.38 0 01.234.078l3.385 3.386 3.386-3.386a.38.38 0 01.234-.078.28.28 0 01.208.078l.6.6a.282.282 0 01.078.208.38.38 0 01-.079.234l-3.385 3.385z" fill="#FFF" fill-rule="nonzero"/></g></svg>