<svg width="75" height="75" xmlns="http://www.w3.org/2000/svg"><g fill="#BA6DF6" fill-rule="evenodd"><path d="M37.5 1.667C17.742 1.667 1.667 17.742 1.667 37.5S17.742 73.333 37.5 73.333 73.333 57.258 73.333 37.5 57.258 1.667 37.5 1.667M37.5 75C16.822 75 0 58.177 0 37.5S16.822 0 37.5 0 75 16.823 75 37.5 58.178 75 37.5 75"/><path d="M20.833 53.11h33.334V42.98H45v1.523c0 1.378-1.122 2.5-2.5 2.5h-10a2.503 2.503 0 0 1-2.5-2.5V42.98h-9.167v10.13zM55 54.777H20a.834.834 0 0 1-.833-.833V42.145c0-.46.373-.833.833-.833h10.833c.46 0 .834.373.834.833v2.357c0 .458.373.833.833.833h10c.46 0 .833-.375.833-.833v-2.357c0-.46.374-.833.834-.833H55c.46 0 .833.373.833.833v11.799c0 .46-.373.833-.833.833z"/><path d="M53.135 42.721a.834.834 0 0 1-.834-.833v-12.5H23.135v12.5a.834.834 0 0 1-1.667 0V28.555c0-.46.373-.834.833-.834h30.834c.46 0 .833.374.833.834v13.333c0 .46-.373.833-.833.833m-1.944-17.5H24.245a.834.834 0 0 1 0-1.666H51.19a.834.834 0 0 1 0 1.666m-1.597-3.333h-23.75a.834.834 0 0 1 0-1.667h23.75a.834.834 0 0 1 0 1.667"/></g></svg>