<svg width="75" height="75" xmlns="http://www.w3.org/2000/svg"><g fill="#BA6DF6" fill-rule="evenodd"><path d="M37.5 1.667C17.742 1.667 1.667 17.742 1.667 37.5S17.742 73.333 37.5 73.333 73.333 57.258 73.333 37.5 57.258 1.667 37.5 1.667M37.5 75C16.823 75 0 58.178 0 37.5S16.823 0 37.5 0 75 16.822 75 37.5 58.177 75 37.5 75"/><path d="M29.455 22.159c-2.478.01-4.732.982-6.458 2.738-1.952 1.985-3.049 4.807-3.01 7.744a10.71 10.71 0 0 0 .51 3.175c.436 1.891 2.791 5.51 11.65 12.406 1.985 1.534 5.023 3.645 6.321 4.549l.162.111c1.611-1.066 3.718-2.673 6.276-4.785 8.662-7.091 10.922-10.795 11.294-12.651.32-1.092.465-2.165.45-3.264-.07-5.645-4.303-10.238-9.433-10.238l-.184.003c-3.353.044-6.365 1.854-8.065 4.839a.838.838 0 0 1-.713.421h-.012a.833.833 0 0 1-.712-.401c-1.758-2.91-4.778-4.647-8.076-4.647m9.155 32.563a.838.838 0 0 1-.522-.185c-.068-.048-.27-.19-.572-.398-1.308-.91-4.371-3.04-6.39-4.6-7.531-5.862-11.533-10.205-12.235-13.282-.36-1.1-.558-2.333-.571-3.596-.044-3.377 1.228-6.632 3.488-8.932 2.04-2.075 4.712-3.225 7.525-3.237h.002c3.568 0 6.773 1.615 8.89 4.375 2.065-2.848 5.263-4.54 8.778-4.586l.214-.004c6.038 0 11.02 5.332 11.1 11.884a12.355 12.355 0 0 1-.5 3.685c-.602 3.015-4.594 7.596-11.852 13.538-2.864 2.363-5.187 4.117-6.909 5.208a.829.829 0 0 1-.446.13"/><path d="M51.808 35.394a.832.832 0 0 1-.817-1.003l.126-.507a5.55 5.55 0 0 0 .223-1.639c-.038-2.791-1.903-4.981-4.248-4.981a.832.832 0 1 1-.005-1.667h.005c3.268 0 5.865 2.912 5.915 6.63.006.73-.09 1.442-.29 2.12l-.095.383a.833.833 0 0 1-.814.664"/></g></svg>