<svg width="32" height="32" xmlns="http://www.w3.org/2000/svg"><g fill="#804BC9" fill-rule="evenodd"><path d="M16 .711C7.57.711.711 7.57.711 16S7.57 31.289 16 31.289 31.289 24.43 31.289 16 24.43.711 16 .711M16 32C7.178 32 0 24.822 0 16S7.178 0 16 0s16 7.178 16 16-7.178 16-16 16"/><path d="M16.001 8.43a5.094 5.094 0 0 0-5.088 5.089A5.094 5.094 0 0 0 16 18.606a5.093 5.093 0 0 0 5.086-5.087A5.093 5.093 0 0 0 16 8.431m0 10.886a5.806 5.806 0 0 1-5.8-5.798c0-3.198 2.602-5.8 5.8-5.8a5.804 5.804 0 0 1 5.797 5.8c0 3.197-2.6 5.798-5.797 5.798"/><path d="M16.001 10.683a2.84 2.84 0 0 0-2.836 2.836 2.839 2.839 0 0 0 2.836 2.835 2.838 2.838 0 0 0 2.835-2.835A2.838 2.838 0 0 0 16 10.683m0 6.382a3.55 3.55 0 0 1-3.547-3.546A3.55 3.55 0 0 1 16 9.972a3.55 3.55 0 0 1 3.546 3.547A3.55 3.55 0 0 1 16 17.065m-3.03 7.218a.356.356 0 0 1-.296-.161l-1.205-1.838-2.198-.05a.355.355 0 0 1-.303-.528l2.617-4.713a.355.355 0 1 1 .622.346l-2.332 4.197 1.797.04a.355.355 0 0 1 .289.162l.985 1.502 2.33-4.197a.356.356 0 1 1 .622.346l-2.616 4.71a.356.356 0 0 1-.298.184h-.013zm6.06 0h-.014a.356.356 0 0 1-.298-.183l-2.617-4.711a.356.356 0 0 1 .623-.346l2.33 4.197.985-1.502a.355.355 0 0 1 .289-.161l1.797-.04-2.332-4.198a.355.355 0 1 1 .622-.346l2.617 4.713a.357.357 0 0 1-.303.528l-2.198.05-1.205 1.838a.356.356 0 0 1-.297.16"/></g></svg>