<svg width="126" height="126" xmlns="http://www.w3.org/2000/svg"><g fill="#FFF" fill-rule="evenodd"><path d="M62.823 2.8c-33.1 0-60.03 27.01-60.03 60.207s26.93 60.206 60.03 60.206 60.03-27.009 60.03-60.206c0-33.198-26.93-60.207-60.03-60.207m0 123.213C28.18 126.013 0 97.75 0 63.007 0 28.263 28.18 0 62.823 0c34.642 0 62.823 28.263 62.823 63.007 0 34.743-28.181 63.006-62.823 63.006"/><path d="M54.233 69.272L41.406 82.146c-1.297 1.305-2.135 2.895-2.357 4.476-.2 1.435.14 2.677.962 3.499.835.841 1.926 1.017 2.694 1.017 1.769 0 3.726-.907 5.237-2.429l12.827-12.877-6.536-6.56zm-11.528 24.69c-1.84 0-3.501-.656-4.682-1.845-1.46-1.46-2.084-3.552-1.758-5.887.306-2.186 1.426-4.344 3.152-6.08l13.82-13.874c.552-.55 1.44-.55 1.991 0l8.525 8.56c.264.262.41.62.41.996s-.146.734-.41 1l-13.82 13.873c-2.056 2.07-4.691 3.256-7.228 3.256zm48.023-58.469l-3.696 3.713a2.63 2.63 0 0 0 .003 3.697c.976.983 2.694.985 3.676 0l3.698-3.714-3.681-3.696zm-1.854 10.999a5.364 5.364 0 0 1-3.83-1.596c-2.11-2.129-2.107-5.577 0-7.686l4.688-4.713c.529-.528 1.462-.531 1.991 0l5.667 5.693c.548.55.548 1.446 0 1.996L92.7 44.9a5.365 5.365 0 0 1-3.826 1.593z"/><path d="M70.574 60.834c-.36 0-.72-.139-.995-.413a1.42 1.42 0 0 1 0-1.999L85.047 42.9c.55-.55 1.44-.55 1.99 0a1.417 1.417 0 0 1 0 1.997L71.57 60.42a1.41 1.41 0 0 1-.996.413"/><path d="M50.465 61.879c.368 0 .728.147.995.412L79.435 90.39a6.546 6.546 0 0 0 4.671 1.937 6.557 6.557 0 0 0 4.677-1.943 6.599 6.599 0 0 0 1.935-4.69A6.61 6.61 0 0 0 88.783 81l-27.98-28.092a1.405 1.405 0 0 1-.368-1.344c1.237-4.89-.192-10.135-3.73-13.684-3.369-3.386-8.302-4.852-12.93-3.912l7.036 7.069c.357.358.495.875.363 1.364l-1.938 7.274a1.41 1.41 0 0 1-.996 1l-7.25 1.95a1.391 1.391 0 0 1-1.358-.363l-7.037-7.069c-.93 4.663.492 9.568 3.895 12.985 3.533 3.547 8.783 4.975 13.629 3.744a1.45 1.45 0 0 1 .346-.042m33.641 33.27c-2.517 0-4.88-.98-6.66-2.765L50.022 64.841c-5.605 1.15-11.483-.613-15.519-4.668-4.722-4.741-6.257-11.871-3.915-18.169a1.407 1.407 0 0 1 2.312-.503l8.147 8.187 5.684-1.53 1.519-5.702-8.15-8.184a1.42 1.42 0 0 1-.38-1.299c.101-.468.433-.855.883-1.022a17.079 17.079 0 0 1 6.016-1.09 16.91 16.91 0 0 1 12.076 5.021c4.044 4.058 5.788 9.963 4.646 15.582L90.77 79.003a9.42 9.42 0 0 1 2.76 6.69 9.41 9.41 0 0 1-2.76 6.687 9.345 9.345 0 0 1-6.665 2.77"/><path d="M83.697 82.721a2.349 2.349 0 0 0-2.346 2.356 2.349 2.349 0 0 0 2.346 2.355 2.349 2.349 0 0 0 2.345-2.355 2.349 2.349 0 0 0-2.345-2.356"/></g></svg>