<svg width="150" height="150" xmlns="http://www.w3.org/2000/svg"><g fill="#BA6DF6" fill-rule="evenodd"><path d="M75 3.333C35.483 3.333 3.333 35.483 3.333 75S35.483 146.667 75 146.667s71.667-32.15 71.667-71.667S114.517 3.333 75 3.333M75 150c-41.353 0-75-33.647-75-75S33.647 0 75 0s75 33.647 75 75-33.647 75-75 75"/><path d="M88.877 114.961c-.92 0-1.667-.747-1.667-1.667V95.878c0-.92.747-1.667 1.667-1.667h17.417a1.667 1.667 0 0 1 0 3.333h-15.75v15.75c0 .92-.747 1.667-1.667 1.667"/><path d="M60.563 111.628h27.624l16.44-16.44V55.384H60.563v56.244zm28.314 3.333h-29.98c-.92 0-1.667-.747-1.667-1.667V53.718c0-.92.747-1.667 1.667-1.667h47.396c.92 0 1.667.747 1.667 1.667v42.16c0 .443-.177.866-.49 1.18l-17.413 17.416a1.68 1.68 0 0 1-1.18.487z"/><path d="M85.739 66.393H68.692a1.665 1.665 0 0 1-1.666-1.666c0-.92.743-1.667 1.666-1.667H85.74a1.667 1.667 0 0 1 0 3.333m11.243 8.777h-28.29a1.665 1.665 0 0 1-1.667-1.667c0-.92.743-1.667 1.667-1.667h28.29a1.667 1.667 0 0 1 0 3.333m0 8.77h-28.29a1.665 1.665 0 0 1-1.667-1.667c0-.92.743-1.666 1.667-1.666h28.29a1.667 1.667 0 0 1 0 3.333m-16.446 8.776H68.691a1.667 1.667 0 0 1 0-3.333h11.846a1.667 1.667 0 0 1 0 3.333m-22.493 10.221H46.52c-.92 0-1.666-.746-1.666-1.666V39.603c0-.92.746-1.667 1.666-1.667h10.617a1.667 1.667 0 0 1 0 3.334h-8.95v58.333h9.857a1.667 1.667 0 0 1 0 3.333M94.401 54.2c-.92 0-1.667-.747-1.667-1.667V41.269h-9.046a1.667 1.667 0 0 1 0-3.333H94.4c.92 0 1.667.747 1.667 1.667v12.93c0 .92-.747 1.666-1.667 1.666"/><path d="M60.667 38.366a1.599 1.599 0 0 0 0 3.197h19.59a1.599 1.599 0 0 0 0-3.197h-19.59zm19.59 6.53h-19.59a4.936 4.936 0 0 1-4.93-4.93 4.939 4.939 0 0 1 4.93-4.933h19.59a4.936 4.936 0 0 1 4.927 4.933c0 2.72-2.21 4.93-4.927 4.93z"/></g></svg>