<svg width="150" height="150" xmlns="http://www.w3.org/2000/svg"><g fill="#BA6DF6" fill-rule="evenodd"><path d="M75 3.333C35.483 3.333 3.333 35.483 3.333 75S35.483 146.67 75 146.67s71.667-32.153 71.667-71.67S114.517 3.333 75 3.333m0 146.67c-41.353 0-75-33.646-75-75.003S33.647 0 75 0s75 33.643 75 75-33.647 75.003-75 75.003"/><path d="M63.597 42.209c-5.227 0-9.48 5.016-9.48 11.18 0 6.166 4.253 11.18 9.48 11.18 5.223 0 9.473-5.014 9.473-11.18 0-6.164-4.25-11.18-9.473-11.18m0 25.693c-7.063 0-12.813-6.51-12.813-14.513 0-8 5.75-14.514 12.813-14.514 7.06 0 12.807 6.514 12.807 14.514 0 8.003-5.747 14.513-12.807 14.513m-20.182 33.226h39.803l.837-12.29c.2-2.823-2.167-6.927-5.637-8.203-9.697-3.47-20.49-3.477-30.213.003-3.444 1.273-5.817 5.383-5.627 8.2l.837 12.29zm41.36 3.333H41.858c-.873 0-1.6-.68-1.663-1.553l-.944-13.847c-.306-4.583 3.27-9.876 7.817-11.556 10.48-3.747 22.037-3.744 32.487-.004 4.573 1.684 8.15 6.977 7.826 11.567l-.943 13.84a1.668 1.668 0 0 1-1.663 1.553z"/><path d="M43.415 101.128h39.803l.837-12.29c.2-2.823-2.167-6.927-5.637-8.203-9.697-3.47-20.49-3.477-30.213.003-3.444 1.273-5.817 5.383-5.627 8.2l.837 12.29zm41.36 3.333H41.858c-.873 0-1.6-.68-1.663-1.553l-.944-13.847c-.306-4.583 3.27-9.876 7.817-11.556 10.48-3.747 22.037-3.744 32.487-.004 4.573 1.684 8.15 6.977 7.826 11.567l-.943 13.84a1.668 1.668 0 0 1-1.663 1.553zm25.964 0h-17.09a1.667 1.667 0 0 1 0-3.333h15.533l.714-10.403c.16-2.307-1.867-5.804-4.727-6.857a38.275 38.275 0 0 0-12.233-2.223 1.665 1.665 0 0 1-1.637-1.697c.017-.917.743-1.597 1.697-1.637 4.56.08 9.036.894 13.31 2.424 4.036 1.486 7.196 6.163 6.916 10.22l-.82 11.956a1.668 1.668 0 0 1-1.663 1.55M97.588 51.388c-3.873 0-7.023 3.747-7.023 8.35 0 4.604 3.15 8.347 7.023 8.347 3.87 0 7.017-3.743 7.017-8.347 0-4.603-3.147-8.35-7.017-8.35m0 20.03c-5.713 0-10.357-5.24-10.357-11.68 0-6.443 4.644-11.683 10.357-11.683 5.707 0 10.35 5.24 10.35 11.683 0 6.44-4.643 11.68-10.35 11.68"/></g></svg>