<svg width="125" height="125" xmlns="http://www.w3.org/2000/svg"><g fill="#FFF" fill-rule="evenodd"><path d="M62.451 2.778c-32.905 0-59.675 26.794-59.675 59.727 0 32.933 26.77 59.727 59.675 59.727s59.675-26.794 59.675-59.727c0-32.933-26.77-59.727-59.675-59.727m0 122.232C28.014 125.01 0 96.97 0 62.505S28.014 0 62.451 0s62.451 28.041 62.451 62.505-28.014 62.505-62.451 62.505"/><path d="M62.519 57.028c-1.4 0-2.8.536-3.872 1.605a5.488 5.488 0 0 0 0 7.748 5.455 5.455 0 0 0 3.872 1.603 5.455 5.455 0 0 0 3.872-1.603 5.483 5.483 0 0 0 0-7.748 5.453 5.453 0 0 0-3.872-1.605m.002 2.778c.72 0 1.397.283 1.905.791a2.693 2.693 0 0 1 0 3.82 2.666 2.666 0 0 1-1.907.79 2.666 2.666 0 0 1-1.907-.79 2.703 2.703 0 0 1 1.91-4.611m20.201 26.912c-.383 0-.76-.159-1.038-.464a1.392 1.392 0 0 1 .114-1.962c6.534-5.828 10.134-13.562 10.134-21.782s-3.6-15.96-10.137-21.79a1.387 1.387 0 1 1 1.846-2.073c7.136 6.364 11.066 14.84 11.066 23.863s-3.93 17.493-11.06 23.855a1.386 1.386 0 0 1-.925.353m-10.539-9.051a1.388 1.388 0 0 1-.924-2.425c3.825-3.414 5.932-7.934 5.932-12.731 0-4.8-2.11-9.326-5.935-12.738a1.387 1.387 0 1 1 1.846-2.072c4.424 3.948 6.864 9.206 6.864 14.81 0 5.6-2.437 10.859-6.858 14.804a1.386 1.386 0 0 1-.925.352m-30.005 9.051c-.33 0-.658-.117-.924-.353-7.131-6.362-11.061-14.832-11.061-23.855s3.93-17.499 11.066-23.863a1.387 1.387 0 1 1 1.846 2.072C36.569 46.55 32.969 54.29 32.969 62.51s3.6 15.954 10.134 21.782c.572.512.622 1.39.114 1.962a1.398 1.398 0 0 1-1.038.464m10.538-9.051c-.33 0-.658-.116-.924-.352-4.422-3.945-6.859-9.204-6.859-14.804 0-5.604 2.44-10.862 6.865-14.81a1.387 1.387 0 1 1 1.845 2.072c-3.824 3.412-5.934 7.937-5.934 12.738 0 4.797 2.107 9.317 5.932 12.731a1.39 1.39 0 0 1-.925 2.425"/></g></svg>