<svg width="150" height="150" xmlns="http://www.w3.org/2000/svg"><g fill="#BA6DF6" fill-rule="evenodd"><path d="M75 3.333C35.483 3.333 3.333 35.483 3.333 75S35.483 146.667 75 146.667s71.667-32.15 71.667-71.667S114.517 3.333 75 3.333M75 150c-41.353 0-75-33.643-75-75S33.647 0 75 0s75 33.643 75 75-33.647 75-75 75"/><path d="M41.803 67.082c-4.366 0-7.916 3.55-7.916 7.916 0 4.367 3.55 7.917 7.916 7.917 4.367 0 7.917-3.55 7.917-7.917 0-4.366-3.55-7.916-7.917-7.916m0 19.166c-6.203 0-11.25-5.046-11.25-11.25 0-6.203 5.047-11.25 11.25-11.25 6.204 0 11.25 5.047 11.25 11.25 0 6.204-5.046 11.25-11.25 11.25m53.054-47.636c-4.367 0-7.917 3.55-7.917 7.916 0 4.367 3.55 7.917 7.917 7.917 4.366 0 7.916-3.55 7.916-7.917 0-4.366-3.55-7.916-7.916-7.916m0 19.166c-6.204 0-11.25-5.046-11.25-11.25 0-6.203 5.046-11.25 11.25-11.25 6.203 0 11.25 5.047 11.25 11.25 0 6.204-5.047 11.25-11.25 11.25m0 37.777c-4.367 0-7.917 3.55-7.917 7.917 0 4.366 3.55 7.916 7.917 7.916 4.366 0 7.916-3.55 7.916-7.916 0-4.367-3.55-7.917-7.916-7.917m0 19.167c-6.204 0-11.25-5.047-11.25-11.25 0-6.204 5.046-11.25 11.25-11.25 6.203 0 11.25 5.046 11.25 11.25 0 6.203-5.047 11.25-11.25 11.25"/><path d="M84.993 100.077c-.283 0-.57-.07-.833-.224L50.137 80.21a1.671 1.671 0 0 1-.61-2.28 1.671 1.671 0 0 1 2.276-.61l34.024 19.647a1.667 1.667 0 0 1-.834 3.11M50.97 72.899a1.667 1.667 0 0 1-.833-3.11L84.16 50.142a1.668 1.668 0 0 1 1.667 2.89L51.803 72.675a1.64 1.64 0 0 1-.833.224"/></g></svg>