<svg width="75" height="75" xmlns="http://www.w3.org/2000/svg"><g fill="#BA6DF6" fill-rule="evenodd"><path d="M37.498 1.667C17.742 1.667 1.667 17.742 1.667 37.5s16.075 35.833 35.831 35.833c19.759 0 35.834-16.075 35.834-35.833S57.257 1.667 37.498 1.667m0 73.333C16.822 75 0 58.177 0 37.5S16.822 0 37.498 0c20.679 0 37.5 16.823 37.5 37.5S58.177 75 37.498 75"/><path d="M54.608 53.438H20.393a.833.833 0 0 1-.834-.834v-27.22c0-.46.372-.833.834-.833h8.925a.833.833 0 1 1 0 1.667h-8.092V51.77h32.548V26.218h-7.513a.834.834 0 0 1 0-1.667h8.347c.46 0 .833.373.833.833v27.22c0 .46-.373.834-.833.834"/><path d="M30.744 32.853c-1.037 0-1.879 1.027-1.879 2.289 0 1.26.842 2.285 1.879 2.285 1.03 0 1.868-1.025 1.868-2.285 0-1.262-.838-2.289-1.868-2.289m0 6.24c-1.955 0-3.545-1.771-3.545-3.951 0-2.182 1.59-3.955 3.545-3.955 1.948 0 3.535 1.773 3.535 3.955 0 2.18-1.587 3.951-3.535 3.951m-4.434 7.57h8.867c.06-.866.118-1.73.171-2.581.039-.515-.456-1.334-1.086-1.564a10.52 10.52 0 0 0-7.047 0c-.637.237-1.117 1.049-1.082 1.56l.177 2.585zm9.642 1.667h-10.42a.83.83 0 0 1-.83-.773l-.232-3.365c-.088-1.31.887-2.762 2.175-3.24a12.18 12.18 0 0 1 8.185-.002c1.303.478 2.278 1.933 2.18 3.247-.067 1.098-.145 2.23-.227 3.36a.834.834 0 0 1-.831.773zm8.171-25.936h-12.5a2.915 2.915 0 0 0-2.914 2.917 2.915 2.915 0 0 0 2.914 2.917h12.5a2.916 2.916 0 1 0 0-5.834m0 1.667c.69 0 1.253.562 1.253 1.25s-.563 1.25-1.253 1.25h-12.5a1.25 1.25 0 0 1 0-2.5h12.5M48.016 36.7h-6.947a.834.834 0 0 1 0-1.666h6.947a.834.834 0 0 1 0 1.667m0 5.277h-6.947a.834.834 0 0 1 0-1.667h6.947a.834.834 0 0 1 0 1.667"/></g></svg>