<svg width="75" height="75" xmlns="http://www.w3.org/2000/svg"><g fill="#BA6DF6" fill-rule="evenodd"><path d="M37.5 1.667C17.741 1.667 1.666 17.742 1.666 37.5s16.075 35.833 35.832 35.833c19.759 0 35.834-16.075 35.834-35.833S57.258 1.667 37.5 1.667M37.5 75C16.822 75 0 58.177 0 37.5S16.822 0 37.5 0 75 16.823 75 37.5 58.178 75 37.5 75"/><path d="M37.51 30.788v3.615c.51-.11.909-.332 1.19-.667a1.78 1.78 0 0 0 .416-1.174c0-.477-.133-.847-.402-1.108-.273-.263-.679-.484-1.205-.666m-.968-2.45v-3.162c-.428.139-.759.32-.996.546-.24.226-.357.566-.357 1.024 0 .432.111.763.331.986.227.223.568.424 1.022.606m.968-5.662v.892c.545.06 1.013.18 1.403.362.386.182.727.458 1.014.826.226.28.402.57.529.866.124.297.19.57.19.818 0 .275-.093.513-.282.714a.879.879 0 0 1-.675.302c-.496 0-.82-.291-.965-.877-.171-.688-.57-1.142-1.214-1.369v3.434c.631.185 1.133.356 1.507.51a3.11 3.11 0 0 1 1.003.67c.316.302.555.664.727 1.084.17.42.254.882.254 1.383 0 .627-.133 1.215-.406 1.76a3.43 3.43 0 0 1-1.2 1.344c-.531.347-1.157.553-1.885.618v2.055c0 .325-.028.561-.087.709-.062.15-.185.223-.383.223-.182 0-.315-.06-.387-.18-.071-.122-.11-.309-.11-.561V36.03c-.595-.072-1.115-.223-1.558-.455a3.818 3.818 0 0 1-1.114-.861 3.805 3.805 0 0 1-.66-1.074 3.103 3.103 0 0 1-.21-1.093c0-.264.093-.503.282-.714a.923.923 0 0 1 .715-.317c.23 0 .421.056.581.171.155.117.266.28.323.49.138.449.26.794.362 1.034.101.24.253.458.458.657.21.197.483.348.82.455v-3.84a9.021 9.021 0 0 1-1.708-.68 2.962 2.962 0 0 1-1.109-1.069c-.284-.463-.43-1.055-.43-1.782 0-.947.283-1.723.836-2.329.554-.604 1.36-.955 2.411-1.055v-.875c0-.461.16-.693.482-.693.325 0 .486.225.486.676"/><path d="M18.657 40.357h37.686V20.643H18.657v19.714zM57.172 42H17.828a.825.825 0 0 1-.828-.821V19.82c0-.453.371-.821.828-.821h39.344c.457 0 .828.368.828.821v21.36a.825.825 0 0 1-.828.821z"/><path d="M57.172 56H17.828a.825.825 0 0 1-.828-.821V33.82c0-.453.371-.821.828-.821.457 0 .829.368.829.821v20.536h37.686V33.821c0-.453.372-.821.829-.821.457 0 .828.368.828.821V55.18a.825.825 0 0 1-.828.821M32.162 25h-9.324c-.464 0-.838-.448-.838-1s.374-1 .838-1h9.324c.463 0 .838.448.838 1s-.375 1-.838 1m20 0h-9.324c-.464 0-.838-.448-.838-1s.374-1 .838-1h9.324c.463 0 .838.448.838 1s-.375 1-.838 1"/><path d="M32.162 38h-9.324c-.464 0-.838-.448-.838-1s.374-1 .838-1h9.324c.463 0 .838.448.838 1s-.375 1-.838 1m20 0h-9.324c-.464 0-.838-.448-.838-1s.374-1 .838-1h9.324c.463 0 .838.448.838 1s-.375 1-.838 1m4.005 9H17.833c-.46 0-.833-.448-.833-1s.373-1 .833-1h38.334c.46 0 .833.448.833 1s-.373 1-.833 1m0 4H17.833c-.46 0-.833-.448-.833-1s.373-1 .833-1h38.334c.46 0 .833.448.833 1s-.373 1-.833 1"/></g></svg>