<svg width="125" height="125" xmlns="http://www.w3.org/2000/svg"><g fill="#FFF" fill-rule="evenodd"><path d="M62.5 2.778C29.57 2.778 2.778 29.569 2.778 62.5c0 32.93 26.791 59.722 59.722 59.722 32.93 0 59.722-26.791 59.722-59.722 0-32.93-26.791-59.722-59.722-59.722M62.5 125C28.039 125 0 96.961 0 62.5S28.039 0 62.5 0 125 28.039 125 62.5 96.961 125 62.5 125"/><path d="M51.195 72.314c.688.105 1.419.183 2.205.238.397.031.767.228 1.008.548 3.664 4.836 4.964 10.997 3.681 16.747a16.695 16.695 0 0 0 2.53-2.08c4.081-4.076 5.809-9.937 4.623-15.676a1.386 1.386 0 0 1 .85-1.575 32.794 32.794 0 0 0 11.325-7.405c7.191-7.19 10.666-17.156 9.205-26.228-9.039-1.453-19.086 2.064-26.225 9.206A32.842 32.842 0 0 0 52.99 57.41a1.395 1.395 0 0 1-1.572.853c-5.68-1.17-11.622.569-15.675 4.619a16.546 16.546 0 0 0-2.078 2.525c5.67-1.256 12.008.1 16.744 3.692.32.241.517.608.548 1.005.058.806.139 1.536.239 2.209m4.538 21.752a1.4 1.4 0 0 1-.983-.405 1.394 1.394 0 0 1-.297-1.522c2.322-5.514 1.589-11.917-1.897-16.867a27.363 27.363 0 0 1-2.83-.397 1.386 1.386 0 0 1-1.093-1.09 26.526 26.526 0 0 1-.394-2.833c-4.883-3.441-11.458-4.18-16.872-1.908-.517.217-1.12.1-1.52-.297-.397-.4-.516-1-.297-1.52a19.564 19.564 0 0 1 4.225-6.308c4.439-4.433 10.767-6.486 17.061-5.578a35.525 35.525 0 0 1 7.597-11.216c6.575-6.58 15.323-10.353 24.003-10.353 1.92 0 3.822.186 5.653.553.55.108.983.541 1.092 1.091 2.039 10.211-1.714 21.575-9.8 29.661a35.504 35.504 0 0 1-11.22 7.592c.94 6.292-1.103 12.595-5.575 17.061a19.606 19.606 0 0 1-6.316 4.228 1.39 1.39 0 0 1-.537.108"/><path d="M73.297 46.036a4.162 4.162 0 0 0-2.95 1.22 4.182 4.182 0 0 0 .006 5.9c1.575 1.566 4.314 1.566 5.894-.006a4.139 4.139 0 0 0 1.217-2.948 4.162 4.162 0 0 0-4.167-4.167m0 11.112a6.91 6.91 0 0 1-4.908-2.028c-2.708-2.711-2.711-7.117-.006-9.828 2.634-2.625 7.195-2.625 9.828 0a6.909 6.909 0 0 1 2.03 4.911 6.9 6.9 0 0 1-2.03 4.912 6.916 6.916 0 0 1-4.914 2.033M41.716 85.92c-.922 0-1.844-.075-2.758-.228a1.387 1.387 0 0 1-1.142-1.138c-.958-5.712 1.114-11.767 5.542-16.195a1.39 1.39 0 0 1 1.964 1.964c-3.53 3.53-5.32 8.236-4.897 12.761 4.488.439 9.222-1.372 12.755-4.903a1.39 1.39 0 0 1 1.964 1.964c-3.72 3.717-8.583 5.775-13.428 5.775"/></g></svg>