<svg width="125" height="125" xmlns="http://www.w3.org/2000/svg"><g fill="#FFF" fill-rule="evenodd"><path d="M62.5 2.769c-32.93 0-59.722 26.702-59.722 59.523s26.791 59.526 59.722 59.526c32.93 0 59.722-26.705 59.722-59.526 0-32.82-26.791-59.523-59.722-59.523m0 121.818C28.039 124.587 0 96.641 0 62.292 0 27.946 28.039 0 62.5 0S125 27.946 125 62.292c0 34.35-28.039 62.295-62.5 62.295"/><path d="M34.172 60.738L43.208 91.3l14.033-4.117-9.033-30.573-14.036 4.128zM42.266 94.4a1.379 1.379 0 0 1-1.33-.994l-9.82-33.214c-.217-.733.206-1.5.939-1.716l16.697-4.914c.35-.103.734-.061 1.059.11.322.177.563.474.666.825l9.82 33.228a1.37 1.37 0 0 1-.111 1.055 1.385 1.385 0 0 1-.828.665l-16.7 4.9c-.13.036-.264.055-.392.055z"/><path d="M61.374 77.09c1.28 0 2.717.069 4.261.207l4.311.371c2.99.252 5.606.47 7.303.69.514.06 1.103.116 1.711.116.811 0 3.498-.106 4.014-1.473.142-.402.236-.798.28-1.196.056-.526.412-.977.917-1.157 1.567-.554 2.64-1.947 2.728-3.552a3.414 3.414 0 0 0-.053-.911 1.382 1.382 0 0 1 .664-1.448c1.17-.681 1.911-1.872 1.984-3.19a3.862 3.862 0 0 0-.34-1.827 1.38 1.38 0 0 1 .342-1.575c1.075-.975 1.667-2.281 1.667-3.685 0-2.758-2.25-5-5.014-5-.005 0-.472.011-1.222.011-5.286 0-12.02-.437-14.064-2.533-.675-.687-.8-1.418-.789-1.908.003-.841.047-1.802.136-2.879.064-.534.134-1 .2-1.45.103-.673.2-1.321.25-1.92.398-4.908-.702-7.998-1.864-9.252-.327-.357-.675-.567-.927-.567-1.03 0-2.736.437-2.906.827.07.673.636 6.296-.844 11.066-2.225 4.14-8.38 10.95-12.417 14.372l5.364 18.156c1.255-.194 2.7-.294 4.308-.294m17.586 4.153c-.727 0-1.43-.058-2.058-.138-1.68-.216-4.25-.432-7.189-.678l-4.328-.371c-4.772-.421-7.647-.042-8.972.276a1.377 1.377 0 0 1-1.655-.955l-5.981-20.243a1.386 1.386 0 0 1 .467-1.479c3.708-2.94 10.255-10.058 12.327-13.865 1.209-3.989.695-9.083.634-9.65-.095-.828.153-1.6.714-2.23 1.516-1.7 4.914-1.716 4.95-1.716 1.06 0 2.086.504 2.97 1.456 2.052 2.218 2.994 6.357 2.588 11.357a33.045 33.045 0 0 1-.27 2.101c-.063.432-.13.878-.186 1.326a36.374 36.374 0 0 0-.12 2.639c.4.567 4.073 1.63 12.076 1.63l1.186-.01c4.33 0 7.828 3.485 7.828 7.768 0 1.88-.675 3.646-1.914 5.06.206.72.289 1.457.239 2.193a6.661 6.661 0 0 1-2.583 4.893c.01.232.005.456-.012.68-.133 2.41-1.597 4.558-3.791 5.643a8.663 8.663 0 0 1-.297 1.024c-.803 2.13-3.153 3.29-6.623 3.29"/></g></svg>