<svg width="125" height="125" xmlns="http://www.w3.org/2000/svg"><g fill="#FFF" fill-rule="evenodd"><path d="M62.5 2.778C29.57 2.778 2.778 29.569 2.778 62.5c0 32.93 26.791 59.722 59.722 59.722 32.93 0 59.722-26.791 59.722-59.722 0-32.93-26.791-59.722-59.722-59.722M62.5 125C28.036 125 0 96.961 0 62.5 0 28.036 28.036 0 62.5 0S125 28.036 125 62.5c0 34.461-28.036 62.5-62.5 62.5"/><path d="M82.639 74.826a1.39 1.39 0 0 1-1.389-1.389V58.16c0-10.34-8.411-18.75-18.75-18.75s-18.75 8.41-18.75 18.75v15.277a1.39 1.39 0 0 1-2.778 0V58.16c0-11.87 9.659-21.528 21.528-21.528 11.87 0 21.528 9.658 21.528 21.528v15.277a1.39 1.39 0 0 1-1.39 1.39"/><path d="M83.1 74.826a1.39 1.39 0 0 1 0-2.777c4.467 0 8.103-3.323 8.103-7.406 0-4.086-3.636-7.411-8.103-7.411a1.39 1.39 0 0 1 0-2.778c6 0 10.88 4.572 10.88 10.19 0 5.613-4.88 10.182-10.88 10.182m-41.2 0c-6 0-10.88-4.57-10.88-10.183 0-5.617 4.88-10.189 10.88-10.189a1.39 1.39 0 0 1 0 2.778c-4.467 0-8.103 3.325-8.103 7.411 0 4.083 3.636 7.406 8.103 7.406a1.39 1.39 0 0 1 0 2.777"/><path d="M72.799 84.147c-.72 0-1.328-.553-1.384-1.28a1.386 1.386 0 0 1 1.275-1.492c8.545-.667 8.561-6.789 8.559-7.05a1.388 1.388 0 0 1 1.37-1.408h.019c.755 0 1.377.61 1.388 1.37 0 .088-.008 8.99-11.116 9.855-.04.005-.075.005-.111.005"/><path d="M69.472 78.125a4.429 4.429 0 0 0 0 8.856 4.433 4.433 0 0 0 4.427-4.428 4.433 4.433 0 0 0-4.427-4.428m0 2.778c.908 0 1.65.741 1.65 1.65 0 .908-.742 1.65-1.65 1.65-.909 0-1.65-.742-1.65-1.65 0-.909.741-1.65 1.65-1.65"/></g></svg>