<svg width="126" height="126" xmlns="http://www.w3.org/2000/svg"><g fill="#FFF" fill-rule="evenodd"><path d="M62.717 2.795c-33.045 0-59.93 26.956-59.93 60.089 0 33.132 26.885 60.088 59.93 60.088s59.93-26.956 59.93-60.088c0-33.133-26.885-60.09-59.93-60.09m0 122.973C28.134 125.767 0 97.56 0 62.884S28.134 0 62.717 0c34.584 0 62.717 28.208 62.717 62.884 0 34.675-28.133 62.883-62.717 62.883"/><path d="M62.717 37.63c-15.562 0-28.223 9.875-28.223 22.01 0 8.39 6.303 16.174 16.053 19.83a1.396 1.396 0 0 1 .758 1.934l-.172.36c-.15.318-.304.637-.488.942a19.973 19.973 0 0 1-4.577 5.301c5.36-.52 10.023-2.613 13.324-6.025.281-.29.669-.43 1.084-.422.739.044 1.486.09 2.241.09 15.562 0 28.223-9.875 28.223-22.01 0-12.135-12.66-22.01-28.223-22.01M43.39 90.93c-.75 0-1.51-.027-2.274-.08a1.397 1.397 0 0 1-.516-2.65c3.225-1.584 5.75-3.837 7.515-6.696-10.018-4.287-16.407-12.73-16.407-21.864 0-13.678 13.912-24.804 31.01-24.804s31.01 11.126 31.01 24.804c0 13.678-13.912 24.804-31.01 24.804-.6 0-1.193-.025-1.781-.059-4.351 4.226-10.553 6.546-17.547 6.546"/><path d="M50.255 56.561a4.071 4.071 0 0 0-4.07 4.075 4.072 4.072 0 0 0 4.07 4.075 4.066 4.066 0 0 0 4.059-4.075 4.066 4.066 0 0 0-4.059-4.075m0 2.795c.703 0 1.271.576 1.271 1.28 0 .704-.568 1.28-1.27 1.28a1.285 1.285 0 0 1-1.283-1.28c0-.704.577-1.28 1.282-1.28m12.462-2.795a4.07 4.07 0 0 0-4.067 4.075 4.07 4.07 0 0 0 4.067 4.075 4.07 4.07 0 0 0 4.061-4.075 4.07 4.07 0 0 0-4.06-4.075m0 2.795c.704 0 1.273.576 1.273 1.28 0 .704-.569 1.28-1.274 1.28-.705 0-1.28-.576-1.28-1.28 0-.704.575-1.28 1.28-1.28m12.459-2.795a4.067 4.067 0 0 0-4.058 4.075 4.067 4.067 0 0 0 4.058 4.075 4.073 4.073 0 0 0 4.07-4.075 4.073 4.073 0 0 0-4.07-4.075m0 2.795c.708 0 1.282.576 1.282 1.28 0 .704-.574 1.28-1.282 1.28-.7 0-1.27-.576-1.27-1.28 0-.704.57-1.28 1.27-1.28"/></g></svg>