<svg width="126" height="126" xmlns="http://www.w3.org/2000/svg"><g fill="#FFF" fill-rule="evenodd"><path d="M63 2.8C29.806 2.8 2.8 29.806 2.8 63s27.006 60.2 60.2 60.2 60.2-27.006 60.2-60.2S96.194 2.8 63 2.8M63 126C28.26 126 0 97.737 0 63 0 28.263 28.26 0 63 0c34.74 0 63 28.263 63 63 0 34.737-28.26 63-63 63"/><path d="M86.1 95.547H39.9a1.4 1.4 0 0 1-1.4-1.4v-59.5a1.4 1.4 0 0 1 1.4-1.4h10.167a1.4 1.4 0 0 1 0 2.8H41.3v56.7h43.4v-56.7h-9.072a1.399 1.399 0 1 1 0-2.8H86.1a1.4 1.4 0 0 1 1.4 1.4v59.5a1.4 1.4 0 0 1-1.4 1.4"/><path d="M53.55 33.247a1.75 1.75 0 0 0 0 3.5h18.9a1.75 1.75 0 0 0 0-3.5h-18.9zm18.9 6.3h-18.9a4.555 4.555 0 0 1-4.55-4.55 4.555 4.555 0 0 1 4.55-4.55h18.9a4.555 4.555 0 0 1 4.55 4.55 4.555 4.555 0 0 1-4.55 4.55zM53.474 50.458h-3.232c-.716 0-1.296.58-1.296 1.296v3.231c0 .711.58 1.291 1.296 1.291h3.232c.716 0 1.29-.58 1.29-1.29v-3.232a1.29 1.29 0 0 0-1.29-1.296m23.581 4.309H59.073a1.4 1.4 0 0 1 0-2.8h17.982a1.4 1.4 0 0 1 0 2.8M53.474 69.67h-3.232a1.29 1.29 0 0 0-1.296 1.29v3.231c0 .717.58 1.297 1.296 1.297h3.232c.716 0 1.29-.58 1.29-1.297v-3.23c0-.718-.574-1.292-1.29-1.292m23.581 4.31H59.073a1.4 1.4 0 0 1 0-2.8h17.982a1.4 1.4 0 0 1 0 2.8M53.474 60.06h-3.232c-.716 0-1.296.58-1.296 1.297v3.231a1.3 1.3 0 0 0 1.296 1.297h3.232c.716 0 1.29-.586 1.29-1.297v-3.231a1.29 1.29 0 0 0-1.29-1.296m23.581 4.315H59.073a1.4 1.4 0 0 1 0-2.8h17.982a1.4 1.4 0 0 1 0 2.8"/></g></svg>