<svg width="32" height="32" xmlns="http://www.w3.org/2000/svg"><g fill="#804BC9" fill-rule="evenodd"><path d="M16 .711C7.57.711.711 7.57.711 16S7.57 31.289 16 31.289 31.289 24.43 31.289 16 24.43.711 16 .711M16 32C7.177 32 0 24.823 0 16S7.177 0 16 0s16 7.177 16 16-7.177 16-16 16"/><path d="M16 23.543c-3.985 0-7.226-3.242-7.226-7.226a.355.355 0 1 1 .71 0A6.522 6.522 0 0 0 16 22.832a6.522 6.522 0 0 0 6.514-6.515A6.522 6.522 0 0 0 16 9.801a.356.356 0 0 1 0-.71c3.984 0 7.225 3.241 7.225 7.226 0 3.984-3.24 7.226-7.225 7.226"/><path d="M17.206 12.066a.355.355 0 0 1-.265-.118l-1.938-2.16a.356.356 0 0 1 0-.475l1.938-2.16a.356.356 0 0 1 .53.475L15.745 9.55l1.724 1.922a.355.355 0 0 1-.264.594"/></g></svg>