<svg width="125" height="125" xmlns="http://www.w3.org/2000/svg"><g fill="#FFF" fill-rule="evenodd"><path d="M62.497 2.778c-32.928 0-59.72 26.791-59.72 59.722 0 32.93 26.792 59.722 59.72 59.722 32.93 0 59.722-26.791 59.722-59.722 0-32.93-26.791-59.722-59.722-59.722m0 122.222C28.037 125 0 96.961 0 62.5S28.036 0 62.497 0c34.464 0 62.5 28.039 62.5 62.5S96.961 125 62.497 125"/><path d="M89.83 35.387H31.155a1.39 1.39 0 0 1 0-2.778H89.83a1.39 1.39 0 0 1 0 2.778M41.22 69.876H31.154a1.39 1.39 0 0 1 0-2.778H41.22a1.39 1.39 0 0 1 0 2.778m6.021 17.244H31.155a1.39 1.39 0 0 1 0-2.777h16.086a1.39 1.39 0 0 1 0 2.777m0-34.489H31.155a1.39 1.39 0 0 1 0-2.777h16.086a1.39 1.39 0 0 1 0 2.777m24.723 10.992c-3.033 0-5.5 2.472-5.5 5.506 0 3.036 2.467 5.508 5.5 5.508a5.514 5.514 0 0 0 5.506-5.508 5.513 5.513 0 0 0-5.506-5.506m0 13.792c-4.566 0-8.277-3.717-8.277-8.286 0-4.567 3.71-8.284 8.277-8.284 4.57 0 8.284 3.717 8.284 8.284 0 4.57-3.714 8.286-8.284 8.286m-7.758 4.697c.52 0 1.022.114 1.456.33l1.436.59c1.222.41 2.214 1.783 2.214 3.163v3.384l5.266.036c.023 0 .045-.02.045-.036v-3.384c0-1.377.986-2.75 2.294-3.194l1.44-.597c.96-.495 2.85-.28 3.8.675l2.388 2.389 3.753-3.703-2.39-2.445c-.98-.977-1.25-2.65-.63-3.889l.586-1.436c.409-1.222 1.784-2.21 3.17-2.21h3.383l.034-5.27-3.417-.04c-1.386 0-2.761-.988-3.2-2.302l-.597-1.436c-.578-1.142-.309-2.814.67-3.797l2.394-2.395-3.698-3.752-2.45 2.391c-.933.94-2.68 1.236-3.883.636l-1.439-.591c-1.222-.409-2.208-1.78-2.208-3.164V48.68l-5.272-.038-.04 3.422c0 1.383-.991 2.758-2.305 3.197l-1.433.597c-.972.497-2.85.278-3.8-.678l-2.39-2.388-3.752 3.705 2.389 2.439c.98.986 1.25 2.658.63 3.894l-.58 1.428c-.408 1.228-1.783 2.217-3.17 2.217h-3.383l-.039 5.272 3.423.036c1.386 0 2.76.99 3.2 2.303l.594 1.444c.575 1.14.306 2.812-.675 3.79l-2.392 2.394 3.7 3.753 2.448-2.392c.6-.603 1.508-.964 2.43-.964m10.372 10.28h-5.227a2.82 2.82 0 0 1-2.817-2.813v-3.384c0-.189-.228-.502-.411-.564l-1.917-.741c-.22 0-.403.086-.464.147l-2.394 2.394c-1.064 1.059-2.922 1.056-3.98.003l-3.704-3.705a2.789 2.789 0 0 1-.822-1.992c0-.75.292-1.458.822-1.986l2.392-2.395c.133-.133.195-.51.111-.677l-.67-1.63c-.088-.26-.408-.487-.596-.487h-3.384a2.82 2.82 0 0 1-2.816-2.814v-5.233a2.82 2.82 0 0 1 2.816-2.817h3.384c.188 0 .508-.228.566-.403l.656-1.614c.128-.263.064-.65-.07-.78l-2.389-2.392a2.79 2.79 0 0 1-.822-1.989c0-.752.295-1.46.825-1.989l3.697-3.702c1.064-1.059 2.923-1.056 3.981-.003l2.394 2.394c.064.061.248.15.47.15.028-.014.272-.066.3-.077l1.525-.631c.275-.094.5-.406.5-.597V48.68a2.822 2.822 0 0 1 2.817-2.816h5.227a2.825 2.825 0 0 1 2.823 2.816v3.384c0 .186.227.505.405.564l1.914.741c.222 0 .406-.089.467-.147l2.394-2.394c1.078-1.064 2.92-1.056 3.98-.009l3.703 3.714c.528.525.823 1.234.823 1.986 0 .756-.295 1.464-.825 1.992l-2.39 2.392c-.13.127-.194.514-.11.68l.672 1.622c.092.264.411.492.6.492h3.383a2.817 2.817 0 0 1 2.811 2.817v5.233a2.817 2.817 0 0 1-2.81 2.814h-3.384c-.189 0-.508.228-.567.403l-.66 1.62c-.129.26-.068.638.066.771l2.391 2.395a2.815 2.815 0 0 1 0 3.978L86.57 87.43c-1.078 1.064-2.917 1.056-3.98.009l-2.4-2.4c-.064-.064-.248-.15-.467-.15-.03.014-.275.07-.306.08l-1.525.628c-.266.095-.491.408-.491.597v3.384a2.823 2.823 0 0 1-2.823 2.814"/></g></svg>