<svg width="32" height="32" xmlns="http://www.w3.org/2000/svg"><g fill="#804BC9" fill-rule="evenodd"><path d="M16 .711C7.57.711.71 7.57.71 16S7.57 31.289 16 31.289 31.29 24.43 31.29 16 24.428.711 15.998.711M16 32C7.177 32 0 24.822 0 16S7.177 0 16 0c8.822 0 16 7.178 16 16s-7.178 16-16 16"/><path d="M16.227 13.217v1.498a.952.952 0 0 0 .535-.277.704.704 0 0 0 .186-.486c0-.198-.06-.351-.18-.46-.123-.108-.305-.2-.54-.275m-.435-1.016v-1.31a1.196 1.196 0 0 0-.448.226c-.107.094-.16.234-.16.424 0 .18.05.317.149.41.102.092.255.175.459.25m.434-2.346v.37c.245.024.455.074.63.15.173.075.326.19.455.341.101.116.18.237.237.36a.839.839 0 0 1 .085.339.401.401 0 0 1-.126.296.41.41 0 0 1-.303.125c-.223 0-.368-.121-.433-.364a.776.776 0 0 0-.545-.567v1.423c.283.077.509.148.676.212a1.41 1.41 0 0 1 .777.726c.076.175.114.366.114.574a1.47 1.47 0 0 1-.721 1.286 1.92 1.92 0 0 1-.846.256v.852a.8.8 0 0 1-.039.294c-.028.062-.083.092-.172.092-.082 0-.142-.025-.174-.075a.441.441 0 0 1-.05-.232v-.924a2.15 2.15 0 0 1-.698-.188 1.703 1.703 0 0 1-.5-.357 1.56 1.56 0 0 1-.296-.445 1.198 1.198 0 0 1-.095-.453c0-.11.042-.209.127-.296a.43.43 0 0 1 .32-.132.46.46 0 0 1 .262.071.37.37 0 0 1 .145.203c.062.186.116.33.162.429.045.1.114.19.205.272a.967.967 0 0 0 .369.189V13.09a4.25 4.25 0 0 1-.767-.281 1.29 1.29 0 0 1-.498-.443c-.127-.192-.192-.438-.192-.74 0-.392.126-.713.374-.964.25-.25.61-.396 1.083-.438v-.362c0-.192.071-.288.216-.288.146 0 .218.094.218.28"/><path d="M7.91 17.364h16.178V8.83H7.91v8.533zm16.534.711H7.554a.356.356 0 0 1-.355-.356V8.475c0-.196.16-.356.356-.356h16.889c.196 0 .355.16.355.356v9.244a.355.355 0 0 1-.355.356z"/><path d="M24.444 23.882H7.554a.356.356 0 0 1-.355-.356v-9.244a.356.356 0 0 1 .711 0v8.889h16.178v-8.889a.356.356 0 0 1 .711 0v9.244a.355.355 0 0 1-.355.356m-10.889-13.14H9.6a.355.355 0 1 1 0-.711h3.955a.356.356 0 0 1 0 .71m8.845.001h-3.957a.355.355 0 1 1 0-.711h3.956a.356.356 0 0 1 0 .71"/><path d="M13.555 16.164H9.6a.355.355 0 1 1 0-.711h3.955a.356.356 0 0 1 0 .71m8.845.001h-3.957a.355.355 0 1 1 0-.711h3.956a.356.356 0 0 1 0 .71m1.651 3.835H7.693a.356.356 0 0 1 0-.711h16.355a.356.356 0 0 1 0 .71m.002 1.905H7.693a.356.356 0 0 1 0-.711h16.355a.356.356 0 0 1 0 .711"/></g></svg>