<svg width="126" height="126" xmlns="http://www.w3.org/2000/svg"><g fill="#FFF" fill-rule="evenodd"><path d="M63 2.8C29.806 2.8 2.8 29.806 2.8 63s27.006 60.2 60.2 60.2 60.2-27.006 60.2-60.2S96.194 2.8 63 2.8M63 126C28.263 126 0 97.737 0 63 0 28.263 28.263 0 63 0c34.737 0 63 28.263 63 63 0 34.737-28.263 63-63 63"/><path d="M31.128 90.005h54.544L96.522 55.9H41.978l-10.85 34.104zm55.569 2.8H29.213c-.445 0-.865-.213-1.128-.574a1.394 1.394 0 0 1-.205-1.249l11.74-36.904a1.403 1.403 0 0 1 1.336-.977h57.481a1.407 1.407 0 0 1 1.336 1.826l-11.743 36.9a1.4 1.4 0 0 1-1.333.978z"/><path d="M27.114 92.805a1.4 1.4 0 0 1-1.4-1.4V40.85c0-2.316 1.884-4.2 4.2-4.2h19.6c2.316 0 4.2 1.884 4.2 4.2v3.424H68.31a1.4 1.4 0 0 1 0 2.8H52.314a1.4 1.4 0 0 1-1.4-1.4V40.85c0-.77-.63-1.4-1.4-1.4h-19.6c-.77 0-1.4.63-1.4 1.4v50.554a1.4 1.4 0 0 1-1.4 1.4m68.884-45.439a1.4 1.4 0 0 1-.99-.409 1.404 1.404 0 0 1 0-1.982l7.503-7.496-7.504-7.498A1.401 1.401 0 0 1 96.99 28l8.493 8.487a1.399 1.399 0 0 1 0 1.98l-8.493 8.49a1.406 1.406 0 0 1-.99.408"/><path d="M65.302 73.205a1.4 1.4 0 0 1-1.4-1.4c0-19.827 15.927-35.958 35.504-35.958 1.218 0 2.445.065 3.635.19.77.08 1.327.768 1.246 1.535-.079.77-.782 1.313-1.538 1.249a32.28 32.28 0 0 0-3.343-.174c-18.035 0-32.704 14.877-32.704 33.158a1.4 1.4 0 0 1-1.4 1.4"/></g></svg>