<svg width="127" height="127" xmlns="http://www.w3.org/2000/svg"><g fill="#FFF" fill-rule="evenodd"><path d="M63.5 2.822c-33.457 0-60.678 27.22-60.678 60.678 0 33.457 27.22 60.678 60.678 60.678 33.457 0 60.678-27.22 60.678-60.678 0-33.457-27.22-60.678-60.678-60.678M63.5 127C28.485 127 0 98.515 0 63.5S28.485 0 63.5 0 127 28.485 127 63.5 98.515 127 63.5 127"/><path d="M63.5 55.347c-4.493 0-8.148 3.658-8.148 8.154 0 4.493 3.655 8.15 8.148 8.15 4.496 0 8.153-3.657 8.153-8.15 0-4.496-3.657-8.154-8.153-8.154m0 19.127c-6.048 0-10.97-4.922-10.97-10.973 0-6.051 4.922-10.976 10.97-10.976 6.05 0 10.976 4.925 10.976 10.976 0 6.05-4.925 10.973-10.976 10.973m-10.761 7.55c.643 0 1.261.137 1.79.403l2.026.83c1.53.51 2.751 2.206 2.751 3.911v4.693c0 .31.254.568.567.568h7.254a.572.572 0 0 0 .572-.568v-4.693c0-1.705 1.22-3.398 2.837-3.943l2.026-.84c1.217-.624 3.548-.34 4.708.82l3.319 3.32c.279.279.519.282.807-.006l5.122-5.128a.555.555 0 0 0 .167-.4.55.55 0 0 0-.161-.396l-3.325-3.322c-1.205-1.21-1.538-3.27-.776-4.797l.835-2.032c.5-1.524 2.196-2.75 3.912-2.75h4.696a.57.57 0 0 0 .562-.564v-7.256a.574.574 0 0 0-.562-.57H87.17c-1.716 0-3.412-1.222-3.948-2.845l-.841-2.023c-.717-1.431-.384-3.494.815-4.702l3.322-3.322a.55.55 0 0 0 .167-.4.553.553 0 0 0-.161-.396l-5.134-5.139c-.28-.282-.516-.285-.804.003l-3.316 3.316c-1.163 1.16-3.325 1.518-4.798.782l-2.027-.836c-1.526-.508-2.746-2.2-2.746-3.908V35.14a.578.578 0 0 0-.572-.567h-7.254a.575.575 0 0 0-.567.567v4.694c0 1.707-1.225 3.403-2.847 3.942l-2.021.841c-1.22.624-3.556.336-4.708-.82l-3.319-3.32c-.282-.282-.516-.282-.795 0l-5.134 5.137a.55.55 0 0 0-.167.398c0 .09.02.256.161.397l3.325 3.322c1.202 1.211 1.535 3.274.776 4.795l-.83 2.027c-.51 1.532-2.207 2.751-3.911 2.751h-4.697a.577.577 0 0 0-.567.57v7.256c0 .305.26.565.567.565h4.697c1.704 0 3.4 1.222 3.945 2.839l.838 2.035c.72 1.433.387 3.494-.818 4.701l-3.319 3.32a.555.555 0 0 0-.167.4c0 .088.02.257.161.395l5.137 5.14c.282.279.519.279.798 0l3.32-3.32c.733-.739 1.86-1.182 3.008-1.182m14.388 13.228h-7.254a3.394 3.394 0 0 1-3.389-3.39v-4.693c0-.483-.454-1.115-.917-1.267l-2.207-.909c-.68-.327-1.313-.113-1.629.206l-3.324 3.322c-1.273 1.273-3.517 1.273-4.79 0l-5.13-5.134a3.361 3.361 0 0 1-.994-2.396c0-.909.356-1.76.996-2.399l3.317-3.313c.333-.339.46-1.115.245-1.544l-.911-2.215c-.19-.548-.819-1.002-1.304-1.002h-4.697a3.394 3.394 0 0 1-3.389-3.387v-7.256a3.395 3.395 0 0 1 3.39-3.392h4.696c.485 0 1.114-.452 1.27-.914l.903-2.207c.26-.528.135-1.293-.21-1.64l-3.312-3.313a3.357 3.357 0 0 1-.994-2.396c0-.91.356-1.762.996-2.4l5.128-5.13c1.27-1.276 3.52-1.276 4.793.003l3.316 3.316c.324.322 1.137.451 1.54.251l2.208-.917c.558-.19 1.01-.816 1.01-1.301V35.14a3.394 3.394 0 0 1 3.39-3.39h7.253a3.395 3.395 0 0 1 3.395 3.39v4.694c0 .485.451 1.112.911 1.267l2.21.909c.669.324 1.307.113 1.631-.21l3.32-3.318c1.28-1.279 3.513-1.276 4.791 0l5.131 5.136a3.36 3.36 0 0 1 .99 2.394 3.36 3.36 0 0 1-.995 2.398l-3.317 3.317c-.338.341-.462 1.106-.245 1.54l.917 2.21c.186.556.816 1.005 1.304 1.005h4.696a3.392 3.392 0 0 1 3.384 3.392v7.256a3.39 3.39 0 0 1-3.384 3.387H87.17c-.488 0-1.118.451-1.27.909l-.912 2.218c-.254.52-.127 1.295.21 1.634l3.315 3.316a3.36 3.36 0 0 1 .994 2.396c0 .909-.356 1.761-.996 2.399l-5.123 5.128c-1.287 1.281-3.516 1.276-4.792.006L75.274 85.2c-.324-.322-1.134-.454-1.54-.251l-2.21.917c-.55.186-1.002.818-1.002 1.301v4.693a3.395 3.395 0 0 1-3.395 3.39"/></g></svg>