<svg width="21" height="21" xmlns="http://www.w3.org/2000/svg"><path d="M7.024 16.91c0 .086-.097.155-.22.155-.14.014-.237-.056-.237-.156 0-.087.097-.156.22-.156.127-.013.237.056.237.156zm-1.317-.196c.03-.087.153-.13.263-.1.127.039.207.139.182.226-.026.087-.153.13-.263.087-.127-.027-.211-.126-.182-.213zm1.872-.074c.122-.013.237.043.25.126.012.087-.073.17-.195.2-.127.03-.237-.026-.25-.113-.013-.1.072-.183.195-.213zM10.365 0C16.237 0 21 4.573 21 10.595c0 4.816-2.87 8.937-7.104 10.379-.538.1-.733-.244-.733-.526 0-.356.013-2.167.013-3.63 0-1.02-.33-1.672-.72-2.015 2.367-.273 4.86-.608 4.86-4.798 0-1.19-.414-1.79-1.092-2.558.11-.282.47-1.442-.11-2.948-.885-.287-2.921 1.172-2.921 1.172a9.715 9.715 0 0 0-2.66-.369c-.9 0-1.811.126-2.658.37 0 0-2.036-1.456-2.921-1.173-.58 1.502-.22 2.666-.11 2.948-.678.764-1 1.364-1 2.558 0 4.177 2.388 4.529 4.755 4.798-.305.287-.58.769-.677 1.463-.606.287-2.16.77-3.087-.907a2.223 2.223 0 0 0-1.634-1.12c-1.038-.013-.068.668-.068.668.694.326 1.177 1.59 1.177 1.59.622 1.945 3.586 1.294 3.586 1.294 0 .912.013 2.397.013 2.666 0 .282-.19.625-.733.525C2.956 19.532 0 15.412 0 10.595 0 4.573 4.492 0 10.365 0zm-6.25 14.977c.055-.057.153-.026.22.043.072.083.085.183.03.226-.055.057-.152.026-.22-.043-.072-.083-.085-.183-.03-.226zm-.457-.352c.03-.043.097-.056.182-.03.085.043.127.113.098.169-.03.06-.115.074-.183.03-.084-.043-.127-.112-.097-.169zm1.372 1.546c.055-.07.182-.057.275.043.085.083.11.213.055.27-.055.07-.178.056-.275-.044-.098-.082-.123-.213-.055-.269zm-.483-.638c.068-.057.178-.013.237.086.068.1.068.213 0 .27-.055.043-.17 0-.237-.1-.068-.1-.068-.213 0-.256z" fill="#95A7BF"/></svg>