<svg width="22" height="18" xmlns="http://www.w3.org/2000/svg"><path d="M19.739 4.486c.014.197.014.394.014.59C19.753 11.082 15.216 18 6.923 18 4.37 18 1.997 17.255 0 15.961c.363.042.712.056 1.089.056a8.988 8.988 0 0 0 5.598-1.94 4.521 4.521 0 0 1-4.216-3.15c.279.042.558.07.851.07.405 0 .81-.056 1.187-.155A4.535 4.535 0 0 1 .893 6.384v-.056a4.51 4.51 0 0 0 2.038.577 4.548 4.548 0 0 1-2.01-3.783c0-.844.224-1.617.615-2.292a12.786 12.786 0 0 0 9.296 4.753 5.163 5.163 0 0 1-.111-1.04C10.72 2.038 12.73 0 15.23 0c1.298 0 2.47.548 3.294 1.434A8.837 8.837 0 0 0 21.386.337a4.524 4.524 0 0 1-1.982 2.504A8.987 8.987 0 0 0 22 2.138a9.731 9.731 0 0 1-2.261 2.348z" fill="#95A7BF"/></svg>