<?xml version="1.0" encoding="UTF-8"?>
<svg width="125px" height="125px" viewBox="0 0 125 125" version="1.1" xmlns="http://www.w3.org/2000/svg" xmlns:xlink="http://www.w3.org/1999/xlink">
    <!-- Generator: Sketch 55.2 (78181) - https://sketchapp.com -->
    <title>circle icon - thumbs up</title>
    <desc>Created with Sketch.</desc>
    <g id="Assets-to-export" stroke="none" stroke-width="1" fill="none" fill-rule="evenodd">
        <g id="Artboard" transform="translate(-1104.000000, -1556.000000)" fill="#FFFFFF">
            <g id="circle-icon---thumbs-up" transform="translate(1104.000000, 1556.000000)">
                <path d="M62.5,2.76853933 C29.5694444,2.76853933 2.77777778,29.4711011 2.77777778,62.2921348 C2.77777778,95.1131685 29.5694444,121.818499 62.5,121.818499 C95.4305556,121.818499 122.222222,95.1131685 122.222222,62.2921348 C122.222222,29.4711011 95.4305556,2.76853933 62.5,2.76853933 M62.5,124.587038 C28.0388889,124.587038 0,96.6414022 0,62.2921348 C0,27.945636 28.0388889,0 62.5,0 C96.9611111,0 125,27.945636 125,62.2921348 C125,96.6414022 96.9611111,124.587038 62.5,124.587038" id="Fill-1"></path>
                <g id="Group-7" transform="translate(30.555556, 27.688162)">
                    <path d="M3.61611111,33.0494382 L12.6522222,63.6113438 L26.6855556,59.4945258 L17.6522222,28.9215461 L3.61611111,33.0494382 Z M11.7105556,66.7121079 C11.1077778,66.7121079 10.555,66.3245124 10.38,65.7182022 L0.560555556,32.504036 C0.343888889,31.770373 0.766111111,31.0034876 1.49944444,30.7875416 L18.1966667,25.8733843 C18.5466667,25.7709483 18.93,25.8124764 19.255,25.9841258 C19.5772222,26.1613124 19.8188889,26.4575461 19.9216667,26.8091506 L29.7411111,60.0371596 C29.8466667,60.388764 29.8077778,60.7708225 29.63,61.091973 C29.455,61.4131236 29.155,61.6539865 28.8022222,61.7564225 L12.1022222,66.6567371 C11.9716667,66.6927281 11.8383333,66.7121079 11.7105556,66.7121079 L11.7105556,66.7121079 Z" id="Fill-3"></path>
                    <path d="M30.8186111,49.401262 C32.0991667,49.401262 33.5352778,49.4704755 35.0797222,49.6089025 L39.3908333,49.9798867 C42.3797222,50.2318238 44.9963889,50.4505384 46.6936111,50.669253 C47.2075,50.7301609 47.7963889,50.7855317 48.4047222,50.7855317 C49.2158333,50.7855317 51.9019444,50.6803272 52.4186111,49.3126688 C52.5602778,48.9112306 52.6547222,48.5153294 52.6991667,48.1166598 C52.7547222,47.5906373 53.1102778,47.1393654 53.6158333,46.9594103 C55.1825,46.4057025 56.2547222,45.0131272 56.3436111,43.4073744 C56.3686111,43.1056036 56.3491667,42.8259811 56.2908333,42.4965249 C56.1825,41.9234373 56.4491667,41.3448126 56.9547222,41.0485789 C58.1241667,40.3675182 58.8658333,39.1770463 58.9380556,37.8592216 C58.9769444,37.2446058 58.8658333,36.6355272 58.5991667,36.0319856 C58.3630556,35.4893519 58.4991667,34.8525879 58.9408333,34.4566867 C60.0158333,33.4821609 60.6075,32.1754103 60.6075,30.7717609 C60.6075,28.0142957 58.3575,25.7717789 55.5936111,25.7717789 C55.5880556,25.7717789 55.1213889,25.782853 54.3713889,25.782853 C49.0852778,25.782853 42.3519444,25.3454238 40.3075,23.2496396 C39.6325,22.5630418 39.5075,21.8321474 39.5186111,21.342116 C39.5213889,20.50048 39.5658333,19.5397969 39.6547222,18.4628351 C39.7186111,17.928507 39.7880556,17.4633924 39.8547222,17.0121204 C39.9575,16.3393654 40.0547222,15.6915272 40.1047222,15.0935227 C40.5019444,10.1849025 39.4019444,7.09521258 38.2408333,5.84106427 C37.9130556,5.4839227 37.5658333,5.27351371 37.3130556,5.27351371 C36.2825,5.27351371 34.5769444,5.71094292 34.4075,6.10130697 C34.4769444,6.77406202 35.0436111,12.3969654 33.5630556,17.1671587 C31.3380556,21.3061249 25.1825,28.1167317 21.1463889,31.5386463 L26.5102778,49.6947272 C27.7658333,49.5009294 29.2102778,49.401262 30.8186111,49.401262 M48.4047222,53.554071 C47.6769444,53.554071 46.9741667,53.4959317 46.3463889,53.415644 C44.6658333,53.199698 42.0963889,52.9837519 39.1575,52.7373519 L34.8297222,52.3663676 C30.0575,51.9455497 27.1825,52.3248396 25.8575,52.6432216 C25.1241667,52.8204081 24.4075,52.394053 24.2019444,51.6880755 L18.2213889,31.444516 C18.0602778,30.9018822 18.2463889,30.3177204 18.6880556,29.966116 C22.3963889,27.0259272 28.9436111,19.9080126 31.0158333,16.101271 C32.2241667,12.1118058 31.7102778,7.01769348 31.6491667,6.45014292 C31.5547222,5.62234966 31.8019444,4.84992719 32.3630556,4.22146876 C33.8797222,2.52158562 37.2769444,2.50497438 37.3130556,2.50497438 C38.3741667,2.50497438 39.3991667,3.00884854 40.2825,3.96122607 C42.3352778,6.17882607 43.2769444,10.3177924 42.8713889,15.3177744 C42.8158333,15.9766867 42.7130556,16.6826643 42.6019444,17.4190957 C42.5380556,17.8509879 42.4713889,18.2967227 42.4158333,18.7452261 C42.3436111,19.6809924 42.2991667,20.5696935 42.2963889,21.383644 C42.6963889,21.9511946 46.3686111,23.0143137 54.3713889,23.0143137 L55.5575,23.0032396 C59.8880556,23.0032396 63.3852778,26.4888306 63.3852778,30.7717609 C63.3852778,32.6515991 62.7102778,34.4179272 61.4713889,35.8326508 C61.6769444,36.552471 61.7602778,37.2889025 61.7102778,38.0253339 C61.6047222,39.9522373 60.6575,41.726871 59.1269444,42.9173429 C59.1380556,43.1499002 59.1325,43.3741519 59.1158333,43.5984036 C58.9825,46.0070328 57.5186111,48.1554193 55.3241667,49.2406867 C55.2491667,49.5784485 55.1491667,49.9217474 55.0269444,50.2650463 C54.2241667,52.394053 51.8741667,53.554071 48.4047222,53.554071" id="Fill-5"></path>
                </g>
            </g>
        </g>
    </g>
</svg>