<?xml version="1.0" encoding="UTF-8"?>
<svg width="126px" height="126px" viewBox="0 0 126 126" version="1.1" xmlns="http://www.w3.org/2000/svg" xmlns:xlink="http://www.w3.org/1999/xlink">
    <!-- Generator: Sketch 55.2 (78181) - https://sketchapp.com -->
    <title>circle icon - check</title>
    <desc>Created with Sketch.</desc>
    <g id="Assets-to-export" stroke="none" stroke-width="1" fill="none" fill-rule="evenodd">
        <g id="Artboard" transform="translate(-299.000000, -1746.000000)" fill="#FFFFFF">
            <g id="circle-icon---check" transform="translate(299.000000, 1746.000000)">
                <path d="M63,2.8 C29.806,2.8 2.8,29.806 2.8,63 C2.8,96.194 29.806,123.2 63,123.2 C96.194,123.2 123.2,96.194 123.2,63 C123.2,29.806 96.194,2.8 63,2.8 M63,126 C28.2604,126 0,97.7368 0,63 C0,28.2632 28.2604,0 63,0 C97.7396,0 126,28.2632 126,63 C126,97.7368 97.7396,126 63,126" id="Fill-1"></path>
                <g id="Group-19" transform="translate(38.400000, 30.000000)">
                    <path d="M47.7,65.54748 L1.5,65.54748 C0.7272,65.54748 0.1,64.92028 0.1,64.14748 L0.1,4.64748 C0.1,3.87468 0.7272,3.24748 1.5,3.24748 L11.6668,3.24748 C12.4396,3.24748 13.0668,3.87468 13.0668,4.64748 C13.0668,5.42028 12.4396,6.04748 11.6668,6.04748 L2.9,6.04748 L2.9,62.74748 L46.3,62.74748 L46.3,6.04748 L37.228,6.04748 C36.4524,6.04748 35.828,5.42028 35.828,4.64748 C35.828,3.87468 36.4524,3.24748 37.228,3.24748 L47.7,3.24748 C48.4728,3.24748 49.1,3.87468 49.1,4.64748 L49.1,64.14748 C49.1,64.92028 48.4728,65.54748 47.7,65.54748" id="Fill-3"></path>
                    <path d="M15.15,3.24748 C14.184,3.24748 13.4,4.03148 13.4,4.99748 C13.4,5.96348 14.184,6.74748 15.15,6.74748 L34.05,6.74748 C35.016,6.74748 35.8,5.96348 35.8,4.99748 C35.8,4.03148 35.016,3.24748 34.05,3.24748 L15.15,3.24748 Z M34.05,9.54748 L15.15,9.54748 C12.6412,9.54748 10.6,7.50628 10.6,4.99748 C10.6,2.48868 12.6412,0.44748 15.15,0.44748 L34.05,0.44748 C36.5588,0.44748 38.6,2.48868 38.6,4.99748 C38.6,7.50628 36.5588,9.54748 34.05,9.54748 L34.05,9.54748 Z" id="Fill-5"></path>
                    <path d="M15.07356,20.45768 L11.84236,20.45768 C11.12556,20.45768 10.54596,21.03728 10.54596,21.75408 L10.54596,24.98528 C10.54596,25.69648 11.12556,26.27608 11.84236,26.27608 L15.07356,26.27608 C15.79036,26.27608 16.36436,25.69648 16.36436,24.98528 L16.36436,21.75408 C16.36436,21.03728 15.79036,20.45768 15.07356,20.45768" id="Fill-7"></path>
                    <path d="M38.6546,24.76688 L20.673,24.76688 C19.9002,24.76688 19.273,24.13968 19.273,23.36688 C19.273,22.59408 19.9002,21.96688 20.673,21.96688 L38.6546,21.96688 C39.4274,21.96688 40.0546,22.59408 40.0546,23.36688 C40.0546,24.13968 39.4274,24.76688 38.6546,24.76688" id="Fill-9"></path>
                    <path d="M15.07356,39.66932 L11.84236,39.66932 C11.12556,39.66932 10.54596,40.24332 10.54596,40.96012 L10.54596,44.19132 C10.54596,44.90812 11.12556,45.48772 11.84236,45.48772 L15.07356,45.48772 C15.79036,45.48772 16.36436,44.90812 16.36436,44.19132 L16.36436,40.96012 C16.36436,40.24332 15.79036,39.66932 15.07356,39.66932" id="Fill-11"></path>
                    <path d="M38.6546,43.97852 L20.673,43.97852 C19.9002,43.97852 19.273,43.35132 19.273,42.57852 C19.273,41.80572 19.9002,41.17852 20.673,41.17852 L38.6546,41.17852 C39.4274,41.17852 40.0546,41.80572 40.0546,42.57852 C40.0546,43.35132 39.4274,43.97852 38.6546,43.97852" id="Fill-13"></path>
                    <path d="M15.07356,30.06056 L11.84236,30.06056 C11.12556,30.06056 10.54596,30.64016 10.54596,31.35696 L10.54596,34.58816 C10.54596,35.29936 11.12556,35.88456 11.84236,35.88456 L15.07356,35.88456 C15.79036,35.88456 16.36436,35.29936 16.36436,34.58816 L16.36436,31.35696 C16.36436,30.64016 15.79036,30.06056 15.07356,30.06056" id="Fill-15"></path>
                    <path d="M38.6546,34.37564 L20.673,34.37564 C19.9002,34.37564 19.273,33.74844 19.273,32.97564 C19.273,32.20284 19.9002,31.57564 20.673,31.57564 L38.6546,31.57564 C39.4274,31.57564 40.0546,32.20284 40.0546,32.97564 C40.0546,33.74844 39.4274,34.37564 38.6546,34.37564" id="Fill-17"></path>
                </g>
            </g>
        </g>
    </g>
</svg>