<?xml version="1.0" encoding="UTF-8"?>
<svg width="32px" height="32px" viewBox="0 0 32 32" version="1.1" xmlns="http://www.w3.org/2000/svg" xmlns:xlink="http://www.w3.org/1999/xlink">
    <!-- Generator: Sketch 55.2 (78181) - https://sketchapp.com -->
    <title>circle icon - again</title>
    <desc>Created with Sketch.</desc>
    <g id="Assets-to-export" stroke="none" stroke-width="1" fill="none" fill-rule="evenodd">
        <g id="Artboard" transform="translate(-790.000000, -1121.000000)" fill="#804BC9">
            <g id="circle-icon---again" transform="translate(790.000000, 1121.000000)">
                <path d="M16,0.711111111 C7.56977778,0.711111111 0.711111111,7.56977778 0.711111111,16 C0.711111111,24.4302222 7.56977778,31.2888889 16,31.2888889 C24.4302222,31.2888889 31.2888889,24.4302222 31.2888889,16 C31.2888889,7.56977778 24.4302222,0.711111111 16,0.711111111 M16,32 C7.17724444,32 0,24.8227556 0,16 C0,7.17724444 7.17724444,0 16,0 C24.8227556,0 32,7.17724444 32,16 C32,24.8227556 24.8227556,32 16,32" id="Fill-1"></path>
                <path d="M16,23.5426844 C12.0149333,23.5426844 8.77368889,20.30144 8.77368889,16.3170844 C8.77368889,16.1201067 8.93297778,15.9615289 9.12924444,15.9615289 C9.32551111,15.9615289 9.4848,16.1201067 9.4848,16.3170844 C9.4848,19.9089067 12.4074667,22.8315733 16,22.8315733 C19.5918222,22.8315733 22.5137778,19.9089067 22.5137778,16.3170844 C22.5137778,12.72384 19.5918222,9.80117333 16,9.80117333 C15.8037333,9.80117333 15.6444444,9.64188444 15.6444444,9.44561778 C15.6444444,9.24864 15.8037333,9.09006222 16,9.09006222 C19.9843556,9.09006222 23.2248889,12.3320178 23.2248889,16.3170844 C23.2248889,20.30144 19.9843556,23.5426844 16,23.5426844" id="Fill-3"></path>
                <path d="M17.2055467,12.0655644 C17.1081244,12.0655644 17.0114133,12.0257422 16.9410133,11.94752 L15.0032356,9.78787556 C14.8823467,9.65276444 14.8823467,9.44796444 15.0032356,9.31285333 L16.9410133,7.15320889 C17.0725689,7.00743111 17.29728,6.99534222 17.4430578,7.12618667 C17.5895467,7.25703111 17.6016356,7.48174222 17.47008,7.62823111 L15.7456356,9.55036444 L17.47008,11.4724978 C17.6016356,11.6189867 17.5895467,11.8436978 17.4430578,11.9745422 C17.3747911,12.0356978 17.2901689,12.0655644 17.2055467,12.0655644" id="Fill-5"></path>
            </g>
        </g>
    </g>
</svg>