<?xml version="1.0" encoding="UTF-8"?>
<svg width="75px" height="75px" viewBox="0 0 75 75" version="1.1" xmlns="http://www.w3.org/2000/svg" xmlns:xlink="http://www.w3.org/1999/xlink">
    <!-- Generator: Sketch 55.2 (78181) - https://sketchapp.com -->
    <title>circle icon - id</title>
    <desc>Created with Sketch.</desc>
    <g id="Assets-to-export" stroke="none" stroke-width="1" fill="none" fill-rule="evenodd">
        <g id="Artboard" transform="translate(-1241.000000, -795.000000)" fill="#BA6DF6">
            <g id="circle-icon---id" transform="translate(1241.000000, 795.000000)">
                <path d="M37.4983333,1.66666667 C17.7416667,1.66666667 1.66666667,17.7416667 1.66666667,37.5 C1.66666667,57.2583333 17.7416667,73.3333333 37.4983333,73.3333333 C57.2566667,73.3333333 73.3316667,57.2583333 73.3316667,37.5 C73.3316667,17.7416667 57.2566667,1.66666667 37.4983333,1.66666667 M37.4983333,75 C16.8216667,75 0,58.1766667 0,37.5 C0,16.8233333 16.8216667,0 37.4983333,0 C58.1766667,0 74.9983333,16.8233333 74.9983333,37.5 C74.9983333,58.1766667 58.1766667,75 37.4983333,75" id="Fill-1"></path>
                <g id="Group-15" transform="translate(19.333333, 21.666667)">
                    <path d="M35.2745,31.7708333 L1.0595,31.7708333 C0.597833333,31.7708333 0.226166667,31.3975 0.226166667,30.9375 L0.226166667,3.7175 C0.226166667,3.2575 0.597833333,2.88416667 1.0595,2.88416667 L9.9845,2.88416667 C10.4461667,2.88416667 10.8178333,3.2575 10.8178333,3.7175 C10.8178333,4.1775 10.4461667,4.55083333 9.9845,4.55083333 L1.89283333,4.55083333 L1.89283333,30.1041667 L34.4411667,30.1041667 L34.4411667,4.55083333 L26.9278333,4.55083333 C26.4678333,4.55083333 26.0945,4.1775 26.0945,3.7175 C26.0945,3.2575 26.4678333,2.88416667 26.9278333,2.88416667 L35.2745,2.88416667 C35.7345,2.88416667 36.1078333,3.2575 36.1078333,3.7175 L36.1078333,30.9375 C36.1078333,31.3975 35.7345,31.7708333 35.2745,31.7708333" id="Fill-3"></path>
                    <path d="M11.4105,11.1865 C10.3738333,11.1865 9.53216667,12.2131667 9.53216667,13.4748333 C9.53216667,14.7348333 10.3738333,15.7598333 11.4105,15.7598333 C12.4405,15.7598333 13.2788333,14.7348333 13.2788333,13.4748333 C13.2788333,12.2131667 12.4405,11.1865 11.4105,11.1865 M11.4105,17.4265 C9.4555,17.4265 7.8655,15.6548333 7.8655,13.4748333 C7.8655,11.2931667 9.4555,9.51983333 11.4105,9.51983333 C13.3588333,9.51983333 14.9455,11.2931667 14.9455,13.4748333 C14.9455,15.6548333 13.3588333,17.4265 11.4105,17.4265" id="Fill-5"></path>
                    <path d="M6.97683333,24.9966667 L15.8435,24.9966667 C15.9035,24.13 15.9618333,23.2666667 16.0151667,22.415 C16.0535,21.9 15.5585,21.0816667 14.9285,20.8516667 C12.6735,20.0433333 10.1518333,20.04 7.88183333,20.8516667 C7.24516667,21.0883333 6.76516667,21.9 6.80016667,22.4116667 L6.97683333,24.9966667 Z M16.6185,26.6633333 L6.1985,26.6633333 C5.76183333,26.6633333 5.3985,26.3266667 5.3685,25.89 L5.13683333,22.525 C5.0485,21.215 6.0235,19.7633333 7.31183333,19.285 C9.96183333,18.3366667 12.8668333,18.3433333 15.4968333,19.2833333 C16.8001667,19.7616667 17.7751667,21.2166667 17.6768333,22.53 C17.6101667,23.6283333 17.5318333,24.76 17.4501667,25.89 C17.4185,26.3266667 17.0551667,26.6633333 16.6185,26.6633333 L16.6185,26.6633333 Z" id="Fill-7"></path>
                    <path d="M24.7893333,0.7275 L12.2893333,0.7275 C10.681,0.7275 9.376,2.0325 9.376,3.64416667 C9.376,5.25583333 10.681,6.56083333 12.2893333,6.56083333 L24.7893333,6.56083333 C26.4043333,6.56083333 27.7093333,5.25583333 27.7093333,3.64416667 C27.7093333,2.0325 26.4043333,0.7275 24.7893333,0.7275 M24.7893333,2.39416667 C25.4793333,2.39416667 26.0426667,2.95583333 26.0426667,3.64416667 C26.0426667,4.3325 25.4793333,4.89416667 24.7893333,4.89416667 L12.2893333,4.89416667 C11.6026667,4.89416667 11.0426667,4.3325 11.0426667,3.64416667 C11.0426667,2.95583333 11.6026667,2.39416667 12.2893333,2.39416667 L24.7893333,2.39416667" id="Fill-9"></path>
                    <path d="M28.6826667,15.0341667 L21.736,15.0341667 C21.276,15.0341667 20.9026667,14.6608333 20.9026667,14.2008333 C20.9026667,13.7408333 21.276,13.3675 21.736,13.3675 L28.6826667,13.3675 C29.1426667,13.3675 29.516,13.7408333 29.516,14.2008333 C29.516,14.6608333 29.1426667,15.0341667 28.6826667,15.0341667" id="Fill-11"></path>
                    <path d="M28.6826667,20.3108333 L21.736,20.3108333 C21.276,20.3108333 20.9026667,19.9375 20.9026667,19.4775 C20.9026667,19.0175 21.276,18.6441667 21.736,18.6441667 L28.6826667,18.6441667 C29.1426667,18.6441667 29.516,19.0175 29.516,19.4775 C29.516,19.9375 29.1426667,20.3108333 28.6826667,20.3108333" id="Fill-13"></path>
                </g>
            </g>
        </g>
    </g>
</svg>