<?xml version="1.0" encoding="UTF-8"?>
<svg width="125px" height="125px" viewBox="0 0 125 125" version="1.1" xmlns="http://www.w3.org/2000/svg" xmlns:xlink="http://www.w3.org/1999/xlink">
    <!-- Generator: Sketch 55.2 (78181) - https://sketchapp.com -->
    <title>circle icon - rocket</title>
    <desc>Created with Sketch.</desc>
    <g id="Assets-to-export" stroke="none" stroke-width="1" fill="none" fill-rule="evenodd">
        <g id="Artboard" transform="translate(-945.000000, -1557.000000)" fill="#FFFFFF">
            <g id="circle-icon---rocket" transform="translate(945.000000, 1557.000000)">
                <path d="M62.5,2.77777778 C29.5694444,2.77777778 2.77777778,29.5694444 2.77777778,62.5 C2.77777778,95.4305556 29.5694444,122.222222 62.5,122.222222 C95.4305556,122.222222 122.222222,95.4305556 122.222222,62.5 C122.222222,29.5694444 95.4305556,2.77777778 62.5,2.77777778 M62.5,125 C28.0388889,125 0,96.9611111 0,62.5 C0,28.0388889 28.0388889,0 62.5,0 C96.9611111,0 125,28.0388889 125,62.5 C125,96.9611111 96.9611111,125 62.5,125" id="Fill-1"></path>
                <g id="Group-9" transform="translate(27.840909, 31.976010)">
                    <path d="M23.3536111,40.3375 C24.0425,40.4430556 24.7730556,40.5208333 25.5591667,40.5763889 C25.9563889,40.6069444 26.3258333,40.8041667 26.5675,41.1236111 C30.2313889,45.9597222 31.5313889,52.1208333 30.2480556,57.8708333 C31.1619444,57.2597222 32.0036111,56.5652778 32.7786111,55.7902778 C36.8591667,51.7152778 38.5869444,45.8541667 37.4008333,40.1152778 C37.2619444,39.4513889 37.6230556,38.7847222 38.2508333,38.5402778 C42.5286111,36.8652778 46.3397222,34.3763889 49.5758333,31.1347222 C56.7675,23.9458333 60.2425,13.9791667 58.7813889,4.90694444 C49.7425,3.45416667 39.6952778,6.97083333 32.5563889,14.1125 C29.3147222,17.3513889 26.8230556,21.1597222 25.1480556,25.4347222 C24.9036111,26.0625 24.2313889,26.4208333 23.5758333,26.2875 C17.8952778,25.1180556 11.9536111,26.8569444 7.90083333,30.9069444 C7.12305556,31.6847222 6.42861111,32.5236111 5.82305556,33.4319444 C11.4925,32.1763889 17.8313889,33.5319444 22.5675,37.1236111 C22.8869444,37.3652778 23.0841667,37.7319444 23.1147222,38.1291667 C23.1730556,38.9347222 23.2536111,39.6652778 23.3536111,40.3375 M27.8925,62.0902778 C27.5313889,62.0902778 27.1758333,61.9486111 26.9091667,61.6847222 C26.5119444,61.2847222 26.3925,60.6819444 26.6119444,60.1625 C28.9341667,54.6486111 28.2008333,48.2458333 24.7147222,43.2958333 C23.7036111,43.2041667 22.7730556,43.0736111 21.8841667,42.8986111 C21.3313889,42.7902778 20.9036111,42.3597222 20.7925,41.8097222 C20.6230556,40.9513889 20.4897222,40.0208333 20.3980556,38.9763889 C15.5147222,35.5347222 8.93972222,34.7958333 3.52583333,37.0680556 C3.00916667,37.2847222 2.40638889,37.1680556 2.00638889,36.7708333 C1.60916667,36.3708333 1.48972222,35.7708333 1.70916667,35.2513889 C2.70638889,32.8708333 4.12861111,30.7486111 5.93416667,28.9430556 C10.3730556,24.5097222 16.7008333,22.4569444 22.9952778,23.3652778 C24.7952778,19.1569444 27.3480556,15.3902778 30.5925,12.1486111 C37.1675,5.56805556 45.9147222,1.79583333 54.5952778,1.79583333 C56.5147222,1.79583333 58.4175,1.98194444 60.2480556,2.34861111 C60.7980556,2.45694444 61.2313889,2.89027778 61.3397222,3.44027778 C63.3786111,13.6513889 59.6258333,25.0152778 51.5397222,33.1013889 C48.3008333,36.3430556 44.5313889,38.8930556 40.3202778,40.6930556 C41.2591667,46.9847222 39.2175,53.2875 34.7452778,57.7541667 C32.9508333,59.5513889 30.8230556,60.9763889 28.4286111,61.9819444 C28.2563889,62.0541667 28.0730556,62.0902778 27.8925,62.0902778" id="Fill-3"></path>
                    <path d="M45.4563889,14.0597222 C44.3452778,14.0597222 43.2980556,14.4930556 42.5063889,15.2791667 C40.8841667,16.9041667 40.8869444,19.5513889 42.5119444,21.1791667 C44.0869444,22.7458333 46.8258333,22.7458333 48.4063889,21.1736111 C49.1925,20.3875 49.6230556,19.3402778 49.6230556,18.2263889 C49.6230556,17.1152778 49.1925,16.0680556 48.4063889,15.2791667 C47.6147222,14.4930556 46.5675,14.0597222 45.4563889,14.0597222 M45.4563889,25.1708333 C43.6036111,25.1708333 41.8619444,24.4513889 40.5480556,23.1430556 C37.8397222,20.4319444 37.8369444,16.0263889 40.5425,13.3152778 C43.1758333,10.6902778 47.7369444,10.6902778 50.3702778,13.3152778 C51.6786111,14.6263889 52.4008333,16.3708333 52.4008333,18.2263889 C52.4008333,20.0847222 51.6786111,21.8291667 50.3702778,23.1375 C49.0563889,24.4486111 47.3091667,25.1708333 45.4563889,25.1708333" id="Fill-5"></path>
                    <path d="M13.8752778,53.9441667 C12.9530556,53.9441667 12.0308333,53.8691667 11.1169444,53.7163889 C10.5308333,53.6191667 10.0725,53.1608333 9.97527778,52.5775 C9.01694444,46.8663889 11.0891667,40.8108333 15.5169444,36.3830556 C16.0586111,35.8386111 16.9391667,35.8386111 17.4808333,36.3830556 C18.0225,36.9247222 18.0225,37.8025 17.4808333,38.3469444 C13.9502778,41.8775 12.1613889,46.5830556 12.5836111,51.1080556 C17.0725,51.5469444 21.8058333,49.7358333 25.3391667,46.2052778 C25.8808333,45.6636111 26.7613889,45.6636111 27.3030556,46.2052778 C27.8447222,46.7469444 27.8447222,47.6275 27.3030556,48.1691667 C23.5836111,51.8858333 18.7197222,53.9441667 13.8752778,53.9441667" id="Fill-7"></path>
                </g>
            </g>
        </g>
    </g>
</svg>