<?xml version="1.0" encoding="UTF-8"?>
<svg width="32px" height="32px" viewBox="0 0 32 32" version="1.1" xmlns="http://www.w3.org/2000/svg" xmlns:xlink="http://www.w3.org/1999/xlink">
    <!-- Generator: Sketch 55.2 (78181) - https://sketchapp.com -->
    <title>circle icon - money stack ss</title>
    <desc>Created with Sketch.</desc>
    <g id="Assets-to-export" stroke="none" stroke-width="1" fill="none" fill-rule="evenodd">
        <g id="Artboard" transform="translate(-790.000000, -957.000000)" fill="#804BC9">
            <g id="circle-icon---money-stack-ss" transform="translate(790.000000, 957.000000)">
                <path d="M15.9992889,0.711111111 C7.56977778,0.711111111 0.711111111,7.56977778 0.711111111,16 C0.711111111,24.4302222 7.56977778,31.2888889 15.9992889,31.2888889 C24.4295111,31.2888889 31.2881778,24.4302222 31.2881778,16 C31.2881778,7.56977778 24.4295111,0.711111111 15.9992889,0.711111111 M15.9992889,32 C7.17724444,32 0,24.8220444 0,16 C0,7.17795556 7.17724444,0 15.9992889,0 C24.8220444,0 31.9992889,7.17795556 31.9992889,16 C31.9992889,24.8220444 24.8220444,32 15.9992889,32" id="Fill-1"></path>
                <path d="M16.2271289,13.2167111 L16.2271289,14.7150222 C16.4561067,14.6695111 16.6353067,14.5770667 16.7618844,14.4384 C16.88704,14.2990222 16.9481956,14.1368889 16.9481956,13.952 C16.9481956,13.7543111 16.8884622,13.6007111 16.7675733,13.4926222 C16.6452622,13.3838222 16.4632178,13.2920889 16.2271289,13.2167111 M15.79264,12.2012444 L15.79264,10.8906667 C15.60064,10.9482667 15.4520178,11.0236444 15.3453511,11.1168 C15.2379733,11.2106667 15.1853511,11.3514667 15.1853511,11.5413333 C15.1853511,11.7205333 15.2351289,11.8577778 15.3339733,11.9502222 C15.4356622,12.0426667 15.5885511,12.1258667 15.79264,12.2012444 M16.2271289,9.85457778 L16.2271289,10.2243556 C16.4717511,10.2492444 16.6815289,10.2990222 16.8564622,10.3744 C17.0299733,10.4497778 17.1828622,10.5642667 17.3115733,10.7164444 C17.4132622,10.8323556 17.4921956,10.9525333 17.5490844,11.0755556 C17.6045511,11.1985778 17.6344178,11.3116444 17.6344178,11.4147556 C17.6344178,11.5285333 17.5924622,11.6273778 17.50784,11.7105778 C17.4260622,11.7937778 17.3243733,11.8357333 17.2049067,11.8357333 C16.9823289,11.8357333 16.8365511,11.7148444 16.77184,11.4723556 C16.69504,11.1872 16.51584,10.9987556 16.2271289,10.9048889 L16.2271289,12.3278222 C16.5101511,12.4046222 16.7355733,12.4757333 16.9033956,12.5397333 C17.0705067,12.6037333 17.2212622,12.6961778 17.3535289,12.8170667 C17.49504,12.9422222 17.6024178,13.0922667 17.6799289,13.2664889 C17.7560178,13.4407111 17.7937067,13.632 17.7937067,13.8396444 C17.7937067,14.0992 17.7339733,14.3431111 17.6116622,14.5692444 C17.4879289,14.7968 17.3087289,14.9816889 17.07264,15.1260444 C16.8344178,15.2696889 16.5535289,15.3550222 16.2271289,15.3820444 L16.2271289,16.2339556 C16.2271289,16.3683556 16.2143289,16.4664889 16.1880178,16.5276444 C16.1602844,16.5895111 16.1048178,16.6200889 16.0159289,16.6200889 C15.9341511,16.6200889 15.8744178,16.5952 15.8424178,16.5454222 C15.8104178,16.4949333 15.79264,16.4174222 15.79264,16.3128889 L15.79264,15.3891556 C15.5259733,15.3592889 15.2927289,15.2967111 15.0936178,15.2007111 C14.8952178,15.1047111 14.7288178,14.9859556 14.5937067,14.8437333 C14.4621511,14.7008 14.3633067,14.5528889 14.2978844,14.3985778 C14.2353067,14.2449778 14.2033067,14.0935111 14.2033067,13.9456 C14.2033067,13.8360889 14.2452622,13.7372444 14.3298844,13.6497778 C14.4173511,13.5616 14.5218844,13.5182222 14.6505956,13.5182222 C14.7537067,13.5182222 14.8397511,13.5416889 14.9115733,13.5893333 C14.9812622,13.6376889 15.03104,13.7052444 15.05664,13.792 C15.1185067,13.9783111 15.1732622,14.1212444 15.2187733,14.2208 C15.2642844,14.3203556 15.3325511,14.4106667 15.4242844,14.4931556 C15.5188622,14.5749333 15.6411733,14.6375111 15.79264,14.6816 L15.79264,13.0901333 C15.4868622,13.0062222 15.2329956,12.9116444 15.0260622,12.8085333 C14.81984,12.704 14.6562844,12.5568 14.5282844,12.3655111 C14.4009956,12.1735111 14.3355733,11.9281778 14.3355733,11.6266667 C14.3355733,11.2341333 14.4621511,10.9127111 14.7103289,10.6616889 C14.9592178,10.4113778 15.3204622,10.2656 15.79264,10.2243556 L15.79264,9.86168889 C15.79264,9.6704 15.8644622,9.5744 16.0088178,9.5744 C16.1545956,9.5744 16.2271289,9.66755556 16.2271289,9.85457778" id="Fill-3"></path>
                <path d="M7.9104,17.3639111 L24.0881778,17.3639111 L24.0881778,8.83057778 L7.9104,8.83057778 L7.9104,17.3639111 Z M24.4437333,18.0750222 L7.55484444,18.0750222 C7.35857778,18.0750222 7.19928889,17.9157333 7.19928889,17.7194667 L7.19928889,8.47502222 C7.19928889,8.27875556 7.35857778,8.11946667 7.55484444,8.11946667 L24.4437333,8.11946667 C24.64,8.11946667 24.7992889,8.27875556 24.7992889,8.47502222 L24.7992889,17.7194667 C24.7992889,17.9157333 24.64,18.0750222 24.4437333,18.0750222 L24.4437333,18.0750222 Z" id="Fill-5"></path>
                <path d="M24.4437333,23.8819556 L7.55484444,23.8819556 C7.35857778,23.8819556 7.19928889,23.7226667 7.19928889,23.5264 L7.19928889,14.2819556 C7.19928889,14.0856889 7.35857778,13.9264 7.55484444,13.9264 C7.75111111,13.9264 7.9104,14.0856889 7.9104,14.2819556 L7.9104,23.1708444 L24.0881778,23.1708444 L24.0881778,14.2819556 C24.0881778,14.0856889 24.2474667,13.9264 24.4437333,13.9264 C24.64,13.9264 24.7992889,14.0856889 24.7992889,14.2819556 L24.7992889,23.5264 C24.7992889,23.7226667 24.64,23.8819556 24.4437333,23.8819556" id="Fill-7"></path>
                <path d="M13.5548444,10.7416889 L9.59964444,10.7416889 C9.40266667,10.7416889 9.24408889,10.5824 9.24408889,10.3861333 C9.24408889,10.1898667 9.40266667,10.0305778 9.59964444,10.0305778 L13.5548444,10.0305778 C13.7511111,10.0305778 13.9104,10.1898667 13.9104,10.3861333 C13.9104,10.5824 13.7511111,10.7416889 13.5548444,10.7416889" id="Fill-8"></path>
                <path d="M22.3992889,10.7416889 L18.4426667,10.7416889 C18.2456889,10.7416889 18.0871111,10.5824 18.0871111,10.3861333 C18.0871111,10.1898667 18.2456889,10.0305778 18.4426667,10.0305778 L22.3992889,10.0305778 C22.5955556,10.0305778 22.7548444,10.1898667 22.7548444,10.3861333 C22.7548444,10.5824 22.5955556,10.7416889 22.3992889,10.7416889" id="Fill-9"></path>
                <path d="M13.5548444,16.1639111 L9.59964444,16.1639111 C9.40266667,16.1639111 9.24408889,16.0046222 9.24408889,15.8083556 C9.24408889,15.6120889 9.40266667,15.4528 9.59964444,15.4528 L13.5548444,15.4528 C13.7511111,15.4528 13.9104,15.6120889 13.9104,15.8083556 C13.9104,16.0046222 13.7511111,16.1639111 13.5548444,16.1639111" id="Fill-10"></path>
                <path d="M22.3992889,16.1639111 L18.4426667,16.1639111 C18.2456889,16.1639111 18.0871111,16.0046222 18.0871111,15.8083556 C18.0871111,15.6120889 18.2456889,15.4528 18.4426667,15.4528 L22.3992889,15.4528 C22.5955556,15.4528 22.7548444,15.6120889 22.7548444,15.8083556 C22.7548444,16.0046222 22.5955556,16.1639111 22.3992889,16.1639111" id="Fill-11"></path>
                <path d="M24.0493511,19.9979378 L7.69379556,19.9979378 C7.49752889,19.9979378 7.33824,19.8386489 7.33824,19.6423822 C7.33824,19.4461156 7.49752889,19.2868267 7.69379556,19.2868267 L24.0493511,19.2868267 C24.2456178,19.2868267 24.4049067,19.4461156 24.4049067,19.6423822 C24.4049067,19.8386489 24.2456178,19.9979378 24.0493511,19.9979378" id="Fill-12"></path>
                <path d="M24.0493511,21.90208 L7.69379556,21.90208 C7.49752889,21.90208 7.33824,21.7427911 7.33824,21.5465244 C7.33824,21.3502578 7.49752889,21.1909689 7.69379556,21.1909689 L24.0493511,21.1909689 C24.2456178,21.1909689 24.4049067,21.3502578 24.4049067,21.5465244 C24.4049067,21.7427911 24.2456178,21.90208 24.0493511,21.90208" id="Fill-13"></path>
            </g>
        </g>
    </g>
</svg>