<?xml version="1.0" encoding="UTF-8"?>
<svg width="125px" height="125px" viewBox="0 0 125 125" version="1.1" xmlns="http://www.w3.org/2000/svg" xmlns:xlink="http://www.w3.org/1999/xlink">
    <!-- Generator: Sketch 55.2 (78181) - https://sketchapp.com -->
    <title>circle icon - tech settings</title>
    <desc>Created with Sketch.</desc>
    <g id="Assets-to-export" stroke="none" stroke-width="1" fill="none" fill-rule="evenodd">
        <g id="Artboard" transform="translate(-799.000000, -1557.000000)" fill="#FFFFFF">
            <g id="circle-icon---tech-settings" transform="translate(799.000000, 1557.000000)">
                <path d="M62.4972222,2.77777778 C29.5694444,2.77777778 2.77777778,29.5694444 2.77777778,62.5 C2.77777778,95.4305556 29.5694444,122.222222 62.4972222,122.222222 C95.4277778,122.222222 122.219444,95.4305556 122.219444,62.5 C122.219444,29.5694444 95.4277778,2.77777778 62.4972222,2.77777778 M62.4972222,125 C28.0361111,125 0,96.9611111 0,62.5 C0,28.0388889 28.0361111,0 62.4972222,0 C96.9611111,0 124.997222,28.0388889 124.997222,62.5 C124.997222,96.9611111 96.9611111,125 62.4972222,125" id="Fill-1"></path>
                <g id="Group-13" transform="translate(27.777778, 30.555556)">
                    <path d="M62.0525,4.83138889 L3.3775,4.83138889 C2.61083333,4.83138889 1.98861111,4.20916667 1.98861111,3.4425 C1.98861111,2.67583333 2.61083333,2.05361111 3.3775,2.05361111 L62.0525,2.05361111 C62.8191667,2.05361111 63.4413889,2.67583333 63.4413889,3.4425 C63.4413889,4.20916667 62.8191667,4.83138889 62.0525,4.83138889" id="Fill-3"></path>
                    <path d="M13.4413889,39.3202778 L3.3775,39.3202778 C2.61083333,39.3202778 1.98861111,38.6980556 1.98861111,37.9313889 C1.98861111,37.1647222 2.61083333,36.5425 3.3775,36.5425 L13.4413889,36.5425 C14.2080556,36.5425 14.8302778,37.1647222 14.8302778,37.9313889 C14.8302778,38.6980556 14.2080556,39.3202778 13.4413889,39.3202778" id="Fill-5"></path>
                    <path d="M19.4636111,56.5647222 L3.3775,56.5647222 C2.61083333,56.5647222 1.98861111,55.9425 1.98861111,55.1758333 C1.98861111,54.4091667 2.61083333,53.7869444 3.3775,53.7869444 L19.4636111,53.7869444 C20.2302778,53.7869444 20.8525,54.4091667 20.8525,55.1758333 C20.8525,55.9425 20.2302778,56.5647222 19.4636111,56.5647222" id="Fill-7"></path>
                    <path d="M19.4636111,22.0758333 L3.3775,22.0758333 C2.61083333,22.0758333 1.98861111,21.4536111 1.98861111,20.6869444 C1.98861111,19.9202778 2.61083333,19.2980556 3.3775,19.2980556 L19.4636111,19.2980556 C20.2302778,19.2980556 20.8525,19.9202778 20.8525,20.6869444 C20.8525,21.4536111 20.2302778,22.0758333 19.4636111,22.0758333" id="Fill-9"></path>
                    <path d="M44.1866667,33.0675 C41.1533333,33.0675 38.6866667,35.5397222 38.6866667,38.5730556 C38.6866667,41.6091667 41.1533333,44.0813889 44.1866667,44.0813889 C47.2227778,44.0813889 49.6922222,41.6091667 49.6922222,38.5730556 C49.6922222,35.5397222 47.2227778,33.0675 44.1866667,33.0675 M44.1866667,46.8591667 C39.62,46.8591667 35.9088889,43.1425 35.9088889,38.5730556 C35.9088889,34.0063889 39.62,30.2897222 44.1866667,30.2897222 C48.7561111,30.2897222 52.47,34.0063889 52.47,38.5730556 C52.47,43.1425 48.7561111,46.8591667 44.1866667,46.8591667 M36.4283333,51.5563889 C36.9477778,51.5563889 37.4505556,51.6702778 37.8838889,51.8869444 L39.32,52.4758333 C40.5422222,52.8869444 41.5338889,54.2591667 41.5338889,55.6397222 L41.5338889,59.0230556 L46.8005556,59.0591667 C46.8227778,59.0591667 46.845,59.0397222 46.845,59.0230556 L46.845,55.6397222 C46.845,54.2619444 47.8311111,52.8897222 49.1394444,52.4452778 L50.5783333,51.8480556 C51.5394444,51.3536111 53.4283333,51.5675 54.3783333,52.5230556 L56.7672222,54.9119444 L60.52,51.2091667 L58.1311111,48.7647222 C57.1505556,47.7869444 56.8811111,46.1147222 57.5005556,44.8758333 L58.0866667,43.4397222 C58.495,42.2175 59.87,41.2286111 61.2561111,41.2286111 L64.6394444,41.2286111 L64.6727778,35.9591667 L61.2561111,35.9202778 C59.87,35.9202778 58.495,34.9313889 58.0561111,33.6175 L57.4588889,32.1813889 C56.8811111,31.0397222 57.1505556,29.3675 58.1283333,28.3841667 L60.5227778,25.9897222 L56.8255556,22.2369444 L54.3755556,24.6286111 C53.4422222,25.5675 51.695,25.8647222 50.4922222,25.2647222 L49.0533333,24.6730556 C47.8311111,24.2647222 46.845,22.8925 46.845,21.5091667 L46.845,18.1258333 L41.5727778,18.0869444 L41.5338889,21.5091667 C41.5338889,22.8925 40.5422222,24.2675 39.2283333,24.7063889 L37.795,25.3036111 C36.8227778,25.8008333 34.945,25.5813889 33.995,24.6258333 L31.6061111,22.2369444 L27.8533333,25.9425 L30.2422222,28.3813889 C31.2227778,29.3675 31.4922222,31.0397222 30.8727778,32.2758333 L30.2922222,33.7036111 C29.8838889,34.9313889 28.5088889,35.9202778 27.1227778,35.9202778 L23.7394444,35.9202778 L23.7005556,41.1925 L27.1227778,41.2286111 C28.5088889,41.2286111 29.8838889,42.2175 30.3227778,43.5313889 L30.9172222,44.9758333 C31.4922222,46.1147222 31.2227778,47.7869444 30.2422222,48.7647222 L27.8505556,51.1591667 L31.5505556,54.9119444 L33.9977778,52.5202778 C34.5977778,51.9175 35.5061111,51.5563889 36.4283333,51.5563889 M46.8005556,61.8369444 L41.5727778,61.8369444 C40.02,61.8369444 38.7561111,60.5730556 38.7561111,59.0230556 L38.7561111,55.6397222 C38.7561111,55.4508333 38.5283333,55.1369444 38.345,55.0758333 L36.4283333,54.3341667 C36.2088889,54.3341667 36.0255556,54.4202778 35.9644444,54.4813889 L33.57,56.8758333 C32.5061111,57.9341667 30.6477778,57.9313889 29.5894444,56.8786111 L25.8866667,53.1730556 C25.3561111,52.6452778 25.0644444,51.9369444 25.0644444,51.1813889 C25.0644444,50.4313889 25.3561111,49.7230556 25.8866667,49.1952778 L28.2783333,46.8008333 C28.4116667,46.6675 28.4727778,46.2897222 28.3894444,46.1230556 L27.72,44.4925 C27.6311111,44.2341667 27.3116667,44.0063889 27.1227778,44.0063889 L23.7394444,44.0063889 C22.1866667,44.0063889 20.9227778,42.7425 20.9227778,41.1925 L20.9227778,35.9591667 C20.9227778,34.4063889 22.1866667,33.1425 23.7394444,33.1425 L27.1227778,33.1425 C27.3116667,33.1425 27.6311111,32.9147222 27.6894444,32.7397222 L28.345,31.1258333 C28.4727778,30.8619444 28.4088889,30.4758333 28.2755556,30.3452778 L25.8866667,27.9536111 C25.3588889,27.4286111 25.0644444,26.7202778 25.0644444,25.9647222 C25.0644444,25.2119444 25.3588889,24.5036111 25.8894444,23.9758333 L29.5866667,20.2730556 C30.6505556,19.2147222 32.5088889,19.2175 33.5672222,20.2702778 L35.9616667,22.6647222 C36.0255556,22.7258333 36.2088889,22.8147222 36.4311111,22.8147222 C36.4588889,22.8008333 36.7033333,22.7480556 36.7311111,22.7369444 L38.2561111,22.1063889 C38.5311111,22.0119444 38.7561111,21.7008333 38.7561111,21.5091667 L38.7561111,18.1258333 C38.7561111,16.5758333 40.02,15.3091667 41.5727778,15.3091667 L46.8005556,15.3091667 C48.3561111,15.3091667 49.6227778,16.5758333 49.6227778,18.1258333 L49.6227778,21.5091667 C49.6227778,21.6952778 49.8505556,22.0147222 50.0283333,22.0730556 L51.9422222,22.8147222 C52.1644444,22.8147222 52.3477778,22.7258333 52.4088889,22.6675 L54.8033333,20.2730556 C55.8811111,19.2091667 57.7227778,19.2175 58.7838889,20.2647222 L62.4866667,23.9786111 C63.0144444,24.5036111 63.3088889,25.2119444 63.3088889,25.9647222 C63.3088889,26.7202778 63.0144444,27.4286111 62.4838889,27.9563889 L60.095,30.3480556 C59.9644444,30.4758333 59.9005556,30.8619444 59.9838889,31.0286111 L60.6561111,32.6508333 C60.7477778,32.9147222 61.0672222,33.1425 61.2561111,33.1425 L64.6394444,33.1425 C66.1894444,33.1425 67.4505556,34.4063889 67.4505556,35.9591667 L67.4505556,41.1925 C67.4505556,42.7425 66.1894444,44.0063889 64.6394444,44.0063889 L61.2561111,44.0063889 C61.0672222,44.0063889 60.7477778,44.2341667 60.6894444,44.4091667 L60.0283333,46.0286111 C59.9005556,46.2897222 59.9616667,46.6675 60.095,46.8008333 L62.4866667,49.1952778 C63.5838889,50.2897222 63.5838889,52.0786111 62.4866667,53.1730556 L58.7922222,56.8758333 C57.7144444,57.9397222 55.8755556,57.9313889 54.8116667,56.8841667 L52.4116667,54.4841667 C52.3477778,54.4202778 52.1644444,54.3341667 51.945,54.3341667 C51.9144444,54.3480556 51.67,54.4036111 51.6394444,54.4147222 L50.1144444,55.0425 C49.8477778,55.1369444 49.6227778,55.4508333 49.6227778,55.6397222 L49.6227778,59.0230556 C49.6227778,60.5730556 48.3561111,61.8369444 46.8005556,61.8369444" id="Fill-11"></path>
                </g>
            </g>
        </g>
    </g>
</svg>