<?xml version="1.0" encoding="UTF-8"?>
<svg width="75px" height="75px" viewBox="0 0 75 75" version="1.1" xmlns="http://www.w3.org/2000/svg" xmlns:xlink="http://www.w3.org/1999/xlink">
    <!-- Generator: Sketch 55.2 (78181) - https://sketchapp.com -->
    <title>circle icon - coin stack</title>
    <desc>Created with Sketch.</desc>
    <g id="Assets-to-export" stroke="none" stroke-width="1" fill="none" fill-rule="evenodd">
        <g id="Artboard" transform="translate(-1366.000000, -911.000000)" fill="#BA6DF6">
            <g id="circle-icon---coin-stack" transform="translate(1366.000000, 911.000000)">
                <path d="M37.5,1.66666667 C17.7416667,1.66666667 1.66666667,17.7416667 1.66666667,37.5 C1.66666667,57.2583333 17.7416667,73.3333333 37.5,73.3333333 C57.2583333,73.3333333 73.3333333,57.2583333 73.3333333,37.5 C73.3333333,17.7416667 57.2583333,1.66666667 37.5,1.66666667 M37.5,75 C16.8233333,75 0,58.1766667 0,37.5 C0,16.8233333 16.8233333,0 37.5,0 C58.1766667,0 75,16.8233333 75,37.5 C75,58.1766667 58.1766667,75 37.5,75" id="Fill-1"></path>
                <path d="M36.9353333,20.4151667 C29.312,20.4151667 24.6303333,22.6018333 24.6303333,24.1668333 C24.6303333,25.7318333 29.312,27.9168333 36.9353333,27.9168333 C44.5603333,27.9168333 49.242,25.7318333 49.242,24.1668333 C49.242,22.6018333 44.5603333,20.4151667 36.9353333,20.4151667 M36.9353333,29.5835 C30.1636667,29.5835 22.9636667,27.6851667 22.9636667,24.1668333 C22.9636667,20.6485 30.1636667,18.7485 36.9353333,18.7485 C43.7086667,18.7485 50.9086667,20.6485 50.9086667,24.1668333 C50.9086667,27.6851667 43.7086667,29.5835 36.9353333,29.5835" id="Fill-3"></path>
                <path d="M36.9353333,29.5833333 C30.1636667,29.5833333 22.9636667,27.685 22.9636667,24.1666667 C22.9636667,23.7066667 23.337,23.3333333 23.797,23.3333333 C24.2586667,23.3333333 24.6303333,23.7066667 24.6303333,24.1666667 C24.6303333,25.7316667 29.312,27.9166667 36.9353333,27.9166667 C44.5603333,27.9166667 49.242,25.7316667 49.242,24.1666667 C49.242,23.7066667 49.6136667,23.3333333 50.0753333,23.3333333 C50.5353333,23.3333333 50.9086667,23.7066667 50.9086667,24.1666667 C50.9086667,27.685 43.7086667,29.5833333 36.9353333,29.5833333" id="Fill-5"></path>
                <path d="M36.9353333,34.7591667 C30.1636667,34.7591667 22.9636667,32.8608333 22.9636667,29.3425 C22.9636667,28.8825 23.337,28.5091667 23.797,28.5091667 C24.2586667,28.5091667 24.6303333,28.8825 24.6303333,29.3425 C24.6303333,30.9075 29.312,33.0925 36.9353333,33.0925 C37.6986667,33.0925 38.4486667,33.0691667 39.177,33.0258333 C39.6286667,32.9841667 40.0286667,33.3475 40.0586667,33.8075 C40.087,34.2658333 39.7386667,34.6608333 39.277,34.6891667 C38.517,34.7358333 37.7336667,34.7591667 36.9353333,34.7591667" id="Fill-7"></path>
                <path d="M23.7973333,30.1758333 C23.3373333,30.1758333 22.964,29.8025 22.964,29.3425 L22.964,24.2291667 C22.964,23.7675 23.3373333,23.3958333 23.7973333,23.3958333 C24.2573333,23.3958333 24.6306667,23.7675 24.6306667,24.2291667 L24.6306667,29.3425 C24.6306667,29.8025 24.2573333,30.1758333 23.7973333,30.1758333" id="Fill-9"></path>
                <path d="M50.075,29.642 C49.615,29.642 49.2416667,29.2686667 49.2416667,28.8086667 L49.2416667,24.2286667 C49.2416667,23.7686667 49.615,23.3953333 50.075,23.3953333 C50.535,23.3953333 50.9083333,23.7686667 50.9083333,24.2286667 L50.9083333,28.8086667 C50.9083333,29.2686667 50.535,29.642 50.075,29.642" id="Fill-11"></path>
                <path d="M35.9733333,44.7005 L35.9516667,44.7005 C29.7733333,44.5421667 24.8516667,42.9955 23.415,40.7555 C23.165,40.3671667 23.2783333,39.8521667 23.665,39.6021667 C24.0516667,39.3538333 24.5683333,39.4655 24.8183333,39.8538333 C25.7566667,41.3171667 29.8966667,42.8788333 35.995,43.0338333 C36.455,43.0455 36.8183333,43.4271667 36.8066667,43.8888333 C36.795,44.3405 36.425,44.7005 35.9733333,44.7005" id="Fill-13"></path>
                <path d="M37.5683333,49.8828333 C30.3883333,49.8828333 22.9633333,47.8595 22.9633333,44.4728333 C22.9633333,44.0128333 23.3366667,43.6395 23.7966667,43.6395 C24.2583333,43.6395 24.63,44.0128333 24.63,44.4728333 C24.63,45.9628333 29.79,48.2161667 37.5683333,48.2161667 C38.0283333,48.2161667 38.4016667,48.5895 38.4016667,49.0495 C38.4016667,49.5095 38.0283333,49.8828333 37.5683333,49.8828333" id="Fill-15"></path>
                <path d="M33.0876667,36.6163333 C26.316,36.6163333 19.116,34.718 19.116,31.1996667 C19.116,30.0713333 19.8693333,28.4596667 23.4593333,27.193 C23.8843333,27.038 24.3693333,27.2663333 24.521,27.7013333 C24.6743333,28.1346667 24.446,28.6113333 24.0126667,28.7646667 C22.0193333,29.468 20.7826667,30.4013333 20.7826667,31.1996667 C20.7826667,32.7646667 25.4643333,34.9496667 33.0876667,34.9496667 C34.5976667,34.9496667 36.0726667,34.8596667 37.4726667,34.683 C37.9226667,34.6213333 38.3443333,34.9463333 38.4026667,35.4046667 C38.461,35.8613333 38.1376667,36.278 37.681,36.3363333 C36.2126667,36.5213333 34.6676667,36.6163333 33.0876667,36.6163333" id="Fill-17"></path>
                <path d="M33.0876667,41.792 C26.316,41.792 19.116,39.8936667 19.116,36.3753333 C19.116,35.9153333 19.4893333,35.542 19.9493333,35.542 C20.411,35.542 20.7826667,35.9153333 20.7826667,36.3753333 C20.7826667,37.9403333 25.4643333,40.1253333 33.0876667,40.1253333 C34.0926667,40.1253333 35.0926667,40.0853333 36.0593333,40.007 C36.5043333,39.9703333 36.921,40.3103333 36.9576667,40.7686667 C36.996,41.227 36.656,41.6286667 36.196,41.667 C35.1843333,41.7503333 34.1376667,41.792 33.0876667,41.792" id="Fill-19"></path>
                <path d="M19.9496667,37.2086667 C19.4896667,37.2086667 19.1163333,36.8353333 19.1163333,36.3753333 L19.1163333,31.262 C19.1163333,30.8003333 19.4896667,30.4286667 19.9496667,30.4286667 C20.4096667,30.4286667 20.783,30.8003333 20.783,31.262 L20.783,36.3753333 C20.783,36.8353333 20.4096667,37.2086667 19.9496667,37.2086667" id="Fill-21"></path>
                <path d="M23.7973333,45.7698333 C23.3373333,45.7698333 22.964,45.3965 22.964,44.9365 L22.964,40.4531667 C22.964,39.9915 23.3373333,39.6198333 23.7973333,39.6198333 C24.2573333,39.6198333 24.6306667,39.9915 24.6306667,40.4531667 L24.6306667,44.9365 C24.6306667,45.3965 24.2573333,45.7698333 23.7973333,45.7698333" id="Fill-23"></path>
                <path d="M49.3131667,29.9788333 C42.5281667,29.9788333 37.0065,35.4988333 37.0065,42.2838333 C37.0065,49.0688333 42.5281667,54.5905 49.3131667,54.5905 C56.0981667,54.5905 61.6198333,49.0688333 61.6198333,42.2838333 C61.6198333,35.4988333 56.0981667,29.9788333 49.3131667,29.9788333 M49.3131667,56.2571667 C41.6081667,56.2571667 35.3398333,49.9888333 35.3398333,42.2838333 C35.3398333,34.5805 41.6081667,28.3121667 49.3131667,28.3121667 C57.0181667,28.3121667 63.2865,34.5805 63.2865,42.2838333 C63.2865,49.9888333 57.0181667,56.2571667 49.3131667,56.2571667" id="Fill-25"></path>
                <path d="M51.9385,44.7868333 C51.9385,44.5035 51.8868333,44.2601667 51.7785,44.0551667 C51.6751667,43.8501667 51.5318333,43.6735 51.3501667,43.5251667 C51.1668333,43.3768333 50.9551667,43.2501667 50.7101667,43.1418333 C50.4668333,43.0335 50.2068333,42.9351667 49.9268333,42.8418333 L49.6368333,47.0885 C50.0068333,47.0551667 50.3335,46.9735 50.6201667,46.8451667 C50.9085,46.7185 51.1485,46.5551667 51.3451667,46.3551667 C51.5401667,46.1568333 51.6885,45.9251667 51.7885,45.6601667 C51.8885,45.3951667 51.9385,45.1051667 51.9385,44.7868333 L51.9385,44.7868333 Z M47.2068333,39.1268333 C47.2068333,39.4001667 47.2535,39.6368333 47.3485,39.8368333 C47.4468333,40.0385 47.5801667,40.2168333 47.7518333,40.3701667 C47.9235,40.5235 48.1218333,40.6568333 48.3485,40.7735 C48.5751667,40.8835 48.8235,40.9885 49.0885,41.0785 L49.3468333,37.2335 C48.9801667,37.2668333 48.6568333,37.3418333 48.3868333,37.4551667 C48.1185,37.5685 47.8951667,37.7101667 47.7201667,37.8801667 C47.5468333,38.0501667 47.4185,38.2435 47.3351667,38.4568333 C47.2485,38.6701667 47.2068333,38.8918333 47.2068333,39.1268333 L47.2068333,39.1268333 Z M48.5851667,48.3618333 C47.9001667,48.2968333 47.2718333,48.1285 46.7068333,47.8518333 C46.1401667,47.5768333 45.6551667,47.2251667 45.2435,46.7985 L45.6951667,46.1001667 C45.7351667,46.0368333 45.7951667,45.9868333 45.8668333,45.9468333 C45.9385,45.9068333 46.0185,45.8868333 46.0968333,45.8868333 C46.2068333,45.8868333 46.3268333,45.9401667 46.4635,46.0485 C46.6001667,46.1568333 46.7685,46.2801667 46.9685,46.4185 C47.1668333,46.5568333 47.4035,46.6935 47.6801667,46.8268333 C47.9535,46.9551667 48.2868333,47.0435 48.6718333,47.0885 L48.9885,42.5601667 C48.5918333,42.4418333 48.2001667,42.3085 47.8168333,42.1551667 C47.4318333,42.0051667 47.0885,41.8085 46.7835,41.5668333 C46.4801667,41.3235 46.2368333,41.0201667 46.0501667,40.6518333 C45.8668333,40.2851667 45.7735,39.8235 45.7735,39.2701667 C45.7735,38.8535 45.8551667,38.4485 46.0135,38.0518333 C46.1801667,37.6585 46.4151667,37.3051667 46.7251667,36.9968333 C47.0335,36.6901667 47.4151667,36.4351667 47.8735,36.2401667 C48.3218333,36.0451667 48.8485,35.9435 49.4385,35.9435 L49.5235,34.7001667 C49.5385,34.5935 49.5785,34.4968333 49.6518333,34.4101667 C49.7268333,34.3268333 49.8251667,34.2835 49.9535,34.2835 L50.5151667,34.2835 L50.3951667,35.9718333 C50.9951667,36.0468333 51.5051667,36.1985 51.9385,36.4318333 C52.3718333,36.6651667 52.7568333,36.9468333 53.0985,37.2751667 L52.7318333,37.8385 C52.6168333,38.0101667 52.4851667,38.0935 52.3385,38.0935 C52.2585,38.0935 52.1635,38.0585 52.0435,37.9868333 C51.9285,37.9168333 51.7885,37.8335 51.6218333,37.7385 C51.4568333,37.6468333 51.2668333,37.5535 51.0501667,37.4601667 C50.8351667,37.3668333 50.5868333,37.2985 50.3101667,37.2585 L50.0285,41.3851667 C50.4385,41.5101667 50.8401667,41.6485 51.2385,41.7951667 C51.6368333,41.9435 51.9935,42.1351667 52.3135,42.3701667 C52.6318333,42.6018333 52.8901667,42.8951667 53.0835,43.2468333 C53.2835,43.5968333 53.3785,44.0351667 53.3785,44.5601667 C53.3785,45.0735 53.2918333,45.5551667 53.1235,46.0051667 C52.9518333,46.4568333 52.7035,46.8535 52.3785,47.1951667 C52.0485,47.5368333 51.6485,47.8151667 51.1768333,48.0285 C50.7001667,48.2435 50.1618333,48.3518333 49.5485,48.3518333 L49.4501667,49.8768333 C49.4385,49.9835 49.3968333,50.0818333 49.3168333,50.1635 C49.2368333,50.2435 49.1418333,50.2868333 49.0218333,50.2868333 L48.4601667,50.2868333 L48.5851667,48.3618333 Z" id="Fill-27"></path>
            </g>
        </g>
    </g>
</svg>