<?xml version="1.0" encoding="UTF-8"?>
<svg width="32px" height="32px" viewBox="0 0 32 32" version="1.1" xmlns="http://www.w3.org/2000/svg" xmlns:xlink="http://www.w3.org/1999/xlink">
    <!-- Generator: Sketch 55.2 (78181) - https://sketchapp.com -->
    <title>circle icon - prize</title>
    <desc>Created with Sketch.</desc>
    <g id="Assets-to-export" stroke="none" stroke-width="1" fill="none" fill-rule="evenodd">
        <g id="Artboard" transform="translate(-791.000000, -1027.000000)" fill="#804BC9">
            <g id="circle-icon---prize" transform="translate(791.000000, 1027.000000)">
                <path d="M16,0.711111111 C7.56977778,0.711111111 0.711111111,7.56977778 0.711111111,16 C0.711111111,24.4302222 7.56977778,31.2888889 16,31.2888889 C24.4302222,31.2888889 31.2888889,24.4302222 31.2888889,16 C31.2888889,7.56977778 24.4302222,0.711111111 16,0.711111111 M16,32 C7.17795556,32 0,24.8220444 0,16 C0,7.17795556 7.17795556,0 16,0 C24.8220444,0 32,7.17795556 32,16 C32,24.8220444 24.8220444,32 16,32" id="Fill-1"></path>
                <path d="M16.0013511,8.43057778 C13.1953067,8.43057778 10.91264,10.7132444 10.91264,13.5185778 C10.91264,16.3239111 13.1953067,18.6058667 16.0013511,18.6058667 C18.8052622,18.6058667 21.0872178,16.3239111 21.0872178,13.5185778 C21.0872178,10.7132444 18.8052622,8.43057778 16.0013511,8.43057778 M16.0013511,19.3169778 C12.8034844,19.3169778 10.2015289,16.7157333 10.2015289,13.5185778 C10.2015289,10.3207111 12.8034844,7.71946667 16.0013511,7.71946667 C19.1977956,7.71946667 21.7983289,10.3207111 21.7983289,13.5185778 C21.7983289,16.7157333 19.1977956,19.3169778 16.0013511,19.3169778" id="Fill-3"></path>
                <path d="M16.0013511,10.6826667 C14.4376178,10.6826667 13.16544,11.9548444 13.16544,13.5185778 C13.16544,15.0823111 14.4376178,16.3537778 16.0013511,16.3537778 C17.5643733,16.3537778 18.83584,15.0823111 18.83584,13.5185778 C18.83584,11.9548444 17.5643733,10.6826667 16.0013511,10.6826667 M16.0013511,17.0648889 C14.0450844,17.0648889 12.4543289,15.4734222 12.4543289,13.5185778 C12.4543289,11.5623111 14.0450844,9.97155556 16.0013511,9.97155556 C17.9561956,9.97155556 19.5469511,11.5623111 19.5469511,13.5185778 C19.5469511,15.4734222 17.9561956,17.0648889 16.0013511,17.0648889" id="Fill-5"></path>
                <path d="M12.9708089,24.2826667 C12.8513422,24.2826667 12.7396978,24.2222222 12.6735644,24.1219556 L11.4689422,22.2837333 L9.27089778,22.2339556 C9.14645333,22.2311111 9.03267556,22.1635556 8.97080889,22.0554667 C8.90894222,21.9473778 8.90752,21.8144 8.96796444,21.7056 L11.5848533,16.9930667 C11.6808533,16.8209778 11.8977422,16.7619556 12.0684089,16.8551111 C12.2404978,16.9504 12.3023644,17.1665778 12.2070756,17.3386667 L9.87534222,21.5363556 L11.67232,21.5768889 C11.7889422,21.5797333 11.8970311,21.6394667 11.9610311,21.7376 L12.94592,23.2401778 L15.2762311,19.0432 C15.3722311,18.8711111 15.5898311,18.8120889 15.7604978,18.9052444 C15.9318756,19.0005333 15.9937422,19.2167111 15.8984533,19.3888 L13.2815644,24.0999111 C13.2218311,24.2087111 13.1080533,24.2776889 12.98432,24.2826667 L12.9708089,24.2826667 Z" id="Fill-7"></path>
                <path d="M19.02912,24.2826667 L19.0156089,24.2826667 C18.8918756,24.2776889 18.7780978,24.2087111 18.7183644,24.0999111 L16.1014756,19.3888 C16.0061867,19.2167111 16.0680533,19.0005333 16.2394311,18.9052444 C16.4093867,18.8128 16.6269867,18.8718222 16.7236978,19.0432 L19.0540089,23.2401778 L20.0388978,21.7376 C20.1028978,21.6394667 20.2109867,21.5797333 20.3276089,21.5768889 L22.1245867,21.5363556 L19.7928533,17.3386667 C19.6975644,17.1665778 19.7594311,16.9504 19.93152,16.8551111 C20.1021867,16.7612444 20.3183644,16.8216889 20.4150756,16.9930667 L23.0319644,21.7056 C23.0924089,21.8144 23.0909867,21.9473778 23.02912,22.0554667 C22.9672533,22.1635556 22.8534756,22.2311111 22.7290311,22.2339556 L20.5309867,22.2837333 L19.3263644,24.1219556 C19.2602311,24.2222222 19.1485867,24.2826667 19.02912,24.2826667" id="Fill-9"></path>
            </g>
        </g>
    </g>
</svg>