<?xml version="1.0" encoding="UTF-8"?>
<svg width="75px" height="75px" viewBox="0 0 75 75" version="1.1" xmlns="http://www.w3.org/2000/svg" xmlns:xlink="http://www.w3.org/1999/xlink">
    <!-- Generator: Sketch 55.2 (78181) - https://sketchapp.com -->
    <title>circle icon - study</title>
    <desc>Created with Sketch.</desc>
    <g id="Assets-to-export" stroke="none" stroke-width="1" fill="none" fill-rule="evenodd">
        <g id="Artboard" transform="translate(-1367.000000, -795.000000)" fill="#BA6DF6">
            <g id="circle-icon---study" transform="translate(1367.000000, 795.000000)">
                <path d="M37.5,1.66666667 C17.7416667,1.66666667 1.66666667,17.7416667 1.66666667,37.5 C1.66666667,57.2583333 17.7416667,73.3333333 37.5,73.3333333 C57.2583333,73.3333333 73.3333333,57.2583333 73.3333333,37.5 C73.3333333,17.7416667 57.2583333,1.66666667 37.5,1.66666667 M37.5,75 C16.8233333,75 0,58.1766667 0,37.5 C0,16.8233333 16.8233333,0 37.5,0 C58.1766667,0 75,16.8233333 75,37.5 C75,58.1766667 58.1766667,75 37.5,75" id="Fill-1"></path>
                <g id="Group-11" transform="translate(16.666667, 24.333333)">
                    <path d="M3.789,9.31416667 L20.3773333,16.5425 L36.9623333,9.31416667 L20.3773333,2.08583333 L3.789,9.31416667 Z M20.3773333,18.2841667 C20.264,18.2841667 20.1506667,18.2608333 20.0456667,18.2141667 L1.369,10.0775 C1.06566667,9.94583333 0.869,9.64583333 0.869,9.31416667 C0.869,8.9825 1.06566667,8.6825 1.369,8.55083333 L20.0456667,0.414166667 C20.2573333,0.320833333 20.4956667,0.320833333 20.7106667,0.414166667 L39.3823333,8.55083333 C39.6856667,8.6825 39.8823333,8.9825 39.8823333,9.31416667 C39.8823333,9.64583333 39.6856667,9.94583333 39.3823333,10.0775 L20.7106667,18.2141667 C20.604,18.2608333 20.4906667,18.2841667 20.3773333,18.2841667 L20.3773333,18.2841667 Z" id="Fill-3"></path>
                    <path d="M20.3776667,25.9938333 C15.4843333,25.9938333 10.5943333,24.5255 6.231,21.5921667 C6.001,21.4388333 5.86266667,21.1771667 5.86266667,20.9005 L5.86266667,12.0121667 C5.86266667,11.5521667 6.236,11.1788333 6.696,11.1788333 C7.156,11.1788333 7.52933333,11.5521667 7.52933333,12.0121667 L7.52933333,20.4521667 C15.4943333,25.6121667 25.261,25.6121667 33.226,20.4521667 L33.226,12.0121667 C33.226,11.5521667 33.5993333,11.1788333 34.0593333,11.1788333 C34.5193333,11.1788333 34.8926667,11.5521667 34.8926667,12.0121667 L34.8926667,20.9005 C34.8926667,21.1771667 34.7543333,21.4388333 34.5243333,21.5921667 C30.161,24.5255 25.271,25.9938333 20.3776667,25.9938333" id="Fill-5"></path>
                    <path d="M39.961,22.291 C39.501,22.291 39.1276667,21.9176667 39.1276667,21.4576667 L39.1276667,9.23433333 C39.1276667,8.77433333 39.501,8.401 39.961,8.401 C40.421,8.401 40.7943333,8.77433333 40.7943333,9.23433333 L40.7943333,21.4576667 C40.7943333,21.9176667 40.421,22.291 39.961,22.291" id="Fill-7"></path>
                    <path d="M39.961,22.291 C39.501,22.291 39.1276667,21.9176667 39.1276667,21.4576667 L39.1276667,15.6243333 C39.1276667,15.1643333 39.501,14.791 39.961,14.791 C40.421,14.791 40.7943333,15.1643333 40.7943333,15.6243333 L40.7943333,21.4576667 C40.7943333,21.9176667 40.421,22.291 39.961,22.291" id="Fill-9"></path>
                </g>
            </g>
        </g>
    </g>
</svg>