<?xml version="1.0" encoding="UTF-8"?>
<svg width="126px" height="126px" viewBox="0 0 126 126" version="1.1" xmlns="http://www.w3.org/2000/svg" xmlns:xlink="http://www.w3.org/1999/xlink">
    <!-- Generator: Sketch 55.2 (78181) - https://sketchapp.com -->
    <title>circle icon - community</title>
    <desc>Created with Sketch.</desc>
    <g id="Assets-to-export" stroke="none" stroke-width="1" fill="none" fill-rule="evenodd">
        <g id="Artboard" transform="translate(-298.000000, -1557.000000)" fill="#FFFFFF">
            <g id="circle-icon---community" transform="translate(298.000000, 1557.000000)">
                <path d="M62.7171833,2.79482509 C29.6721963,2.79482509 2.78743037,29.7509131 2.78743037,62.8835645 C2.78743037,96.016216 29.6721963,122.972304 62.7171833,122.972304 C95.7621703,122.972304 122.646936,96.016216 122.646936,62.8835645 C122.646936,29.7509131 95.7621703,2.79482509 62.7171833,2.79482509 M62.7171833,125.767129 C28.1335347,125.767129 0,97.5589594 0,62.8835645 C0,28.2081696 28.1335347,0 62.7171833,0 C97.3008319,0 125.434367,28.2081696 125.434367,62.8835645 C125.434367,97.5589594 97.3008319,125.767129 62.7171833,125.767129" id="Fill-1"></path>
                <g id="Group-11" transform="translate(30.661734, 33.537901)">
                    <path d="M32.0554492,4.09274186 C16.4932255,4.09274186 3.83271676,13.9668589 3.83271676,26.1019894 C3.83271676,34.4920544 10.1350968,42.2756422 19.8855283,45.9312735 C20.2562565,46.0710147 20.5517241,46.3616765 20.6938831,46.7277986 C20.8388294,47.0967155 20.8221049,47.5103496 20.6437093,47.8652924 L20.4708886,48.2258249 C20.3203674,48.5444349 20.1670587,48.863045 19.9830883,49.1676809 C18.7733435,51.2023136 17.2402568,52.9742327 15.4061277,54.4694641 C20.7663563,53.9496266 25.4297273,51.8563026 28.7300448,48.4438212 C29.0115753,48.1531594 29.3990281,48.0134181 29.8143552,48.0218026 C30.5530243,48.0665198 31.3000556,48.111237 32.0554492,48.111237 C47.617673,48.111237 60.2781817,38.23712 60.2781817,26.1019894 C60.2781817,13.9668589 47.617673,4.09274186 32.0554492,4.09274186 M12.7274071,57.3928512 C11.9775883,57.3928512 11.2166198,57.3649029 10.4528639,57.3118012 C9.82290462,57.267084 9.30165514,56.8031431 9.18179564,56.1854867 C9.06193613,55.5650355 9.3713409,54.9389947 9.93718927,54.662307 C13.1622462,53.0776412 15.6876581,50.8250122 17.4521015,47.9659061 C7.4340768,43.6786444 1.04528639,35.2354778 1.04528639,26.1019894 C1.04528639,12.4241155 14.9573514,1.29791677 32.0554492,1.29791677 C49.1535471,1.29791677 63.0656121,12.4241155 63.0656121,26.1019894 C63.0656121,39.7798634 49.1535471,50.9060621 32.0554492,50.9060621 C31.4561517,50.9060621 30.8624291,50.8809087 30.2742812,50.8473708 C25.9231024,55.0731463 19.7210699,57.3928512 12.7274071,57.3928512" id="Fill-3"></path>
                    <path d="M19.5936843,23.0232101 C17.344228,23.0232101 15.524036,24.8482309 15.524036,27.0980651 C15.524036,29.3478993 17.344228,31.1729201 19.5936843,31.1729201 C21.8375657,31.1729201 23.6521829,29.3478993 23.6521829,27.0980651 C23.6521829,24.8482309 21.8375657,23.0232101 19.5936843,23.0232101 M19.5936843,25.8180352 C20.2961167,25.8180352 20.8647525,26.3937692 20.8647525,27.0980651 C20.8647525,27.802361 20.2961167,28.378095 19.5936843,28.378095 C18.8884644,28.378095 18.3114663,27.802361 18.3114663,27.0980651 C18.3114663,26.3937692 18.8884644,25.8180352 19.5936843,25.8180352" id="Fill-5"></path>
                    <path d="M32.0554492,23.0232101 C29.8059929,23.0232101 27.9885883,24.8482309 27.9885883,27.0980651 C27.9885883,29.3478993 29.8059929,31.1729201 32.0554492,31.1729201 C34.2965433,31.1729201 36.1167353,29.3478993 36.1167353,27.0980651 C36.1167353,24.8482309 34.2965433,23.0232101 32.0554492,23.0232101 M32.0554492,25.8180352 C32.7606691,25.8180352 33.3293049,26.3937692 33.3293049,27.0980651 C33.3293049,27.802361 32.7606691,28.378095 32.0554492,28.378095 C31.3502294,28.378095 30.7760187,27.802361 30.7760187,27.0980651 C30.7760187,26.3937692 31.3502294,25.8180352 32.0554492,25.8180352" id="Fill-7"></path>
                    <path d="M44.5144268,23.0232101 C42.2733328,23.0232101 40.4559282,24.8482309 40.4559282,27.0980651 C40.4559282,29.3478993 42.2733328,31.1729201 44.5144268,31.1729201 C46.7610956,31.1729201 48.5840751,29.3478993 48.5840751,27.0980651 C48.5840751,24.8482309 46.7610956,23.0232101 44.5144268,23.0232101 M44.5144268,25.8180352 C45.2224341,25.8180352 45.7966447,26.3937692 45.7966447,27.0980651 C45.7966447,27.802361 45.2224341,28.378095 44.5144268,28.378095 C43.8147817,28.378095 43.2433585,27.802361 43.2433585,27.0980651 C43.2433585,26.3937692 43.8147817,25.8180352 44.5144268,25.8180352" id="Fill-9"></path>
                </g>
            </g>
        </g>
    </g>
</svg>