<?xml version="1.0" encoding="UTF-8"?>
<svg width="75px" height="75px" viewBox="0 0 75 75" version="1.1" xmlns="http://www.w3.org/2000/svg" xmlns:xlink="http://www.w3.org/1999/xlink">
    <!-- Generator: Sketch 55.2 (78181) - https://sketchapp.com -->
    <title>circle icon - rocket 2</title>
    <desc>Created with Sketch.</desc>
    <g id="Assets-to-export" stroke="none" stroke-width="1" fill="none" fill-rule="evenodd">
        <g id="Artboard" transform="translate(-1247.000000, -911.000000)" fill="#BA6DF6">
            <g id="circle-icon---rocket-2" transform="translate(1247.000000, 911.000000)">
                <path d="M37.5,1.66666667 C17.7416667,1.66666667 1.66666667,17.7416667 1.66666667,37.5 C1.66666667,57.2583333 17.7416667,73.3333333 37.5,73.3333333 C57.2583333,73.3333333 73.3333333,57.2583333 73.3333333,37.5 C73.3333333,17.7416667 57.2583333,1.66666667 37.5,1.66666667 M37.5,75 C16.8233333,75 0,58.1766667 0,37.5 C0,16.8233333 16.8233333,0 37.5,0 C58.1766667,0 75,16.8233333 75,37.5 C75,58.1766667 58.1766667,75 37.5,75" id="Fill-1"></path>
                <path d="M30.0121667,43.5358333 C30.4255,43.5991667 30.8638333,43.6458333 31.3355,43.6791667 C31.5738333,43.6975 31.7955,43.8158333 31.9405,44.0075 C34.1388333,46.9091667 34.9188333,50.6058333 34.1488333,54.0558333 C34.6971667,53.6891667 35.2021667,53.2725 35.6671667,52.8075 C38.1155,50.3625 39.1521667,46.8458333 38.4405,43.4025 C38.3571667,43.0041667 38.5738333,42.6041667 38.9505,42.4575 C41.5171667,41.4525 43.8038333,39.9591667 45.7455,38.0141667 C50.0605,33.7008333 52.1455,27.7208333 51.2688333,22.2775 C45.8455,21.4058333 39.8171667,23.5158333 35.5338333,27.8008333 C33.5888333,29.7441667 32.0938333,32.0291667 31.0888333,34.5941667 C30.9421667,34.9708333 30.5388333,35.1858333 30.1455,35.1058333 C26.7371667,34.4041667 23.1721667,35.4475 20.7405,37.8775 C20.2738333,38.3441667 19.8571667,38.8475 19.4938333,39.3925 C22.8955,38.6391667 26.6988333,39.4525 29.5405,41.6075 C29.7321667,41.7525 29.8505,41.9725 29.8688333,42.2108333 C29.9038333,42.6941667 29.9521667,43.1325 30.0121667,43.5358333 M32.7355,56.5875 C32.5188333,56.5875 32.3055,56.5025 32.1455,56.3441667 C31.9071667,56.1041667 31.8355,55.7425 31.9671667,55.4308333 C33.3605,52.1225 32.9205,48.2808333 30.8288333,45.3108333 C30.2221667,45.2558333 29.6638333,45.1775 29.1305,45.0725 C28.7988333,45.0075 28.5421667,44.7491667 28.4755,44.4191667 C28.3738333,43.9041667 28.2938333,43.3458333 28.2388333,42.7191667 C25.3088333,40.6541667 21.3638333,40.2108333 18.1155,41.5741667 C17.8055,41.7041667 17.4438333,41.6341667 17.2038333,41.3958333 C16.9655,41.1558333 16.8938333,40.7958333 17.0255,40.4841667 C17.6238333,39.0558333 18.4771667,37.7825 19.5605,36.6991667 C22.2238333,34.0391667 26.0205,32.8075 29.7971667,33.3525 C30.8771667,30.8275 32.4088333,28.5675 34.3555,26.6225 C38.3005,22.6741667 43.5488333,20.4108333 48.7571667,20.4108333 C49.9088333,20.4108333 51.0505,20.5225 52.1488333,20.7425 C52.4788333,20.8075 52.7388333,21.0675 52.8038333,21.3975 C54.0271667,27.5241667 51.7755,34.3425 46.9238333,39.1941667 C44.9805,41.1391667 42.7188333,42.6691667 40.1921667,43.7491667 C40.7555,47.5241667 39.5305,51.3058333 36.8471667,53.9858333 C35.7705,55.0641667 34.4938333,55.9191667 33.0571667,56.5225 C32.9538333,56.5658333 32.8438333,56.5875 32.7355,56.5875" id="Fill-3"></path>
                <path d="M43.2738333,27.7691667 C42.6071667,27.7691667 41.9788333,28.0291667 41.5038333,28.5008333 C40.5305,29.4758333 40.5321667,31.0641667 41.5071667,32.0408333 C42.4521667,32.9808333 44.0955,32.9808333 45.0438333,32.0375 C45.5155,31.5658333 45.7738333,30.9375 45.7738333,30.2691667 C45.7738333,29.6025 45.5155,28.9741667 45.0438333,28.5008333 C44.5688333,28.0291667 43.9405,27.7691667 43.2738333,27.7691667 M43.2738333,34.4358333 C42.1621667,34.4358333 41.1171667,34.0041667 40.3288333,33.2191667 C38.7038333,31.5925 38.7021667,28.9491667 40.3255,27.3225 C41.9055,25.7475 44.6421667,25.7475 46.2221667,27.3225 C47.0071667,28.1091667 47.4405,29.1558333 47.4405,30.2691667 C47.4405,31.3841667 47.0071667,32.4308333 46.2221667,33.2158333 C45.4338333,34.0025 44.3855,34.4358333 43.2738333,34.4358333" id="Fill-5"></path>
                <path d="M24.3251667,51.6998333 C23.7718333,51.6998333 23.2185,51.6548333 22.6701667,51.5631667 C22.3185,51.5048333 22.0435,51.2298333 21.9851667,50.8798333 C21.4101667,47.4531667 22.6535,43.8198333 25.3101667,41.1631667 C25.6351667,40.8365 26.1635,40.8365 26.4885,41.1631667 C26.8135,41.4881667 26.8135,42.0148333 26.4885,42.3415 C24.3701667,44.4598333 23.2968333,47.2831667 23.5501667,49.9981667 C26.2435,50.2615 29.0835,49.1748333 31.2035,47.0565 C31.5285,46.7315 32.0568333,46.7315 32.3818333,47.0565 C32.7068333,47.3815 32.7068333,47.9098333 32.3818333,48.2348333 C30.1501667,50.4648333 27.2318333,51.6998333 24.3251667,51.6998333" id="Fill-7"></path>
            </g>
        </g>
    </g>
</svg>