<?xml version="1.0" encoding="UTF-8"?>
<svg width="126px" height="126px" viewBox="0 0 126 126" version="1.1" xmlns="http://www.w3.org/2000/svg" xmlns:xlink="http://www.w3.org/1999/xlink">
    <!-- Generator: Sketch 55.2 (78181) - https://sketchapp.com -->
    <title>circle icon - share</title>
    <desc>Created with Sketch.</desc>
    <g id="Assets-to-export" stroke="none" stroke-width="1" fill="none" fill-rule="evenodd">
        <g id="Artboard" transform="translate(-468.000000, -1743.000000)" fill="#FFFFFF">
            <g id="circle-icon---share" transform="translate(468.000000, 1743.000000)">
                <path d="M63,2.8 C29.806,2.8 2.8,29.806 2.8,63 C2.8,96.194 29.806,123.2 63,123.2 C96.194,123.2 123.2,96.194 123.2,63 C123.2,29.806 96.194,2.8 63,2.8 M63,126 C28.2632,126 0,97.7368 0,63 C0,28.2632 28.2632,0 63,0 C97.7368,0 126,28.2632 126,63 C126,97.7368 97.7368,126 63,126" id="Fill-1"></path>
                <g id="Group-11" transform="translate(25.200000, 27.200000)">
                    <path d="M5.92816,62.80488 L60.47216,62.80488 L71.32216,28.70088 L16.77816,28.70088 L5.92816,62.80488 Z M61.49696,65.60488 L4.01296,65.60488 C3.56776,65.60488 3.14776,65.39208 2.88456,65.03088 C2.61856,64.66968 2.54576,64.20488 2.68016,63.78208 L14.42056,26.87808 C14.60816,26.29568 15.14576,25.90088 15.75616,25.90088 L73.23736,25.90088 C73.68256,25.90088 74.10536,26.11368 74.36576,26.47488 C74.63176,26.83608 74.70456,27.30088 74.57296,27.72648 L62.82976,64.62768 C62.64496,65.21008 62.10456,65.60488 61.49696,65.60488 L61.49696,65.60488 Z" id="Fill-3"></path>
                    <path d="M1.91408,65.60488 C1.14128,65.60488 0.51408,64.97768 0.51408,64.20488 L0.51408,13.65088 C0.51408,11.33528 2.39848,9.45088 4.71408,9.45088 L24.31408,9.45088 C26.62968,9.45088 28.51408,11.33528 28.51408,13.65088 L28.51408,17.07528 L43.11048,17.07528 C43.88328,17.07528 44.51048,17.70248 44.51048,18.47528 C44.51048,19.24808 43.88328,19.87528 43.11048,19.87528 L27.11408,19.87528 C26.34128,19.87528 25.71408,19.24808 25.71408,18.47528 L25.71408,13.65088 C25.71408,12.88088 25.08408,12.25088 24.31408,12.25088 L4.71408,12.25088 C3.94408,12.25088 3.31408,12.88088 3.31408,13.65088 L3.31408,64.20488 C3.31408,64.97768 2.68688,65.60488 1.91408,65.60488" id="Fill-5"></path>
                    <path d="M70.79828,20.16508 C70.43988,20.16508 70.08148,20.02788 69.80708,19.75628 C69.26108,19.20748 69.26108,18.32268 69.80708,17.77388 L77.31108,10.27828 L69.80708,2.77988 C69.26108,2.23388 69.26108,1.34628 69.80708,0.80028 C70.35588,0.25428 71.24068,0.25428 71.78948,0.80028 L80.28188,9.28708 C80.54228,9.55028 80.69068,9.90588 80.69068,10.27828 C80.69068,10.65068 80.54228,11.00628 80.28188,11.26668 L71.78948,19.75628 C71.51508,20.02788 71.15668,20.16508 70.79828,20.16508" id="Fill-7"></path>
                    <path d="M40.10216,46.00488 C39.32936,46.00488 38.70216,45.37768 38.70216,44.60488 C38.70216,24.77808 54.62856,8.64728 74.20616,8.64728 C75.42416,8.64728 76.65056,8.71168 77.84056,8.83768 C78.61056,8.91608 79.16776,9.60488 79.08656,10.37208 C79.00816,11.14208 78.30536,11.68528 77.54936,11.62088 C76.44616,11.50608 75.33176,11.44728 74.20616,11.44728 C56.17136,11.44728 41.50216,26.32368 41.50216,44.60488 C41.50216,45.37768 40.87496,46.00488 40.10216,46.00488" id="Fill-9"></path>
                </g>
            </g>
        </g>
    </g>
</svg>