<?xml version="1.0" encoding="UTF-8"?>
<svg width="150px" height="150px" viewBox="0 0 150 150" version="1.1" xmlns="http://www.w3.org/2000/svg" xmlns:xlink="http://www.w3.org/1999/xlink">
    <!-- Generator: Sketch 55.2 (78181) - https://sketchapp.com -->
    <title>circle icon - distribution</title>
    <desc>Created with Sketch.</desc>
    <g id="Assets-to-export" stroke="none" stroke-width="1" fill="none" fill-rule="evenodd">
        <g id="Artboard" transform="translate(-104.000000, -909.000000)" fill="#BA6DF6">
            <g id="circle-icon---distribution" transform="translate(104.000000, 909.000000)">
                <path d="M75,3.33333333 C35.4833333,3.33333333 3.33333333,35.4833333 3.33333333,75 C3.33333333,114.516667 35.4833333,146.666667 75,146.666667 C114.516667,146.666667 146.666667,114.516667 146.666667,75 C146.666667,35.4833333 114.516667,3.33333333 75,3.33333333 M75,150 C33.6466667,150 0,116.356667 0,75 C0,33.6433333 33.6466667,0 75,0 C116.353333,0 150,33.6433333 150,75 C150,116.356667 116.353333,150 75,150" id="Fill-1"></path>
                <path d="M41.8033333,67.0816667 C37.4366667,67.0816667 33.8866667,70.6316667 33.8866667,74.9983333 C33.8866667,79.365 37.4366667,82.915 41.8033333,82.915 C46.17,82.915 49.72,79.365 49.72,74.9983333 C49.72,70.6316667 46.17,67.0816667 41.8033333,67.0816667 M41.8033333,86.2483333 C35.6,86.2483333 30.5533333,81.2016667 30.5533333,74.9983333 C30.5533333,68.795 35.6,63.7483333 41.8033333,63.7483333 C48.0066667,63.7483333 53.0533333,68.795 53.0533333,74.9983333 C53.0533333,81.2016667 48.0066667,86.2483333 41.8033333,86.2483333" id="Fill-3"></path>
                <path d="M94.8566667,38.6116667 C90.49,38.6116667 86.94,42.1616667 86.94,46.5283333 C86.94,50.895 90.49,54.445 94.8566667,54.445 C99.2233333,54.445 102.773333,50.895 102.773333,46.5283333 C102.773333,42.1616667 99.2233333,38.6116667 94.8566667,38.6116667 M94.8566667,57.7783333 C88.6533333,57.7783333 83.6066667,52.7316667 83.6066667,46.5283333 C83.6066667,40.325 88.6533333,35.2783333 94.8566667,35.2783333 C101.06,35.2783333 106.106667,40.325 106.106667,46.5283333 C106.106667,52.7316667 101.06,57.7783333 94.8566667,57.7783333" id="Fill-5"></path>
                <path d="M94.8566667,95.555 C90.49,95.555 86.94,99.105 86.94,103.471667 C86.94,107.838333 90.49,111.388333 94.8566667,111.388333 C99.2233333,111.388333 102.773333,107.838333 102.773333,103.471667 C102.773333,99.105 99.2233333,95.555 94.8566667,95.555 M94.8566667,114.721667 C88.6533333,114.721667 83.6066667,109.675 83.6066667,103.471667 C83.6066667,97.2683333 88.6533333,92.2216667 94.8566667,92.2216667 C101.06,92.2216667 106.106667,97.2683333 106.106667,103.471667 C106.106667,109.675 101.06,114.721667 94.8566667,114.721667" id="Fill-7"></path>
                <path d="M84.9933333,100.076667 C84.71,100.076667 84.4233333,100.006667 84.16,99.8533333 L50.1366667,80.21 C49.34,79.7466667 49.0666667,78.73 49.5266667,77.93 C49.9866667,77.1333333 51.01,76.8633333 51.8033333,77.32 L85.8266667,96.9666667 C86.6233333,97.4266667 86.8966667,98.4466667 86.4366667,99.2433333 C86.13,99.78 85.5666667,100.076667 84.9933333,100.076667" id="Fill-9"></path>
                <path d="M50.97,72.8986667 C50.3966667,72.8986667 49.8333333,72.602 49.5266667,72.0653333 C49.0666667,71.2686667 49.34,70.2486667 50.1366667,69.7886667 L84.16,50.142 C84.9533333,49.6853333 85.9766667,49.952 86.4366667,50.752 C86.8966667,51.552 86.6233333,52.5686667 85.8266667,53.032 L51.8033333,72.6753333 C51.54,72.8286667 51.2533333,72.8986667 50.97,72.8986667" id="Fill-11"></path>
            </g>
        </g>
    </g>
</svg>