<?xml version="1.0" encoding="UTF-8"?>
<svg width="75px" height="75px" viewBox="0 0 75 75" version="1.1" xmlns="http://www.w3.org/2000/svg" xmlns:xlink="http://www.w3.org/1999/xlink">
    <!-- Generator: Sketch 55.2 (78181) - https://sketchapp.com -->
    <title>circle icon - heart</title>
    <desc>Created with Sketch.</desc>
    <g id="Assets-to-export" stroke="none" stroke-width="1" fill="none" fill-rule="evenodd">
        <g id="Artboard" transform="translate(-1112.000000, -911.000000)" fill="#BA6DF6">
            <g id="circle-icon---heart" transform="translate(1112.000000, 911.000000)">
                <path d="M37.5,1.66666667 C17.7416667,1.66666667 1.66666667,17.7416667 1.66666667,37.5 C1.66666667,57.2583333 17.7416667,73.3333333 37.5,73.3333333 C57.2583333,73.3333333 73.3333333,57.2583333 73.3333333,37.5 C73.3333333,17.7416667 57.2583333,1.66666667 37.5,1.66666667 M37.5,75 C16.8233333,75 0,58.1783333 0,37.5 C0,16.8216667 16.8233333,0 37.5,0 C58.1766667,0 75,16.8216667 75,37.5 C75,58.1783333 58.1766667,75 37.5,75" id="Fill-1"></path>
                <path d="M29.4548333,22.159 C26.9765,22.169 24.7231667,23.1406667 22.9965,24.8973333 C21.0448333,26.8823333 19.9481667,29.704 19.9865,32.6406667 C19.9981667,33.7373333 20.1715,34.8056667 20.4965,35.8156667 C20.9331667,37.7073333 23.2881667,41.3256667 32.1465,48.2223333 C34.1315,49.7556667 37.1698333,51.8673333 38.4681667,52.7706667 C38.5248333,52.8106667 38.5798333,52.8473333 38.6298333,52.8823333 C40.2415,51.8156667 42.3481667,50.209 44.9065,48.0973333 C53.5681667,41.0056667 55.8281667,37.3023333 56.1998333,35.4456667 C56.5198333,34.354 56.6648333,33.2806667 56.6498333,32.1823333 C56.5798333,26.5373333 52.3465,21.944 47.2165,21.944 L47.0331667,21.9473333 C43.6798333,21.9906667 40.6681667,23.8006667 38.9681667,26.7856667 C38.8215,27.0423333 38.5498333,27.2023333 38.2548333,27.2073333 L38.2431667,27.2073333 C37.9531667,27.2073333 37.6831667,27.0556667 37.5315,26.8056667 C35.7731667,23.8956667 32.7531667,22.159 29.4548333,22.159 M38.6098333,54.7223333 C38.4715,54.7223333 38.3331667,54.6873333 38.2081667,54.619 C38.1665,54.594 38.1248333,54.5673333 38.0881667,54.5373333 C38.0198333,54.489 37.8181667,54.3473333 37.5165,54.139 C36.2081667,53.229 33.1448333,51.099 31.1265,49.539 C23.5948333,43.6773333 19.5931667,39.334 18.8915,36.2573333 C18.5315,35.1573333 18.3331667,33.924 18.3198333,32.6606667 C18.2765,29.284 19.5481667,26.029 21.8081667,23.729 C23.8481667,21.654 26.5198333,20.504 29.3331667,20.4923333 L29.3348333,20.4923333 C32.9031667,20.4923333 36.1081667,22.1073333 38.2248333,24.8673333 C40.2898333,22.019 43.4881667,20.3273333 47.0031667,20.2806667 L47.2165,20.2773333 C53.2548333,20.2773333 58.2365,25.609 58.3165,32.1606667 C58.3331667,33.4273333 58.1665,34.6673333 57.8165,35.8456667 C57.2148333,38.8606667 53.2231667,43.4423333 45.9648333,49.384 C43.1015,51.7473333 40.7781667,53.5006667 39.0565,54.5923333 C38.9215,54.679 38.7648333,54.7223333 38.6098333,54.7223333" id="Fill-3"></path>
                <path d="M51.8083333,35.3938333 C51.7516667,35.3938333 51.695,35.3888333 51.635,35.3755 C51.1866667,35.2821667 50.8966667,34.8405 50.9916667,34.3905 L51.1166667,33.8838333 C51.2716667,33.3571667 51.3466667,32.8088333 51.34,32.2455 C51.3016667,29.4538333 49.4366667,27.2638333 47.0916667,27.2638333 C46.6316667,27.2638333 46.255,26.8905 46.255,26.4305 C46.255,25.9705 46.6266667,25.5971667 47.0866667,25.5971667 L47.0916667,25.5971667 C50.36,25.5971667 52.9566667,28.5088333 53.0066667,32.2271667 C53.0133333,32.9571667 52.9166667,33.6688333 52.7166667,34.3471667 L52.6216667,34.7305 C52.54,35.1238333 52.1933333,35.3938333 51.8083333,35.3938333" id="Fill-5"></path>
            </g>
        </g>
    </g>
</svg>