<?xml version="1.0" encoding="UTF-8"?>
<svg width="125px" height="125px" viewBox="0 0 125 125" version="1.1" xmlns="http://www.w3.org/2000/svg" xmlns:xlink="http://www.w3.org/1999/xlink">
    <!-- Generator: Sketch 55.2 (78181) - https://sketchapp.com -->
    <title>circle icon - ecosystem</title>
    <desc>Created with Sketch.</desc>
    <g id="Assets-to-export" stroke="none" stroke-width="1" fill="none" fill-rule="evenodd">
        <g id="Artboard" transform="translate(-468.000000, -1557.000000)" fill="#FFFFFF">
            <g id="circle-icon---ecosystem" transform="translate(468.000000, 1557.000000)">
                <path d="M62.4509804,2.77800224 C29.5462527,2.77800224 2.77559913,29.5718339 2.77559913,62.5050505 C2.77559913,95.4382671 29.5462527,122.232099 62.4509804,122.232099 C95.3557081,122.232099 122.126362,95.4382671 122.126362,62.5050505 C122.126362,29.5718339 95.3557081,2.77800224 62.4509804,2.77800224 M62.4509804,125.010101 C28.014122,125.010101 0,96.9689464 0,62.5050505 C0,28.0411547 28.014122,0 62.4509804,0 C96.8878388,0 124.901961,28.0411547 124.901961,62.5050505 C124.901961,96.9689464 96.8878388,125.010101 62.4509804,125.010101" id="Fill-1"></path>
                <path d="M62.518705,57.0276635 C61.1198031,57.0276635 59.7181255,57.5638179 58.6467442,58.6333488 C56.5123085,60.7724105 56.5123085,64.2421353 58.6467442,66.381197 C59.7153499,67.4507279 61.1170275,67.9841043 62.518705,67.9841043 C63.9203826,67.9841043 65.3220601,67.4507279 66.3906658,66.381197 C68.5306527,64.2421353 68.5251015,60.7724105 66.3906658,58.6333488 C65.3220601,57.5638179 63.9231582,57.0276635 62.518705,57.0276635 M62.5214806,59.8056657 C63.2403608,59.8056657 63.917607,60.089022 64.4255416,60.5973964 C64.9362519,61.1085488 65.219363,61.7863813 65.219363,62.5086619 C65.219363,63.2281645 64.9362519,63.908775 64.4255416,64.4171495 C63.917607,64.9283019 63.2403608,65.2061021 62.518705,65.2061021 C61.7970492,65.2061021 61.1198031,64.9283019 60.6118684,64.4171495 C59.5599163,63.3642866 59.5599163,61.6502592 60.6118684,60.6001744 C61.1198031,60.089022 61.7998248,59.8056657 62.5214806,59.8056657" id="Fill-3"></path>
                <path d="M82.7231237,86.7175625 C82.3400911,86.7175625 81.9626096,86.5592163 81.6850497,86.2536361 C81.177115,85.6813676 81.2270758,84.8035189 81.7988492,84.2923665 C88.3326096,78.4641178 91.9325617,70.7301596 91.9325617,62.5100509 C91.9325617,54.2899423 88.3326096,46.550428 81.7960736,40.7194013 C81.2215246,40.2110269 81.1715638,39.3304002 81.6822741,38.7581317 C82.1929843,38.1886413 83.0700736,38.1386372 83.6418471,38.6470116 C90.7779124,45.0114148 94.7081608,53.4870996 94.7081608,62.5100509 C94.7081608,71.5330022 90.7779124,80.003131 83.6473983,86.3647562 C83.3809407,86.6008864 83.05342,86.7175625 82.7231237,86.7175625" id="Fill-5"></path>
                <path d="M72.1844514,77.6673868 C71.8014187,77.6673868 71.4239373,77.5090406 71.1491529,77.2034604 C70.6384427,76.6311919 70.6884035,75.7533432 71.2601769,75.2421908 C75.0849525,71.828026 77.1916322,67.3082164 77.1916322,62.5106065 C77.1916322,57.7102186 75.0821769,53.184853 71.2574013,49.7734662 C70.6828523,49.2623138 70.6328915,48.3872431 71.1436017,47.8121966 C71.654312,47.2399282 72.5314013,47.1899241 73.1031747,47.7010765 C77.5274797,51.6486177 79.9672314,56.907376 79.9672314,62.5106065 C79.9672314,68.111059 77.5302553,73.3698173 73.1087259,77.3145805 C72.8422684,77.5507107 72.5147477,77.6673868 72.1844514,77.6673868" id="Fill-7"></path>
                <path d="M42.178837,86.7175625 C41.8485407,86.7175625 41.52102,86.6008864 41.2545625,86.3647562 C34.1240484,80.003131 30.1938,71.5330022 30.1938,62.5100509 C30.1938,53.4870996 34.1240484,45.0114148 41.2601137,38.6470116 C41.8318871,38.1386372 42.7062009,38.1858633 43.2196867,38.7581317 C43.7303969,39.3304002 43.6804362,40.2110269 43.1058871,40.7194013 C36.5693512,46.550428 32.9693991,54.2899423 32.9693991,62.5100509 C32.9693991,70.7301596 36.5693512,78.4641178 43.1031115,84.2923665 C43.674885,84.8035189 43.7248458,85.6813676 43.2169111,86.2536361 C42.9393512,86.5592163 42.5618697,86.7175625 42.178837,86.7175625" id="Fill-9"></path>
                <path d="M52.7172318,77.6673868 C52.3869355,77.6673868 52.0594148,77.5507107 51.7929573,77.3145805 C47.3714279,73.3698173 44.9344519,68.111059 44.9344519,62.5106065 C44.9344519,56.907376 47.3742035,51.6486177 51.7985085,47.7010765 C52.3702819,47.1899241 53.2445956,47.2399282 53.7580815,47.8121966 C54.2687917,48.3872431 54.2188309,49.2623138 53.6442819,49.7734662 C49.8195063,53.184853 47.710051,57.7102186 47.710051,62.5106065 C47.710051,67.3082164 49.8167307,71.828026 53.6415063,75.2421908 C54.2132797,75.7533432 54.2632405,76.6311919 53.7525303,77.2034604 C53.477746,77.5090406 53.0974889,77.6673868 52.7172318,77.6673868" id="Fill-11"></path>
            </g>
        </g>
    </g>
</svg>