<?xml version="1.0" encoding="UTF-8"?>
<svg width="23px" height="16px" viewBox="0 0 23 16" version="1.1" xmlns="http://www.w3.org/2000/svg" xmlns:xlink="http://www.w3.org/1999/xlink">
    <!-- Generator: Sketch 55.2 (78181) - https://sketchapp.com -->
    <title>ico - youtube</title>
    <desc>Created with Sketch.</desc>
    <g id="Assets-to-export" stroke="none" stroke-width="1" fill="none" fill-rule="evenodd">
        <g id="Artboard" transform="translate(-1241.000000, -435.000000)" fill="#95A7BF" fill-rule="nonzero">
            <path d="M1263.51939,437.503459 C1264,439.289591 1264,443.016154 1264,443.016154 C1264,443.016154 1264,446.742757 1263.51939,448.52889 C1263.25486,449.514282 1262.4755,450.258057 1261.48594,450.521403 C1259.69227,451 1252.5,451 1252.5,451 C1252.5,451 1245.30773,451 1243.51406,450.521403 C1242.5245,450.258057 1241.74514,449.514282 1241.48061,448.52889 C1241,446.742757 1241,443.016154 1241,443.016154 C1241,443.016154 1241,439.289591 1241.48061,437.503459 C1241.74514,436.518026 1242.5245,435.741984 1243.51406,435.478597 C1245.30773,435 1252.5,435 1252.5,435 C1252.5,435 1259.69231,435 1261.48594,435.478597 C1262.4755,435.741943 1263.25486,436.518026 1263.51939,437.503459 Z M1250.14769,446.399618 L1256.15904,443.016235 L1250.14769,439.63269 L1250.14769,446.399618 Z" id="ico---youtube"></path>
        </g>
    </g>
</svg>