<?xml version="1.0" encoding="UTF-8"?>
<svg width="22px" height="18px" viewBox="0 0 22 18" version="1.1" xmlns="http://www.w3.org/2000/svg" xmlns:xlink="http://www.w3.org/1999/xlink">
    <!-- Generator: Sketch 55.2 (78181) - https://sketchapp.com -->
    <title>ico - twitter</title>
    <desc>Created with Sketch.</desc>
    <g id="Assets-to-export" stroke="none" stroke-width="1" fill="none" fill-rule="evenodd">
        <g id="Artboard" transform="translate(-1243.000000, -333.000000)" fill="#95A7BF" fill-rule="nonzero">
            <path d="M1262.73864,337.485913 C1262.75261,337.682772 1262.75261,337.879716 1262.75261,338.076575 C1262.75261,344.081225 1258.21582,351 1249.92387,351 C1247.36928,351 1244.99621,350.254666 1243,348.960983 C1243.36297,349.003128 1243.71192,349.017205 1244.08883,349.017205 C1246.19665,349.017205 1248.13705,348.300023 1249.68658,347.076596 C1247.70434,347.034367 1246.04316,345.726566 1245.4708,343.926553 C1245.75001,343.96874 1246.02918,343.996851 1246.32237,343.996851 C1246.72718,343.996851 1247.13202,343.940587 1247.50888,343.842179 C1245.44289,343.420265 1243.89337,341.592184 1243.89337,339.384376 L1243.89337,339.328155 C1244.49359,339.665652 1245.19162,339.876588 1245.93141,339.904656 C1244.71695,339.089024 1243.92131,337.696849 1243.92131,336.121848 C1243.92131,335.278105 1244.14459,334.50466 1244.53551,333.829666 C1246.75504,336.585907 1250.09138,338.385877 1253.83245,338.582779 C1253.76266,338.245281 1253.72079,337.89375 1253.72079,337.542177 C1253.72079,335.039059 1255.73097,333 1258.22967,333 C1259.52793,333 1260.70047,333.548433 1261.52413,334.434363 C1262.54313,334.237503 1263.52026,333.857819 1264.3858,333.337497 C1264.05074,334.392218 1263.33882,335.278148 1262.40357,335.840615 C1263.31095,335.742206 1264.19039,335.489041 1265,335.13751 C1264.38589,336.037474 1263.61807,336.839029 1262.73864,337.485913 Z" id="ico---twitter"></path>
        </g>
    </g>
</svg>