<?xml version="1.0" encoding="UTF-8"?>
<svg width="19px" height="19px" viewBox="0 0 19 19" version="1.1" xmlns="http://www.w3.org/2000/svg" xmlns:xlink="http://www.w3.org/1999/xlink">
    <!-- Generator: Sketch 55.2 (78181) - https://sketchapp.com -->
    <title>ico - medium</title>
    <desc>Created with Sketch.</desc>
    <g id="Assets-to-export" stroke="none" stroke-width="1" fill="none" fill-rule="evenodd">
        <g id="Artboard" transform="translate(-1246.000000, -479.000000)" fill="#95A7BF" fill-rule="nonzero">
            <path d="M1246,479 L1265,479 L1265,498 L1246,498 L1246,479 Z M1261.78528,483.49976 L1261.78528,483.287707 L1258.2567,483.287707 L1255.74175,489.560268 L1252.88325,483.283482 L1249.1808,483.283482 L1249.1808,483.49976 L1250.37253,484.9375 C1250.49131,485.043527 1250.55066,485.196189 1250.53372,485.353117 L1250.53372,490.993742 C1250.56764,491.197305 1250.50403,491.405134 1250.35981,491.553571 L1249.01965,493.177894 L1249.01965,493.394213 L1252.82812,493.394213 L1252.82812,493.177894 L1251.48796,491.553571 C1251.34375,491.405134 1251.27164,491.197305 1251.30134,490.993742 L1251.30134,486.11651 L1254.63907,493.394213 L1255.02499,493.394213 L1257.89198,486.11651 L1257.89198,491.922553 C1257.89198,492.075215 1257.89198,492.104911 1257.79018,492.206713 L1256.75961,493.207589 L1256.75961,493.415418 L1261.76407,493.415418 L1261.76407,493.199099 L1260.76742,492.223652 C1260.67833,492.160036 1260.63592,492.049785 1260.6529,491.939492 L1260.6529,484.759367 C1260.63592,484.65334 1260.67833,484.543089 1260.76742,484.475207 L1261.78528,483.49976 Z" id="ico---medium"></path>
        </g>
    </g>
</svg>