<?xml version="1.0" encoding="UTF-8"?>
<svg width="13px" height="13px" viewBox="0 0 13 13" version="1.1" xmlns="http://www.w3.org/2000/svg" xmlns:xlink="http://www.w3.org/1999/xlink">
    <!-- Generator: Sketch 55.2 (78181) - https://sketchapp.com -->
    <title>ico - left</title>
    <desc>Created with Sketch.</desc>
    <g id="Assets-to-export" stroke="none" stroke-width="1" fill="none" fill-rule="evenodd">
        <g id="Artboard" transform="translate(-1415.000000, -426.000000)" fill="#17054B" fill-rule="nonzero">
            <path d="M1421.32589,426.088235 C1421.40327,426.029412 1421.49033,426 1421.58705,426 C1421.68378,426 1421.76116,426.029412 1421.8192,426.088235 L1427.88393,432.264706 C1427.96131,432.323529 1428,432.401961 1428,432.5 C1428,432.598039 1427.96131,432.676471 1427.88393,432.735294 L1421.8192,438.911765 C1421.76116,438.970588 1421.68378,439 1421.58705,439 C1421.49033,439 1421.40327,438.970588 1421.32589,438.911765 L1420.74554,438.323529 C1420.6875,438.264706 1420.65848,438.186274 1420.65848,438.088235 C1420.65848,437.990196 1420.6875,437.901961 1420.74554,437.823529 L1425.2433,433.264706 L1415.34821,433.264706 C1415.25149,433.264706 1415.16927,433.230392 1415.10156,433.161765 C1415.03385,433.093137 1415,433.009804 1415,432.911765 L1415,432.088235 C1415,431.990196 1415.03385,431.906863 1415.10156,431.838235 C1415.16927,431.769608 1415.25149,431.735294 1415.34821,431.735294 L1425.2433,431.735294 L1420.74554,427.176471 C1420.6875,427.098039 1420.65848,427.009804 1420.65848,426.911765 C1420.65848,426.813726 1420.6875,426.735294 1420.74554,426.676471 L1421.32589,426.088235 Z" id="ico---left" transform="translate(1421.500000, 432.500000) scale(-1, 1) translate(-1421.500000, -432.500000) "></path>
        </g>
    </g>
</svg>