<svg xmlns="http://www.w3.org/2000/svg" width="737" height="527" viewBox="0 0 737 527">
  <g fill="none" fill-rule="evenodd" transform="translate(-1)">
    <g stroke="#7CB7FF" stroke-linecap="round" stroke-width=".298" transform="translate(210)">
      <path d="M15.1283912,205.31388 C9.64227129,187.691798 16.4583596,162.75489 36.2416404,139.480442 C48.7100946,124.850789 65.6671924,110.553628 86.7804416,96.9214511 C110.387382,81.7930599 138.316719,68.3271293 169.404732,57.6873817 C222.60347,39.0678233 278.295899,31.2542587 328.502208,33.7479495 C350.945426,34.9116719 371.227445,38.070347 389.015773,43.0577287 C404.809148,47.5463722 418.441325,53.1987382 429.413565,60.0148265"/>
      <path d="M299.076656 509.876656C304.230284 498.904416 309.05142 483.942271 314.205047 464.990221 321.68612 445.871924 329.000946 423.096215 336.648265 396.663091 345.126814 366.738801 353.605363 332.990852 359.590221 295.917981 365.741325 257.681388 368.06877 219.943533 368.401262 185.198107 368.9 153.943849 367.570032 126.347003 365.907571 102.407571 383.862145 88.2766562 398.325552 77.3044164 409.962776 69.8233438 418.607571 64.1709779 424.924921 60.5135647 429.247319 60.1810726M300.572871 519.685174C300.905363 522.511356 301.071609 523.841325 301.071609 523.675079 300.572871 521.51388 300.074132 517.025237 299.076656 509.876656M300.572871 519.685174C305.726498 523.841325 314.537539 522.677603 321.187382 515.19653"/>
      <path d="M15.1283912,205.31388 C4.9873817,219.278549 -0.664984227,239.89306 0.332492114,264.164984 C1.66246057,293.258044 11.80347,327.17224 30.7555205,361.917666 C47.0476341,391.509464 68.8258675,420.270032 94.7602524,445.373186 C107.893691,457.176656 122.024606,467.98265 136.488013,477.791167 C160.593691,496.078233 185.031861,509.377918 208.140063,517.523975 C227.25836,523.675079 245.37918,526.833754 261.837539,526.833754 C276.467192,526.833754 289.600631,524.340063 300.572871,519.85142 C319.026183,522.178864 341.635647,517.357729 365.076341,505.055521 C392.839432,490.425868 421.267508,466.320189 446.703155,434.400946 C474.632492,398.990536 496.410726,357.262776 509.377918,314.371293 C521.680126,274.305994 525.171293,236.734385 520.183912,206.311356 C516.194006,181.041956 505.886751,161.092429 492.587066,149.288959"/>
      <path d="M446.703155 434.2347C484.108517 391.176972 509.876656 340.471924 520.68265 292.759306 525.337539 271.646057 527 252.029022 525.503785 234.573186 524.173817 218.946057 520.350158 205.31388 514.531546 194.175394M20.448265 215.45489C31.7529968 204.981388 46.881388 194.175394 65.8334385 183.036909 88.1104101 169.737224 114.876025 156.437539 146.29653 144.135331 180.709464 130.503155 218.613565 119.364669 257.681388 112.216088 295.585489 105.4 331.162145 102.573817 363.247634 102.407571 391.343218 102.241325 415.615142 104.070032 435.730915 107.394953 452.688013 110.221136 466.320189 114.044795 476.461199 119.032177 491.090852 126.347003 496.743218 139.480442 492.753312 149.288959"/>
      <path d="M49.873817 268.98612C36.4078864 249.036593 26.5993691 231.082019 20.448265 215.45489 51.2037855 139.14795 114.876025 66.9971609 186.528076 27.4305994 216.28612 10.9722397 244.215457 1.99495268 267.988644.49873817 287.605678-.831230284 304.39653 3.65741325 315.867508 11.9697161M162.089905 389.015773C137.319243 369.232492 114.876025 347.952997 95.4252366 326.341009 77.3044164 306.391483 62.1760252 287.10694 50.0400631 268.98612M306.557729 265.827445C277.464669 266.492429 246.542902 266.824921 217.782334 267.323659 191.182965 267.656151 166.911041 267.822397 144.634069 268.15489 124.35205 268.321136 106.064984 268.487382 89.6066246 268.653628 74.8107256 268.819874 61.6772871 268.819874 50.0400631 268.98612"/>
      <path d="M368.567508 189.520505C347.620505 191.349211 324.844795 193.177918 300.406625 196.170347 274.305994 199.329022 247.540379 203.65142 221.273502 209.470032 196.336593 215.122397 173.062145 221.107256 151.78265 226.925868 132.165615 232.411987 114.211041 237.399369 98.0851735 242.386751 79.6318612 252.029022 63.6722397 260.840063 50.2063091 268.98612M300.572871 519.685174C295.751735 525.337539 286.109464 527 276.1347 522.34511 262.003785 515.529022 245.545426 499.901893 226.593375 476.793691 205.978864 454.184227 183.701893 425.091167 161.923659 389.182019"/>
      <path d="M33.2492114,387.85205 C31.2542587,380.537224 30.4230284,371.726183 30.7555205,361.917666 C30.7555205,344.46183 33.9141956,323.847319 40.0652997,300.572871 C47.2138801,273.973502 58.0198738,244.714196 73.4807571,214.291167 C94.5940063,164.916088 123.687066,119.530915 155.938801,82.6242902 C176.054574,60.0148265 196.170347,41.8940063 215.288644,28.2618297 C231.747003,16.4583596 247.04164,8.31230284 260.673817,3.98990536 C284.114511,-1.82870662 304.562776,1.82870662 315.867508,11.9697161"/>
      <path d="M20.448265,215.45489 C14.1309148,248.371609 12.4684543,281.454574 15.1283912,312.376341 C17.622082,340.970662 23.9394322,366.572555 33.0829653,388.018297 C36.7403785,390.179495 42.3927445,391.509464 49.3750789,392.340694 C53.6974763,391.343218 58.684858,390.013249 64.337224,388.350789 C73.4807571,384.194637 84.2867508,379.207256 96.9214511,373.222397 C111.384858,366.406309 127.843218,358.260252 146.462776,349.116719 C167.409779,338.809464 190.684227,327.17224 216.618612,314.038801 C245.212934,299.575394 276.1347,283.449527 306.225237,266.159937 C330.995899,258.346372 353.771609,250.8653 374.552366,244.215457 C393.670662,238.064353 410.960252,232.411987 426.753628,227.092114 C453.685489,218.281073 474.964984,210.966246 491.257098,205.31388 C503.226814,201.157729 511.206625,198.1653 515.695268,195.837855 C517.523975,194.840379 516.692744,194.175394 514.032808,194.507886"/>
      <path d="M321.353628,515.19653 C339.308202,507.549211 358.094006,496.078233 377.046057,480.783596 C414.617666,454.350473 449.030599,418.940063 475.463722,378.708517 C490.924606,354.935331 502.894322,330.829653 511.206625,307.555205 C520.68265,282.119558 525.005047,258.512618 525.005047,238.064353 C524.838801,220.608517 521.015142,205.480126 514.3653,194.175394"/>
      <path d="M321.353628 515.19653C327.504732 509.045426 333.323344 499.901893 339.308202 488.098423 346.456782 473.801262 353.605363 456.012934 360.587697 434.899685 385.857098 395.166877 409.464038 346.623028 425.589905 292.925552 433.569716 255.520189 437.227129 219.112303 437.892114 185.530599 438.390852 155.606309 436.562145 129.173186 432.738486 106.896215 429.413565 89.9391167 425.091167 75.4757098 419.937539 63.8384858 415.116404 51.8687697 408.9653 43.0577287 401.982965 38.9015773 395.998107 35.4104101 389.015773 35.077918 382.864669 37.2391167M250.8653 113.546057C258.678864 133.163091 267.323659 155.107571 276.467192 179.379495 286.441956 205.978864 297.24795 235.071924 306.391483 265.827445 308.718927 300.074132 308.885174 331.827129 309.217666 360.587697 309.550158 386.355836 309.383912 409.464038 309.217666 429.746057 311.212618 442.713249 312.875079 454.350473 314.205047 464.990221 316.366246 477.957413 318.028707 488.929653 319.192429 498.073186 320.356151 505.388013 320.85489 511.040379 321.187382 515.362776M15.1283912 205.31388C12.9671924 187.858044 17.1233438 166.744795 28.0955836 145.299054 41.062776 120.195899 62.8410095 94.7602524 91.7678233 72.1507886 131.334385 41.062776 179.878233 18.4533123 228.92082 8.31230284 239.726814 6.1511041 250.200315 4.65488959 260.673817 3.82365931 277.464669 2.32744479 293.258044 2.49369085 308.053943 4.32239748 341.136909 8.31230284 367.403785 20.7807571 382.698423 37.2391167"/>
      <path d="M15.1283912,205.31388 C11.3047319,204.316404 8.31230284,203.65142 7.3148265,202.820189 C6.98233438,202.487697 10.1410095,202.653943 14.7958991,203.485174 C19.9495268,204.316404 26.9318612,205.480126 35.4104101,207.142587 C45.8839117,209.137539 58.684858,211.464984 73.4807571,214.457413"/>
      <path d="M15.1283912 205.31388C10.4735016 197.666562 9.80851735 187.026814 15.2946372 177.717035 22.6094637 165.24858 38.7353312 152.946372 61.6772871 141.309148M382.698423 37.4053628C403.47918 39.4003155 427.252366 53.0324921 448.033123 76.8056782 473.46877 106.23123 493.917035 149.455205 504.889274 200.160252 512.536593 235.736909 514.697792 272.643533 511.372871 307.555205 508.712934 344.960568 500.068139 377.378549 486.768454 401.982965 475.629968 422.763722 461.166562 437.559621 446.03817 445.040694M48.5438486 183.535647C62.3422713 202.653943 81.6268139 225.595899 107.228707 252.361514 138.150473 284.613249 175.722082 321.021136 221.273502 353.439117 243.550473 369.398738 265.494953 383.197161 286.441956 395.499369 305.726498 406.637855 323.681073 416.446372 340.139432 424.924921 368.235016 439.222082 391.343218 449.196845 409.630284 455.015457 423.428707 458.672871 434.2347 460.002839 440.718297 457.342902 445.373186 455.514196 447.201893 450.194322 446.204416 445.20694"/>
      <path d="M382.698423,37.4053628 C377.212303,25.4356467 362.083912,16.1258675 341.968139,15.4608833 C327.504732,14.2971609 310.71388,15.6271293 291.928076,19.6170347 C272.477287,23.9394322 251.364038,30.9217666 229.087066,41.062776 C204.815142,51.8687697 180.210726,65.8334385 155.938801,82.7905363 C112.54858,112.049842 75.8082019,147.460252 48.5438486,183.701893 C46.2164038,210.301262 46.5488959,239.228076 50.0400631,269.152366 C55.3599369,308.885174 65.8334385,348.119243 80.4630915,383.695899 C93.9290221,416.778864 110.05489,444.708202 127.178233,466.818927 C141.807886,485.770978 156.770032,499.735647 171.067192,508.380442 C183.036909,515.529022 195.172871,518.521451 205.31388,517.523975"/>
      <path d="M124.019558,39.7328076 C122.024606,39.0678233 128.674448,48.5438486 136.321767,61.344795 C142.971609,68.1608833 150.618927,76.6394322 159.429968,86.6141956 C169.737224,98.2514196 181.374448,111.551104 194.507886,127.011987 C209.303785,144.301577 225.762145,163.918612 244.049211,186.029338 C264.164984,210.467508 285.943218,237.233123 306.391483,265.993691 C296.416719,300.074132 284.447003,331.494637 273.641009,359.922713 C263.998738,385.524606 255.021451,408.134069 247.04164,428.249842 C239.89306,445.871924 233.57571,461.332808 227.757098,474.466246 C222.769716,485.770978 218.613565,495.080757 214.623659,502.728076 C211.63123,510.874132 209.303785,516.526498 207.308833,519.352681 C206.477603,520.68265 205.31388,519.685174 205.480126,517.357729"/>
      <path d="M48.5438486,183.535647 C52.2012618,168.739748 56.6899054,154.608833 61.6772871,141.142902 C64.8359621,128.674448 68.3271293,117.20347 72.4832808,106.729968 C87.1129338,74.3119874 105.4,51.2037855 124.185804,39.7328076 C127.011987,37.7378549 132.331861,38.2365931 138.482965,40.3977918 C146.961514,43.3902208 157.26877,49.2088328 169.570978,57.5211356 C192.014196,70.155836 219.112303,88.6091483 251.031546,113.379811 C282.784543,136.986751 317.03123,165.24858 349.116719,199.162776 C380.537224,232.079495 405.806625,265.162461 426.421136,294.754259 C440.053312,314.537539 451.358044,332.325868 460.335331,348.119243 C467.98265,361.585174 473.801262,373.388644 477.791167,383.695899 C483.443533,398.658044 484.108517,410.794006 478.95489,414.45142"/>
      <path d="M429.413565 60.1810726C444.043218 74.4782334 457.675394 93.2640379 469.64511 116.039748 484.441009 141.475394 496.576972 170.069716 504.723028 200.160252 515.030284 237.233123 519.020189 273.973502 516.858991 307.555205 512.204101 352.275394 498.405678 389.847003 478.622397 414.617666M124.019558 39.7328076C140.976656 29.0930599 161.923659 20.614511 186.029338 14.9621451 212.129968 8.81104101 241.056782 6.48359621 270.814826 7.97981073 331.660883 11.3047319 388.683281 30.7555205 429.413565 60.1810726"/>
      <path d="M492.587066 149.122713C489.428391 123.188328 470.310095 93.2640379 437.393375 68.4933754 420.935016 55.8586751 401.650473 44.3876972 380.038486 35.077918 318.028707 8.31230284 247.04164.997476341 187.691798 13.9646688 162.089905 19.6170347 140.145426 28.7605678 123.52082 40.3977918 109.057413 50.7050473 98.4176656 62.8410095 92.5990536 75.4757098M478.622397 414.617666C471.972555 427.584858 455.680442 439.388328 432.57224 447.866877 418.441325 453.020505 401.982965 457.342902 383.197161 460.169085 362.416404 463.494006 339.308202 465.156467 314.205047 464.990221 268.321136 463.826498 219.611041 455.514196 173.394637 440.385804 130.004416 426.088644 93.2640379 407.635331 64.50347 388.018297 42.2264984 373.55489 25.7681388 358.925237 16.1258675 344.628076 8.4785489 333.323344 5.48611987 321.68612 7.48107256 312.376341"/>
      <path d="M162.089905 389.015773C121.193375 378.708517 87.4454259 366.572555 60.8460568 353.937855 38.7353312 346.623028 22.6094637 339.141956 13.4659306 330.829653 6.98233438 325.011041 4.9873817 317.529968 7.48107256 312.542587M162.089905 389.015773C195.339117 403.146688 230.749527 414.45142 266.492429 422.264984 300.406625 429.579811 331.993375 433.40347 360.421451 434.899685 379.539748 436.894637 396.829338 437.725868 411.957729 437.559621 425.257413 437.393375 436.894637 436.229653 446.703155 434.2347 463.32776 430.244795 474.964984 423.096215 478.622397 414.617666"/>
      <path d="M205.31388 517.357729C214.789905 522.677603 227.25836 525.337539 241.555521 524.672555 258.346372 524.007571 277.963407 519.020189 299.076656 509.876656 312.043849 504.22429 325.343533 496.909464 339.141956 488.264669 376.547319 464.990221 413.287697 432.738486 444.37571 393.670662 474.632492 355.766562 496.244479 315.867508 508.712934 279.127129M452.521767 81.4605678C464.657729 91.1028391 475.796215 105.732492 484.773502 124.185804 494.582019 144.966562 501.564353 170.7347 504.723028 200.326498 508.87918 225.762145 510.375394 252.361514 508.87918 279.127129M452.521767 81.4605678C431.907256 56.0249211 397.99306 33.7479495 355.434069 19.6170347 309.217666 4.15615142 257.847634-4.4408921e-16 210.633754 7.64731861M205.31388 517.357729C203.65142 520.017666 200.991483 517.856467 200.658991 511.040379 200.326498 505.388013 200.492744 498.239432 200.825237 489.095899 201.323975 477.957413 202.321451 464.823975 203.65142 449.196845 204.48265 436.063407 205.812618 421.433754 207.308833 405.307886 208.971293 387.685804 210.8 368.235016 213.127445 347.121767 218.114826 292.094322 227.092114 230.583281 238.563091 175.057098 243.550473 150.785174 248.537855 129.00694 253.026498 109.223659 257.016404 91.4353312 261.006309 75.8082019 264.33123 61.8435331M7.48107256 312.542587C2.32744479 300.240379-1.22124533e-15 284.945741.664984227 267.656151 1.49621451 248.205363 6.1511041 226.427129 14.7958991 203.485174 27.0981073 170.7347 46.715142 137.319243 72.4832808 106.729968 99.7476341 74.3119874 131.833123 47.5463722 164.916088 28.7605678 180.543218 19.4507886 195.837855 12.4684543 210.633754 7.64731861M13.9646688 287.605678C4.15615142 298.07918 2.16119874 308.718927 7.48107256 312.542587"/>
      <path d="M20.448265 215.45489C9.47602524 239.89306 3.32492114 262.502524 2.16119874 282.119558.997476341 294.089274 2.82618297 304.895268 7.48107256 312.542587M452.521767 81.4605678C448.531861 72.8157729 436.395899 66.3321767 419.771293 64.0047319 411.292744 63.6722397 401.317981 64.337224 389.847003 65.9996845 376.879811 67.9946372 362.250158 71.1533123 346.12429 75.4757098 324.844795 79.6318612 301.570347 85.4504732 276.799685 93.762776 250.034069 102.573817 222.270978 113.712303 195.006625 127.510726 146.629022 153.44511 105.732492 184.533123 73.4807571 214.291167 58.3523659 228.92082 45.5514196 242.885489 35.244164 255.852681 26.1006309 267.323659 19.1182965 277.963407 13.9646688 287.605678M133.66183 487.765931C141.807886 499.901893 161.258675 507.549211 186.694322 506.385489 202.820189 505.720505 221.439748 502.063091 242.220505 495.579495 265.661199 488.264669 291.263091 477.458675 317.696215 462.829022 351.111672 443.544479 383.862145 418.940063 413.453943 390.511987 442.048265 362.915142 465.322713 334.154574 482.944795 306.225237M133.66183 487.765931C132.165615 490.093375 130.835647 490.924606 130.835647 490.425868 131.334385 488.098423 133.329338 484.108517 136.488013 477.624921 137.984227 468.980126 140.81041 458.174132 144.467823 445.040694 148.956467 429.247319 154.775079 410.62776 161.923659 389.015773"/>
      <path d="M155.938801 82.6242902C183.369401 89.1078864 215.122397 99.0826498 250.8653 113.546057 301.902839 139.646688 353.937855 174.890852 397.826814 214.789905 417.610095 232.744479 434.899685 250.034069 449.529338 266.326183 462.662776 280.78959 473.801262 294.089274 482.778549 306.391483M92.5990536 75.6419558C90.4378549 66.6646688 96.0902208 57.1886435 107.561199 56.6899054 115.208517 56.3574132 124.850789 58.0198738 136.488013 61.344795M92.5990536 75.6419558C84.2867508 75.8082019 75.4757098 79.133123 68.8258675 85.9492114 60.8460568 93.9290221 54.8611987 107.062461 51.5362776 123.853312"/>
      <path d="M92.5990536 75.6419558C76.6394322 81.1280757 60.3473186 93.9290221 47.2138801 113.047319 31.5867508 135.823028 20.1157729 167.077287 14.629653 203.65142 7.48107256 254.356467 12.9671924 310.547634 30.7555205 361.75142 43.0577287 397.99306 60.3473186 428.582334 80.2968454 451.025552 97.2539432 470.143849 116.039748 482.612303 133.66183 487.599685M210.633754 7.64731861C216.452366 7.48107256 222.60347 7.64731861 229.087066 8.31230284 248.371609 9.14353312 269.651104 12.8009464 291.928076 19.4507886 339.80694 35.9091483 389.680757 66.1659306 432.57224 106.896215 463.992744 136.820505 488.430915 168.905994 504.723028 200.160252 518.188959 224.099685 525.670032 246.376656 526.833754 265.162461 527.83123 280.78959 523.841325 294.255521 516.858991 303.5653M133.66183 487.765931C146.462776 500.733123 166.744795 510.707886 192.346688 515.362776 222.769716 521.015142 259.676341 519.352681 299.242902 510.042902 325.509779 503.559306 351.942902 493.917035 377.212303 481.116088 402.814196 467.98265 426.421136 452.023028 446.869401 434.567192 475.796215 410.62776 496.743218 384.693375 508.380442 360.088959 517.856467 339.640694 520.516404 319.857413 516.858991 304.064038"/>
      <path d="M133.66183,487.765931 C126.845741,487.932177 119.530915,485.105994 113.379811,479.121136 C105.898738,471.972555 99.7476341,460.335331 94.7602524,445.373186 C92.2665615,433.902208 90.770347,420.103785 90.4378549,404.31041 C87.777918,383.862145 86.7804416,360.421451 87.6116719,334.653312 C88.4429022,306.391483 91.4353312,276.300946 97.4201893,245.046688 C103.571293,213.459937 112.382334,182.704416 123.022082,153.943849 C132.996845,127.178233 144.467823,103.238801 155.938801,82.6242902 C160.427445,73.6470032 165.082334,65.3347003 169.404732,57.6873817 C183.535647,33.0829653 197.334069,15.7933754 210.467508,7.64731861"/>
      <path d="M508.87918 279.127129C502.063091 287.771924 493.418297 296.915457 482.944795 306.391483 468.647634 314.205047 451.358044 322.51735 431.408517 330.829653 408.632808 340.471924 382.698423 350.114196 353.605363 358.925237 322.018612 368.567508 288.270662 376.547319 254.023975 381.368454 221.107256 386.18959 190.185489 388.184543 162.256151 389.015773 131.833123 390.844479 105.732492 391.010726 84.1205047 389.680757 66.3321767 388.683281 52.0350158 386.688328 41.2290221 383.529653 26.9318612 379.207256 21.4457413 368.9 25.7681388 361.917666M228.92082 11.3047319C215.45489 7.97981073 199.495268 8.31230284 182.53817 12.9671924 162.921136 18.2870662 142.140379 29.0930599 121.692114 44.8864353 74.3119874 81.6268139 34.4129338 139.646688 14.629653 203.65142 6.1511041 231.082019 1.99495268 257.847634 2.16119874 281.953312 2.32744479 315.867508 11.1384858 343.963091 25.4356467 361.917666"/>
      <path d="M366.073817 102.407571C340.139432 64.8359621 314.870032 37.0728707 291.928076 19.4507886 280.78959 12.1359621 270.316088 6.98233438 260.673817 3.82365931 247.207886-2.16119874 234.40694 2.16119874 228.92082 11.3047319 219.278549 5.65236593 205.480126 4.48864353 191.681703 10.4735016 174.059621 18.1208202 155.107571 35.5766562 136.321767 61.344795 124.019558 79.133123 112.216088 100.578864 101.576341 125.349527 89.9391167 152.281388 80.1305994 182.205678 73.314511 214.124921 60.3473186 268.15489 57.3548896 320.688644 61.6772871 365.575079 63.5059937 385.192114 66.6646688 402.64795 70.9870662 417.776341 74.8107256 431.242271 79.4656151 442.713249 84.951735 451.856782M508.87918 279.127129C499.403155 254.522713 483.443533 226.759621 461.000315 197.167823 435.564669 163.752366 403.312934 130.835647 366.073817 102.407571"/>
      <path d="M471.307571 212.129968C450.859306 190.684227 425.423659 168.407256 395.166877 147.12776 362.915142 124.185804 327.17224 104.735016 290.930599 89.2741325 267.656151 80.1305994 245.212934 73.148265 223.933438 67.8283912 204.316404 63.0072555 186.029338 59.6823344 169.570978 57.6873817M508.87918 279.127129C497.740694 268.321136 481.947319 256.185174 461.332808 242.552997 436.395899 226.094637 405.640379 207.807571 368.567508 189.686751"/>
      <path d="M484.441009 136.820505C474.632492 144.135331 459.337855 154.608833 437.725868 169.07224 418.108833 174.55836 395.000631 181.540694 368.567508 189.686751M516.692744 303.731546C522.34511 305.22776 523.010095 307.555205 516.692744 307.721451 509.045426 307.887697 497.90694 307.388959 482.778549 306.391483 467.15142 302.734069 448.033123 298.245426 425.257413 293.091798 409.630284 289.434385 392.340694 285.610726 373.388644 281.288328 352.774132 276.633438 330.497161 271.479811 306.225237 266.159937 278.794637 292.759306 250.034069 316.698738 224.099685 338.310726 200.825237 357.595268 180.044479 374.552366 161.757413 389.348265 140.145426 408.134069 122.523344 423.096215 108.392429 434.567192 97.7526814 443.211987 90.1053628 449.196845 84.785489 452.355521"/>
      <path d="M522.178864 240.558044C517.025237 246.542902 507.382965 253.026498 494.083281 260.507571 476.627445 270.149842 453.851735 280.955836 425.423659 293.091798M226.759621 476.627445C251.862776 465.488959 279.792114 450.028076 309.217666 429.912303 352.774132 392.008202 393.836909 344.129338 425.423659 292.925552M516.692744 303.731546C523.508833 317.03123 518.521451 338.476972 500.068139 357.92776 487.932177 370.728707 470.808833 383.695899 449.363091 396.164353 424.426183 410.62776 394.668139 424.093691 360.255205 435.065931"/>
      <path d="M228.92082,11.3047319 C238.563091,5.81861199 250.366562,1.99495268 263.832492,0.664984227 C278.794637,-0.664984227 295.751735,0.831230284 313.872555,5.65236593 C355.766562,16.9570978 401.317981,43.7227129 440.55205,83.1230284 C480.284858,122.855836 508.214196,169.570978 520.350158,213.459937 C525.670032,232.578233 527.664984,250.532808 526.667508,266.492429 C525.836278,280.78959 522.178864,293.42429 516.692744,303.731546"/>
      <path d="M264.33123 62.1760252C272.809779 46.881388 280.457098 34.4129338 287.439432 24.6044164 293.091798 16.6246057 298.07918 10.6397476 302.567823 7.14858044 308.220189 2.65993691 314.371293 5.81861199 315.701262 11.9697161M482.944795 306.391483C482.279811 261.671293 474.3 214.457413 459.337855 169.737224 445.20694 127.676972 426.421136 91.9340694 405.972871 64.337224 388.849527 41.2290221 371.061199 24.9369085 354.104101 16.6246057 340.305678 9.80851735 326.673502 8.4785489 315.867508 11.9697161M482.944795 306.391483C478.456151 348.784227 468.315142 386.854574 454.516719 418.275079 442.713249 445.040694 428.74858 465.655205 413.620189 478.95489M85.1179811 452.023028C64.1709779 426.25489 46.3826498 391.176972 34.4129338 349.94795 21.6119874 306.058991 16.9570978 259.510095 20.614511 215.45489 20.9470032 180.709464 27.0981073 151.117666 37.7378549 129.173186 42.7252366 118.367192 49.2088328 109.888644 56.5236593 104.236278"/>
      <path d="M413.620189,478.788644 C406.305363,480.451104 395.166877,477.126183 380.869716,470.975079 C361.585174,462.49653 337.811987,448.864353 309.217666,429.912303 C280.290852,408.134069 247.207886,381.368454 212.961199,347.454259 C181.70694,315.36877 154.775079,280.955836 132.331861,248.371609 C112.54858,219.943533 96.588959,194.674132 84.2867508,172.563407 C68.1608833,151.948896 57.0223975,135.989274 51.3700315,123.853312 C48.3776025,113.379811 51.0375394,105.067508 56.3574132,104.236278"/>
      <path d="M413.620189,478.788644 C405.14164,482.279811 393.171924,482.778549 378.542271,481.116088 C360.587697,478.95489 338.97571,473.635016 314.205047,464.657729 C263.998738,476.461199 214.789905,479.453628 171.732177,475.297476 C135.32429,471.806309 105.732492,463.660252 85.1179811,452.023028"/>
      <path d="M299.076656 509.876656C344.960568 507.216719 384.693375 495.911987 413.620189 478.788644 429.912303 469.811356 441.050789 457.675394 446.03817 445.20694M214.623659 502.56183C243.217981 508.380442 271.812303 510.707886 299.242902 509.876656M165.581073 474.632492C210.966246 495.745741 257.348896 507.382965 299.076656 509.876656"/>
      <path d="M25.6018927,361.917666 C26.5993691,379.041009 35.244164,398.82429 51.2037855,417.443849 C70.4883281,439.887066 99.7476341,461.000315 136.488013,477.458675 C160.593691,488.430915 187.026814,497.07571 214.623659,502.728076"/>
      <path d="M25.6018927,361.917666 C25.2694006,373.887382 29.7580442,387.685804 39.5665615,400.652997 C51.2037855,416.446372 70.155836,431.741009 94.9264984,445.20694 C131.666877,465.987697 178.714511,481.614826 230.749527,488.264669 C283.449527,495.080757 334.32082,491.755836 377.212303,480.783596"/>
      <path d="M25.6018927 361.917666C24.2719243 380.370978 37.9041009 403.811672 64.8359621 422.929968 81.959306 435.065931 103.737539 446.03817 129.671924 455.34795 158.598738 465.655205 191.515457 473.136278 226.759621 476.793691M264.33123 62.1760252C279.625868 76.8056782 296.084227 94.2615142 313.207571 114.543533 331.993375 136.820505 351.111672 161.923659 368.401262 189.686751 392.50694 225.263407 411.292744 261.505047 426.088644 295.086751 434.068454 336.814511 437.060883 373.222397 436.395899 403.47918 441.217035 415.615142 444.541956 425.922397 446.536909 434.400946 450.194322 440.55205 452.688013 444.874448 452.189274 447.035647 451.856782 448.199369 448.864353 447.201893 445.871924 445.373186"/>
      <path d="M25.6018927,361.917666 C15.4608833,356.099054 9.97476341,340.305678 14.1309148,321.021136 C16.7908517,308.220189 22.7757098,293.42429 31.5867508,276.965931 C41.8940063,257.681388 55.8586751,236.568139 73.6470032,214.124921 C87.777918,193.842902 104.402524,173.394637 123.188328,153.777603 C167.243533,114.211041 216.951104,83.1230284 264.497476,62.0097792 C296.416719,64.50347 327.837224,69.9895899 357.595268,78.3018927 C385.690852,86.1154574 410.794006,95.9239748 432.738486,106.729968 C454.017981,116.039748 471.473817,126.014511 484.607256,136.654259 C505.554259,156.271293 516.02776,177.550789 514.531546,194.175394"/>
      <path d="M419.771293,64.0047319 C450.526814,84.785489 474.964984,108.891167 491.423344,133.495584 C505.554259,154.608833 513.367823,175.888328 514.3653,194.34164"/>
      <path d="M56.5236593,104.236278 C61.344795,94.0952681 69.4908517,84.1205047 80.4630915,74.9769716 C92.9315457,64.50347 109.057413,55.1936909 128.341956,47.5463722 C153.943849,37.4053628 184.366877,30.4230284 218.114826,27.7630915 C253.857729,24.7706625 290.930599,26.9318612 326.839748,33.9141956 C362.083912,40.0652997 393.836909,50.7050473 420.103785,64.1709779 C445.20694,77.3044164 464.491483,92.5990536 476.959937,108.558675 C487.433438,122.024606 492.753312,136.488013 492.919558,149.288959"/>
      <path d="M264.33123,62.1760252 C239.560568,58.518612 215.621136,56.8561514 193.344164,57.0223975 C172.563407,57.0223975 153.44511,58.684858 136.488013,61.511041 C119.032177,63.6722397 104.070032,67.329653 91.9340694,72.3170347 C73.314511,80.6293375 60.8460568,92.2665615 56.5236593,104.402524"/>
    </g>
    <polyline stroke="#75828F" stroke-linecap="round" points="154.562 440.5 210.5 440.5 256.367 412.126"/>
    <path fill="#7CB7FF" fill-rule="nonzero" d="M1.22,446 L1.22,436.228 L5.42,436.228 C6.32533786,436.228 7.02533086,436.493997 7.52,437.026 C8.01466914,437.558003 8.262,438.271996 8.262,439.168 C8.262,440.064004 8.01466914,440.777997 7.52,441.31 C7.02533086,441.842003 6.32533786,442.108 5.42,442.108 L2.802,442.108 L2.802,446 L1.22,446 Z M2.802,440.722 L5.322,440.722 C5.72333534,440.722 6.03599888,440.617001 6.26,440.407 C6.48400112,440.196999 6.596,439.896002 6.596,439.504 L6.596,438.832 C6.596,438.439998 6.48400112,438.139001 6.26,437.929 C6.03599888,437.718999 5.72333534,437.614 5.322,437.614 L2.802,437.614 L2.802,440.722 Z M11.58,446 L9.998,446 L9.998,436.228 L14.212,436.228 C15.0893377,436.228 15.7799975,436.491664 16.284,437.019 C16.7880025,437.546336 17.04,438.262662 17.04,439.168 C17.04,439.868003 16.8790016,440.448998 16.557,440.911 C16.2349984,441.373002 15.7613365,441.697332 15.136,441.884 L17.25,446 L15.486,446 L13.526,442.052 L11.58,442.052 L11.58,446 Z M14.1,440.722 C14.5013353,440.722 14.8139989,440.617001 15.038,440.407 C15.2620011,440.196999 15.374,439.896002 15.374,439.504 L15.374,438.832 C15.374,438.439998 15.2620011,438.139001 15.038,437.929 C14.8139989,437.718999 14.5013353,437.614 14.1,437.614 L11.58,437.614 L11.58,440.722 L14.1,440.722 Z M18.748,446 L18.748,444.712 L20.078,444.712 L20.078,437.516 L18.748,437.516 L18.748,436.228 L23.004,436.228 L23.004,437.516 L21.66,437.516 L21.66,444.712 L23.004,444.712 L23.004,446 L18.748,446 Z M27.246,446 L24.04,436.228 L25.678,436.228 L27.232,441.058 L28.17,444.46 L28.226,444.46 L29.178,441.058 L30.732,436.228 L32.328,436.228 L29.08,446 L27.246,446 Z M39.888,446 L39.006,443.354 L35.352,443.354 L34.498,446 L32.888,446 L36.22,436.228 L38.208,436.228 L41.54,446 L39.888,446 Z M37.214,437.684 L37.144,437.684 L35.73,441.996 L38.614,441.996 L37.214,437.684 Z M46.678,437.628 L46.678,446 L45.096,446 L45.096,437.628 L42.184,437.628 L42.184,436.228 L49.59,436.228 L49.59,437.628 L46.678,437.628 Z M51.13,446 L51.13,436.228 L57.388,436.228 L57.388,437.628 L52.712,437.628 L52.712,440.344 L56.954,440.344 L56.954,441.744 L52.712,441.744 L52.712,444.6 L57.388,444.6 L57.388,446 L51.13,446 Z M62.736,436.228 L67.062,436.228 C67.8740041,436.228 68.5109977,436.456664 68.973,436.914 C69.4350023,437.371336 69.666,437.982663 69.666,438.748 C69.666,439.112002 69.6146672,439.422332 69.512,439.679 C69.4093328,439.935668 69.2786675,440.145666 69.12,440.309 C68.9613325,440.472334 68.7793344,440.593666 68.574,440.673 C68.3686656,440.752334 68.168001,440.801333 67.972,440.82 L67.972,440.904 C68.168001,440.913333 68.3849988,440.96 68.623,441.044 C68.8610012,441.128 69.0826656,441.260999 69.288,441.443 C69.4933344,441.625001 69.6659993,441.858332 69.806,442.143 C69.9460007,442.427668 70.016,442.775331 70.016,443.186 C70.016,443.578002 69.9530006,443.946665 69.827,444.292 C69.7009994,444.637335 69.5260011,444.935999 69.302,445.188 C69.0779989,445.440001 68.8120015,445.638333 68.504,445.783 C68.1959985,445.927667 67.8600018,446 67.496,446 L62.736,446 L62.736,436.228 Z M64.318,444.642 L67.034,444.642 C67.4446687,444.642 67.7666655,444.534668 68,444.32 C68.2333345,444.105332 68.35,443.797335 68.35,443.396 L68.35,442.92 C68.35,442.518665 68.2333345,442.210668 68,441.996 C67.7666655,441.781332 67.4446687,441.674 67.034,441.674 L64.318,441.674 L64.318,444.642 Z M64.318,440.358 L66.768,440.358 C67.160002,440.358 67.4633323,440.257668 67.678,440.057 C67.8926677,439.856332 68,439.569335 68,439.196 L68,438.748 C68,438.374665 67.8926677,438.087668 67.678,437.887 C67.4633323,437.686332 67.160002,437.586 66.768,437.586 L64.318,437.586 L64.318,440.358 Z M71.962,446 L71.962,436.228 L73.544,436.228 L73.544,444.6 L77.52,444.6 L77.52,446 L71.962,446 Z M82.924,446.168 C82.2893302,446.168 81.7130026,446.058334 81.195,445.839 C80.6769974,445.619666 80.2336685,445.297669 79.865,444.873 C79.4963315,444.448331 79.2116677,443.921003 79.011,443.291 C78.8103323,442.660997 78.71,441.935337 78.71,441.114 C78.71,440.292663 78.8103323,439.567003 79.011,438.937 C79.2116677,438.306997 79.4963315,437.779669 79.865,437.355 C80.2336685,436.930331 80.6769974,436.608334 81.195,436.389 C81.7130026,436.169666 82.2893302,436.06 82.924,436.06 C83.5586698,436.06 84.1349974,436.169666 84.653,436.389 C85.1710026,436.608334 85.6143315,436.930331 85.983,437.355 C86.3516685,437.779669 86.6363323,438.306997 86.837,438.937 C87.0376677,439.567003 87.138,440.292663 87.138,441.114 C87.138,441.935337 87.0376677,442.660997 86.837,443.291 C86.6363323,443.921003 86.3516685,444.448331 85.983,444.873 C85.6143315,445.297669 85.1710026,445.619666 84.653,445.839 C84.1349974,446.058334 83.5586698,446.168 82.924,446.168 Z M82.924,444.754 C83.2973352,444.754 83.6403318,444.688667 83.953,444.558 C84.2656682,444.427333 84.5316656,444.238335 84.751,443.991 C84.9703344,443.743665 85.1406661,443.442668 85.262,443.088 C85.3833339,442.733332 85.444,442.332002 85.444,441.884 L85.444,440.344 C85.444,439.895998 85.3833339,439.494668 85.262,439.14 C85.1406661,438.785332 84.9703344,438.484335 84.751,438.237 C84.5316656,437.989665 84.2656682,437.800667 83.953,437.67 C83.6403318,437.539333 83.2973352,437.474 82.924,437.474 C82.5413314,437.474 82.1960015,437.539333 81.888,437.67 C81.5799985,437.800667 81.3163344,437.989665 81.097,438.237 C80.8776656,438.484335 80.7073339,438.785332 80.586,439.14 C80.4646661,439.494668 80.404,439.895998 80.404,440.344 L80.404,441.884 C80.404,442.332002 80.4646661,442.733332 80.586,443.088 C80.7073339,443.442668 80.8776656,443.743665 81.097,443.991 C81.3163344,444.238335 81.5799985,444.427333 81.888,444.558 C82.1960015,444.688667 82.5413314,444.754 82.924,444.754 Z M92.78,446.168 C91.5013269,446.168 90.4980036,445.736338 89.77,444.873 C89.0419964,444.009662 88.678,442.756675 88.678,441.114 C88.678,440.292663 88.7713324,439.569336 88.958,438.944 C89.1446676,438.318664 89.4153316,437.791335 89.77,437.362 C90.1246684,436.932665 90.5563308,436.608334 91.065,436.389 C91.5736692,436.169666 92.1453302,436.06 92.78,436.06 C93.6293376,436.06 94.3409971,436.246665 94.915,436.62 C95.4890029,436.993335 95.9393317,437.543996 96.266,438.272 L94.936,439 C94.7679992,438.533331 94.5090017,438.162335 94.159,437.887 C93.8089983,437.611665 93.3493362,437.474 92.78,437.474 C92.0239962,437.474 91.4313355,437.730664 91.002,438.244 C90.5726645,438.757336 90.358,439.466662 90.358,440.372 L90.358,441.856 C90.358,442.761338 90.5726645,443.470664 91.002,443.984 C91.4313355,444.497336 92.0239962,444.754 92.78,444.754 C93.3680029,444.754 93.8463315,444.602335 94.215,444.299 C94.5836685,443.995665 94.8566658,443.606002 95.034,443.13 L96.308,443.9 C95.9813317,444.609337 95.5240029,445.164665 94.936,445.566 C94.3479971,445.967335 93.6293376,446.168 92.78,446.168 Z M100.914,441.436 L99.57,442.976 L99.57,446 L97.988,446 L97.988,436.228 L99.57,436.228 L99.57,441.184 L99.626,441.184 L101.026,439.406 L103.658,436.228 L105.506,436.228 L102.02,440.344 L105.786,446 L103.882,446 L100.914,441.436 Z M110.896,446.168 C109.617327,446.168 108.614004,445.736338 107.886,444.873 C107.157996,444.009662 106.794,442.756675 106.794,441.114 C106.794,440.292663 106.887332,439.569336 107.074,438.944 C107.260668,438.318664 107.531332,437.791335 107.886,437.362 C108.240668,436.932665 108.672331,436.608334 109.181,436.389 C109.689669,436.169666 110.26133,436.06 110.896,436.06 C111.745338,436.06 112.456997,436.246665 113.031,436.62 C113.605003,436.993335 114.055332,437.543996 114.382,438.272 L113.052,439 C112.883999,438.533331 112.625002,438.162335 112.275,437.887 C111.924998,437.611665 111.465336,437.474 110.896,437.474 C110.139996,437.474 109.547335,437.730664 109.118,438.244 C108.688665,438.757336 108.474,439.466662 108.474,440.372 L108.474,441.856 C108.474,442.761338 108.688665,443.470664 109.118,443.984 C109.547335,444.497336 110.139996,444.754 110.896,444.754 C111.484003,444.754 111.962331,444.602335 112.331,444.299 C112.699669,443.995665 112.972666,443.606002 113.15,443.13 L114.424,443.9 C114.097332,444.609337 113.640003,445.164665 113.052,445.566 C112.463997,445.967335 111.745338,446.168 110.896,446.168 Z M122.11,441.744 L117.686,441.744 L117.686,446 L116.104,446 L116.104,436.228 L117.686,436.228 L117.686,440.344 L122.11,440.344 L122.11,436.228 L123.692,436.228 L123.692,446 L122.11,446 L122.11,441.744 Z M132.204,446 L131.322,443.354 L127.668,443.354 L126.814,446 L125.204,446 L128.536,436.228 L130.524,436.228 L133.856,446 L132.204,446 Z M129.53,437.684 L129.46,437.684 L128.046,441.996 L130.93,441.996 L129.53,437.684 Z M134.948,446 L134.948,444.712 L136.278,444.712 L136.278,437.516 L134.948,437.516 L134.948,436.228 L139.204,436.228 L139.204,437.516 L137.86,437.516 L137.86,444.712 L139.204,444.712 L139.204,446 L134.948,446 Z M143.824,440.596 L142.746,438.524 L142.704,438.524 L142.704,446 L141.192,446 L141.192,436.228 L142.956,436.228 L146.148,441.632 L147.226,443.704 L147.268,443.704 L147.268,436.228 L148.78,436.228 L148.78,446 L147.016,446 L143.824,440.596 Z"/>
  </g>
</svg>
