<svg xmlns="http://www.w3.org/2000/svg" width="757" height="687" viewBox="0 0 757 687">
  <g fill="none" fill-rule="evenodd">
    <g stroke="#BA6DF6" stroke-linecap="round" stroke-width=".298">
      <path d="M19.7214511,267.648265 C12.5697161,244.676025 21.455205,212.168139 47.244795,181.827445 C63.4987382,162.756151 85.6041009,144.118297 113.127445,126.347319 C143.901577,106.625868 180.31041,89.0716088 220.836909,75.2015773 C290.187066,50.9290221 362.788013,40.7432177 428.237224,43.9940063 C457.494322,45.511041 483.934069,49.6287066 507.123028,56.1302839 C527.711356,61.9817035 545.482334,69.3501577 559.785804,78.2356467"/>
      <path d="M389.877918 664.677918C396.596215 650.374448 402.881073 630.869716 409.599369 606.163722 419.351735 581.241009 428.887382 551.550473 438.856467 517.092114 449.909148 478.08265 460.96183 434.088644 468.763722 385.760252 476.782334 335.914826 479.816404 286.719558 480.249842 241.425237 480.9 200.682019 479.166246 164.706625 476.999054 133.499054 500.404732 115.077918 519.259306 100.774448 534.429653 91.022082 545.699054 83.6536278 553.934385 78.8858044 559.569085 78.4523659M391.828391 677.464353C392.26183 681.14858 392.478549 682.882334 392.478549 682.665615 391.828391 679.848265 391.178233 673.996845 389.877918 664.677918M391.828391 677.464353C398.546688 682.882334 410.032808 681.3653 418.701577 671.612934"/>
      <path d="M19.7214511,267.648265 C6.50157729,285.852681 -0.866876972,312.725868 0.433438486,344.366877 C2.16719243,382.292744 15.3870662,426.50347 40.0930599,471.797792 C61.3315457,510.373817 89.7217666,547.866246 123.529968,580.590852 C140.650789,595.977918 159.071924,610.064669 177.926498,622.851104 C209.350789,646.690221 241.208517,664.02776 271.332492,674.647003 C296.255205,682.665615 319.877603,686.783281 341.332808,686.783281 C360.404101,686.783281 377.524921,683.532492 391.828391,677.681073 C415.884227,680.715142 445.358044,674.430284 475.915457,658.39306 C512.107571,639.321767 549.166562,607.897476 582.324606,566.287382 C618.733438,520.126183 647.123659,465.729653 664.02776,409.816088 C680.064984,357.586751 684.616088,308.608202 678.114511,268.94858 C672.913249,236.007256 659.476656,210.000946 642.139117,194.61388"/>
      <path d="M582.324606 566.070662C631.086435 509.940379 664.677918 443.841009 678.764669 381.642587 684.832808 354.119243 687 328.546372 685.049527 305.790852 683.315773 285.419243 678.33123 267.648265 670.746057 253.128076M26.6564669 280.868139C41.3933754 267.214826 61.1148265 253.128076 85.8208202 238.607886 114.861199 221.270347 149.752997 203.932808 190.712934 187.895584 235.573817 170.124606 284.985804 155.604416 335.914826 146.285489 385.326814 137.4 431.704732 133.715773 473.531546 133.499054 510.157098 133.282334 541.798107 135.666246 568.021136 140.000631 590.126498 143.684858 607.897476 148.669401 621.11735 155.170978 640.188644 164.706625 647.557098 181.827445 642.355836 194.61388"/>
      <path d="M65.0157729 350.651735C47.4615142 324.645426 34.6750789 301.239748 26.6564669 280.868139 66.7495268 181.394006 149.752997 87.3378549 243.158991 35.7586751 281.951735 14.30347 318.360568 2.60063091 349.35142.650157729 374.92429-1.08359621 396.812934 4.76782334 411.766562 15.6037855M211.301262 507.123028C179.010095 481.333438 149.752997 453.593375 124.396845 425.419874 100.774448 399.413565 81.0529968 374.274132 65.2324921 350.651735M399.630284 346.534069C361.704416 347.400946 321.394637 347.834385 283.902208 348.484543 249.227129 348.917981 217.58612 349.1347 188.545741 349.568139 162.105994 349.784858 138.266877 350.001577 116.811672 350.218297 97.5236593 350.435016 80.4028391 350.435016 65.2324921 350.651735"/>
      <path d="M480.466562 247.059937C453.159937 249.443849 423.469401 251.82776 391.611672 255.728707 357.586751 259.846372 322.694953 265.481073 288.453312 273.066246 255.945426 280.4347 225.604732 288.236593 197.864669 295.821767 172.291798 302.973502 148.88612 309.475079 127.864353 315.976656 103.808517 328.546372 83.00347 340.032492 65.4492114 350.651735M391.828391 677.464353C385.543533 684.832808 372.973817 687 359.970662 680.931861 341.549527 672.046372 320.094322 651.674763 295.388328 621.550789 268.515142 592.076972 239.474763 554.151104 211.084543 507.339748"/>
      <path d="M43.3438486,505.605994 C40.7432177,496.070347 39.6596215,484.584227 40.0930599,471.797792 C40.0930599,449.042271 44.2107256,422.169085 52.2293375,391.828391 C61.548265,357.153312 75.6350158,319.010726 95.7899054,279.351104 C123.313249,214.985489 161.239117,155.821136 203.28265,107.709464 C229.505678,78.2356467 255.728707,54.6132492 280.65142,36.8422713 C302.106625,21.455205 322.044795,10.8359621 339.815773,5.20126183 C370.373186,-2.38391167 397.029653,2.38391167 411.766562,15.6037855"/>
      <path d="M26.6564669,280.868139 C18.4211356,323.778549 16.2539432,366.905678 19.7214511,407.215457 C22.9722397,444.491167 31.207571,477.865931 43.1271293,505.822713 C47.8949527,508.640063 55.2634069,510.373817 64.3656151,511.457413 C70.0003155,510.157098 76.5018927,508.423344 83.870347,506.256151 C95.7899054,500.83817 109.876656,494.336593 126.347319,486.5347 C145.201893,477.649211 166.657098,467.029968 190.929653,455.11041 C218.236278,441.673817 248.576972,426.50347 282.385174,409.38265 C319.660883,390.528076 359.970662,369.506309 399.196845,346.967508 C431.488013,336.781703 461.178549,327.029338 488.268454,318.360568 C513.191167,310.341956 535.729968,302.973502 556.318297,296.038486 C591.426814,284.552366 619.166877,275.016719 640.405363,267.648265 C656.009148,262.230284 666.411672,258.329338 672.263091,255.295268 C674.647003,253.994953 673.563407,253.128076 670.095899,253.561514"/>
      <path d="M418.918297,671.612934 C442.323975,661.643849 466.813249,646.690221 491.519243,626.75205 C540.497792,592.293691 585.358675,546.132492 619.817035,493.686435 C639.971924,462.695584 655.57571,431.271293 666.411672,400.930599 C678.764669,367.772555 684.399369,336.998423 684.399369,310.341956 C684.18265,287.586435 679.198107,267.864984 670.529338,253.128076"/>
      <path d="M418.918297 671.612934C426.936909 663.594322 434.522082 651.674763 442.323975 636.287697 451.642902 617.649842 460.96183 594.460883 470.064038 566.937539 503.005363 515.14164 533.779495 451.859621 554.801262 381.859306 565.203785 333.097476 569.971609 285.635962 570.838486 241.858675 571.488644 202.849211 569.104732 168.390852 564.120189 139.350473 559.785804 117.24511 554.151104 98.3905363 547.432808 83.2201893 541.14795 67.6164038 533.129338 56.1302839 524.027129 50.7123028 516.225237 46.1611987 507.123028 45.7277603 499.104416 48.5451104M327.029338 148.019243C337.215142 173.592114 348.484543 202.199054 360.404101 233.840063 373.407256 268.515142 387.494006 306.441009 399.413565 346.534069 402.447634 391.178233 402.664353 432.571609 403.097792 470.064038 403.53123 503.655521 403.314511 533.779495 403.097792 560.219243 405.698423 577.123344 407.865615 592.293691 409.599369 606.163722 412.416719 623.067823 414.583912 637.371293 416.100946 649.290852 417.617981 658.826498 418.268139 666.194953 418.701577 671.829653M19.7214511 267.648265C16.9041009 244.892744 22.322082 217.369401 36.6255521 189.412618 53.529653 156.688013 81.9198738 123.529968 119.629022 94.0561514 171.208202 53.529653 234.490221 24.055836 298.422397 10.8359621 312.509148 8.01861199 326.162461 6.0681388 339.815773 4.98454259 361.704416 3.0340694 382.292744 3.25078864 401.580757 5.63470032 444.707886 10.8359621 478.949527 27.0899054 498.887697 48.5451104"/>
      <path d="M19.7214511,267.648265 C14.7369085,266.34795 10.8359621,265.481073 9.53564669,264.397476 C9.1022082,263.964038 13.2198738,264.180757 19.2880126,265.264353 C26.0063091,266.34795 35.1085174,267.864984 46.1611987,270.032177 C59.814511,272.632808 76.5018927,275.666877 95.7899054,279.567823"/>
      <path d="M19.7214511 267.648265C13.6533123 257.67918 12.7864353 243.809148 19.9381703 231.672871 29.473817 215.418927 50.4955836 199.381703 80.4028391 184.211356M498.887697 48.7618297C525.977603 51.3624606 556.968454 69.1334385 584.05836 100.12429 617.216404 138.483596 643.872871 194.830599 658.176341 260.929968 668.145426 307.307886 670.962776 355.419558 666.628391 400.930599 663.160883 449.692429 651.891483 491.952681 634.553943 524.027129 620.033754 551.117035 601.17918 570.405047 581.457729 580.157413M63.2820189 239.258044C81.2697161 264.180757 106.409148 294.088013 139.783912 328.979811 180.093691 371.023344 229.07224 418.484858 288.453312 460.74511 317.493691 481.550158 346.100631 499.537855 373.407256 515.575079 398.546688 530.095268 421.952366 542.881703 443.407571 553.934385 480.033123 572.57224 510.157098 585.575394 533.996215 593.160568 551.983912 597.928391 566.070662 599.662145 574.522713 596.194637 580.590852 593.810726 582.974763 586.87571 581.674448 580.374132"/>
      <path d="M498.887697,48.7618297 C491.735962,33.1580442 472.014511,21.0217666 445.791483,20.1548896 C426.936909,18.6378549 405.048265,20.3716088 380.558991,25.5728707 C355.202839,31.207571 327.679495,40.3097792 298.639117,53.529653 C266.998107,67.6164038 234.923659,85.8208202 203.28265,107.926183 C146.718927,146.06877 98.8239748,192.229968 63.2820189,239.474763 C60.2479495,274.149842 60.681388,311.858991 65.2324921,350.868454 C72.1675079,402.664353 85.8208202,453.810095 104.892114,500.188013 C122.446372,543.315142 143.468139,579.723975 165.790221,608.547634 C184.861514,633.253628 204.366246,651.458044 223.004101,662.727445 C238.607886,672.046372 254.428391,675.947319 267.648265,674.647003"/>
      <path d="M161.672555,51.7958991 C159.071924,50.9290221 167.740694,63.2820189 177.709779,79.9694006 C186.378549,88.8548896 196.347634,99.907571 207.833754,112.910726 C221.270347,128.081073 236.440694,145.418612 253.561514,165.573502 C272.849527,188.112303 294.304732,213.685174 318.143849,242.508833 C344.366877,274.366562 372.757098,309.25836 399.413565,346.750789 C386.41041,391.178233 370.806625,432.13817 356.719874,469.197161 C344.150158,502.571924 332.447319,532.045741 322.044795,558.26877 C312.725868,581.241009 304.490536,601.395899 296.905363,618.516719 C290.403785,633.253628 284.985804,645.389905 279.784543,655.358991 C275.883596,665.978233 272.849527,673.346688 270.248896,677.030915 C269.1653,678.764669 267.648265,677.464353 267.864984,674.430284"/>
      <path d="M63.2820189,239.258044 C68.0498423,219.970032 73.9012618,201.548896 80.4028391,183.994637 C84.5205047,167.740694 89.0716088,152.787066 94.4895899,139.133754 C113.560883,96.8735016 137.4,66.7495268 161.889274,51.7958991 C165.573502,49.1952681 172.508517,49.8454259 180.527129,52.662776 C191.579811,56.5637224 205.016404,64.1488959 221.053628,74.984858 C250.310726,91.4555205 285.635962,115.511356 327.246057,147.802524 C368.639432,178.576656 413.283596,215.418927 455.11041,259.629653 C496.070347,302.540063 529.011672,345.667192 555.884858,384.243218 C573.655836,410.032808 588.392744,433.221767 600.095584,453.810095 C610.064669,471.364353 617.649842,486.75142 622.851104,500.188013 C630.219558,519.692744 631.086435,535.513249 624.368139,540.281073"/>
      <path d="M559.785804 78.4523659C578.857098 97.0902208 596.628076 121.579495 612.231861 151.270032 631.519874 184.428076 647.340379 221.703785 657.959621 260.929968 671.396215 309.25836 676.597476 357.153312 673.780126 400.930599 667.711987 459.228076 649.72429 508.206625 623.9347 540.497792M161.672555 51.7958991C183.777918 37.9258675 211.084543 26.8731861 242.508833 19.5047319 276.533754 11.4861199 314.242902 8.45205047 353.035647 10.4025237 432.35489 14.7369085 506.68959 40.0930599 559.785804 78.4523659"/>
      <path d="M642.139117 194.397161C638.021451 160.588959 613.098738 121.579495 570.188328 89.2883281 548.733123 72.8176656 523.593691 57.8640379 495.420189 45.7277603 414.583912 10.8359621 322.044795 1.30031546 244.676025 18.2044164 211.301262 25.5728707 182.694322 37.492429 161.022397 52.662776 142.167823 66.0993691 128.297792 81.9198738 120.712618 98.3905363M623.9347 540.497792C615.265931 557.401893 594.027445 572.788959 563.90347 583.84164 545.482334 590.559937 524.027129 596.194637 499.537855 599.878864 472.44795 604.213249 442.323975 606.380442 409.599369 606.163722 349.784858 604.646688 286.28612 593.810726 226.03817 574.089274 169.474448 555.45142 121.579495 531.395584 84.0870662 505.822713 55.0466877 486.968139 33.5914826 467.896845 21.0217666 449.258991 11.0526814 434.522082 7.15173502 419.351735 9.75236593 407.215457"/>
      <path d="M211.301262 507.123028C157.988328 493.686435 113.994322 477.865931 79.3192429 461.395268 50.4955836 451.859621 29.473817 442.107256 17.5542587 431.271293 9.1022082 423.68612 6.50157729 413.933754 9.75236593 407.432177M211.301262 507.123028C254.64511 525.544164 300.806309 540.281073 347.400946 550.466877 391.611672 560.002524 432.788328 564.987066 469.847319 566.937539 494.770032 569.53817 517.308833 570.621767 537.030284 570.405047 554.367823 570.188328 569.53817 568.671293 582.324606 566.070662 603.99653 560.869401 619.166877 551.550473 623.9347 540.497792"/>
      <path d="M267.648265 674.430284C280.001262 681.3653 296.255205 684.832808 314.89306 683.965931 336.781703 683.099054 362.354574 676.597476 389.877918 664.677918 406.782019 657.309464 424.119558 647.773817 442.107256 636.504416 490.869085 606.163722 538.764038 564.120189 579.290536 513.191167 618.733438 463.77918 646.90694 411.766562 663.160883 363.871609M589.909779 106.192429C605.730284 118.762145 620.250473 137.833438 631.953312 161.889274 644.739748 188.97918 653.841956 222.570662 657.959621 261.146688 663.377603 294.304732 665.328076 328.979811 663.377603 363.871609M589.909779 106.192429C563.036593 73.0343849 518.825868 43.9940063 463.345741 25.5728707 403.097792 5.41798107 336.131546-1.77635684e-15 274.583281 9.96908517M267.648265 674.430284C265.481073 677.897792 262.013565 675.080442 261.580126 666.194953 261.146688 658.826498 261.363407 649.507571 261.796845 637.588013 262.447003 623.067823 263.747319 605.947003 265.481073 585.575394 266.564669 568.454574 268.298423 549.383281 270.248896 528.361514 272.416088 505.389274 274.8 480.033123 277.834069 452.509779 284.335647 380.77571 296.038486 300.58959 310.992114 228.205363 317.493691 196.564353 323.995268 168.174132 329.846688 142.384543 335.04795 119.195584 340.249211 98.8239748 344.583596 80.6195584M9.75236593 407.432177C3.0340694 391.394953-9.99200722e-16 371.456782.866876972 348.917981 1.95047319 323.56183 8.01861199 295.171609 19.2880126 265.264353 35.3252366 222.570662 60.8981073 179.010095 94.4895899 139.133754 130.031546 96.8735016 171.85836 61.9817035 214.985489 37.492429 235.357098 25.3561514 255.295268 16.2539432 274.583281 9.96908517M18.2044164 374.92429C5.41798107 388.577603 2.81735016 402.447634 9.75236593 407.432177"/>
      <path d="M26.6564669 280.868139C12.3529968 312.725868 4.33438486 342.199685 2.81735016 367.772555 1.30031546 383.376341 3.68422713 397.463091 9.75236593 407.432177M589.909779 106.192429C584.708517 94.9230284 568.888013 86.4709779 547.216088 83.4369085 536.163407 83.00347 523.160252 83.870347 508.206625 86.0375394 491.302524 88.6381703 472.23123 92.755836 451.209464 98.3905363 423.469401 103.808517 393.128707 111.393691 360.837539 122.229653 325.945741 133.715773 289.753628 148.235962 254.211672 166.223659 191.146372 200.031861 137.833438 240.55836 95.7899054 279.351104 76.0684543 298.422397 59.3810726 316.626814 45.9444795 333.530915 34.0249211 348.484543 24.9227129 362.354574 18.2044164 374.92429M174.242271 635.854259C184.861514 651.674763 210.217666 661.643849 243.37571 660.126814 264.397476 659.259937 288.670032 654.492114 315.759937 646.040063 346.31735 636.504416 379.692114 622.417666 414.150473 603.346372 457.711041 578.20694 500.404732 546.132492 538.980757 509.073502 576.256467 473.098107 606.597161 435.605678 629.569401 399.196845M174.242271 635.854259C172.291798 638.888328 170.558044 639.971924 170.558044 639.321767 171.208202 636.287697 173.808833 631.086435 177.926498 622.634385 179.876972 611.364984 183.561199 597.278233 188.329022 580.157413 194.180442 559.569085 201.765615 535.29653 211.084543 507.123028"/>
      <path d="M203.28265 107.709464C239.041325 116.161514 280.4347 129.164669 327.029338 148.019243 393.562145 182.044164 461.395268 227.988644 518.609148 280.001262 544.398738 303.40694 566.937539 325.945741 586.008833 347.184227 603.129653 366.038801 617.649842 383.376341 629.352681 399.413565M120.712618 98.6072555C117.895268 86.9044164 125.263722 74.5514196 140.21735 73.9012618 150.186435 73.4678233 162.756151 75.6350158 177.926498 79.9694006M120.712618 98.6072555C109.876656 98.8239748 98.3905363 103.15836 89.7217666 112.043849 79.3192429 122.446372 71.5173502 139.567192 67.1829653 161.455836"/>
      <path d="M120.712618 98.6072555C99.907571 105.758991 78.6690852 122.446372 61.548265 147.369085 41.1766562 177.059621 26.2230284 217.802839 19.0712934 265.481073 9.75236593 331.580442 16.9041009 404.831546 40.0930599 471.581073 56.1302839 518.825868 78.6690852 558.702208 104.675394 587.959306 126.780757 612.882019 151.270032 629.135962 174.242271 635.637539M274.583281 9.96908517C282.168454 9.75236593 290.187066 9.96908517 298.639117 10.8359621 323.778549 11.9195584 351.518612 16.6873817 380.558991 25.3561514 442.974132 46.8113565 507.989905 86.2542587 563.90347 139.350473 604.863407 178.359937 636.721136 220.186751 657.959621 260.929968 675.51388 292.137539 685.266246 321.177918 686.783281 345.667192 688.083596 366.038801 682.882334 383.59306 673.780126 395.729338M174.242271 635.854259C190.929653 652.75836 217.369401 665.761514 250.744164 671.829653 290.403785 679.198107 338.515457 677.030915 390.094637 664.894637 424.336278 656.442587 458.794637 643.872871 491.735962 627.185489 525.110726 610.064669 555.884858 589.259621 582.541325 566.504101 620.250473 535.29653 647.557098 501.488328 662.727445 469.41388 675.080442 442.757413 678.54795 416.967823 673.780126 396.379495"/>
      <path d="M174.242271,635.854259 C165.356782,636.070978 155.821136,632.386751 147.802524,624.584858 C138.050158,615.265931 130.031546,600.095584 123.529968,580.590852 C120.27918,565.637224 118.328707,547.649527 117.895268,527.061199 C114.42776,500.404732 113.127445,469.847319 114.211041,436.255836 C115.294637,399.413565 119.195584,360.187382 126.997476,319.444164 C135.016088,278.267508 146.502208,238.174448 160.37224,200.682019 C173.375394,165.790221 188.329022,134.58265 203.28265,107.709464 C209.134069,96.0066246 215.202208,85.1706625 220.836909,75.2015773 C239.258044,43.1271293 257.245741,20.5883281 274.366562,9.96908517"/>
      <path d="M663.377603 363.871609C654.492114 375.141009 643.222713 387.060568 629.569401 399.413565 610.931546 409.599369 588.392744 420.435331 562.386435 431.271293 532.695899 443.841009 498.887697 456.410726 460.96183 467.896845 419.785174 480.466562 375.791167 490.869085 331.147003 497.153943 288.236593 503.438801 247.926814 506.039432 211.517981 507.123028 171.85836 509.50694 137.833438 509.723659 109.659937 507.989905 86.4709779 506.68959 67.833123 504.088959 53.7463722 499.971293 35.1085174 494.336593 27.9567823 480.9 33.5914826 471.797792M298.422397 14.7369085C280.868139 10.4025237 260.063091 10.8359621 237.957729 16.9041009 212.384858 23.8391167 185.294953 37.9258675 158.638486 58.5141956 96.8735016 106.409148 44.8608833 182.044164 19.0712934 265.481073 8.01861199 301.239748 2.60063091 336.131546 2.81735016 367.555836 3.0340694 411.766562 14.5201893 448.392114 33.1580442 471.797792"/>
      <path d="M477.215773 133.499054C443.407571 84.5205047 410.466246 48.3283912 380.558991 25.3561514 366.038801 15.8205047 352.385489 9.1022082 339.815773 4.98454259 322.261514-2.81735016 305.574132 2.81735016 298.422397 14.7369085 285.852681 7.36845426 267.864984 5.85141956 249.877287 13.6533123 226.905047 23.6223975 202.199054 46.377918 177.709779 79.9694006 161.672555 103.15836 146.285489 131.115142 132.415457 163.406309 117.24511 198.514826 104.458675 237.52429 95.5731861 279.134385 78.6690852 349.568139 74.7681388 418.05142 80.4028391 476.565615 82.7867508 502.138486 86.9044164 524.894006 92.5391167 544.615457 97.5236593 562.169716 103.591798 577.123344 110.743533 589.042902M663.377603 363.871609C651.024606 331.797161 630.219558 295.605047 600.962461 257.029022 567.804416 213.468454 525.760883 170.558044 477.215773 133.499054"/>
      <path d="M614.399054 276.533754C587.742587 248.576972 554.584543 219.536593 515.14164 191.79653 473.098107 161.889274 426.50347 136.533123 379.258675 116.378233 348.917981 104.458675 319.660883 95.3564669 291.92082 88.4214511 266.34795 82.1365931 242.508833 77.8022082 221.053628 75.2015773M663.377603 363.871609C648.857413 349.784858 628.269085 333.964353 601.395899 316.193375 568.888013 294.73817 528.794953 270.899054 480.466562 247.276656"/>
      <path d="M631.519874 178.359937C618.733438 187.895584 598.795268 201.548896 570.621767 220.40347 545.048896 227.555205 514.924921 236.657413 480.466562 247.276656M673.563407 395.946057C680.931861 397.89653 681.798738 400.930599 673.563407 401.147319 663.594322 401.364038 649.074132 400.71388 629.352681 399.413565 608.981073 394.645741 584.05836 388.794322 554.367823 382.076025 533.996215 377.308202 511.457413 372.323659 486.75142 366.688959 459.878233 360.62082 430.837855 353.902524 399.196845 346.967508 363.43817 381.642587 325.945741 412.850158 292.137539 441.023659 261.796845 466.163091 234.70694 488.268454 210.867823 507.556467 182.694322 532.045741 159.722082 551.550473 141.300946 566.504101 127.430915 577.773502 117.46183 585.575394 110.526814 589.69306"/>
      <path d="M680.715142 313.592744C673.996845 321.394637 661.427129 329.846688 644.08959 339.599054 621.334069 352.16877 591.643533 366.255521 554.584543 382.076025M295.605047 621.334069C328.329653 606.81388 364.738486 586.658991 403.097792 560.435962 459.878233 511.023975 513.407886 448.608833 554.584543 381.859306M673.563407 395.946057C682.448896 413.283596 675.947319 441.240379 651.891483 466.59653 636.070978 483.283912 613.748896 500.188013 585.792114 516.441956 553.284227 535.29653 514.491483 552.850789 469.630599 567.154259"/>
      <path d="M298.422397,14.7369085 C310.992114,7.5851735 326.37918,2.60063091 343.933438,0.866876972 C363.43817,-0.866876972 385.543533,1.08359621 409.165931,7.36845426 C463.77918,22.1053628 523.160252,56.9971609 574.305994,108.359621 C626.101893,160.155521 662.510726,221.053628 678.33123,278.267508 C685.266246,303.190221 687.866877,326.595899 686.566562,347.400946 C685.482965,366.038801 680.715142,382.509464 673.563407,395.946057"/>
      <path d="M344.583596 81.0529968C355.636278 61.1148265 365.605363 44.8608833 374.707571 32.0744479 382.076025 21.6719243 388.577603 13.8700315 394.429022 9.31892744 401.797476 3.46750789 409.816088 7.5851735 411.549842 15.6037855M629.569401 399.413565C628.702524 341.116088 618.3 279.567823 598.795268 221.270347 580.374132 166.440379 555.884858 119.845741 529.228391 83.870347 506.906309 53.7463722 483.71735 32.5078864 461.611987 21.6719243 443.62429 12.7864353 425.853312 11.0526814 411.766562 15.6037855M629.569401 399.413565C623.717981 454.676972 610.498107 504.305678 592.51041 545.265615 577.123344 580.157413 558.918927 607.030599 539.197476 624.368139M110.960252 589.259621C83.6536278 555.668139 60.4646688 509.940379 44.8608833 456.194006 28.1735016 398.980126 22.1053628 338.298738 26.8731861 280.868139 27.3066246 235.573817 35.3252366 196.997792 49.1952681 168.390852 55.6968454 154.304101 64.1488959 143.25142 73.6845426 135.882965"/>
      <path d="M539.197476,624.15142 C529.66183,626.318612 515.14164,621.984227 496.503785,613.965615 C471.364353,602.912934 440.373502,585.141956 403.097792,560.435962 C365.388644,532.045741 322.261514,497.153943 277.61735,452.943218 C236.874132,411.116404 201.765615,366.255521 172.508517,323.778549 C146.718927,286.719558 125.91388,253.778233 109.876656,224.954574 C88.8548896,198.081388 74.3347003,177.276341 66.9662461,161.455836 C63.0652997,147.802524 66.5328076,136.966562 73.4678233,135.882965"/>
      <path d="M539.197476,624.15142 C528.144795,628.702524 512.541009,629.352681 493.469716,627.185489 C470.064038,624.368139 441.890536,617.433123 409.599369,605.730284 C344.150158,621.11735 280.001262,625.018297 223.870978,619.600315 C176.409464,615.049211 137.833438,604.429968 110.960252,589.259621"/>
      <path d="M389.877918 664.677918C449.692429 661.21041 501.488328 646.473502 539.197476 624.15142 560.435962 612.44858 574.956151 596.628076 581.457729 580.374132M279.784543 655.142271C317.060252 662.727445 354.335962 665.761514 390.094637 664.677918M215.852366 618.733438C275.016719 646.256782 335.481388 661.427129 389.877918 664.677918"/>
      <path d="M33.3747634,471.797792 C34.6750789,494.119874 45.9444795,519.909464 66.7495268,544.182019 C91.888959,573.439117 130.031546,600.962461 177.926498,622.417666 C209.350789,636.721136 243.809148,647.990536 279.784543,655.358991"/>
      <path d="M33.3747634,471.797792 C32.9413249,487.401577 38.7927445,505.389274 51.5791798,522.293375 C66.7495268,542.881703 91.4555205,562.819874 123.746688,580.374132 C171.64164,607.464038 232.973186,627.835647 300.806309,636.504416 C369.506309,645.389905 435.822397,641.055521 491.735962,626.75205"/>
      <path d="M33.3747634,471.797792 C31.6410095,495.853628 49.4119874,526.411041 84.5205047,551.333754 C106.842587,567.154259 135.232808,581.457729 169.041009,593.594006 C206.750158,607.030599 249.660568,616.782965 295.605047,621.550789"/>
      <path d="M33.3747634 471.797792C29.473817 473.748265 26.2230284 475.482019 26.8731861 475.482019 28.6069401 475.915457 32.9413249 473.964984 40.3097792 471.581073 50.2788644 469.41388 63.0652997 465.946372 79.5359621 461.395268 93.1892744 456.844164 109.009779 451.642902 126.997476 445.574763 147.152366 438.856467 169.691167 430.837855 194.830599 422.169085 222.570662 412.416719 253.128076 401.580757 286.719558 389.661199 323.34511 376.441325 362.354574 361.921136 399.847003 346.534069M344.583596 81.0529968C364.521767 100.12429 385.976972 122.879811 408.299054 149.319558 432.788328 178.359937 457.711041 211.084543 480.249842 247.276656 511.674132 293.654574 536.163407 340.899369 555.45142 384.676656 565.853943 439.073186 569.75489 486.5347 568.888013 525.977603 575.172871 541.798107 579.507256 555.2347 582.107886 566.287382 586.87571 574.305994 590.126498 579.940694 589.476341 582.758044 589.042902 584.275079 585.141956 582.974763 581.241009 580.590852"/>
      <path d="M33.3747634,471.797792 C20.1548896,464.212618 13.0031546,443.62429 18.4211356,418.484858 C21.8886435,401.797476 29.6905363,382.509464 41.1766562,361.054259 C54.6132492,335.914826 72.8176656,308.391483 96.0066246,279.134385 C114.42776,252.694637 136.099685,226.03817 160.588959,200.4653 C218.019558,148.88612 282.818612,108.359621 344.800315,80.8362776 C386.41041,84.0870662 427.370347,91.2388013 466.163091,102.074763 C502.788644,112.260568 535.513249,125.047003 564.120189,139.133754 C591.860252,151.270032 614.615773,164.273186 631.736593,178.143218 C659.043218,203.716088 672.69653,231.456151 670.746057,253.128076"/>
      <path d="M547.216088,83.4369085 C587.309148,110.526814 619.166877,141.951104 640.622082,174.025552 C659.043218,201.548896 669.229022,229.288959 670.529338,253.344795"/>
      <path d="M73.6845426,135.882965 C79.9694006,122.663091 90.5886435,109.659937 104.892114,97.7403785 C121.146057,84.0870662 142.167823,71.9507886 167.307256,61.9817035 C200.682019,48.7618297 240.34164,39.6596215 284.335647,36.1921136 C330.930284,32.2911672 379.258675,35.1085174 426.070032,44.2107256 C472.014511,52.2293375 513.407886,66.0993691 547.649527,83.6536278 C580.374132,100.774448 605.513565,120.712618 621.767508,141.517666 C635.42082,159.071924 642.355836,177.926498 642.572555,194.61388"/>
      <path d="M344.583596,81.0529968 C312.292429,76.2851735 281.084858,74.1179811 252.044479,74.3347003 C224.954574,74.3347003 200.031861,76.5018927 177.926498,80.1861199 C155.170978,83.00347 135.666246,87.7712934 119.845741,94.2728707 C95.5731861,105.108833 79.3192429,120.27918 73.6845426,136.099685"/>
    </g>
    <polyline stroke="#75828F" stroke-linecap="round" points="508.562 71.374 564.5 71.374 610.367 43" transform="matrix(1 0 0 -1 0 114.374)"/>
    <path fill="#804BC9" fill-rule="nonzero" d="M617.581,76 L617.581,66.228 L621.781,66.228 C622.686338,66.228 623.386331,66.4939973 623.881,67.026 C624.375669,67.5580027 624.623,68.2719955 624.623,69.168 C624.623,70.0640045 624.375669,70.7779973 623.881,71.31 C623.386331,71.8420027 622.686338,72.108 621.781,72.108 L619.163,72.108 L619.163,76 L617.581,76 Z M619.163,70.722 L621.683,70.722 C622.084335,70.722 622.396999,70.617001 622.621,70.407 C622.845001,70.1969989 622.957,69.896002 622.957,69.504 L622.957,68.832 C622.957,68.439998 622.845001,68.1390011 622.621,67.929 C622.396999,67.7189989 622.084335,67.614 621.683,67.614 L619.163,67.614 L619.163,70.722 Z M627.857,66.228 L627.857,72.248 C627.857,73.0786708 628.015665,73.7039979 628.333,74.124 C628.650335,74.5440021 629.191663,74.754 629.957,74.754 C630.722337,74.754 631.263665,74.5440021 631.581,74.124 C631.898335,73.7039979 632.057,73.0786708 632.057,72.248 L632.057,66.228 L633.611,66.228 L633.611,71.996 C633.611,72.7146703 633.545667,73.3353307 633.415,73.858 C633.284333,74.3806693 633.074335,74.8123316 632.785,75.153 C632.495665,75.4936684 632.120002,75.7479992 631.658,75.916 C631.195998,76.0840008 630.629003,76.168 629.957,76.168 C629.284997,76.168 628.718002,76.0840008 628.256,75.916 C627.793998,75.7479992 627.418335,75.4936684 627.129,75.153 C626.839665,74.8123316 626.629667,74.3806693 626.499,73.858 C626.368333,73.3353307 626.303,72.7146703 626.303,71.996 L626.303,66.228 L627.857,66.228 Z M635.963,66.228 L640.289,66.228 C641.101004,66.228 641.737998,66.4566644 642.2,66.914 C642.662002,67.3713356 642.893,67.9826628 642.893,68.748 C642.893,69.1120018 642.841667,69.422332 642.739,69.679 C642.636333,69.9356679 642.505667,70.1456659 642.347,70.309 C642.188333,70.4723341 642.006334,70.5936663 641.801,70.673 C641.595666,70.7523337 641.395001,70.8013332 641.199,70.82 L641.199,70.904 C641.395001,70.9133334 641.611999,70.9599996 641.85,71.044 C642.088001,71.1280004 642.309666,71.2609991 642.515,71.443 C642.720334,71.6250009 642.892999,71.8583319 643.033,72.143 C643.173001,72.4276681 643.243,72.7753313 643.243,73.186 C643.243,73.578002 643.180001,73.9466649 643.054,74.292 C642.927999,74.6373351 642.753001,74.9359987 642.529,75.188 C642.304999,75.4400013 642.039002,75.6383326 641.731,75.783 C641.422998,75.9276674 641.087002,76 640.723,76 L635.963,76 L635.963,66.228 Z M637.545,74.642 L640.261,74.642 C640.671669,74.642 640.993666,74.5346677 641.227,74.32 C641.460335,74.1053323 641.577,73.7973353 641.577,73.396 L641.577,72.92 C641.577,72.5186647 641.460335,72.2106677 641.227,71.996 C640.993666,71.7813323 640.671669,71.674 640.261,71.674 L637.545,71.674 L637.545,74.642 Z M637.545,70.358 L639.995,70.358 C640.387002,70.358 640.690332,70.2576677 640.905,70.057 C641.119668,69.8563323 641.227,69.5693352 641.227,69.196 L641.227,68.748 C641.227,68.3746648 641.119668,68.0876677 640.905,67.887 C640.690332,67.6863323 640.387002,67.586 639.995,67.586 L637.545,67.586 L637.545,70.358 Z M645.189,76 L645.189,66.228 L646.771,66.228 L646.771,74.6 L650.747,74.6 L650.747,76 L645.189,76 Z M651.951,76 L651.951,74.712 L653.281,74.712 L653.281,67.516 L651.951,67.516 L651.951,66.228 L656.207,66.228 L656.207,67.516 L654.863,67.516 L654.863,74.712 L656.207,74.712 L656.207,76 L651.951,76 Z M661.863,76.168 C660.584327,76.168 659.581004,75.7363376 658.853,74.873 C658.124996,74.0096623 657.761,72.7566749 657.761,71.114 C657.761,70.2926626 657.854332,69.5693365 658.041,68.944 C658.227668,68.3186635 658.498332,67.7913355 658.853,67.362 C659.207668,66.9326645 659.639331,66.6083344 660.148,66.389 C660.656669,66.1696656 661.22833,66.06 661.863,66.06 C662.712338,66.06 663.423997,66.2466648 663.998,66.62 C664.572003,66.9933352 665.022332,67.5439964 665.349,68.272 L664.019,69 C663.850999,68.533331 663.592002,68.1623347 663.242,67.887 C662.891998,67.6116653 662.432336,67.474 661.863,67.474 C661.106996,67.474 660.514335,67.7306641 660.085,68.244 C659.655665,68.7573359 659.441,69.4666621 659.441,70.372 L659.441,71.856 C659.441,72.7613379 659.655665,73.4706641 660.085,73.984 C660.514335,74.4973359 661.106996,74.754 661.863,74.754 C662.451003,74.754 662.929331,74.6023349 663.298,74.299 C663.666669,73.9956651 663.939666,73.6060024 664.117,73.13 L665.391,73.9 C665.064332,74.6093369 664.607003,75.1646647 664.019,75.566 C663.430997,75.9673353 662.712338,76.168 661.863,76.168 Z M670.375,66.228 L674.701,66.228 C675.513004,66.228 676.149998,66.4566644 676.612,66.914 C677.074002,67.3713356 677.305,67.9826628 677.305,68.748 C677.305,69.1120018 677.253667,69.422332 677.151,69.679 C677.048333,69.9356679 676.917667,70.1456659 676.759,70.309 C676.600333,70.4723341 676.418334,70.5936663 676.213,70.673 C676.007666,70.7523337 675.807001,70.8013332 675.611,70.82 L675.611,70.904 C675.807001,70.9133334 676.023999,70.9599996 676.262,71.044 C676.500001,71.1280004 676.721666,71.2609991 676.927,71.443 C677.132334,71.6250009 677.304999,71.8583319 677.445,72.143 C677.585001,72.4276681 677.655,72.7753313 677.655,73.186 C677.655,73.578002 677.592001,73.9466649 677.466,74.292 C677.339999,74.6373351 677.165001,74.9359987 676.941,75.188 C676.716999,75.4400013 676.451002,75.6383326 676.143,75.783 C675.834998,75.9276674 675.499002,76 675.135,76 L670.375,76 L670.375,66.228 Z M671.957,74.642 L674.673,74.642 C675.083669,74.642 675.405665,74.5346677 675.639,74.32 C675.872334,74.1053323 675.989,73.7973353 675.989,73.396 L675.989,72.92 C675.989,72.5186647 675.872334,72.2106677 675.639,71.996 C675.405665,71.7813323 675.083669,71.674 674.673,71.674 L671.957,71.674 L671.957,74.642 Z M671.957,70.358 L674.407,70.358 C674.799002,70.358 675.102332,70.2576677 675.317,70.057 C675.531668,69.8563323 675.639,69.5693352 675.639,69.196 L675.639,68.748 C675.639,68.3746648 675.531668,68.0876677 675.317,67.887 C675.102332,67.6863323 674.799002,67.586 674.407,67.586 L671.957,67.586 L671.957,70.358 Z M679.601,76 L679.601,66.228 L681.183,66.228 L681.183,74.6 L685.159,74.6 L685.159,76 L679.601,76 Z M690.563,76.168 C689.92833,76.168 689.352003,76.0583344 688.834,75.839 C688.315997,75.6196656 687.872669,75.2976688 687.504,74.873 C687.135331,74.4483312 686.850668,73.9210032 686.65,73.291 C686.449332,72.6609969 686.349,71.9353374 686.349,71.114 C686.349,70.2926626 686.449332,69.5670032 686.65,68.937 C686.850668,68.3069969 687.135331,67.7796688 687.504,67.355 C687.872669,66.9303312 688.315997,66.6083344 688.834,66.389 C689.352003,66.1696656 689.92833,66.06 690.563,66.06 C691.19767,66.06 691.773997,66.1696656 692.292,66.389 C692.810003,66.6083344 693.253331,66.9303312 693.622,67.355 C693.990669,67.7796688 694.275332,68.3069969 694.476,68.937 C694.676668,69.5670032 694.777,70.2926626 694.777,71.114 C694.777,71.9353374 694.676668,72.6609969 694.476,73.291 C694.275332,73.9210032 693.990669,74.4483312 693.622,74.873 C693.253331,75.2976688 692.810003,75.6196656 692.292,75.839 C691.773997,76.0583344 691.19767,76.168 690.563,76.168 Z M690.563,74.754 C690.936335,74.754 691.279332,74.6886673 691.592,74.558 C691.904668,74.4273327 692.170666,74.2383346 692.39,73.991 C692.609334,73.7436654 692.779666,73.4426684 692.901,73.088 C693.022334,72.7333316 693.083,72.3320022 693.083,71.884 L693.083,70.344 C693.083,69.8959978 693.022334,69.4946684 692.901,69.14 C692.779666,68.7853316 692.609334,68.4843346 692.39,68.237 C692.170666,67.9896654 691.904668,67.8006673 691.592,67.67 C691.279332,67.5393327 690.936335,67.474 690.563,67.474 C690.180331,67.474 689.835002,67.5393327 689.527,67.67 C689.218998,67.8006673 688.955334,67.9896654 688.736,68.237 C688.516666,68.4843346 688.346334,68.7853316 688.225,69.14 C688.103666,69.4946684 688.043,69.8959978 688.043,70.344 L688.043,71.884 C688.043,72.3320022 688.103666,72.7333316 688.225,73.088 C688.346334,73.4426684 688.516666,73.7436654 688.736,73.991 C688.955334,74.2383346 689.218998,74.4273327 689.527,74.558 C689.835002,74.6886673 690.180331,74.754 690.563,74.754 Z M700.419,76.168 C699.140327,76.168 698.137004,75.7363376 697.409,74.873 C696.680996,74.0096623 696.317,72.7566749 696.317,71.114 C696.317,70.2926626 696.410332,69.5693365 696.597,68.944 C696.783668,68.3186635 697.054332,67.7913355 697.409,67.362 C697.763668,66.9326645 698.195331,66.6083344 698.704,66.389 C699.212669,66.1696656 699.78433,66.06 700.419,66.06 C701.268338,66.06 701.979997,66.2466648 702.554,66.62 C703.128003,66.9933352 703.578332,67.5439964 703.905,68.272 L702.575,69 C702.406999,68.533331 702.148002,68.1623347 701.798,67.887 C701.447998,67.6116653 700.988336,67.474 700.419,67.474 C699.662996,67.474 699.070335,67.7306641 698.641,68.244 C698.211665,68.7573359 697.997,69.4666621 697.997,70.372 L697.997,71.856 C697.997,72.7613379 698.211665,73.4706641 698.641,73.984 C699.070335,74.4973359 699.662996,74.754 700.419,74.754 C701.007003,74.754 701.485331,74.6023349 701.854,74.299 C702.222669,73.9956651 702.495666,73.6060024 702.673,73.13 L703.947,73.9 C703.620332,74.6093369 703.163003,75.1646647 702.575,75.566 C701.986997,75.9673353 701.268338,76.168 700.419,76.168 Z M708.553,71.436 L707.209,72.976 L707.209,76 L705.627,76 L705.627,66.228 L707.209,66.228 L707.209,71.184 L707.265,71.184 L708.665,69.406 L711.297,66.228 L713.145,66.228 L709.659,70.344 L713.425,76 L711.521,76 L708.553,71.436 Z M718.535,76.168 C717.256327,76.168 716.253004,75.7363376 715.525,74.873 C714.796996,74.0096623 714.433,72.7566749 714.433,71.114 C714.433,70.2926626 714.526332,69.5693365 714.713,68.944 C714.899668,68.3186635 715.170332,67.7913355 715.525,67.362 C715.879668,66.9326645 716.311331,66.6083344 716.82,66.389 C717.328669,66.1696656 717.90033,66.06 718.535,66.06 C719.384338,66.06 720.095997,66.2466648 720.67,66.62 C721.244003,66.9933352 721.694332,67.5439964 722.021,68.272 L720.691,69 C720.522999,68.533331 720.264002,68.1623347 719.914,67.887 C719.563998,67.6116653 719.104336,67.474 718.535,67.474 C717.778996,67.474 717.186335,67.7306641 716.757,68.244 C716.327665,68.7573359 716.113,69.4666621 716.113,70.372 L716.113,71.856 C716.113,72.7613379 716.327665,73.4706641 716.757,73.984 C717.186335,74.4973359 717.778996,74.754 718.535,74.754 C719.123003,74.754 719.601331,74.6023349 719.97,74.299 C720.338669,73.9956651 720.611666,73.6060024 720.789,73.13 L722.063,73.9 C721.736332,74.6093369 721.279003,75.1646647 720.691,75.566 C720.102997,75.9673353 719.384338,76.168 718.535,76.168 Z M729.749,71.744 L725.325,71.744 L725.325,76 L723.743,76 L723.743,66.228 L725.325,66.228 L725.325,70.344 L729.749,70.344 L729.749,66.228 L731.331,66.228 L731.331,76 L729.749,76 L729.749,71.744 Z M739.843,76 L738.961,73.354 L735.307,73.354 L734.453,76 L732.843,76 L736.175,66.228 L738.163,66.228 L741.495,76 L739.843,76 Z M737.169,67.684 L737.099,67.684 L735.685,71.996 L738.569,71.996 L737.169,67.684 Z M742.587,76 L742.587,74.712 L743.917,74.712 L743.917,67.516 L742.587,67.516 L742.587,66.228 L746.843,66.228 L746.843,67.516 L745.499,67.516 L745.499,74.712 L746.843,74.712 L746.843,76 L742.587,76 Z M751.463,70.596 L750.385,68.524 L750.343,68.524 L750.343,76 L748.831,76 L748.831,66.228 L750.595,66.228 L753.787,71.632 L754.865,73.704 L754.907,73.704 L754.907,66.228 L756.419,66.228 L756.419,76 L754.655,76 L751.463,70.596 Z"/>
  </g>
</svg>
