<svg xmlns="http://www.w3.org/2000/svg" width="35" height="38" viewBox="0 0 35 38">
    <defs>
        <filter id="a" width="225%" height="229.6%" x="-62.5%" y="-64.8%" filterUnits="objectBoundingBox">
            <feOffset dx="2" dy="3" in="SourceAlpha" result="shadowOffsetOuter1"/>
            <feGaussianBlur in="shadowOffsetOuter1" result="shadowBlurOuter1" stdDeviation="3"/>
            <feColorMatrix in="shadowBlurOuter1" result="shadowMatrixOuter1" values="0 0 0 0 0.310907684 0 0 0 0 0.405301367 0 0 0 0 0.520493659 0 0 0 0.35 0"/>
            <feMerge>
                <feMergeNode in="shadowMatrixOuter1"/>
                <feMergeNode in="SourceGraphic"/>
            </feMerge>
        </filter>
    </defs>
    <g fill="none" fill-rule="evenodd" filter="url(#a)" transform="rotate(-73 17.027 13.649)">
        <path fill="#D5DFEB" d="M.858 15.975l13-7.365-1.565-.86L5.06 4.974z"/>
        <path fill="#D5DFEB" d="M8.429 9.862l-6.986 6.026 6.986-.453 5.315-1.795.699-4.752z"/>
        <path fill="#E5ECF4" d="M16.564.086L5.656 4.774l6.811 2.527 1.473.785 2.716-.785zM23.39 21.241l4.45-9.388-7.044-1.59L13.84 9.24z"/>
        <path fill="#F4F7FB" d="M16.219 7.967l-2.62.822 6.84 1.09 7.16 1.525-11.356-11z"/>
        <path fill="#BFD0E6" d="M10.582 17.877l.677 8.173 12.323-5.012L12.75 14.05z"/>
        <path fill="#CBD8EA" d="M8.345 15.696l-6.247.475 9.646 9.642.69-8.236.664-3.764z"/>
        <path fill="#CBD8EA" d="M13.328 9.162l-.649 4.982 3.327 3.76 6.673 3.258-2.54-5.137z"/>
    </g>
</svg>
