<svg width="13" height="13" xmlns="http://www.w3.org/2000/svg"><path d="M6.326.088A.42.42 0 0 1 6.587 0c.097 0 .174.03.232.088l6.065 6.177A.28.28 0 0 1 13 6.5a.28.28 0 0 1-.116.235l-6.065 6.177a.311.311 0 0 1-.232.088.42.42 0 0 1-.261-.088l-.58-.588a.32.32 0 0 1-.088-.236c0-.098.03-.186.088-.264l4.497-4.56H.348a.334.334 0 0 1-.246-.102.343.343 0 0 1-.102-.25v-.824c0-.098.034-.181.102-.25a.334.334 0 0 1 .246-.103h9.895L5.746 1.176a.434.434 0 0 1-.088-.264.32.32 0 0 1 .088-.236l.58-.588z" fill="#17054B"/></svg>