<svg width="13" height="13" xmlns="http://www.w3.org/2000/svg"><path d="M6.674.088A.42.42 0 0 0 6.413 0a.311.311 0 0 0-.232.088L.116 6.265A.28.28 0 0 0 0 6.5a.28.28 0 0 0 .116.235l6.065 6.177a.311.311 0 0 0 .232.088.42.42 0 0 0 .261-.088l.58-.588a.32.32 0 0 0 .088-.236.434.434 0 0 0-.088-.264l-4.497-4.56h9.895a.334.334 0 0 0 .246-.102.343.343 0 0 0 .102-.25v-.824a.343.343 0 0 0-.102-.25.334.334 0 0 0-.246-.103H2.757l4.497-4.559a.434.434 0 0 0 .088-.264.32.32 0 0 0-.088-.236l-.58-.588z" fill="#17054B"/></svg>