<svg viewBox="0 0 40 40" xmlns="http://www.w3.org/2000/svg"><path d="M.5 5.5h39v29H.5z" fill="#f78f8f"/><path d="M39 6v28H1V6zm1-1H0v30h40z" fill="#c74343"/><path d="M9 11l1.272 4.039h4.113l-3.328 2.291 1.271 3.913L9 18.824l-3.328 2.419 1.271-3.913-3.328-2.291h4.113zm7.5-2l.464.988 1.036.158-.75.769.177 1.085-.927-.512-.927.512.177-1.085-.75-.769 1.036-.158zm0 13l.464.988 1.036.158-.75.769.177 1.085-.927-.512-.927.512.177-1.085-.75-.769 1.036-.158zm4-9l.464.988 1.036.158-.75.769.177 1.085-.927-.512-.927.512.177-1.085-.75-.769 1.036-.158zm.036 5.012L21 19l1.036.158-.75.769.178 1.085-.928-.512-.927.512.177-1.085-.75-.769L20.073 19z" fill="#ffeea3"/></svg>