<svg xmlns="http://www.w3.org/2000/svg" viewBox="0 0 60 60" data-shift="xy" preserveAspectRatio="xMinYMin meet" style="left:0;top:0"><g class="lievo-setrotation"><g class="lievo-setsharp"><g class="lievo-setflip"><g class="lievo-main"><g class="lievo-common"><path fill="none" stroke="#fff" stroke-width="2" stroke-linecap="square" stroke-miterlimit="10" d="M30 16C17.85 16 8 25.85 8 38c0 2.08.3 4.09.84 6h42.33c.54-1.91.83-3.92.83-6 0-12.15-9.85-22-22-22z"/><path class="lievo-solidbg" fill="none" stroke="#fff" stroke-width="2" stroke-linecap="square" stroke-miterlimit="10" d="M12 38h2m-.63-6.89l.92.39m2.98-6.23l1.42 1.42m4.42-5.32l.38.92M30 20v2m6.89-.63l-.38.92m6.22 2.98l-1.42 1.41"/><path class="lievo-altstroke lievo-solidbg" fill="none" stroke="#fff" stroke-width="2" stroke-linecap="square" stroke-miterlimit="10" d="M46.63 31.11l-.92.38M48 38h-2"/><path class="lievo-savelinecap lievo-solidbg" fill="none" stroke="#fff" stroke-width="2" stroke-linecap="round" stroke-linejoin="round" stroke-miterlimit="10" d="M30.83 38.56c-.31.46-.93.58-1.39.27-.46-.31-9.39-7.54-9.39-7.54s10.05 5.57 10.51 5.88c.46.31.58.93.27 1.39z"/></g></g></g></g></g></svg>