<svg preserveAspectRatio="xMinYMin meet" viewBox="0 0 60 60" xmlns="http://www.w3.org/2000/svg"><g stroke-miterlimit="10" fill="none" stroke="#fff" stroke-width="2"><path d="M30 16C17.85 16 8 25.85 8 38c0 2.08.3 4.09.84 6h42.33c.54-1.91.83-3.92.83-6 0-12.15-9.85-22-22-22zM12 38h2m-.63-6.89l.92.39m2.98-6.23l1.42 1.42m4.42-5.32l.38.92M30 20v2m6.89-.63l-.38.92m6.22 2.98l-1.42 1.41m5.32 4.43l-.92.38M48 38h-2" stroke-linecap="square"/><path d="M30.83 38.56c-.31.46-.93.58-1.39.27s-9.39-7.54-9.39-7.54 10.05 5.57 10.51 5.88.58.93.27 1.39z" stroke-linecap="round" stroke-linejoin="round"/></g></svg>