<svg viewBox="0 0 40 40" xmlns="http://www.w3.org/2000/svg"><path d="M.5 6.5h39v27H.5z" fill="#8bb7f0"/><path d="M39 7v26H1V7zm1-1H0v28h40z" fill="#4e7ab5"/><g fill="#fff"><path d="M0 9.794l18.657 12.447 2.655-4.607L3.91 6H0z"/><path d="M40 6h-3.062L19.537 17.633l2.654 4.608L40 10.343z"/><path d="M22.191 17.044l-2.654 4.608L38.041 34H40v-5.059z"/><path d="M0 29.492V34h3l18.312-12.347-2.654-4.609z"/><path d="M1 17h38v6H1z"/><path d="M17 7h6v26h-6z"/></g><path d="M17 6h6v1h-6zm0 27h6v1h-6zm22-16h1v6h-1zM0 17h1v6H0z" fill="#a3b7cc"/><path d="M18.5 33.5v-12H.5v-3h18v-12h3v12h18v3h-18v12z" fill="#f78f8f"/><path d="M21 7v12h18v2H21v12h-2V21H1v-2h18V7zm1-1h-4v12H0v4h18v12h4V22h18v-4H22z" fill="#c74343"/><path d="M36.938 6l-1.496 1H39v4.011l1-.668V6z" fill="#a3b7cc"/><path d="M40 6h-1L23 17h2.465L40 7z" fill="#c74343"/><path d="M0 9.794l1 .668V7h4.406L3.91 6H0z" fill="#a3b7cc"/><path d="M0 7v1.651L12.485 17H15z" fill="#c74343"/><path d="M1 33v-4.175l-1 .667V34h3l1.483-1z" fill="#a3b7cc"/><path d="M17 23h-2.465L0 33v1h1z" fill="#c74343"/><path d="M40 28.941l-1-.668V33h-2.458l1.499 1H40z" fill="#a3b7cc"/><path d="M40 30.264L29.592 23H27l13 9z" fill="#c74343"/></svg>