<svg preserveAspectRatio="xMinYMin meet" viewBox="0 0 60 60" xmlns="http://www.w3.org/2000/svg"><mask id="a"><circle cx="30" cy="30" fill="#fff" r="23.9"/></mask><g fill="none"><circle cx="30" cy="30" r="24" transform="rotate(-90 30 30)"/><g stroke="#804bc9" stroke-width="2" stroke-linecap="square" stroke-miterlimit="10"><g mask="url(#a)"><path d="M8 20h44M6 30h50M8 40h44M30 55C16.19 55 5 43.81 5 30S16.19 5 30 5"/><path d="M29.95 55C21.85 50.08 16 40.17 16 30S21.85 9.92 29.95 5M30 55V5m0 50c8.1-4.92 14-14.83 14-25S38.1 9.92 30 5"/></g><circle cx="30" cy="30" r="24" transform="rotate(-90 30 30)"/></g></g></svg>