<svg width="17" height="15" xmlns="http://www.w3.org/2000/svg"><path d="M16.545 2.234H.455a.429.429 0 0 1-.322-.14A.474.474 0 0 1 0 1.755V.48C0 .346.044.233.133.139A.429.429 0 0 1 .455 0h16.09c.126 0 .234.047.322.14A.474.474 0 0 1 17 .479v1.276a.474.474 0 0 1-.133.34.429.429 0 0 1-.322.139zm0 6.383H.455a.429.429 0 0 1-.322-.14A.474.474 0 0 1 0 8.138V6.862c0-.133.044-.246.133-.34a.429.429 0 0 1 .322-.139h16.09c.126 0 .234.047.322.14a.474.474 0 0 1 .133.339v1.276a.474.474 0 0 1-.133.34.429.429 0 0 1-.322.139zm0 6.383H.455a.429.429 0 0 1-.322-.14.474.474 0 0 1-.133-.339v-1.276c0-.133.044-.246.133-.34a.429.429 0 0 1 .322-.139h16.09c.126 0 .234.046.322.14a.474.474 0 0 1 .133.339v1.276a.474.474 0 0 1-.133.34.429.429 0 0 1-.322.139z" fill="#17054B"/></svg>