<svg preserveAspectRatio="xMinYMin meet" viewBox="0 0 60 60" xmlns="http://www.w3.org/2000/svg"><g stroke-miterlimit="10" fill="none" stroke="#fff" stroke-width="2"><path d="M35.44 27.38L15.32 50.33c-.75.86-2.02.9-2.82.09L9.58 47.5c-.81-.81-.76-2.07.09-2.82l22.94-20.12"/><path d="M39.69 31.63L28.37 20.31m7.07-7.07l11.32 11.32M36.08 8.23l.78.77c.78.78.78 2.05 0 2.83l-9.9 9.9c-.78.78-2.05.78-2.83 0l-1.41-1.41c-.78-.78-.78-2.05 0-2.83l9.9-9.9c.78-.78 2.05-.78 2.83 0zm15.6 15.59l.74.74c.78.78.78 2.05 0 2.83l-9.9 9.9c-.78.78-2.05.78-2.83 0l-1.41-1.41c-.78-.78-.78-2.05 0-2.83l9.9-9.9c.78-.78 2.05-.78 2.83 0z" stroke-linecap="square"/></g></svg>