<svg xmlns="http://www.w3.org/2000/svg" viewBox="0 0 60 60" style="left:0;top:0"><g class="lievo-setrotation"><g class="lievo-setsharp"><g class="lievo-setflip"><g class="lievo-main"><g class="lievo-lineicon"><path class="lievo-savelinecap lievo-altstroke" fill="none" stroke="#804bc9" stroke-width="2" stroke-miterlimit="10" d="M35.44 27.38L15.32 50.33c-.75.86-2.02.9-2.82.09L9.58 47.5c-.81-.81-.76-2.07.09-2.82l22.94-20.12"/><path class="lievo-savelinecap" fill="none" stroke="#804bc9" stroke-width="2" stroke-linecap="square" stroke-miterlimit="10" d="M39.69 31.63L28.37 20.31m7.07-7.07l11.32 11.32"/><path fill="none" stroke="#804bc9" stroke-width="2" stroke-linecap="square" stroke-miterlimit="10" d="M36.08 8.23l.78.77c.78.78.78 2.05 0 2.83l-9.9 9.9c-.78.78-2.05.78-2.83 0l-1.41-1.41c-.78-.78-.78-2.05 0-2.83l9.9-9.9c.78-.78 2.05-.78 2.83 0l.63.64zm15.6 15.59l.74.74c.78.78.78 2.05 0 2.83l-9.9 9.9c-.78.78-2.05.78-2.83 0l-1.41-1.41c-.78-.78-.78-2.05 0-2.83l9.9-9.9c.78-.78 2.05-.78 2.83 0l.67.67z"/></g></g></g></g></g></svg>