<svg width="21" height="21" xmlns="http://www.w3.org/2000/svg"><path d="M8.193 12.596a1.05 1.05 0 01-1.055-1.042c0-.584.47-1.054 1.055-1.054.575 0 1.041.47 1.041 1.054 0 .576-.47 1.042-1.041 1.042zM21 10.5C21 16.3 16.3 21 10.5 21S0 16.3 0 10.5 4.7 0 10.5 0 21 4.7 21 10.5zm-5.601-1.744c-.398 0-.75.165-1.008.423-.948-.656-2.227-1.08-3.645-1.126l.736-3.315 2.346.529c0 .576.47 1.041 1.041 1.041.585 0 1.055-.478 1.055-1.054 0-.576-.47-1.054-1.055-1.054-.41 0-.762.246-.935.584l-2.591-.576c-.127-.033-.259.06-.293.187l-.808 3.658c-1.406.06-2.672.478-3.62 1.134a1.403 1.403 0 00-1.02-.431c-1.478 0-1.96 1.985-.61 2.658a3.054 3.054 0 00-.072.657c0 2.227 2.506 4.03 5.588 4.03 3.095 0 5.602-1.803 5.602-4.03 0-.225-.026-.457-.08-.67 1.325-.677.838-2.645-.631-2.645zm-2.918 4.92a.256.256 0 01.352 0c.106.105.106.27 0 .363-.97.966-3.7.966-4.666 0-.106-.093-.106-.258 0-.364a.256.256 0 01.352 0c.74.758 3.192.771 3.962 0zm.326-3.176a1.049 1.049 0 11-1.042 1.054c0-.584.467-1.054 1.042-1.054z" fill="#95A7BF"/></svg>