<svg preserveAspectRatio="xMinYMin meet" viewBox="0 0 60 60" xmlns="http://www.w3.org/2000/svg"><g stroke-miterlimit="10" fill="none" stroke-linecap="round" stroke-linejoin="round" stroke="#804bc9" stroke-width="2"><path d="M37.88 36.88s.7.48 1.56 1.06S41 39.9 41 41v12s-4-7-6.76-7.72m-14.11-8.4s-.7.48-1.56 1.06S17 39.9 17 41v12s4-7 6.76-7.72"/><path d="M29 45c1.37 0 2.61.55 3.52 1.45C35.74 43.46 39 36.46 39 27.98 39 16.66 30 7 29 7s-10 9.66-10 20.98c0 8.48 3.26 15.49 6.48 18.47.91-.9 2.15-1.45 3.52-1.45zm0-8v16"/><circle cx="29" cy="23" r="4"/></g></svg>