<svg preserveAspectRatio="xMinYMin meet" viewBox="0 0 60 60" xmlns="http://www.w3.org/2000/svg"><g fill="none"><path d="M31 9h12l8 6v34c0 1.1-.9 2-2 2H11c-1.1 0-2-.9-2-2V11c0-1.1.9-2 2-2z"/><path d="M17 51V35h26v16M21 9v14h20V9" stroke="#fff" stroke-miterlimit="10" stroke-width="2"/></g><path d="M34 12h4v8h-4z" fill="#fff"/><path d="M31 9h12l8 6v34c0 1.1-.9 2-2 2H11c-1.1 0-2-.9-2-2V11c0-1.1.9-2 2-2z" fill="none" stroke="#fff" stroke-linecap="square" stroke-miterlimit="10" stroke-width="2"/></svg>