<svg preserveAspectRatio="xMinYMin meet" viewBox="0 0 60 60" xmlns="http://www.w3.org/2000/svg"><g stroke-linecap="square" stroke="#fff" stroke-width="2"><path d="M30 7c-5 5.5-8.83 5.97-15 6-1.1.01-2 .92-2 2.03V37c0 7.14 6.91 9.78 17 16 9.44-5.82 17-8.77 17-16V15.03c0-1.1-.9-2.02-2-2.03-6.17-.03-10-.5-15-6z" fill="none" stroke-miterlimit="2"/><path d="M30 15.37c3.54 2.53 7.54 3.29 11 3.52V37c0 2.66-3.68 4.69-10.99 9C21.93 41.21 19 39.58 19 37V18.89c3.46-.24 7.46-1 11-3.52z" fill="none" stroke-miterlimit="2"/><path d="M83.09 13.67l-3.09.2-2 .13 1.81-.89 2.76-1.37zm-.26-.96L128.23.55" fill="#fff" stroke-miterlimit="10"/></g></svg>