<svg xmlns="http://www.w3.org/2000/svg" viewBox="0 0 60 60" data-animoptions="{'duration':'1.5', 'repeat':'0', 'repeatDelay':'0.5'}" preserveAspectRatio="xMinYMin meet" style="left:0;top:0"><g class="lievo-setrotation"><g class="lievo-setsharp"><g class="lievo-setflip"><g class="lievo-main"><g class="lievo-filledicon lievo-lineicon"><path fill="none" stroke="#804bc9" stroke-width="2" stroke-linecap="square" stroke-miterlimit="2" d="M30 7c-5 5.5-8.83 5.97-15 6-1.1.01-2 .92-2 2.03V37c0 7.14 6.91 9.78 17 16 9.44-5.82 17-8.77 17-16V15.03c0-1.1-.9-2.02-2-2.03-6.17-.03-10-.5-15-6z"/><path class="lievo-altstroke" fill="none" stroke="#804bc9" stroke-width="2" stroke-linecap="square" stroke-miterlimit="2" d="M30 15.37c3.54 2.53 7.54 3.29 11 3.52V37c0 2.66-3.68 4.69-10.99 9C21.93 41.21 19 39.58 19 37V18.89c3.46-.24 7.46-1 11-3.52z"/><path class="lievo-savelinecap lievo-likestroke" fill="#804bc9" stroke="#804bc9" stroke-width="2" stroke-linecap="square" stroke-miterlimit="10" d="M83.09 13.67l-3.09.2-2 .13 1.81-.89 2.76-1.37.52 1.93zm-.26-.96L128.23.55"/></g></g></g></g></g></svg>