<svg preserveAspectRatio="xMinYMin meet" viewBox="0 0 60 60" xmlns="http://www.w3.org/2000/svg"><clipPath id="a"><path d="M17 13h26v32H17z"/></clipPath><clipPath id="b"><path d="M43 48H17V7h26v38.95z"/></clipPath><g clip-path="url(#a)"><path d="M59.5 16h3c.28 0 .5.22.5.5v3c0 .28-.22.5-.5.5h-3c-.28 0-.5-.22-.5-.5v-3c0-.28.22-.5.5-.5zm-7 0h3c.28 0 .5.22.5.5v3c0 .28-.22.5-.5.5h-3c-.28 0-.5-.22-.5-.5v-3c0-.28.22-.5.5-.5zm-7 0h3c.28 0 .5.22.5.5v3c0 .28-.22.5-.5.5h-3c-.28 0-.5-.22-.5-.5v-3c0-.28.22-.5.5-.5zm14 21h3c.28 0 .5.22.5.5v3c0 .28-.22.5-.5.5h-3c-.28 0-.5-.22-.5-.5v-3c0-.28.22-.5.5-.5zm-7 0h3c.28 0 .5.22.5.5v3c0 .28-.22.5-.5.5h-3c-.28 0-.5-.22-.5-.5v-3c0-.28.22-.5.5-.5zm-7 0h3c.28 0 .5.22.5.5v3c0 .28-.22.5-.5.5h-3c-.28 0-.5-.22-.5-.5v-3c0-.28.22-.5.5-.5zm14-7h3c.28 0 .5.22.5.5v3c0 .28-.22.5-.5.5h-3c-.28 0-.5-.22-.5-.5v-3c0-.28.22-.5.5-.5zm-7 0h3c.28 0 .5.22.5.5v3c0 .28-.22.5-.5.5h-3c-.28 0-.5-.22-.5-.5v-3c0-.28.22-.5.5-.5zm-7 0h3c.28 0 .5.22.5.5v3c0 .28-.22.5-.5.5h-3c-.28 0-.5-.22-.5-.5v-3c0-.28.22-.5.5-.5zm14-7h3c.28 0 .5.22.5.5v3c0 .28-.22.5-.5.5h-3c-.28 0-.5-.22-.5-.5v-3c0-.28.22-.5.5-.5zm-7 0h3c.28 0 .5.22.5.5v3c0 .28-.22.5-.5.5h-3c-.28 0-.5-.22-.5-.5v-3c0-.28.22-.5.5-.5zm-7 0h3c.28 0 .5.22.5.5v3c0 .28-.22.5-.5.5h-3c-.28 0-.5-.22-.5-.5v-3c0-.28.22-.5.5-.5z" fill="#fff"/></g><circle cx="30" cy="49" fill="#fff" r="2"/><g clip-path="url(#b)"><path d="M15 13h30v32H15z" fill="none" stroke="#fff" stroke-linecap="square" stroke-miterlimit="10" stroke-width="2"/></g><path d="M41 53H19c-1.1 0-2-.9-2-2V9c0-1.1.9-2 2-2h22c1.1 0 2 .9 2 2v42c0 1.1-.9 2-2 2zM27 10h6" fill="none" stroke="#fff" stroke-linecap="square" stroke-miterlimit="10" stroke-width="2"/></svg>