<svg xmlns="http://www.w3.org/2000/svg" viewBox="0 0 40 40"><path fill="#F78F8F" d="M.5 5.5h39v29H.5z"/><path d="M39 6v28H1V6h38m1-1H0v30h40V5z" fill="#C74343"/><path fill="#FFF" d="M19.011 18.674L19 16l1.579 2.157 2.541-.832-1.565 2.166 1.58 2.158-2.545-.818L19.026 23l-.01-2.674-2.546-.815z"/><path d="M16.352 27.059C12.454 27.059 9 23.896 9 20c0-3.9 3.454-7.059 7.352-7.059.634 0 1.244.09 1.828.246A7.947 7.947 0 0 0 14 12a8 8 0 0 0 0 16 7.947 7.947 0 0 0 4.181-1.191c-.584.16-1.195.25-1.829.25z" fill="#FFF"/></svg>