<svg xmlns="http://www.w3.org/2000/svg" width="120" height="117"><defs><filter id="a" width="160.2%" height="162.1%" x="-30.1%" y="-31.1%" filterUnits="objectBoundingBox"><feOffset dx="2" dy="3" in="SourceAlpha" result="shadowOffsetOuter1"/><feGaussianBlur in="shadowOffsetOuter1" result="shadowBlurOuter1" stdDeviation="6"/><feColorMatrix in="shadowBlurOuter1" result="shadowMatrixOuter1" values="0 0 0 0 0.310907684 0 0 0 0 0.405301367 0 0 0 0 0.520493659 0 0 0 0.35 0"/><feMerge><feMergeNode in="shadowMatrixOuter1"/><feMergeNode in="SourceGraphic"/></feMerge></filter></defs><g fill="none" fill-rule="evenodd" filter="url(#a)" transform="translate(9 8)"><path fill="#D5DFEB" d="M0 59.495l46.118-27.306-5.551-3.192-25.665-10.285z"/><path fill="#D5DFEB" d="M24.783 35.954L0 59.494l24.783-1.768 18.858-7.012 2.477-18.568z"/><path fill="#E5ECF4" d="M55.862 0l-40.97 19.122 25.583 10.306 5.533 3.198 10.198-3.198z"/><path fill="#E5ECF4" d="M81.505 76.768L98 41.858l-26.106-5.914-25.776-3.798z"/><path fill="#F4F7FB" d="M55.824 29.03l-9.706 3.155 25.343 4.188L98 42.223 55.914 0z"/><path fill="#BFD0E6" d="M35.549 64.935L37.951 95l43.716-18.437L43.235 50.86z"/><path fill="#CBD8EA" d="M24.553 57.786L0 59.534 37.913 95l2.708-30.296 2.614-13.845zm21.143-25.64l-2.46 18.523 12.627 13.984 25.323 12.115-9.639-19.102z"/></g></svg>